<?xml version="1.0" encoding="UTF-8" standalone="no"?>
<!-- Created with Inkscape (http://www.inkscape.org/) -->

<svg
   version="1.1"
   id="svg2"
   width="148.09277"
   height="148.33459"
   viewBox="0 0 148.09277 148.33459"
   sodipodi:docname="Sustainable_Development_Goals.svg"
   inkscape:version="0.92.3 (2405546, 2018-03-11)"
   inkscape:export-filename="sdg_1.svg"
   inkscape:export-xdpi="96"
   inkscape:export-ydpi="96"
   xmlns:inkscape="http://www.inkscape.org/namespaces/inkscape"
   xmlns:sodipodi="http://sodipodi.sourceforge.net/DTD/sodipodi-0.dtd"
   xmlns="http://www.w3.org/2000/svg"
   xmlns:svg="http://www.w3.org/2000/svg"
   xmlns:rdf="http://www.w3.org/1999/02/22-rdf-syntax-ns#"
   xmlns:cc="http://creativecommons.org/ns#"
   xmlns:dc="http://purl.org/dc/elements/1.1/">
  <metadata
     id="metadata8">
    <rdf:RDF>
      <cc:Work
         rdf:about="">
        <dc:format>image/svg+xml</dc:format>
        <dc:type
           rdf:resource="http://purl.org/dc/dcmitype/StillImage" />
        <dc:title />
      </cc:Work>
    </rdf:RDF>
  </metadata>
  <defs
     id="defs6" />
  <sodipodi:namedview
     pagecolor="#ffffff"
     bordercolor="#666666"
     borderopacity="1"
     objecttolerance="10"
     gridtolerance="10"
     guidetolerance="10"
     inkscape:pageopacity="0"
     inkscape:pageshadow="2"
     inkscape:window-width="1920"
     inkscape:window-height="1061"
     id="namedview4"
     showgrid="false"
     inkscape:zoom="1.0772059"
     inkscape:cx="528"
     inkscape:cy="408"
     inkscape:window-x="1920"
     inkscape:window-y="0"
     inkscape:window-maximized="1"
     inkscape:current-layer="svg2"
     showguides="true"
     inkscape:guide-bbox="true"
     inkscape:snap-global="true"
     inkscape:snap-center="true"
     inkscape:snap-object-midpoints="true"
     inkscape:snap-bbox="true"
     inkscape:snap-bbox-midpoints="true"
     inkscape:showpageshadow="2"
     inkscape:pagecheckerboard="0"
     inkscape:deskcolor="#d1d1d1" />
  <path
     style="opacity:1;fill:#f99d26;fill-opacity:1;fill-rule:evenodd;stroke:none;stroke-width:4;stroke-linecap:round;stroke-linejoin:round;stroke-miterlimit:4;stroke-dasharray:none;stroke-dashoffset:0;stroke-opacity:1"
     d="M 0.82675447,-2.5195312e-6 H 147.266 c 0.45802,0 0.82675,0.3687299995312 0.82675,0.8267599995312 V 147.50783 c 0,0.45802 -0.36873,0.82675 -0.82675,0.82675 H 0.82675447 c -0.45802,0 -0.8267499973437,-0.36873 -0.8267499973437,-0.82675 V 0.82675748 C 4.4726563e-6,0.36872748 0.36873447,-2.5195312e-6 0.82675447,-2.5195312e-6 Z"
     id="rect8528-63-2-4-3-6" />
  <style
     id="style970"
     type="text/css">
	.st0{fill:#418FDE;}
</style>
  <g
     aria-label="SUSTAINABLE CITIES AND COMMUNITIES"
     style="font-style:normal;font-variant:normal;font-weight:normal;font-stretch:normal;font-size:18.6667px;line-height:0.92;font-family:'Roadgeek 2005 Series B';-inkscape-font-specification:'Roadgeek 2005 Series B';letter-spacing:0px;word-spacing:0px;fill:#ffffff;fill-opacity:1;stroke:none"
     id="text6065-3-2-9-6-6-5-0-0-8-8"
     transform="translate(-701.81342,-389.72833)">
    <path
       d="m 744.47099,411.84513 q 0,0.18667 0,0.31733 0,0.13067 0.0187,0.224 0.0373,0.18667 0.28,0.54134 0.26134,0.37333 0.93334,0.37333 0.37333,0 0.69066,-0.14933 0.31734,-0.168 0.46667,-0.42934 0.112,-0.20533 0.13067,-0.392 0.0373,-0.18666 0.0373,-0.336 v -0.168 -0.87733 -0.168 q 0,-0.41067 -0.14933,-0.63467 -0.14934,-0.24266 -0.672,-0.54133 -0.35467,-0.18667 -1.26934,-0.52267 -0.91466,-0.336 -1.53066,-1.064 -0.616,-0.728 -0.616,-1.97866 v -0.56 q 0,-1.288 0.85866,-2.20267 0.87734,-0.93333 2.128,-0.93333 1.30667,0 2.16534,0.91466 0.87733,0.91467 0.87733,2.22134 v 0.56 h -1.792 v -0.56 q 0,-0.13067 -0.0187,-0.24267 0,-0.112 -0.0187,-0.20533 -0.0187,-0.0933 -0.0933,-0.224 -0.0747,-0.13067 -0.20533,-0.31734 -0.26133,-0.37333 -0.87733,-0.37333 -0.54134,0 -0.896,0.392 -0.336,0.392 -0.336,0.97067 v 0.56 0.168 q 0,0.37333 0.112,0.59733 0.13066,0.20533 0.59733,0.46667 0.14933,0.0747 0.448,0.20533 0.31733,0.112 0.76533,0.28 0.896,0.29867 1.60534,1.064 0.70933,0.76533 0.70933,2.016 v 1.008 q 0,0.65333 -0.13067,1.10133 -0.112,0.448 -0.76533,1.30667 -0.65333,0.82133 -2.184,0.82133 -1.624,0 -2.352,-1.04533 -0.728,-1.064 -0.728,-2.184 v -0.448 h 1.81067 z"
       style="font-style:normal;font-variant:normal;font-weight:normal;font-stretch:normal;line-height:0.92;font-family:'Roadgeek 2005 Engschrift';-inkscape-font-specification:'Roadgeek 2005 Engschrift';fill:#ffffff;stroke:none"
       id="path2318" />
    <path
       d="m 755.45163,413.6558 q -0.41066,0.63466 -1.064,1.02666 -0.63466,0.392 -1.41866,0.392 -0.392,0 -0.784,-0.112 -0.37334,-0.112 -0.70934,-0.28 -0.336,-0.18666 -0.59733,-0.41066 -0.26133,-0.24267 -0.392,-0.504 -0.28,-0.52267 -0.37333,-0.91467 -0.0747,-0.392 -0.0747,-0.84 v -9.55733 h 1.792 v 9.55733 q 0,0.13067 0,0.24267 0.0187,0.0933 0.0373,0.18666 0.0187,0.14934 0.28,0.52267 0.24267,0.336 0.84,0.336 0.54134,0 0.80267,-0.392 0.28,-0.41067 0.28,-0.896 v -9.55733 h 1.792 v 9.55733 q 0,0.448 -0.0933,0.85867 -0.0933,0.41066 -0.31734,0.784 z"
       style="font-style:normal;font-variant:normal;font-weight:normal;font-stretch:normal;line-height:0.92;font-family:'Roadgeek 2005 Engschrift';-inkscape-font-specification:'Roadgeek 2005 Engschrift';fill:#ffffff;stroke:none"
       id="path2320" />
    <path
       d="m 758.48853,411.84513 q 0,0.18667 0,0.31733 0,0.13067 0.0187,0.224 0.0373,0.18667 0.28,0.54134 0.26134,0.37333 0.93334,0.37333 0.37333,0 0.69066,-0.14933 0.31734,-0.168 0.46667,-0.42934 0.112,-0.20533 0.13067,-0.392 0.0373,-0.18666 0.0373,-0.336 v -0.168 -0.87733 -0.168 q 0,-0.41067 -0.14933,-0.63467 -0.14934,-0.24266 -0.672,-0.54133 -0.35467,-0.18667 -1.26934,-0.52267 -0.91466,-0.336 -1.53066,-1.064 -0.616,-0.728 -0.616,-1.97866 v -0.56 q 0,-1.288 0.85866,-2.20267 0.87734,-0.93333 2.128,-0.93333 1.30667,0 2.16534,0.91466 0.87733,0.91467 0.87733,2.22134 v 0.56 h -1.792 v -0.56 q 0,-0.13067 -0.0187,-0.24267 0,-0.112 -0.0187,-0.20533 -0.0187,-0.0933 -0.0933,-0.224 -0.0747,-0.13067 -0.20533,-0.31734 -0.26133,-0.37333 -0.87733,-0.37333 -0.54134,0 -0.896,0.392 -0.336,0.392 -0.336,0.97067 v 0.56 0.168 q 0,0.37333 0.112,0.59733 0.13066,0.20533 0.59733,0.46667 0.14933,0.0747 0.448,0.20533 0.31733,0.112 0.76533,0.28 0.896,0.29867 1.60534,1.064 0.70933,0.76533 0.70933,2.016 v 1.008 q 0,0.65333 -0.13067,1.10133 -0.112,0.448 -0.76533,1.30667 -0.65333,0.82133 -2.184,0.82133 -1.624,0 -2.352,-1.04533 -0.728,-1.064 -0.728,-2.184 v -0.448 h 1.81067 z"
       style="font-style:normal;font-variant:normal;font-weight:normal;font-stretch:normal;line-height:0.92;font-family:'Roadgeek 2005 Engschrift';-inkscape-font-specification:'Roadgeek 2005 Engschrift';fill:#ffffff;stroke:none"
       id="path2322" />
    <path
       d="m 765.25146,414.96246 v -10.84533 h -2.10933 v -1.66133 h 6.02933 v 1.66133 h -2.14666 v 10.84533 z"
       style="font-style:normal;font-variant:normal;font-weight:normal;font-stretch:normal;line-height:0.92;font-family:'Roadgeek 2005 Engschrift';-inkscape-font-specification:'Roadgeek 2005 Engschrift';fill:#ffffff;stroke:none"
       id="path2324" />
    <path
       d="m 768.25254,414.96246 2.8,-12.50666 h 1.54934 l 2.8,12.50666 h -1.92267 l -0.504,-2.688 h -2.31467 l -0.52266,2.688 z m 2.72534,-4.34933 h 1.68 l -0.84,-4.55467 z"
       style="font-style:normal;font-variant:normal;font-weight:normal;font-stretch:normal;line-height:0.92;font-family:'Roadgeek 2005 Engschrift';-inkscape-font-specification:'Roadgeek 2005 Engschrift';fill:#ffffff;stroke:none"
       id="path2326" />
    <path
       d="M 776.31392,414.96246 V 402.4558 h 1.77333 v 12.50666 z"
       style="font-style:normal;font-variant:normal;font-weight:normal;font-stretch:normal;line-height:0.92;font-family:'Roadgeek 2005 Engschrift';-inkscape-font-specification:'Roadgeek 2005 Engschrift';fill:#ffffff;stroke:none"
       id="path2328" />
    <path
       d="m 784.00173,414.96246 -2.78133,-7.59733 v 7.59733 h -1.792 V 402.4558 h 1.69866 l 2.76267,7.57866 v -7.57866 h 1.792 v 12.50666 z"
       style="font-style:normal;font-variant:normal;font-weight:normal;font-stretch:normal;line-height:0.92;font-family:'Roadgeek 2005 Engschrift';-inkscape-font-specification:'Roadgeek 2005 Engschrift';fill:#ffffff;stroke:none"
       id="path2330" />
    <path
       d="m 785.95439,414.96246 2.8,-12.50666 h 1.54934 l 2.8,12.50666 h -1.92267 l -0.504,-2.688 h -2.31467 l -0.52266,2.688 z m 2.72534,-4.34933 h 1.68 l -0.84,-4.55467 z"
       style="font-style:normal;font-variant:normal;font-weight:normal;font-stretch:normal;line-height:0.92;font-family:'Roadgeek 2005 Engschrift';-inkscape-font-specification:'Roadgeek 2005 Engschrift';fill:#ffffff;stroke:none"
       id="path2332" />
    <path
       d="m 796.72339,402.4558 q 0.57867,0 1.08267,0.24266 0.56,0.26134 1.13867,0.84 0.616,0.59734 0.616,1.86667 v 0.952 q 0,1.43733 -1.13867,2.016 1.13867,0.672 1.13867,2.09067 v 1.456 q 0,1.32533 -0.85867,2.184 -0.84,0.85866 -2.16533,0.85866 h -2.76267 V 402.4558 Z m 1.064,3.71466 v -0.76533 q 0,-0.57867 -0.336,-0.91467 -0.336,-0.35466 -0.896,-0.35466 h -1.008 v 3.45333 h 1.064 q 0.616,0 0.896,-0.37333 0.28,-0.392 0.28,-1.04534 z m 0,5.74934 v -1.456 q 0,-0.59734 -0.336,-0.93334 -0.31733,-0.35466 -0.896,-0.35466 h -1.008 v 4.01333 h 1.02667 q 0.54133,0 0.87733,-0.35467 0.336,-0.37333 0.336,-0.91466 z"
       style="font-style:normal;font-variant:normal;font-weight:normal;font-stretch:normal;line-height:0.92;font-family:'Roadgeek 2005 Engschrift';-inkscape-font-specification:'Roadgeek 2005 Engschrift';fill:#ffffff;stroke:none"
       id="path2334" />
    <path
       d="m 805.83229,414.96246 h -5.33867 V 402.4558 h 1.792 v 10.71466 h 3.54667 z"
       style="font-style:normal;font-variant:normal;font-weight:normal;font-stretch:normal;line-height:0.92;font-family:'Roadgeek 2005 Engschrift';-inkscape-font-specification:'Roadgeek 2005 Engschrift';fill:#ffffff;stroke:none"
       id="path2336" />
    <path
       d="m 811.69464,413.17046 v 1.792 H 806.3373 V 402.4558 h 5.35734 v 1.64266 h -3.584 v 3.696 h 3.136 v 1.69867 h -3.136 v 3.67733 z"
       style="font-style:normal;font-variant:normal;font-weight:normal;font-stretch:normal;line-height:0.92;font-family:'Roadgeek 2005 Engschrift';-inkscape-font-specification:'Roadgeek 2005 Engschrift';fill:#ffffff;stroke:none"
       id="path2338" />
    <path
       d="m 819.79173,411.8078 q 0,0.59733 -0.0747,1.02666 -0.056,0.42934 -0.37334,0.93334 -0.168,0.26133 -0.42933,0.504 -0.24267,0.224 -0.56,0.41066 -0.29867,0.168 -0.65333,0.28 -0.35467,0.112 -0.69067,0.112 -0.84,0 -1.53067,-0.35466 -0.672,-0.35467 -0.98933,-0.896 -0.31733,-0.54134 -0.41067,-1.008 -0.0747,-0.46667 -0.0747,-1.008 v -6.44 q 0,-0.52267 0.0933,-0.93334 0.112,-0.42933 0.448,-0.91466 0.336,-0.48534 0.952,-0.82134 0.616,-0.35466 1.288,-0.35466 1.288,0 2.14667,0.85866 0.85866,0.84 0.85866,2.16534 v 0.672 h -1.77333 v -0.672 q 0,-0.52267 -0.29867,-0.87734 -0.28,-0.35466 -0.84,-0.35466 -0.52266,0 -0.82133,0.35466 -0.28,0.35467 -0.28,0.87734 v 6.92533 q 0.0373,0.28 0.26133,0.63467 0.26134,0.37333 0.85867,0.37333 0.63467,0 0.84,-0.336 0.20533,-0.336 0.24267,-0.48533 0.0373,-0.168 0.0373,-0.448 v -0.63467 h 1.77333 z"
       style="font-style:normal;font-variant:normal;font-weight:normal;font-stretch:normal;line-height:0.92;font-family:'Roadgeek 2005 Engschrift';-inkscape-font-specification:'Roadgeek 2005 Engschrift';fill:#ffffff;stroke:none"
       id="path2340" />
    <path
       d="M 820.8524,414.96246 V 402.4558 h 1.77334 v 12.50666 z"
       style="font-style:normal;font-variant:normal;font-weight:normal;font-stretch:normal;line-height:0.92;font-family:'Roadgeek 2005 Engschrift';-inkscape-font-specification:'Roadgeek 2005 Engschrift';fill:#ffffff;stroke:none"
       id="path2342" />
    <path
       d="m 825.52507,414.96246 v -10.84533 h -2.10934 v -1.66133 h 6.02934 v 1.66133 h -2.14667 v 10.84533 z"
       style="font-style:normal;font-variant:normal;font-weight:normal;font-stretch:normal;line-height:0.92;font-family:'Roadgeek 2005 Engschrift';-inkscape-font-specification:'Roadgeek 2005 Engschrift';fill:#ffffff;stroke:none"
       id="path2344" />
    <path
       d="M 830.20327,414.96246 V 402.4558 h 1.77333 v 12.50666 z"
       style="font-style:normal;font-variant:normal;font-weight:normal;font-stretch:normal;line-height:0.92;font-family:'Roadgeek 2005 Engschrift';-inkscape-font-specification:'Roadgeek 2005 Engschrift';fill:#ffffff;stroke:none"
       id="path2346" />
    <path
       d="m 838.31252,413.17046 v 1.792 h -5.35733 V 402.4558 h 5.35733 v 1.64266 h -3.584 v 3.696 h 3.136 v 1.69867 h -3.136 v 3.67733 z"
       style="font-style:normal;font-variant:normal;font-weight:normal;font-stretch:normal;line-height:0.92;font-family:'Roadgeek 2005 Engschrift';-inkscape-font-specification:'Roadgeek 2005 Engschrift';fill:#ffffff;stroke:none"
       id="path2348" />
    <path
       d="m 840.67625,411.84513 q 0,0.18667 0,0.31733 0,0.13067 0.0187,0.224 0.0373,0.18667 0.28,0.54134 0.26133,0.37333 0.93333,0.37333 0.37333,0 0.69067,-0.14933 0.31733,-0.168 0.46666,-0.42934 0.112,-0.20533 0.13067,-0.392 0.0373,-0.18666 0.0373,-0.336 v -0.168 -0.87733 -0.168 q 0,-0.41067 -0.14933,-0.63467 -0.14933,-0.24266 -0.672,-0.54133 -0.35467,-0.18667 -1.26933,-0.52267 -0.91467,-0.336 -1.53067,-1.064 -0.616,-0.728 -0.616,-1.97866 v -0.56 q 0,-1.288 0.85867,-2.20267 0.87733,-0.93333 2.128,-0.93333 1.30666,0 2.16533,0.91466 0.87733,0.91467 0.87733,2.22134 v 0.56 h -1.792 v -0.56 q 0,-0.13067 -0.0187,-0.24267 0,-0.112 -0.0187,-0.20533 -0.0187,-0.0933 -0.0933,-0.224 -0.0747,-0.13067 -0.20534,-0.31734 -0.26133,-0.37333 -0.87733,-0.37333 -0.54133,0 -0.896,0.392 -0.336,0.392 -0.336,0.97067 v 0.56 0.168 q 0,0.37333 0.112,0.59733 0.13067,0.20533 0.59733,0.46667 0.14934,0.0747 0.448,0.20533 0.31734,0.112 0.76534,0.28 0.896,0.29867 1.60533,1.064 0.70933,0.76533 0.70933,2.016 v 1.008 q 0,0.65333 -0.13066,1.10133 -0.112,0.448 -0.76534,1.30667 -0.65333,0.82133 -2.184,0.82133 -1.624,0 -2.352,-1.04533 -0.728,-1.064 -0.728,-2.184 v -0.448 h 1.81067 z"
       style="font-style:normal;font-variant:normal;font-weight:normal;font-stretch:normal;line-height:0.92;font-family:'Roadgeek 2005 Engschrift';-inkscape-font-specification:'Roadgeek 2005 Engschrift';fill:#ffffff;stroke:none"
       id="path2350" />
    <path
       d="m 742.67707,432.20944 2.8,-12.50667 h 1.54934 l 2.8,12.50667 h -1.92267 l -0.504,-2.688 h -2.31467 l -0.52266,2.688 z m 2.72534,-4.34933 h 1.68 l -0.84,-4.55467 z"
       style="font-style:normal;font-variant:normal;font-weight:normal;font-stretch:normal;line-height:0.92;font-family:'Roadgeek 2005 Engschrift';-inkscape-font-specification:'Roadgeek 2005 Engschrift';fill:#ffffff;stroke:none"
       id="path2352" />
    <path
       d="m 755.07007,432.20944 -2.78133,-7.59733 v 7.59733 h -1.792 v -12.50667 h 1.69866 l 2.76267,7.57867 v -7.57867 h 1.792 v 12.50667 z"
       style="font-style:normal;font-variant:normal;font-weight:normal;font-stretch:normal;line-height:0.92;font-family:'Roadgeek 2005 Engschrift';-inkscape-font-specification:'Roadgeek 2005 Engschrift';fill:#ffffff;stroke:none"
       id="path2354" />
    <path
       d="m 760.69121,419.70277 q 1.21334,0 2.072,0.85867 0.87734,0.84 0.87734,2.05333 v 6.496 q 0,1.38134 -0.84,2.24 -0.84,0.85867 -2.16534,0.85867 h -2.78133 v -12.50667 z m 1.176,9.408 v -6.496 q 0,-0.52266 -0.392,-0.87733 -0.37333,-0.35467 -0.91466,-0.35467 h -0.93334 v 9.16534 h 0.87734 q 1.36266,0 1.36266,-1.43734 z"
       style="font-style:normal;font-variant:normal;font-weight:normal;font-stretch:normal;line-height:0.92;font-family:'Roadgeek 2005 Engschrift';-inkscape-font-specification:'Roadgeek 2005 Engschrift';fill:#ffffff;stroke:none"
       id="path2356" />
    <path
       d="m 772.49592,429.05477 q 0,0.59734 -0.0747,1.02667 -0.056,0.42933 -0.37333,0.93333 -0.168,0.26134 -0.42933,0.504 -0.24267,0.224 -0.56,0.41067 -0.29867,0.168 -0.65334,0.28 -0.35466,0.112 -0.69066,0.112 -0.84,0 -1.53067,-0.35467 -0.672,-0.35466 -0.98933,-0.896 -0.31734,-0.54133 -0.41067,-1.008 -0.0747,-0.46666 -0.0747,-1.008 v -6.44 q 0,-0.52266 0.0933,-0.93333 0.112,-0.42933 0.448,-0.91467 0.336,-0.48533 0.952,-0.82133 0.616,-0.35467 1.288,-0.35467 1.288,0 2.14666,0.85867 0.85867,0.84 0.85867,2.16533 v 0.672 h -1.77333 v -0.672 q 0,-0.52266 -0.29867,-0.87733 -0.28,-0.35467 -0.84,-0.35467 -0.52267,0 -0.82133,0.35467 -0.28,0.35467 -0.28,0.87733 v 6.92534 q 0.0373,0.28 0.26133,0.63466 0.26133,0.37334 0.85867,0.37334 0.63466,0 0.84,-0.336 0.20533,-0.336 0.24266,-0.48534 0.0373,-0.168 0.0373,-0.448 v -0.63466 h 1.77333 z"
       style="font-style:normal;font-variant:normal;font-weight:normal;font-stretch:normal;line-height:0.92;font-family:'Roadgeek 2005 Engschrift';-inkscape-font-specification:'Roadgeek 2005 Engschrift';fill:#ffffff;stroke:none"
       id="path2358" />
    <path
       d="m 774.20896,420.87877 q 0.42933,-0.59733 1.08267,-0.93333 0.672,-0.35467 1.38133,-0.35467 0.69067,0 1.288,0.28 0.616,0.28 1.02667,0.76534 0.41066,0.48533 0.56,1.008 0.14933,0.504 0.14933,1.10133 v 6.36533 q 0,0.56 -0.112,0.98934 -0.0933,0.42933 -0.448,0.952 -0.336,0.52266 -0.98933,0.896 -0.63467,0.37333 -1.41867,0.37333 -0.448,0 -0.85867,-0.112 -0.41066,-0.13067 -0.76533,-0.336 -0.35467,-0.20533 -0.63467,-0.46667 -0.26133,-0.26133 -0.41066,-0.54133 -0.28,-0.57867 -0.336,-0.93333 -0.056,-0.35467 -0.056,-0.82134 v -6.36533 q 0,-0.56 0.112,-0.98933 0.13066,-0.448 0.42933,-0.87734 z m 3.472,0.98934 q -0.35467,-0.52267 -0.97067,-0.52267 -0.31733,0 -0.63466,0.18667 -0.29867,0.168 -0.42934,0.392 -0.112,0.224 -0.14933,0.448 -0.0373,0.224 -0.0373,0.37333 v 6.36533 q 0,0.0933 0,0.20534 0,0.0933 0.0187,0.20533 0.0187,0.18667 0.29867,0.616 0.28,0.392 0.93333,0.392 0.336,0 0.59734,-0.14933 0.28,-0.168 0.392,-0.37334 0.13066,-0.224 0.168,-0.41066 0.0373,-0.18667 0.0373,-0.48534 v -6.36533 q 0,-0.37333 -0.0373,-0.52267 -0.0187,-0.14933 -0.18667,-0.35466 z"
       style="font-style:normal;font-variant:normal;font-weight:normal;font-stretch:normal;line-height:0.92;font-family:'Roadgeek 2005 Engschrift';-inkscape-font-specification:'Roadgeek 2005 Engschrift';fill:#ffffff;stroke:none"
       id="path2360" />
    <path
       d="m 786.65664,432.20944 v -7.616 l -1.792,5.33867 h -0.896 l -1.77333,-5.33867 v 7.616 h -1.792 v -12.50667 h 1.68 l 2.37067,6.664 2.33333,-6.664 h 1.64267 v 12.50667 z"
       style="font-style:normal;font-variant:normal;font-weight:normal;font-stretch:normal;line-height:0.92;font-family:'Roadgeek 2005 Engschrift';-inkscape-font-specification:'Roadgeek 2005 Engschrift';fill:#ffffff;stroke:none"
       id="path2362" />
    <path
       d="m 795.40123,432.20944 v -7.616 l -1.792,5.33867 h -0.896 l -1.77334,-5.33867 v 7.616 h -1.792 v -12.50667 h 1.68 l 2.37067,6.664 2.33333,-6.664 h 1.64267 v 12.50667 z"
       style="font-style:normal;font-variant:normal;font-weight:normal;font-stretch:normal;line-height:0.92;font-family:'Roadgeek 2005 Engschrift';-inkscape-font-specification:'Roadgeek 2005 Engschrift';fill:#ffffff;stroke:none"
       id="path2364" />
    <path
       d="m 803.91008,430.90277 q -0.41067,0.63467 -1.064,1.02667 -0.63467,0.392 -1.41867,0.392 -0.392,0 -0.784,-0.112 -0.37333,-0.112 -0.70933,-0.28 -0.336,-0.18667 -0.59734,-0.41067 -0.26133,-0.24266 -0.392,-0.504 -0.28,-0.52266 -0.37333,-0.91466 -0.0747,-0.392 -0.0747,-0.84 v -9.55734 h 1.792 v 9.55734 q 0,0.13066 0,0.24266 0.0187,0.0933 0.0373,0.18667 0.0187,0.14933 0.28,0.52267 0.24266,0.336 0.84,0.336 0.54133,0 0.80266,-0.392 0.28,-0.41067 0.28,-0.896 v -9.55734 h 1.792 v 9.55734 q 0,0.448 -0.0933,0.85866 -0.0933,0.41067 -0.31733,0.784 z"
       style="font-style:normal;font-variant:normal;font-weight:normal;font-stretch:normal;line-height:0.92;font-family:'Roadgeek 2005 Engschrift';-inkscape-font-specification:'Roadgeek 2005 Engschrift';fill:#ffffff;stroke:none"
       id="path2366" />
    <path
       d="m 809.95326,432.20944 -2.78133,-7.59733 v 7.59733 h -1.792 v -12.50667 h 1.69867 l 2.76266,7.57867 v -7.57867 h 1.792 v 12.50667 z"
       style="font-style:normal;font-variant:normal;font-weight:normal;font-stretch:normal;line-height:0.92;font-family:'Roadgeek 2005 Engschrift';-inkscape-font-specification:'Roadgeek 2005 Engschrift';fill:#ffffff;stroke:none"
       id="path2368" />
    <path
       d="m 812.61622,432.20944 v -12.50667 h 1.77333 v 12.50667 z"
       style="font-style:normal;font-variant:normal;font-weight:normal;font-stretch:normal;line-height:0.92;font-family:'Roadgeek 2005 Engschrift';-inkscape-font-specification:'Roadgeek 2005 Engschrift';fill:#ffffff;stroke:none"
       id="path2370" />
    <path
       d="m 817.65145,432.20944 v -10.84533 h -2.10934 v -1.66134 h 6.02934 v 1.66134 h -2.14667 v 10.84533 z"
       style="font-style:normal;font-variant:normal;font-weight:normal;font-stretch:normal;line-height:0.92;font-family:'Roadgeek 2005 Engschrift';-inkscape-font-specification:'Roadgeek 2005 Engschrift';fill:#ffffff;stroke:none"
       id="path2372" />
    <path
       d="m 821.9671,432.20944 v -12.50667 h 1.77333 v 12.50667 z"
       style="font-style:normal;font-variant:normal;font-weight:normal;font-stretch:normal;line-height:0.92;font-family:'Roadgeek 2005 Engschrift';-inkscape-font-specification:'Roadgeek 2005 Engschrift';fill:#ffffff;stroke:none"
       id="path2374" />
    <path
       d="m 830.19719,430.41744 v 1.792 h -5.35733 v -12.50667 h 5.35733 v 1.64267 h -3.584 v 3.696 h 3.136 v 1.69867 h -3.136 v 3.67733 z"
       style="font-style:normal;font-variant:normal;font-weight:normal;font-stretch:normal;line-height:0.92;font-family:'Roadgeek 2005 Engschrift';-inkscape-font-specification:'Roadgeek 2005 Engschrift';fill:#ffffff;stroke:none"
       id="path2376" />
    <path
       d="m 832.31922,429.09211 q 0,0.18666 0,0.31733 0,0.13067 0.0187,0.224 0.0373,0.18667 0.28,0.54133 0.26134,0.37334 0.93334,0.37334 0.37333,0 0.69066,-0.14934 0.31734,-0.168 0.46667,-0.42933 0.112,-0.20533 0.13067,-0.392 0.0373,-0.18667 0.0373,-0.336 v -0.168 -0.87733 -0.168 q 0,-0.41067 -0.14933,-0.63467 -0.14934,-0.24267 -0.672,-0.54133 -0.35467,-0.18667 -1.26934,-0.52267 -0.91466,-0.336 -1.53066,-1.064 -0.616,-0.728 -0.616,-1.97867 v -0.56 q 0,-1.288 0.85866,-2.20266 0.87734,-0.93334 2.128,-0.93334 1.30667,0 2.16534,0.91467 0.87733,0.91467 0.87733,2.22133 v 0.56 h -1.792 v -0.56 q 0,-0.13066 -0.0187,-0.24266 0,-0.112 -0.0187,-0.20534 -0.0187,-0.0933 -0.0933,-0.224 -0.0747,-0.13066 -0.20533,-0.31733 -0.26133,-0.37333 -0.87733,-0.37333 -0.54134,0 -0.896,0.392 -0.336,0.392 -0.336,0.97066 v 0.56 0.168 q 0,0.37334 0.112,0.59734 0.13066,0.20533 0.59733,0.46666 0.14933,0.0747 0.448,0.20534 0.31733,0.112 0.76533,0.28 0.896,0.29866 1.60534,1.064 0.70933,0.76533 0.70933,2.016 v 1.008 q 0,0.65333 -0.13067,1.10133 -0.112,0.448 -0.76533,1.30667 -0.65333,0.82133 -2.184,0.82133 -1.624,0 -2.352,-1.04533 -0.728,-1.064 -0.728,-2.184 v -0.448 h 1.81067 z"
       style="font-style:normal;font-variant:normal;font-weight:normal;font-stretch:normal;line-height:0.92;font-family:'Roadgeek 2005 Engschrift';-inkscape-font-specification:'Roadgeek 2005 Engschrift';fill:#ffffff;stroke:none"
       id="path2378" />
  </g>
  <g
     aria-label="11"
     style="font-style:normal;font-variant:normal;font-weight:normal;font-stretch:normal;font-size:13.3333px;line-height:1.25;font-family:'Liberation Serif';-inkscape-font-specification:'Liberation Serif';letter-spacing:0px;word-spacing:0px;fill:#ffffff;fill-opacity:1;stroke:none"
     id="text6075-0-6-9-2-5-9-0-9-4-2"
     transform="translate(-701.81342,-389.72833)">
    <path
       d="m 716.66315,431.9819 v -25.46 l -4.288,3.216 v -4.556 l 4.288,-3.12666 h 4.24334 v 29.92666 z"
       style="font-style:normal;font-variant:normal;font-weight:normal;font-stretch:normal;font-size:44.6667px;font-family:'Roadgeek 2005 Engschrift';-inkscape-font-specification:'Roadgeek 2005 Engschrift';fill:#ffffff;stroke:none"
       id="path2381" />
    <path
       d="m 728.00975,431.9819 v -25.46 l -4.288,3.216 v -4.556 l 4.288,-3.12666 h 4.24334 v 29.92666 z"
       style="font-style:normal;font-variant:normal;font-weight:normal;font-stretch:normal;font-size:44.6667px;font-family:'Roadgeek 2005 Engschrift';-inkscape-font-specification:'Roadgeek 2005 Engschrift';fill:#ffffff;stroke:none"
       id="path2383" />
  </g>
  <path
     id="path7902-0"
     style="fill:#ffffff;stroke:none;stroke-width:0.1;stroke-linecap:butt;stroke-linejoin:miter;stroke-miterlimit:4;stroke-dasharray:none;stroke-opacity:1"
     d="m 37.543084,97.786957 10.48716,13.772293 c 0.38996,0.51212 0.28363,1.11809 -0.5497,1.11809 h -21.38584 c -0.83333,0 -0.93966,-0.60597 -0.5497,-1.11809 l 10.48716,-13.772293 c 0.50796,-0.66709 1.00991,-0.65796 1.51092,0 z m 65.658256,5.172423 h 21.20321 c 0.49661,0 0.89641,0.3998 0.89641,0.89641 v 3.75614 c 0,0.49661 -0.3998,0.89641 -0.89641,0.89641 h -21.20321 c -0.49661,0 -0.89641,-0.3998 -0.89641,-0.89641 v -3.75614 c 0,-0.49661 0.3998,-0.89641 0.89641,-0.89641 z m 8.6e-4,7.07206 c -0.49661,0 -0.89648,0.39987 -0.89648,0.89648 v 21.58398 c 0,0.49662 0.39987,0.89649 0.89648,0.89649 h 21.20313 c 0.49661,0 0.89648,-0.39987 0.89648,-0.89649 v -21.58398 c 0,-0.49661 -0.39987,-0.89648 -0.89648,-0.89648 z m 3.10352,3.25781 h 5.41797 c 0.49661,0 0.89648,0.39987 0.89648,0.89648 v 2.51172 c 0,0.49661 -0.39987,0.89649 -0.89648,0.89649 h -5.41797 c -0.49661,0 -0.89453,-0.39988 -0.89453,-0.89649 v -2.51172 c 0,-0.49661 0.39792,-0.89648 0.89453,-0.89648 z m 9.96094,0 h 5.41601 c 0.49661,0 0.89649,0.39987 0.89649,0.89648 v 2.51172 c 0,0.49661 -0.39988,0.89649 -0.89649,0.89649 h -5.41601 c -0.49661,0 -0.89649,-0.39988 -0.89649,-0.89649 v -2.51172 c 0,-0.49661 0.39988,-0.89648 0.89649,-0.89648 z m -9.96094,7.37109 h 5.41797 c 0.49661,0 0.89648,0.39988 0.89648,0.89649 v 2.50976 c 0,0.49661 -0.39987,0.89649 -0.89648,0.89649 h -5.41797 c -0.49661,0 -0.89453,-0.39988 -0.89453,-0.89649 v -2.50976 c 0,-0.49661 0.39792,-0.89649 0.89453,-0.89649 z m 9.96094,0 h 5.41601 c 0.49661,0 0.89649,0.39988 0.89649,0.89649 v 2.50976 c 0,0.49661 -0.39988,0.89649 -0.89649,0.89649 h -5.41601 c -0.49661,0 -0.89649,-0.39988 -0.89649,-0.89649 v -2.50976 c 0,-0.49661 0.39988,-0.89649 0.89649,-0.89649 z M 52.239314,58.338077 c -0.49661,0 -0.89648,0.39987 -0.89648,0.89648 V 132.5119 c 0,0.49662 0.39987,0.89649 0.89648,0.89649 h 20.70508 c 0.49661,0 0.89649,-0.39987 0.89649,-0.89649 V 59.234557 c 0,-0.49661 -0.39988,-0.89648 -0.89649,-0.89648 z m 4.04493,10.25195 h 3.16211 c 0.49661,0 0.89648,0.39986 0.89648,0.89648 v 3.8125 c 0,0.49661 -0.39987,0.89649 -0.89648,0.89649 h -3.16211 c -0.49661,0 -0.89649,-0.39988 -0.89649,-0.89649 v -3.8125 c 0,-0.49662 0.39988,-0.89648 0.89649,-0.89648 z m 9.66211,0 h 3.16211 c 0.49661,0 0.89648,0.39986 0.89648,0.89648 v 3.8125 c 0,0.49661 -0.39987,0.89649 -0.89648,0.89649 h -3.16211 c -0.49661,0 -0.89649,-0.39988 -0.89649,-0.89649 v -3.8125 c 0,-0.49662 0.39988,-0.89648 0.89649,-0.89648 z m -9.66211,12.6875 h 3.16211 c 0.49661,0 0.89648,0.39987 0.89648,0.89648 v 3.8125 c 0,0.49661 -0.39987,0.89649 -0.89648,0.89649 h -3.16211 c -0.49661,0 -0.89649,-0.39988 -0.89649,-0.89649 v -3.8125 c 0,-0.49661 0.39988,-0.89648 0.89649,-0.89648 z m 9.66211,0 h 3.16211 c 0.49661,0 0.89648,0.39987 0.89648,0.89648 v 3.8125 c 0,0.49661 -0.39987,0.89649 -0.89648,0.89649 h -3.16211 c -0.49661,0 -0.89649,-0.39988 -0.89649,-0.89649 v -3.8125 c 0,-0.49661 0.39988,-0.89648 0.89649,-0.89648 z m -9.66211,12.6875 h 3.16211 c 0.49661,0 0.89648,0.39987 0.89648,0.89648 v 3.8125 c 0,0.49661 -0.39987,0.89649 -0.89648,0.89649 h -3.16211 c -0.49661,0 -0.89649,-0.39988 -0.89649,-0.89649 v -3.8125 c 0,-0.49661 0.39988,-0.89648 0.89649,-0.89648 z m 9.66211,0 h 3.16211 c 0.49661,0 0.89648,0.39987 0.89648,0.89648 v 3.8125 c 0,0.49661 -0.39987,0.89649 -0.89648,0.89649 h -3.16211 c -0.49661,0 -0.89649,-0.39988 -0.89649,-0.89649 v -3.8125 c 0,-0.49661 0.39988,-0.89648 0.89649,-0.89648 z m -9.66211,12.687503 h 3.16211 c 0.49661,0 0.89648,0.39987 0.89648,0.89648 v 3.8125 c 0,0.49661 -0.39987,0.89649 -0.89648,0.89649 h -3.16211 c -0.49661,0 -0.89649,-0.39988 -0.89649,-0.89649 v -3.8125 c 0,-0.49661 0.39988,-0.89648 0.89649,-0.89648 z m 9.66211,0 h 3.16211 c 0.49661,0 0.89648,0.39987 0.89648,0.89648 v 3.8125 c 0,0.49661 -0.39987,0.89649 -0.89648,0.89649 h -3.16211 c -0.49661,0 -0.89649,-0.39988 -0.89649,-0.89649 v -3.8125 c 0,-0.49661 0.39988,-0.89648 0.89649,-0.89648 z m -9.66211,12.6875 h 3.16211 c 0.49661,0 0.89648,0.39987 0.89648,0.89648 v 3.81446 c 0,0.49661 -0.39987,0.89648 -0.89648,0.89648 h -3.16211 c -0.49661,0 -0.89649,-0.39987 -0.89649,-0.89648 v -3.81446 c 0,-0.49661 0.39988,-0.89648 0.89649,-0.89648 z m 9.66211,0 h 3.16211 c 0.49661,0 0.89648,0.39987 0.89648,0.89648 v 3.81446 c 0,0.49661 -0.39987,0.89648 -0.89648,0.89648 h -3.16211 c -0.49661,0 -0.89649,-0.39987 -0.89649,-0.89648 v -3.81446 c 0,-0.49661 0.39988,-0.89648 0.89649,-0.89648 z m 11.42578,-18.92609 v 32.09796 c 0,0.49662 0.39987,0.89649 0.89648,0.89649 h 20.40625 c 0.49661,0 0.89649,-0.39987 0.89649,-0.89649 V 73.177917 c 0,-0.49661 -0.65682,-1.18349 -1.44393,-0.18665 l -19.97036,25.29154 c -0.68133,0.86288 -0.78493,1.12593 -0.78493,2.131133 z m 19.13672,-20.077823 c 0.36295,-0.002 0.42382,0.86777 0.42382,1.24024 v 5.40039 c 0,0.49661 -0.39987,0.89648 -0.89648,0.89648 h -4.17188 c -0.53128,0 -1.43646,-0.22565 -0.89648,-0.89648 l 5.06836,-6.29688 c 0.19705,-0.2448 0.35167,-0.34309 0.47266,-0.34375 z m -5.88868,10.60352 h 5.41602 c 0.49661,0 0.89648,0.39986 0.89648,0.89648 v 2.50977 c 0,0.49661 -0.39987,0.89648 -0.89648,0.89648 h -5.41602 c -0.49661,0 -0.89648,-0.39987 -0.89648,-0.89648 v -2.50977 c 0,-0.49662 0.39987,-0.89648 0.89648,-0.89648 z m -4.09179,1.98242 c 0.35618,-0.0737 0.44336,0.74005 0.44336,1.30859 v 7.687503 c 0,0.49661 -0.39987,0.89649 -0.89649,0.89649 h -5.13476 c -0.49661,0 -1.24941,-0.39418 -0.89649,-0.89649 l 6.03125,-8.583983 c 0.18502,-0.26333 0.3344,-0.38755 0.45313,-0.41211 z m 4.09179,5.36523 h 5.41602 c 0.49661,0 0.89648,0.39988 0.89648,0.89649 v 2.511723 c 0,0.49661 -0.39987,0.89648 -0.89648,0.89648 h -5.41602 c -0.49661,0 -0.89648,-0.39987 -0.89648,-0.89648 v -2.511723 c 0,-0.49661 0.39987,-0.89649 0.89648,-0.89649 z m -9.67968,7.371103 h 5.13476 c 0.49661,0 0.89649,0.39987 0.89649,0.89648 v 2.51172 c 0,0.49662 -0.39988,0.89649 -0.89649,0.89649 h -5.13476 c -0.49661,0 -0.89649,-0.39987 -0.89649,-0.89649 v -2.51172 c 0,-0.49661 0.39988,-0.89648 0.89649,-0.89648 z m 9.67968,0 h 5.41602 c 0.49661,0 0.89648,0.39987 0.89648,0.89648 v 2.51172 c 0,0.49661 -0.39987,0.89649 -0.89648,0.89649 h -5.41602 c -0.49661,0 -0.89648,-0.39988 -0.89648,-0.89649 v -2.51172 c 0,-0.49661 0.39987,-0.89648 0.89648,-0.89648 z m -9.67968,7.63086 h 5.13476 c 0.49661,0 0.89649,0.39987 0.89649,0.89648 v 2.51172 c 0,0.49661 -0.39988,0.89649 -0.89649,0.89649 h -5.13476 c -0.49661,0 -0.89649,-0.39988 -0.89649,-0.89649 v -2.51172 c 0,-0.49661 0.39988,-0.89648 0.89649,-0.89648 z m 9.67968,0 h 5.41602 c 0.49661,0 0.89648,0.39987 0.89648,0.89648 v 2.51172 c 0,0.49661 -0.39987,0.89649 -0.89648,0.89649 h -5.41602 c -0.49661,0 -0.89648,-0.39988 -0.89648,-0.89649 v -2.51172 c 0,-0.49661 0.39987,-0.89648 0.89648,-0.89648 z m -9.67968,7.37109 h 5.13476 c 0.49661,0 0.89649,0.39988 0.89649,0.89649 v 2.50976 c 0,0.49661 -0.39988,0.89649 -0.89649,0.89649 h -5.13476 c -0.49661,0 -0.89649,-0.39988 -0.89649,-0.89649 v -2.50976 c 0,-0.49661 0.39988,-0.89649 0.89649,-0.89649 z m 9.67968,0 h 5.41602 c 0.49661,0 0.89648,0.39988 0.89648,0.89649 v 2.50976 c 0,0.49661 -0.39987,0.89649 -0.89648,0.89649 h -5.41602 c -0.49661,0 -0.89648,-0.39988 -0.89648,-0.89649 v -2.50976 c 0,-0.49661 0.39987,-0.89649 0.89648,-0.89649 z m -64.80859,-5.94726 c -0.49661,0 -0.89648,0.39987 -0.89648,0.89648 v 16.90234 c 0,0.49662 0.39987,0.89649 0.89648,0.89649 h 7.23828 c -0.002,-0.0333 -0.01,-0.0656 -0.01,-0.0996 v -9.83984 c 0,-0.7725 0.62203,-1.39454 1.39453,-1.39454 h 4.55664 c 0.77249,0 1.39453,0.62204 1.39453,1.39454 v 9.83984 c 0,0.0339 -0.007,0.0663 -0.01,0.0996 h 6.83789 c 0.49662,0 0.89649,-0.39987 0.89649,-0.89649 v -16.90234 c 0,-0.49661 -0.39987,-0.89648 -0.89649,-0.89648 z" />
</svg>
