<?xml version="1.0" encoding="UTF-8" standalone="no"?>
<!-- Created with Inkscape (http://www.inkscape.org/) -->

<svg
   version="1.1"
   id="svg2"
   width="148.09276"
   height="148.33459"
   viewBox="0 0 148.09276 148.33459"
   sodipodi:docname="Sustainable_Development_Goals.svg"
   inkscape:version="0.92.3 (2405546, 2018-03-11)"
   inkscape:export-filename="sdg_1.svg"
   inkscape:export-xdpi="96"
   inkscape:export-ydpi="96"
   xmlns:inkscape="http://www.inkscape.org/namespaces/inkscape"
   xmlns:sodipodi="http://sodipodi.sourceforge.net/DTD/sodipodi-0.dtd"
   xmlns="http://www.w3.org/2000/svg"
   xmlns:svg="http://www.w3.org/2000/svg"
   xmlns:rdf="http://www.w3.org/1999/02/22-rdf-syntax-ns#"
   xmlns:cc="http://creativecommons.org/ns#"
   xmlns:dc="http://purl.org/dc/elements/1.1/">
  <metadata
     id="metadata8">
    <rdf:RDF>
      <cc:Work
         rdf:about="">
        <dc:format>image/svg+xml</dc:format>
        <dc:type
           rdf:resource="http://purl.org/dc/dcmitype/StillImage" />
        <dc:title />
      </cc:Work>
    </rdf:RDF>
  </metadata>
  <defs
     id="defs6" />
  <sodipodi:namedview
     pagecolor="#ffffff"
     bordercolor="#666666"
     borderopacity="1"
     objecttolerance="10"
     gridtolerance="10"
     guidetolerance="10"
     inkscape:pageopacity="0"
     inkscape:pageshadow="2"
     inkscape:window-width="1920"
     inkscape:window-height="1061"
     id="namedview4"
     showgrid="false"
     inkscape:zoom="1.0772059"
     inkscape:cx="528"
     inkscape:cy="408"
     inkscape:window-x="1920"
     inkscape:window-y="0"
     inkscape:window-maximized="1"
     inkscape:current-layer="svg2"
     showguides="true"
     inkscape:guide-bbox="true"
     inkscape:snap-global="true"
     inkscape:snap-center="true"
     inkscape:snap-object-midpoints="true"
     inkscape:snap-bbox="true"
     inkscape:snap-bbox-midpoints="true"
     inkscape:showpageshadow="2"
     inkscape:pagecheckerboard="0"
     inkscape:deskcolor="#d1d1d1" />
  <path
     style="opacity:1;fill:#8f1838;fill-opacity:1;fill-rule:evenodd;stroke:none;stroke-width:4;stroke-linecap:round;stroke-linejoin:round;stroke-miterlimit:4;stroke-dasharray:none;stroke-dashoffset:0;stroke-opacity:1"
     d="M 0.82675765,-2.5195312e-6 H 147.26601 c 0.45802,0 0.82675,0.3687299995312 0.82675,0.8267599995312 V 147.50783 c 0,0.45802 -0.36873,0.82675 -0.82675,0.82675 H 0.82675765 c -0.45803,0 -0.8267599986328,-0.36873 -0.8267599986328,-0.82675 V 0.82675748 C -2.3486328e-6,0.36872748 0.36872765,-2.5195312e-6 0.82675765,-2.5195312e-6 Z"
     id="rect8528-63-2-4-3-6-0-4-3" />
  <style
     id="style970"
     type="text/css">
	.st0{fill:#418FDE;}
</style>
  <g
     aria-label="DECENT WORK AND ECONOMIC GROWTH"
     style="font-style:normal;font-variant:normal;font-weight:normal;font-stretch:normal;font-size:18.6667px;line-height:0.92;font-family:'Roadgeek 2005 Series B';-inkscape-font-specification:'Roadgeek 2005 Series B';letter-spacing:0px;word-spacing:0px;fill:#ffffff;fill-opacity:1;stroke:none"
     id="text6065-3-2-9-6-6-5-0"
     transform="translate(-209.89253,-389.72833)">
    <path
       d="m 252.69783,402.79762 q 1.21333,0 2.072,0.85867 0.87733,0.84 0.87733,2.05333 v 6.496 q 0,1.38134 -0.84,2.24 -0.84,0.85867 -2.16533,0.85867 h -2.78133 v -12.50667 z m 1.176,9.408 v -6.496 q 0,-0.52266 -0.392,-0.87733 -0.37333,-0.35467 -0.91467,-0.35467 h -0.93333 v 9.16534 h 0.87733 q 1.36267,0 1.36267,-1.43734 z"
       style="font-style:normal;font-variant:normal;font-weight:normal;font-stretch:normal;line-height:0.92;font-family:'Roadgeek 2005 Engschrift';-inkscape-font-specification:'Roadgeek 2005 Engschrift';fill:#ffffff;stroke:none"
       id="path2139" />
    <path
       d="m 262.54479,413.51229 v 1.792 h -5.35733 v -12.50667 h 5.35733 v 1.64267 h -3.584 v 3.696 h 3.136 v 1.69867 h -3.136 v 3.67733 z"
       style="font-style:normal;font-variant:normal;font-weight:normal;font-stretch:normal;line-height:0.92;font-family:'Roadgeek 2005 Engschrift';-inkscape-font-specification:'Roadgeek 2005 Engschrift';fill:#ffffff;stroke:none"
       id="path2141" />
    <path
       d="m 269.09301,412.14962 q 0,0.59734 -0.0747,1.02667 -0.056,0.42933 -0.37334,0.93333 -0.168,0.26134 -0.42933,0.504 -0.24267,0.224 -0.56,0.41067 -0.29867,0.168 -0.65333,0.28 -0.35467,0.112 -0.69067,0.112 -0.84,0 -1.53067,-0.35467 -0.672,-0.35466 -0.98933,-0.896 -0.31733,-0.54133 -0.41067,-1.008 -0.0747,-0.46666 -0.0747,-1.008 v -6.44 q 0,-0.52266 0.0933,-0.93333 0.112,-0.42933 0.448,-0.91467 0.336,-0.48533 0.952,-0.82133 0.616,-0.35467 1.288,-0.35467 1.288,0 2.14667,0.85867 0.85866,0.84 0.85866,2.16533 v 0.672 h -1.77333 v -0.672 q 0,-0.52266 -0.29867,-0.87733 -0.28,-0.35467 -0.84,-0.35467 -0.52266,0 -0.82133,0.35467 -0.28,0.35467 -0.28,0.87733 v 6.92534 q 0.0373,0.28 0.26133,0.63466 0.26134,0.37334 0.85867,0.37334 0.63467,0 0.84,-0.336 0.20533,-0.336 0.24267,-0.48534 0.0373,-0.168 0.0373,-0.448 v -0.63466 h 1.77333 z"
       style="font-style:normal;font-variant:normal;font-weight:normal;font-stretch:normal;line-height:0.92;font-family:'Roadgeek 2005 Engschrift';-inkscape-font-specification:'Roadgeek 2005 Engschrift';fill:#ffffff;stroke:none"
       id="path2143" />
    <path
       d="m 275.6526,413.51229 v 1.792 h -5.35733 v -12.50667 h 5.35733 v 1.64267 h -3.584 v 3.696 h 3.136 v 1.69867 h -3.136 v 3.67733 z"
       style="font-style:normal;font-variant:normal;font-weight:normal;font-stretch:normal;line-height:0.92;font-family:'Roadgeek 2005 Engschrift';-inkscape-font-specification:'Roadgeek 2005 Engschrift';fill:#ffffff;stroke:none"
       id="path2145" />
    <path
       d="m 281.2704,415.30429 -2.78133,-7.59733 v 7.59733 h -1.792 v -12.50667 h 1.69867 l 2.76266,7.57867 v -7.57867 h 1.792 v 12.50667 z"
       style="font-style:normal;font-variant:normal;font-weight:normal;font-stretch:normal;line-height:0.92;font-family:'Roadgeek 2005 Engschrift';-inkscape-font-specification:'Roadgeek 2005 Engschrift';fill:#ffffff;stroke:none"
       id="path2147" />
    <path
       d="m 285.48296,415.30429 v -10.84533 h -2.10933 v -1.66134 h 6.02933 v 1.66134 h -2.14667 v 10.84533 z"
       style="font-style:normal;font-variant:normal;font-weight:normal;font-stretch:normal;line-height:0.92;font-family:'Roadgeek 2005 Engschrift';-inkscape-font-specification:'Roadgeek 2005 Engschrift';fill:#ffffff;stroke:none"
       id="path2149" />
    <path
       d="m 298.12031,415.30429 -1.47466,-7.616 -1.43734,7.616 h -1.66133 l -1.81067,-12.50667 h 1.904 l 0.896,7.56 1.43734,-7.56 h 1.32533 l 1.47467,7.56 0.896,-7.56 h 1.88533 l -1.75467,12.50667 z"
       style="font-style:normal;font-variant:normal;font-weight:normal;font-stretch:normal;line-height:0.92;font-family:'Roadgeek 2005 Engschrift';-inkscape-font-specification:'Roadgeek 2005 Engschrift';fill:#ffffff;stroke:none"
       id="path2151" />
    <path
       d="m 302.68986,403.97362 q 0.42933,-0.59733 1.08267,-0.93333 0.67199,-0.35467 1.38133,-0.35467 0.69066,0 1.288,0.28 0.616,0.28 1.02666,0.76534 0.41067,0.48533 0.56,1.008 0.14934,0.504 0.14934,1.10133 v 6.36533 q 0,0.56 -0.112,0.98934 -0.0933,0.42933 -0.448,0.952 -0.336,0.52266 -0.98934,0.896 -0.63466,0.37333 -1.41866,0.37333 -0.448,0 -0.85867,-0.112 -0.41067,-0.13067 -0.76533,-0.336 -0.35467,-0.20533 -0.63467,-0.46667 -0.26133,-0.26133 -0.41066,-0.54133 -0.28,-0.57867 -0.336,-0.93333 -0.056,-0.35467 -0.056,-0.82134 v -6.36533 q 0,-0.56 0.112,-0.98933 0.13066,-0.448 0.42933,-0.87734 z m 3.472,0.98934 q -0.35467,-0.52267 -0.97067,-0.52267 -0.31733,0 -0.63467,0.18667 -0.29866,0.168 -0.42933,0.392 -0.112,0.224 -0.14933,0.448 -0.0373,0.224 -0.0373,0.37333 v 6.36533 q 0,0.0933 0,0.20534 0,0.0933 0.0187,0.20533 0.0187,0.18667 0.29867,0.616 0.28,0.392 0.93333,0.392 0.336,0 0.59733,-0.14933 0.28,-0.168 0.392,-0.37334 0.13067,-0.224 0.168,-0.41066 0.0373,-0.18667 0.0373,-0.48534 v -6.36533 q 0,-0.37333 -0.0373,-0.52267 -0.0187,-0.14933 -0.18666,-0.35466 z"
       style="font-style:normal;font-variant:normal;font-weight:normal;font-stretch:normal;line-height:0.92;font-family:'Roadgeek 2005 Engschrift';-inkscape-font-specification:'Roadgeek 2005 Engschrift';fill:#ffffff;stroke:none"
       id="path2153" />
    <path
       d="m 309.69686,415.30429 v -12.50667 h 3.136 q 1.232,0 2.072,0.85867 0.85867,0.85867 0.85867,2.10933 v 1.15734 q 0,1.736 -1.47467,2.65066 l 1.904,5.73067 h -1.904 l -1.68,-5.35733 h -1.12 v 5.35733 z m 3.976,-7.336 q 0.168,-0.20533 0.224,-0.46667 0.0747,-0.26133 0.0747,-0.57866 v -1.15734 q 0,-0.57866 -0.31734,-0.93333 -0.31733,-0.37333 -0.896,-0.37333 h -1.26933 v 3.90133 h 1.25067 q 0.56,0 0.93333,-0.392 z"
       style="font-style:normal;font-variant:normal;font-weight:normal;font-stretch:normal;line-height:0.92;font-family:'Roadgeek 2005 Engschrift';-inkscape-font-specification:'Roadgeek 2005 Engschrift';fill:#ffffff;stroke:none"
       id="path2155" />
    <path
       d="m 321.55837,415.30429 -1.99733,-5.58133 -0.98933,1.848 v 3.73333 h -1.77334 v -12.50667 h 1.792 v 5.74934 l 2.66934,-5.74934 h 1.77333 l -2.44533,4.984 2.87466,7.52267 z"
       style="font-style:normal;font-variant:normal;font-weight:normal;font-stretch:normal;line-height:0.92;font-family:'Roadgeek 2005 Engschrift';-inkscape-font-specification:'Roadgeek 2005 Engschrift';fill:#ffffff;stroke:none"
       id="path2157" />
    <path
       d="m 325.26134,415.30429 2.8,-12.50667 h 1.54934 l 2.8,12.50667 h -1.92267 l -0.504,-2.688 h -2.31467 l -0.52266,2.688 z m 2.72534,-4.34933 h 1.68 l -0.84,-4.55467 z"
       style="font-style:normal;font-variant:normal;font-weight:normal;font-stretch:normal;line-height:0.92;font-family:'Roadgeek 2005 Engschrift';-inkscape-font-specification:'Roadgeek 2005 Engschrift';fill:#ffffff;stroke:none"
       id="path2159" />
    <path
       d="m 337.89605,415.30429 -2.78133,-7.59733 v 7.59733 h -1.792 v -12.50667 h 1.69866 l 2.76267,7.57867 v -7.57867 h 1.792 v 12.50667 z"
       style="font-style:normal;font-variant:normal;font-weight:normal;font-stretch:normal;line-height:0.92;font-family:'Roadgeek 2005 Engschrift';-inkscape-font-specification:'Roadgeek 2005 Engschrift';fill:#ffffff;stroke:none"
       id="path2161" />
    <path
       d="m 343.67328,402.79762 q 1.21333,0 2.072,0.85867 0.87733,0.84 0.87733,2.05333 v 6.496 q 0,1.38134 -0.84,2.24 -0.84,0.85867 -2.16533,0.85867 h -2.78133 v -12.50667 z m 1.176,9.408 v -6.496 q 0,-0.52266 -0.392,-0.87733 -0.37333,-0.35467 -0.91467,-0.35467 h -0.93333 v 9.16534 h 0.87733 q 1.36267,0 1.36267,-1.43734 z"
       style="font-style:normal;font-variant:normal;font-weight:normal;font-stretch:normal;line-height:0.92;font-family:'Roadgeek 2005 Engschrift';-inkscape-font-specification:'Roadgeek 2005 Engschrift';fill:#ffffff;stroke:none"
       id="path2163" />
    <path
       d="m 255.21783,430.75927 v 1.792 H 249.8605 V 420.0446 h 5.35733 v 1.64267 h -3.584 v 3.696 h 3.136 v 1.69866 h -3.136 v 3.67734 z"
       style="font-style:normal;font-variant:normal;font-weight:normal;font-stretch:normal;line-height:0.92;font-family:'Roadgeek 2005 Engschrift';-inkscape-font-specification:'Roadgeek 2005 Engschrift';fill:#ffffff;stroke:none"
       id="path2165" />
    <path
       d="m 261.68918,429.3966 q 0,0.59733 -0.0747,1.02667 -0.056,0.42933 -0.37334,0.93333 -0.168,0.26133 -0.42933,0.504 -0.24267,0.224 -0.56,0.41067 -0.29867,0.168 -0.65333,0.28 -0.35467,0.112 -0.69067,0.112 -0.84,0 -1.53067,-0.35467 -0.672,-0.35467 -0.98933,-0.896 -0.31733,-0.54133 -0.41067,-1.008 -0.0747,-0.46667 -0.0747,-1.008 v -6.44 q 0,-0.52267 0.0933,-0.93333 0.112,-0.42934 0.448,-0.91467 0.336,-0.48533 0.952,-0.82133 0.616,-0.35467 1.288,-0.35467 1.288,0 2.14667,0.85867 0.85866,0.84 0.85866,2.16533 v 0.672 h -1.77333 v -0.672 q 0,-0.52267 -0.29867,-0.87733 -0.28,-0.35467 -0.84,-0.35467 -0.52266,0 -0.82133,0.35467 -0.28,0.35466 -0.28,0.87733 v 6.92533 q 0.0373,0.28 0.26133,0.63467 0.26134,0.37333 0.85867,0.37333 0.63467,0 0.84,-0.336 0.20533,-0.336 0.24267,-0.48533 0.0373,-0.168 0.0373,-0.448 v -0.63467 h 1.77333 z"
       style="font-style:normal;font-variant:normal;font-weight:normal;font-stretch:normal;line-height:0.92;font-family:'Roadgeek 2005 Engschrift';-inkscape-font-specification:'Roadgeek 2005 Engschrift';fill:#ffffff;stroke:none"
       id="path2167" />
    <path
       d="m 263.52308,421.2206 q 0.42933,-0.59733 1.08267,-0.93333 0.672,-0.35467 1.38133,-0.35467 0.69067,0 1.288,0.28 0.616,0.28 1.02667,0.76533 0.41066,0.48534 0.56,1.008 0.14933,0.504 0.14933,1.10134 v 6.36533 q 0,0.56 -0.112,0.98933 -0.0933,0.42934 -0.448,0.952 -0.336,0.52267 -0.98933,0.896 -0.63467,0.37334 -1.41867,0.37334 -0.448,0 -0.85867,-0.112 -0.41066,-0.13067 -0.76533,-0.336 -0.35467,-0.20534 -0.63467,-0.46667 -0.26133,-0.26133 -0.41066,-0.54133 -0.28,-0.57867 -0.336,-0.93334 -0.056,-0.35466 -0.056,-0.82133 v -6.36533 q 0,-0.56 0.112,-0.98934 0.13066,-0.448 0.42933,-0.87733 z m 3.472,0.98933 q -0.35467,-0.52266 -0.97067,-0.52266 -0.31733,0 -0.63466,0.18666 -0.29867,0.168 -0.42934,0.392 -0.112,0.224 -0.14933,0.448 -0.0373,0.224 -0.0373,0.37334 v 6.36533 q 0,0.0933 0,0.20533 0,0.0933 0.0187,0.20534 0.0187,0.18666 0.29867,0.616 0.28,0.392 0.93333,0.392 0.336,0 0.59734,-0.14934 0.28,-0.168 0.392,-0.37333 0.13066,-0.224 0.168,-0.41067 0.0373,-0.18666 0.0373,-0.48533 v -6.36533 q 0,-0.37334 -0.0373,-0.52267 -0.0187,-0.14933 -0.18667,-0.35467 z"
       style="font-style:normal;font-variant:normal;font-weight:normal;font-stretch:normal;line-height:0.92;font-family:'Roadgeek 2005 Engschrift';-inkscape-font-specification:'Roadgeek 2005 Engschrift';fill:#ffffff;stroke:none"
       id="path2169" />
    <path
       d="m 275.01589,432.55127 -2.78133,-7.59734 v 7.59734 h -1.792 V 420.0446 h 1.69866 l 2.76267,7.57867 v -7.57867 h 1.792 v 12.50667 z"
       style="font-style:normal;font-variant:normal;font-weight:normal;font-stretch:normal;line-height:0.92;font-family:'Roadgeek 2005 Engschrift';-inkscape-font-specification:'Roadgeek 2005 Engschrift';fill:#ffffff;stroke:none"
       id="path2171" />
    <path
       d="m 278.33122,421.2206 q 0.42933,-0.59733 1.08267,-0.93333 0.672,-0.35467 1.38133,-0.35467 0.69067,0 1.288,0.28 0.616,0.28 1.02667,0.76533 0.41066,0.48534 0.56,1.008 0.14933,0.504 0.14933,1.10134 v 6.36533 q 0,0.56 -0.112,0.98933 -0.0933,0.42934 -0.448,0.952 -0.336,0.52267 -0.98933,0.896 -0.63467,0.37334 -1.41867,0.37334 -0.448,0 -0.85867,-0.112 -0.41066,-0.13067 -0.76533,-0.336 -0.35467,-0.20534 -0.63467,-0.46667 -0.26133,-0.26133 -0.41066,-0.54133 -0.28,-0.57867 -0.336,-0.93334 -0.056,-0.35466 -0.056,-0.82133 v -6.36533 q 0,-0.56 0.112,-0.98934 0.13066,-0.448 0.42933,-0.87733 z m 3.472,0.98933 q -0.35467,-0.52266 -0.97067,-0.52266 -0.31733,0 -0.63466,0.18666 -0.29867,0.168 -0.42934,0.392 -0.112,0.224 -0.14933,0.448 -0.0373,0.224 -0.0373,0.37334 v 6.36533 q 0,0.0933 0,0.20533 0,0.0933 0.0187,0.20534 0.0187,0.18666 0.29867,0.616 0.28,0.392 0.93333,0.392 0.336,0 0.59734,-0.14934 0.28,-0.168 0.392,-0.37333 0.13066,-0.224 0.168,-0.41067 0.0373,-0.18666 0.0373,-0.48533 v -6.36533 q 0,-0.37334 -0.0373,-0.52267 -0.0187,-0.14933 -0.18667,-0.35467 z"
       style="font-style:normal;font-variant:normal;font-weight:normal;font-stretch:normal;line-height:0.92;font-family:'Roadgeek 2005 Engschrift';-inkscape-font-specification:'Roadgeek 2005 Engschrift';fill:#ffffff;stroke:none"
       id="path2173" />
    <path
       d="m 291.38318,432.55127 v -7.616 l -1.792,5.33866 h -0.896 l -1.77333,-5.33866 v 7.616 h -1.792 V 420.0446 h 1.68 l 2.37066,6.664 2.33334,-6.664 h 1.64266 v 12.50667 z"
       style="font-style:normal;font-variant:normal;font-weight:normal;font-stretch:normal;line-height:0.92;font-family:'Roadgeek 2005 Engschrift';-inkscape-font-specification:'Roadgeek 2005 Engschrift';fill:#ffffff;stroke:none"
       id="path2175" />
    <path
       d="M 294.23699,432.55127 V 420.0446 h 1.77333 v 12.50667 z"
       style="font-style:normal;font-variant:normal;font-weight:normal;font-stretch:normal;line-height:0.92;font-family:'Roadgeek 2005 Engschrift';-inkscape-font-specification:'Roadgeek 2005 Engschrift';fill:#ffffff;stroke:none"
       id="path2177" />
    <path
       d="m 303.3887,429.3966 q 0,0.59733 -0.0747,1.02667 -0.056,0.42933 -0.37333,0.93333 -0.168,0.26133 -0.42934,0.504 -0.24266,0.224 -0.56,0.41067 -0.29866,0.168 -0.65333,0.28 -0.35467,0.112 -0.69067,0.112 -0.84,0 -1.53066,-0.35467 -0.672,-0.35467 -0.98934,-0.896 -0.31733,-0.54133 -0.41066,-1.008 -0.0747,-0.46667 -0.0747,-1.008 v -6.44 q 0,-0.52267 0.0933,-0.93333 0.112,-0.42934 0.448,-0.91467 0.336,-0.48533 0.952,-0.82133 0.616,-0.35467 1.288,-0.35467 1.288,0 2.14667,0.85867 0.85867,0.84 0.85867,2.16533 v 0.672 h -1.77334 v -0.672 q 0,-0.52267 -0.29866,-0.87733 -0.28,-0.35467 -0.84,-0.35467 -0.52267,0 -0.82134,0.35467 -0.28,0.35466 -0.28,0.87733 v 6.92533 q 0.0373,0.28 0.26134,0.63467 0.26133,0.37333 0.85866,0.37333 0.63467,0 0.84,-0.336 0.20534,-0.336 0.24267,-0.48533 0.0373,-0.168 0.0373,-0.448 v -0.63467 h 1.77334 z"
       style="font-style:normal;font-variant:normal;font-weight:normal;font-stretch:normal;line-height:0.92;font-family:'Roadgeek 2005 Engschrift';-inkscape-font-specification:'Roadgeek 2005 Engschrift';fill:#ffffff;stroke:none"
       id="path2179" />
    <path
       d="m 312.2509,431.2446 q -0.42933,0.672 -1.10133,1.04533 -0.672,0.37334 -1.47467,0.37334 -0.70933,0 -1.38133,-0.336 -0.65334,-0.336 -1.02667,-0.82134 -0.35467,-0.504 -0.48533,-1.008 -0.112,-0.504 -0.112,-1.13866 v -6.25334 q 0,-0.46666 0.0933,-0.93333 0.13067,-0.46667 0.69067,-1.32533 0.57866,-0.91467 2.27733,-0.91467 0.74667,0 1.4,0.35467 0.65333,0.35466 0.98933,0.87733 0.35467,0.504 0.448,0.97067 0.112,0.448 0.112,0.97066 v 0.52267 h -1.77333 v -0.52267 q 0,-0.14933 -0.0187,-0.26133 0,-0.13067 -0.0187,-0.224 -0.0187,-0.168 -0.28,-0.54133 -0.26134,-0.37334 -0.87734,-0.37334 -0.728,0 -0.97066,0.392 -0.224,0.392 -0.26134,0.57867 -0.0373,0.18667 -0.0373,0.42933 v 6.25334 q 0,0.18666 0,0.31733 0,0.13067 0.0187,0.224 0.0187,0.14933 0.28,0.57867 0.24266,0.392 0.952,0.392 0.728,0 0.93333,-0.392 0.112,-0.20534 0.168,-0.336 0.056,-0.14934 0.0747,-0.26134 0.0373,-0.112 0.0373,-0.224 0,-0.13066 0,-0.29866 v -2.184 h -1.43733 v -1.568 h 3.21066 v 3.752 q 0,0.392 -0.0187,0.672 -0.0187,0.26133 -0.0747,0.46666 -0.056,0.20534 -0.14933,0.392 -0.0747,0.168 -0.18667,0.35467 z"
       style="font-style:normal;font-variant:normal;font-weight:normal;font-stretch:normal;line-height:0.92;font-family:'Roadgeek 2005 Engschrift';-inkscape-font-specification:'Roadgeek 2005 Engschrift';fill:#ffffff;stroke:none"
       id="path2181" />
    <path
       d="M 313.9544,432.55127 V 420.0446 h 3.136 q 1.232,0 2.072,0.85867 0.85867,0.85866 0.85867,2.10933 v 1.15733 q 0,1.736 -1.47467,2.65067 l 1.904,5.73067 h -1.904 l -1.68,-5.35734 h -1.12 v 5.35734 z m 3.976,-7.336 q 0.168,-0.20534 0.224,-0.46667 0.0747,-0.26133 0.0747,-0.57867 v -1.15733 q 0,-0.57867 -0.31733,-0.93333 -0.31734,-0.37334 -0.896,-0.37334 h -1.26934 v 3.90134 h 1.25067 q 0.56,0 0.93333,-0.392 z"
       style="font-style:normal;font-variant:normal;font-weight:normal;font-stretch:normal;line-height:0.92;font-family:'Roadgeek 2005 Engschrift';-inkscape-font-specification:'Roadgeek 2005 Engschrift';fill:#ffffff;stroke:none"
       id="path2183" />
    <path
       d="m 321.50863,421.2206 q 0.42933,-0.59733 1.08267,-0.93333 0.672,-0.35467 1.38133,-0.35467 0.69067,0 1.288,0.28 0.616,0.28 1.02667,0.76533 0.41066,0.48534 0.56,1.008 0.14933,0.504 0.14933,1.10134 v 6.36533 q 0,0.56 -0.112,0.98933 -0.0933,0.42934 -0.448,0.952 -0.336,0.52267 -0.98933,0.896 -0.63467,0.37334 -1.41867,0.37334 -0.448,0 -0.85867,-0.112 -0.41066,-0.13067 -0.76533,-0.336 -0.35467,-0.20534 -0.63467,-0.46667 -0.26133,-0.26133 -0.41066,-0.54133 -0.28,-0.57867 -0.336,-0.93334 -0.056,-0.35466 -0.056,-0.82133 v -6.36533 q 0,-0.56 0.112,-0.98934 0.13066,-0.448 0.42933,-0.87733 z m 3.472,0.98933 q -0.35467,-0.52266 -0.97067,-0.52266 -0.31733,0 -0.63466,0.18666 -0.29867,0.168 -0.42934,0.392 -0.112,0.224 -0.14933,0.448 -0.0373,0.224 -0.0373,0.37334 v 6.36533 q 0,0.0933 0,0.20533 0,0.0933 0.0187,0.20534 0.0187,0.18666 0.29867,0.616 0.28,0.392 0.93333,0.392 0.336,0 0.59734,-0.14934 0.28,-0.168 0.392,-0.37333 0.13066,-0.224 0.168,-0.41067 0.0373,-0.18666 0.0373,-0.48533 v -6.36533 q 0,-0.37334 -0.0373,-0.52267 -0.0187,-0.14933 -0.18667,-0.35467 z"
       style="font-style:normal;font-variant:normal;font-weight:normal;font-stretch:normal;line-height:0.92;font-family:'Roadgeek 2005 Engschrift';-inkscape-font-specification:'Roadgeek 2005 Engschrift';fill:#ffffff;stroke:none"
       id="path2185" />
    <path
       d="m 334.316,432.55127 -1.47467,-7.616 -1.43733,7.616 h -1.66133 L 327.932,420.0446 h 1.904 l 0.896,7.56 1.43733,-7.56 h 1.32534 l 1.47466,7.56 0.896,-7.56 h 1.88534 l -1.75467,12.50667 z"
       style="font-style:normal;font-variant:normal;font-weight:normal;font-stretch:normal;line-height:0.92;font-family:'Roadgeek 2005 Engschrift';-inkscape-font-specification:'Roadgeek 2005 Engschrift';fill:#ffffff;stroke:none"
       id="path2187" />
    <path
       d="m 340.25405,432.55127 v -10.84534 h -2.10934 v -1.66133 h 6.02934 v 1.66133 h -2.14667 v 10.84534 z"
       style="font-style:normal;font-variant:normal;font-weight:normal;font-stretch:normal;line-height:0.92;font-family:'Roadgeek 2005 Engschrift';-inkscape-font-specification:'Roadgeek 2005 Engschrift';fill:#ffffff;stroke:none"
       id="path2189" />
    <path
       d="M 345.0531,432.55127 V 420.0446 h 1.77334 v 5.33867 h 2.27733 v -5.33867 h 1.77333 v 12.50667 h -1.77333 v -5.58134 h -2.27733 v 5.58134 z"
       style="font-style:normal;font-variant:normal;font-weight:normal;font-stretch:normal;line-height:0.92;font-family:'Roadgeek 2005 Engschrift';-inkscape-font-specification:'Roadgeek 2005 Engschrift';fill:#ffffff;stroke:none"
       id="path2191" />
  </g>
  <g
     aria-label="8"
     style="font-style:normal;font-variant:normal;font-weight:normal;font-stretch:normal;font-size:13.3333px;line-height:1.25;font-family:'Liberation Serif';-inkscape-font-specification:'Liberation Serif';letter-spacing:0px;word-spacing:0px;fill:#ffffff;fill-opacity:1;stroke:none"
     id="text6075-0-6-9-2-5-9-0"
     transform="translate(-209.89253,-389.72833)">
    <path
       d="m 238.034,425.8179 v 0.31267 q 0,0.98267 -0.44667,2.05467 -0.44667,1.072 -1.25067,2.01 -0.804,0.89333 -1.92066,1.474 -1.11667,0.58066 -2.412,0.58066 h -0.134 q -0.938,0 -1.876,-0.268 -0.89334,-0.268 -1.69734,-0.71466 -0.75933,-0.44667 -1.34,-0.98267 -0.58066,-0.58067 -0.84866,-1.206 -0.58067,-1.25067 -0.71467,-2.05467 -0.134,-0.84866 -0.134,-1.69733 v -5.226 q 0,-2.32267 2.144,-3.93067 -2.144,-1.608 -2.144,-4.422 v -4.02 q 0,-0.938 0.31267,-1.742 0.31266,-0.84866 1.608,-2.546 1.25066,-1.65266 4.60066,-1.65266 1.206,0 2.36734,0.536 1.11666,0.536 2.50133,1.96533 1.38467,1.38467 1.38467,3.93067 v 3.84133 q 0,2.59067 -2.144,4.10933 2.144,1.56334 2.144,4.24334 z m -6.34267,-19.78733 q -0.938,0 -1.56333,0.67 -0.62534,0.62533 -0.62534,1.51867 v 3.84133 q 0,1.02733 0.536,1.78667 0.58067,0.71466 1.608,0.71466 1.11667,0 1.608,-0.67 0.536,-0.71466 0.536,-1.83133 v -3.84133 q 0,-0.84867 -0.62533,-1.51867 -0.58067,-0.67 -1.474,-0.67 z m 0,11.792 q -0.98267,0 -1.608,0.67 -0.58067,0.62533 -0.58067,1.608 v 5.226 q 0,1.16133 0.536,1.92067 0.536,0.71466 1.742,0.71466 1.16134,0 1.56334,-0.75933 0.44666,-0.804 0.44666,-1.876 v -5.226 q 0,-0.98267 -0.58066,-1.608 -0.536,-0.67 -1.51867,-0.67 z"
       style="font-style:normal;font-variant:normal;font-weight:normal;font-stretch:normal;font-size:44.6667px;font-family:'Roadgeek 2005 Engschrift';-inkscape-font-specification:'Roadgeek 2005 Engschrift';fill:#ffffff;stroke:none"
       id="path2194" />
  </g>
  <path
     id="path7328"
     style="color:#000000;font-style:normal;font-variant:normal;font-weight:normal;font-stretch:normal;font-size:medium;line-height:normal;font-family:sans-serif;font-variant-ligatures:normal;font-variant-position:normal;font-variant-caps:normal;font-variant-numeric:normal;font-variant-alternates:normal;font-feature-settings:normal;text-indent:0;text-align:start;text-decoration:none;text-decoration-line:none;text-decoration-style:solid;text-decoration-color:#000000;letter-spacing:normal;word-spacing:normal;text-transform:none;writing-mode:lr-tb;direction:ltr;text-orientation:mixed;dominant-baseline:auto;baseline-shift:baseline;text-anchor:start;white-space:normal;shape-padding:0;clip-rule:nonzero;display:inline;overflow:visible;visibility:visible;opacity:1;isolation:auto;mix-blend-mode:normal;color-interpolation:sRGB;color-interpolation-filters:linearRGB;solid-color:#000000;solid-opacity:1;vector-effect:none;fill:#ffffff;fill-opacity:1;fill-rule:nonzero;stroke:none;stroke-width:5;stroke-linecap:butt;stroke-linejoin:round;stroke-miterlimit:4;stroke-dasharray:none;stroke-dashoffset:0;stroke-opacity:1;color-rendering:auto;image-rendering:auto;shape-rendering:auto;text-rendering:auto;enable-background:accumulate"
     d="m 109.28911,54.332217 c -0.0615,-6.3e-4 -0.12555,0.006 -0.18945,0.0234 l -12.218752,3.27344 c -0.51147,0.13708 -0.68202,0.77692 -0.30664,1.15039 l 2.64062,2.64063 -26.08984,26.10742 -10.38477,-10.38281 c -0.97632,-0.97592 -2.55883,-0.97592 -3.53515,0 l -20.9668,20.96679 3.53711,3.535163 19.19726,-19.199223 10.38282,10.38477 c 0.97655,0.97722 2.56056,0.97722 3.53711,0 l 27.857422,-27.87696 2.76758,2.76758 c 0.13135,0.13139 0.31033,0.20396 0.49609,0.20117 0.3071,-0.004 0.57426,-0.2113 0.6543,-0.50781 l 3.27343,-12.21875 c 0.12041,-0.44734 -0.22212,-0.86082 -0.65234,-0.86523 z m -6.53906,17.69531 -16.460942,16.47266 v 40.238283 c 0,1.058 0.85215,1.9082 1.91016,1.9082 h 14.000002 c 1.058,0 1.91015,-0.8502 1.91015,-1.9082 V 73.386897 Z m -42.267582,17.98242 -17.81836,17.820313 v 20.90821 c 0,1.058 0.85216,1.9082 1.91016,1.9082 h 14 c 1.058,0 1.9082,-0.8502 1.9082,-1.9082 z m 21.8125,2.48633 -7.40234,7.4082 c -0.97655,0.977223 -2.56056,0.977223 -3.53711,0 l -6.87891,-6.88086 v 35.714853 c 0,1.058 0.85216,1.9082 1.91016,1.9082 h 14 c 1.058,0 1.9082,-0.8502 1.9082,-1.9082 z" />
  <path
     inkscape:connector-curvature="0"
     style="color:#000000;font-style:normal;font-variant:normal;font-weight:normal;font-stretch:normal;font-size:medium;line-height:normal;font-family:sans-serif;font-variant-ligatures:normal;font-variant-position:normal;font-variant-caps:normal;font-variant-numeric:normal;font-variant-alternates:normal;font-feature-settings:normal;text-indent:0;text-align:start;text-decoration:none;text-decoration-line:none;text-decoration-style:solid;text-decoration-color:#000000;letter-spacing:normal;word-spacing:normal;text-transform:none;writing-mode:lr-tb;direction:ltr;text-orientation:mixed;dominant-baseline:auto;baseline-shift:baseline;text-anchor:start;white-space:normal;shape-padding:0;clip-rule:nonzero;display:inline;overflow:visible;visibility:visible;opacity:1;isolation:auto;mix-blend-mode:normal;color-interpolation:sRGB;color-interpolation-filters:linearRGB;solid-color:#000000;solid-opacity:1;vector-effect:none;fill:#ffffff;fill-opacity:1;fill-rule:nonzero;stroke:none;stroke-width:5;stroke-linecap:butt;stroke-linejoin:round;stroke-miterlimit:4;stroke-dasharray:none;stroke-dashoffset:0;stroke-opacity:1;color-rendering:auto;image-rendering:auto;shape-rendering:auto;text-rendering:auto;enable-background:accumulate"
     d="m 109.28911,54.332217 c -0.0615,-6.3e-4 -0.12555,0.006 -0.18945,0.0234 l -12.218752,3.27344 c -0.51147,0.13708 -0.68202,0.77692 -0.30664,1.15039 l 2.64062,2.64063 -26.08984,26.10742 -10.38477,-10.38281 c -0.97632,-0.97592 -2.55883,-0.97592 -3.53515,0 l -20.9668,20.96679 3.53711,3.535163 19.19726,-19.199223 10.38282,10.38477 c 0.97655,0.97722 2.56056,0.97722 3.53711,0 l 27.857422,-27.87696 2.76758,2.76758 c 0.13135,0.13139 0.31033,0.20396 0.49609,0.20117 0.3071,-0.004 0.57426,-0.2113 0.6543,-0.50781 l 3.27343,-12.21875 c 0.12041,-0.44734 -0.22212,-0.86082 -0.65234,-0.86523 z"
     id="path7328-8" />
</svg>
