<?xml version="1.0" encoding="UTF-8" standalone="no"?>
<!-- Created with Inkscape (http://www.inkscape.org/) -->

<svg
   version="1.1"
   id="svg2"
   width="148.09277"
   height="148.33458"
   viewBox="0 0 148.09277 148.33458"
   sodipodi:docname="Sustainable_Development_Goals.svg"
   inkscape:version="0.92.3 (2405546, 2018-03-11)"
   inkscape:export-filename="sdg_1.svg"
   inkscape:export-xdpi="96"
   inkscape:export-ydpi="96"
   xmlns:inkscape="http://www.inkscape.org/namespaces/inkscape"
   xmlns:sodipodi="http://sodipodi.sourceforge.net/DTD/sodipodi-0.dtd"
   xmlns="http://www.w3.org/2000/svg"
   xmlns:svg="http://www.w3.org/2000/svg"
   xmlns:rdf="http://www.w3.org/1999/02/22-rdf-syntax-ns#"
   xmlns:cc="http://creativecommons.org/ns#"
   xmlns:dc="http://purl.org/dc/elements/1.1/">
  <metadata
     id="metadata8">
    <rdf:RDF>
      <cc:Work
         rdf:about="">
        <dc:format>image/svg+xml</dc:format>
        <dc:type
           rdf:resource="http://purl.org/dc/dcmitype/StillImage" />
        <dc:title />
      </cc:Work>
    </rdf:RDF>
  </metadata>
  <defs
     id="defs6" />
  <sodipodi:namedview
     pagecolor="#ffffff"
     bordercolor="#666666"
     borderopacity="1"
     objecttolerance="10"
     gridtolerance="10"
     guidetolerance="10"
     inkscape:pageopacity="0"
     inkscape:pageshadow="2"
     inkscape:window-width="1920"
     inkscape:window-height="1061"
     id="namedview4"
     showgrid="false"
     inkscape:zoom="1.0772059"
     inkscape:cx="528"
     inkscape:cy="408"
     inkscape:window-x="1920"
     inkscape:window-y="0"
     inkscape:window-maximized="1"
     inkscape:current-layer="svg2"
     showguides="true"
     inkscape:guide-bbox="true"
     inkscape:snap-global="true"
     inkscape:snap-center="true"
     inkscape:snap-object-midpoints="true"
     inkscape:snap-bbox="true"
     inkscape:snap-bbox-midpoints="true"
     inkscape:showpageshadow="2"
     inkscape:pagecheckerboard="0"
     inkscape:deskcolor="#d1d1d1" />
  <path
     style="opacity:1;fill:#279b48;fill-opacity:1;fill-rule:evenodd;stroke:none;stroke-width:4;stroke-linecap:round;stroke-linejoin:round;stroke-miterlimit:4;stroke-dasharray:none;stroke-dashoffset:0;stroke-opacity:1"
     d="M 0.8267501,4.9462891e-6 H 147.266 c 0.45803,0 0.82676,0.3687300037109 0.82676,0.8267500037109 V 147.50782 c 0,0.45802 -0.36873,0.82675 -0.82676,0.82675 H 0.8267501 C 0.3687301,148.33457 9.7656255e-8,147.96584 9.7656255e-8,147.50782 V 0.82675495 C 9.7656255e-8,0.36873495 0.3687301,4.9462891e-6 0.8267501,4.9462891e-6 Z"
     id="rect8528-6"
     inkscape:export-filename="../rect8528-6.svg"
     inkscape:export-xdpi="96"
     inkscape:export-ydpi="96" />
  <style
     id="style970"
     type="text/css">
	.st0{fill:#418FDE;}
</style>
  <g
     aria-label="GOOD HEALTH AND WELLBEING"
     style="font-style:normal;font-variant:normal;font-weight:normal;font-stretch:normal;font-size:18.6667px;line-height:0.92;font-family:'Roadgeek 2005 Series B';-inkscape-font-specification:'Roadgeek 2005 Series B';letter-spacing:0px;word-spacing:0px;fill:#ffffff;fill-opacity:1;stroke:none"
     id="text6065-3-2"
     transform="translate(-373.86615,-228.93456)">
    <path
       d="m 423.19669,253.37989 q -0.42933,0.672 -1.10133,1.04533 -0.672,0.37333 -1.47467,0.37333 -0.70933,0 -1.38133,-0.336 -0.65333,-0.336 -1.02667,-0.82133 -0.35466,-0.504 -0.48533,-1.008 -0.112,-0.504 -0.112,-1.13867 v -6.25333 q 0,-0.46667 0.0933,-0.93333 0.13067,-0.46667 0.69067,-1.32534 0.57867,-0.91466 2.27733,-0.91466 0.74667,0 1.4,0.35466 0.65334,0.35467 0.98934,0.87734 0.35466,0.504 0.448,0.97066 0.112,0.448 0.112,0.97067 v 0.52267 h -1.77334 v -0.52267 q 0,-0.14933 -0.0187,-0.26133 0,-0.13067 -0.0187,-0.224 -0.0187,-0.168 -0.28,-0.54134 -0.26133,-0.37333 -0.87733,-0.37333 -0.728,0 -0.97067,0.392 -0.224,0.392 -0.26133,0.57867 -0.0373,0.18666 -0.0373,0.42933 v 6.25333 q 0,0.18667 0,0.31734 0,0.13066 0.0187,0.224 0.0187,0.14933 0.28,0.57866 0.24267,0.392 0.952,0.392 0.728,0 0.93333,-0.392 0.112,-0.20533 0.168,-0.336 0.056,-0.14933 0.0747,-0.26133 0.0373,-0.112 0.0373,-0.224 0,-0.13067 0,-0.29867 v -2.184 h -1.43733 v -1.568 h 3.21067 v 3.752 q 0,0.392 -0.0187,0.672 -0.0187,0.26134 -0.0747,0.46667 -0.056,0.20533 -0.14933,0.392 -0.0747,0.168 -0.18667,0.35467 z"
       style="font-style:normal;font-variant:normal;font-weight:normal;font-stretch:normal;line-height:0.92;font-family:'Roadgeek 2005 Engschrift';-inkscape-font-specification:'Roadgeek 2005 Engschrift';fill:#ffffff;stroke:none"
       id="path1921" />
    <path
       d="m 425.60092,243.35589 q 0.42934,-0.59734 1.08267,-0.93334 0.672,-0.35466 1.38133,-0.35466 0.69067,0 1.288,0.28 0.616,0.28 1.02667,0.76533 0.41067,0.48533 0.56,1.008 0.14933,0.504 0.14933,1.10133 v 6.36534 q 0,0.56 -0.112,0.98933 -0.0933,0.42933 -0.448,0.952 -0.336,0.52267 -0.98933,0.896 -0.63467,0.37333 -1.41867,0.37333 -0.448,0 -0.85866,-0.112 -0.41067,-0.13066 -0.76534,-0.336 -0.35466,-0.20533 -0.63466,-0.46666 -0.26134,-0.26134 -0.41067,-0.54134 -0.28,-0.57866 -0.336,-0.93333 -0.056,-0.35467 -0.056,-0.82133 v -6.36534 q 0,-0.56 0.112,-0.98933 0.13067,-0.448 0.42933,-0.87733 z m 3.472,0.98933 q -0.35466,-0.52267 -0.97066,-0.52267 -0.31734,0 -0.63467,0.18667 -0.29867,0.168 -0.42933,0.392 -0.112,0.224 -0.14934,0.448 -0.0373,0.224 -0.0373,0.37333 v 6.36534 q 0,0.0933 0,0.20533 0,0.0933 0.0187,0.20533 0.0187,0.18667 0.29866,0.616 0.28,0.392 0.93334,0.392 0.336,0 0.59733,-0.14933 0.28,-0.168 0.392,-0.37333 0.13067,-0.224 0.168,-0.41067 0.0373,-0.18667 0.0373,-0.48533 v -6.36534 q 0,-0.37333 -0.0373,-0.52266 -0.0187,-0.14934 -0.18667,-0.35467 z"
       style="font-style:normal;font-variant:normal;font-weight:normal;font-stretch:normal;line-height:0.92;font-family:'Roadgeek 2005 Engschrift';-inkscape-font-specification:'Roadgeek 2005 Engschrift';fill:#ffffff;stroke:none"
       id="path1923" />
    <path
       d="m 433.15229,243.35589 q 0.42933,-0.59734 1.08266,-0.93334 0.672,-0.35466 1.38134,-0.35466 0.69066,0 1.288,0.28 0.616,0.28 1.02666,0.76533 0.41067,0.48533 0.56,1.008 0.14934,0.504 0.14934,1.10133 v 6.36534 q 0,0.56 -0.112,0.98933 -0.0933,0.42933 -0.448,0.952 -0.336,0.52267 -0.98934,0.896 -0.63466,0.37333 -1.41866,0.37333 -0.448,0 -0.85867,-0.112 -0.41067,-0.13066 -0.76533,-0.336 -0.35467,-0.20533 -0.63467,-0.46666 -0.26133,-0.26134 -0.41067,-0.54134 -0.28,-0.57866 -0.336,-0.93333 -0.056,-0.35467 -0.056,-0.82133 v -6.36534 q 0,-0.56 0.112,-0.98933 0.13067,-0.448 0.42934,-0.87733 z m 3.472,0.98933 q -0.35467,-0.52267 -0.97067,-0.52267 -0.31733,0 -0.63467,0.18667 -0.29866,0.168 -0.42933,0.392 -0.112,0.224 -0.14933,0.448 -0.0373,0.224 -0.0373,0.37333 v 6.36534 q 0,0.0933 0,0.20533 0,0.0933 0.0187,0.20533 0.0187,0.18667 0.29867,0.616 0.28,0.392 0.93333,0.392 0.336,0 0.59733,-0.14933 0.28,-0.168 0.392,-0.37333 0.13067,-0.224 0.168,-0.41067 0.0373,-0.18667 0.0373,-0.48533 v -6.36534 q 0,-0.37333 -0.0373,-0.52266 -0.0187,-0.14934 -0.18666,-0.35467 z"
       style="font-style:normal;font-variant:normal;font-weight:normal;font-stretch:normal;line-height:0.92;font-family:'Roadgeek 2005 Engschrift';-inkscape-font-specification:'Roadgeek 2005 Engschrift';fill:#ffffff;stroke:none"
       id="path1925" />
    <path
       d="m 443.13032,242.17989 q 1.21333,0 2.072,0.85866 0.87733,0.84 0.87733,2.05334 v 6.496 q 0,1.38133 -0.84,2.24 -0.84,0.85866 -2.16533,0.85866 h -2.78134 v -12.50666 z m 1.176,9.408 v -6.496 q 0,-0.52267 -0.392,-0.87734 -0.37334,-0.35466 -0.91467,-0.35466 h -0.93333 v 9.16533 h 0.87733 q 1.36267,0 1.36267,-1.43733 z"
       style="font-style:normal;font-variant:normal;font-weight:normal;font-stretch:normal;line-height:0.92;font-family:'Roadgeek 2005 Engschrift';-inkscape-font-specification:'Roadgeek 2005 Engschrift';fill:#ffffff;stroke:none"
       id="path1927" />
    <path
       d="m 449.49788,254.68655 v -12.50666 h 1.77333 v 5.33866 h 2.27734 v -5.33866 h 1.77333 v 12.50666 h -1.77333 v -5.58133 h -2.27734 v 5.58133 z"
       style="font-style:normal;font-variant:normal;font-weight:normal;font-stretch:normal;line-height:0.92;font-family:'Roadgeek 2005 Engschrift';-inkscape-font-specification:'Roadgeek 2005 Engschrift';fill:#ffffff;stroke:none"
       id="path1929" />
    <path
       d="m 462.33815,252.89455 v 1.792 h -5.35734 v -12.50666 h 5.35734 v 1.64266 h -3.584 v 3.696 h 3.136 v 1.69867 h -3.136 v 3.67733 z"
       style="font-style:normal;font-variant:normal;font-weight:normal;font-stretch:normal;line-height:0.92;font-family:'Roadgeek 2005 Engschrift';-inkscape-font-specification:'Roadgeek 2005 Engschrift';fill:#ffffff;stroke:none"
       id="path1931" />
    <path
       d="m 462.60478,254.68655 2.8,-12.50666 h 1.54933 l 2.8,12.50666 h -1.92267 l -0.504,-2.688 h -2.31466 l -0.52267,2.688 z m 2.72533,-4.34933 h 1.68 l -0.84,-4.55467 z"
       style="font-style:normal;font-variant:normal;font-weight:normal;font-stretch:normal;line-height:0.92;font-family:'Roadgeek 2005 Engschrift';-inkscape-font-specification:'Roadgeek 2005 Engschrift';fill:#ffffff;stroke:none"
       id="path1933" />
    <path
       d="m 476.02348,254.68655 h -5.33866 v -12.50666 h 1.792 v 10.71466 h 3.54666 z"
       style="font-style:normal;font-variant:normal;font-weight:normal;font-stretch:normal;line-height:0.92;font-family:'Roadgeek 2005 Engschrift';-inkscape-font-specification:'Roadgeek 2005 Engschrift';fill:#ffffff;stroke:none"
       id="path1935" />
    <path
       d="m 476.83298,254.68655 v -10.84533 h -2.10933 v -1.66133 h 6.02933 v 1.66133 h -2.14666 v 10.84533 z"
       style="font-style:normal;font-variant:normal;font-weight:normal;font-stretch:normal;line-height:0.92;font-family:'Roadgeek 2005 Engschrift';-inkscape-font-specification:'Roadgeek 2005 Engschrift';fill:#ffffff;stroke:none"
       id="path1937" />
    <path
       d="m 481.71192,254.68655 v -12.50666 h 1.77333 v 5.33866 h 2.27733 v -5.33866 h 1.77334 v 12.50666 h -1.77334 v -5.58133 h -2.27733 v 5.58133 z"
       style="font-style:normal;font-variant:normal;font-weight:normal;font-stretch:normal;line-height:0.92;font-family:'Roadgeek 2005 Engschrift';-inkscape-font-specification:'Roadgeek 2005 Engschrift';fill:#ffffff;stroke:none"
       id="path1939" />
    <path
       d="m 416.79403,271.93353 2.8,-12.50667 h 1.54933 l 2.8,12.50667 h -1.92267 l -0.504,-2.688 h -2.31466 l -0.52267,2.688 z m 2.72533,-4.34933 h 1.68 l -0.84,-4.55467 z"
       style="font-style:normal;font-variant:normal;font-weight:normal;font-stretch:normal;line-height:0.92;font-family:'Roadgeek 2005 Engschrift';-inkscape-font-specification:'Roadgeek 2005 Engschrift';fill:#ffffff;stroke:none"
       id="path1941" />
    <path
       d="m 429.42873,271.93353 -2.78133,-7.59733 v 7.59733 h -1.792 v -12.50667 h 1.69867 l 2.76266,7.57867 v -7.57867 h 1.792 v 12.50667 z"
       style="font-style:normal;font-variant:normal;font-weight:normal;font-stretch:normal;line-height:0.92;font-family:'Roadgeek 2005 Engschrift';-inkscape-font-specification:'Roadgeek 2005 Engschrift';fill:#ffffff;stroke:none"
       id="path1943" />
    <path
       d="m 435.89586,259.42686 q 1.21333,0 2.072,0.85867 0.87733,0.84 0.87733,2.05333 v 6.496 q 0,1.38134 -0.84,2.24 -0.84,0.85867 -2.16533,0.85867 h -2.78133 v -12.50667 z m 1.176,9.408 v -6.496 q 0,-0.52266 -0.392,-0.87733 -0.37333,-0.35467 -0.91467,-0.35467 h -0.93333 v 9.16534 h 0.87733 q 1.36267,0 1.36267,-1.43734 z"
       style="font-style:normal;font-variant:normal;font-weight:normal;font-stretch:normal;line-height:0.92;font-family:'Roadgeek 2005 Engschrift';-inkscape-font-specification:'Roadgeek 2005 Engschrift';fill:#ffffff;stroke:none"
       id="path1945" />
    <path
       d="m 448.07145,271.93353 -1.47467,-7.616 -1.43733,7.616 h -1.66134 l -1.81066,-12.50667 h 1.904 l 0.896,7.56 1.43733,-7.56 h 1.32533 l 1.47467,7.56 0.896,-7.56 h 1.88533 l -1.75466,12.50667 z"
       style="font-style:normal;font-variant:normal;font-weight:normal;font-stretch:normal;line-height:0.92;font-family:'Roadgeek 2005 Engschrift';-inkscape-font-specification:'Roadgeek 2005 Engschrift';fill:#ffffff;stroke:none"
       id="path1947" />
    <path
       d="m 457.78814,270.14153 v 1.792 h -5.35733 v -12.50667 h 5.35733 v 1.64267 h -3.584 v 3.696 h 3.136 v 1.69867 h -3.136 v 3.67733 z"
       style="font-style:normal;font-variant:normal;font-weight:normal;font-stretch:normal;line-height:0.92;font-family:'Roadgeek 2005 Engschrift';-inkscape-font-specification:'Roadgeek 2005 Engschrift';fill:#ffffff;stroke:none"
       id="path1949" />
    <path
       d="m 463.79873,271.93353 h -5.33867 v -12.50667 h 1.792 v 10.71467 h 3.54667 z"
       style="font-style:normal;font-variant:normal;font-weight:normal;font-stretch:normal;line-height:0.92;font-family:'Roadgeek 2005 Engschrift';-inkscape-font-specification:'Roadgeek 2005 Engschrift';fill:#ffffff;stroke:none"
       id="path1951" />
    <path
       d="m 469.65899,271.93353 h -5.33867 v -12.50667 h 1.792 v 10.71467 h 3.54667 z"
       style="font-style:normal;font-variant:normal;font-weight:normal;font-stretch:normal;line-height:0.92;font-family:'Roadgeek 2005 Engschrift';-inkscape-font-specification:'Roadgeek 2005 Engschrift';fill:#ffffff;stroke:none"
       id="path1953" />
    <path
       d="m 475.51412,259.42686 q 0.57866,0 1.08266,0.24267 0.56,0.26133 1.13867,0.84 0.616,0.59733 0.616,1.86667 v 0.952 q 0,1.43733 -1.13867,2.016 1.13867,0.672 1.13867,2.09066 v 1.456 q 0,1.32534 -0.85867,2.184 -0.84,0.85867 -2.16533,0.85867 h -2.76267 v -12.50667 z m 1.064,3.71467 v -0.76533 q 0,-0.57867 -0.336,-0.91467 -0.336,-0.35467 -0.896,-0.35467 h -1.008 v 3.45334 h 1.064 q 0.616,0 0.896,-0.37334 0.28,-0.392 0.28,-1.04533 z m 0,5.74933 v -1.456 q 0,-0.59733 -0.336,-0.93333 -0.31734,-0.35467 -0.896,-0.35467 h -1.008 v 4.01334 h 1.02666 q 0.54134,0 0.87734,-0.35467 0.336,-0.37333 0.336,-0.91467 z"
       style="font-style:normal;font-variant:normal;font-weight:normal;font-stretch:normal;line-height:0.92;font-family:'Roadgeek 2005 Engschrift';-inkscape-font-specification:'Roadgeek 2005 Engschrift';fill:#ffffff;stroke:none"
       id="path1955" />
    <path
       d="m 485.04496,270.14153 v 1.792 h -5.35734 v -12.50667 h 5.35734 v 1.64267 h -3.584 v 3.696 h 3.136 v 1.69867 h -3.136 v 3.67733 z"
       style="font-style:normal;font-variant:normal;font-weight:normal;font-stretch:normal;line-height:0.92;font-family:'Roadgeek 2005 Engschrift';-inkscape-font-specification:'Roadgeek 2005 Engschrift';fill:#ffffff;stroke:none"
       id="path1957" />
    <path
       d="m 485.83955,271.93353 v -12.50667 h 1.77333 v 12.50667 z"
       style="font-style:normal;font-variant:normal;font-weight:normal;font-stretch:normal;line-height:0.92;font-family:'Roadgeek 2005 Engschrift';-inkscape-font-specification:'Roadgeek 2005 Engschrift';fill:#ffffff;stroke:none"
       id="path1959" />
    <path
       d="m 493.7076,271.93353 -2.78134,-7.59733 v 7.59733 h -1.792 v -12.50667 h 1.69867 l 2.76267,7.57867 v -7.57867 h 1.792 v 12.50667 z"
       style="font-style:normal;font-variant:normal;font-weight:normal;font-stretch:normal;line-height:0.92;font-family:'Roadgeek 2005 Engschrift';-inkscape-font-specification:'Roadgeek 2005 Engschrift';fill:#ffffff;stroke:none"
       id="path1961" />
    <path
       d="m 501.93998,270.62686 q -0.42933,0.672 -1.10133,1.04534 -0.672,0.37333 -1.47467,0.37333 -0.70933,0 -1.38133,-0.336 -0.65334,-0.336 -1.02667,-0.82133 -0.35467,-0.504 -0.48533,-1.008 -0.112,-0.504 -0.112,-1.13867 v -6.25333 q 0,-0.46667 0.0933,-0.93334 0.13067,-0.46666 0.69067,-1.32533 0.57866,-0.91467 2.27733,-0.91467 0.74667,0 1.4,0.35467 0.65333,0.35467 0.98933,0.87733 0.35467,0.504 0.448,0.97067 0.112,0.448 0.112,0.97067 v 0.52266 h -1.77333 v -0.52266 q 0,-0.14934 -0.0187,-0.26134 0,-0.13066 -0.0187,-0.224 -0.0187,-0.168 -0.28,-0.54133 -0.26134,-0.37333 -0.87734,-0.37333 -0.728,0 -0.97066,0.392 -0.224,0.392 -0.26134,0.57866 -0.0373,0.18667 -0.0373,0.42934 v 6.25333 q 0,0.18667 0,0.31733 0,0.13067 0.0187,0.224 0.0187,0.14934 0.28,0.57867 0.24266,0.392 0.952,0.392 0.728,0 0.93333,-0.392 0.112,-0.20533 0.168,-0.336 0.056,-0.14933 0.0747,-0.26133 0.0373,-0.112 0.0373,-0.224 0,-0.13067 0,-0.29867 v -2.184 h -1.43733 v -1.568 h 3.21066 v 3.752 q 0,0.392 -0.0187,0.672 -0.0187,0.26133 -0.0747,0.46667 -0.056,0.20533 -0.14933,0.392 -0.0747,0.168 -0.18667,0.35466 z"
       style="font-style:normal;font-variant:normal;font-weight:normal;font-stretch:normal;line-height:0.92;font-family:'Roadgeek 2005 Engschrift';-inkscape-font-specification:'Roadgeek 2005 Engschrift';fill:#ffffff;stroke:none"
       id="path1963" />
  </g>
  <g
     aria-label="3"
     style="font-style:normal;font-variant:normal;font-weight:normal;font-stretch:normal;font-size:13.3333px;line-height:1.25;font-family:'Liberation Serif';-inkscape-font-specification:'Liberation Serif';letter-spacing:0px;word-spacing:0px;fill:#ffffff;fill-opacity:1;stroke:none"
     id="text6075-0-6"
     transform="translate(-373.86615,-228.93456)">
    <path
       d="m 403.1736,264.4855 v 0.536 q 0,0.31267 -0.0447,0.71467 0,0.35733 -0.134,1.072 -0.62533,2.144 -2.36733,3.484 -1.69733,1.34 -3.97533,1.34 -1.78667,0 -3.39467,-1.072 -1.608,-1.11667 -2.05467,-2.18867 -0.268,-0.58067 -0.44666,-1.02733 -0.134,-0.44667 -0.22334,-0.84867 -0.0893,-0.402 -0.134,-0.84867 0,-0.49133 0,-1.16133 v -1.742 h 4.288 v 2.45667 q 0.0893,0.58066 0.49134,1.29533 0.44666,0.804 1.608,0.804 1.16133,0 1.65266,-0.804 0.49134,-0.804 0.49134,-2.01 v -4.60067 q -0.0447,-0.84866 -0.35734,-1.29533 -0.268,-0.44667 -0.67,-0.62533 -0.402,-0.22334 -0.84866,-0.22334 -0.44667,-0.0447 -0.804,-0.0447 h -0.75934 v -3.79667 h 0.75934 q 2.68,0 2.68,-2.50133 v -3.57334 q 0,-0.536 -0.0893,-0.89333 0,-0.134 -0.134,-0.402 -0.134,-0.268 -0.402,-0.536 -0.22333,-0.268 -0.58066,-0.44667 -0.35734,-0.17866 -0.84867,-0.17866 -1.11667,0 -1.65267,0.71466 -0.536,0.67 -0.536,1.742 v 2.18867 h -4.288 v -2.18867 q 0,-2.814 1.83134,-4.73466 1.78666,-1.92067 4.64533,-1.92067 1.56333,0 2.99267,0.804 1.474,0.804 2.144,1.876 0.71466,1.072 0.938,2.01 0.22333,0.938 0.22333,1.96533 v 3.484 q 0,2.90334 -2.546,4.422 1.42933,1.02734 1.96533,2.05467 0.58067,0.98267 0.58067,2.68 z"
       style="font-style:normal;font-variant:normal;font-weight:normal;font-stretch:normal;font-size:44.6667px;font-family:'Roadgeek 2005 Engschrift';-inkscape-font-specification:'Roadgeek 2005 Engschrift';fill:#ffffff;stroke:none"
       id="path1966" />
  </g>
  <path
     style="opacity:1;fill:none;stroke:#ffffff;stroke-width:3.4;stroke-linecap:round;stroke-linejoin:round;stroke-miterlimit:4;stroke-dasharray:none;stroke-opacity:1"
     d="m 26.92664,97.268865 h 24.48431 l 8.6026,-18.85953 4.3013,28.785605 10.25694,-18.418385 6.17622,34.961825 19.85215,-65.512075 9.15405,18.85955"
     id="path6921"
     inkscape:connector-curvature="0"
     sodipodi:nodetypes="cccccccc" />
  <path
     style="opacity:1;fill:#ffffff;fill-opacity:1;fill-rule:evenodd;stroke:none;stroke-width:0.1;stroke-linecap:round;stroke-linejoin:round;stroke-miterlimit:4;stroke-dasharray:none;stroke-dashoffset:0;stroke-opacity:1"
     d="m 112.88771,107.95477 c 0,0 6.73929,-6.85626 10.13826,-10.255225 1.04488,-1.04488 1.87167,-2.64593 1.87167,-4.56222 0,-3.38059 -1.45814,-7.87665 -6.47288,-7.87665 -2.85479,0 -5.23857,2.7502 -5.49806,3.04148 -0.3901,0.4379 -0.84224,0.4164 -1.1703,0 -0.24142,-0.30642 -2.64327,-3.04148 -5.49806,-3.04148 -5.01474,0 -6.47288,4.49606 -6.47288,7.87665 0,1.91629 0.82679,3.51734 1.87167,4.56222 3.39897,3.398965 10.13826,10.255225 10.13826,10.255225 0.37063,0.3936 0.66324,0.40085 1.09232,0 z"
     id="path6945" />
</svg>
