<?xml version="1.0" encoding="UTF-8" standalone="no"?>
<!-- Created with Inkscape (http://www.inkscape.org/) -->

<svg
   version="1.1"
   id="svg2"
   width="148.09277"
   height="148.33458"
   viewBox="0 0 148.09277 148.33458"
   sodipodi:docname="Sustainable_Development_Goals.svg"
   inkscape:version="0.92.3 (2405546, 2018-03-11)"
   inkscape:export-filename="sdg_1.svg"
   inkscape:export-xdpi="96"
   inkscape:export-ydpi="96"
   xmlns:inkscape="http://www.inkscape.org/namespaces/inkscape"
   xmlns:sodipodi="http://sodipodi.sourceforge.net/DTD/sodipodi-0.dtd"
   xmlns="http://www.w3.org/2000/svg"
   xmlns:svg="http://www.w3.org/2000/svg"
   xmlns:rdf="http://www.w3.org/1999/02/22-rdf-syntax-ns#"
   xmlns:cc="http://creativecommons.org/ns#"
   xmlns:dc="http://purl.org/dc/elements/1.1/">
  <metadata
     id="metadata8">
    <rdf:RDF>
      <cc:Work
         rdf:about="">
        <dc:format>image/svg+xml</dc:format>
        <dc:type
           rdf:resource="http://purl.org/dc/dcmitype/StillImage" />
        <dc:title />
      </cc:Work>
    </rdf:RDF>
  </metadata>
  <defs
     id="defs6" />
  <sodipodi:namedview
     pagecolor="#ffffff"
     bordercolor="#666666"
     borderopacity="1"
     objecttolerance="10"
     gridtolerance="10"
     guidetolerance="10"
     inkscape:pageopacity="0"
     inkscape:pageshadow="2"
     inkscape:window-width="1920"
     inkscape:window-height="1061"
     id="namedview4"
     showgrid="false"
     inkscape:zoom="1.0772059"
     inkscape:cx="528"
     inkscape:cy="408"
     inkscape:window-x="1920"
     inkscape:window-y="0"
     inkscape:window-maximized="1"
     inkscape:current-layer="svg2"
     showguides="true"
     inkscape:guide-bbox="true"
     inkscape:snap-global="true"
     inkscape:snap-center="true"
     inkscape:snap-object-midpoints="true"
     inkscape:snap-bbox="true"
     inkscape:snap-bbox-midpoints="true"
     inkscape:showpageshadow="2"
     inkscape:pagecheckerboard="0"
     inkscape:deskcolor="#d1d1d1" />
  <path
     style="opacity:1;fill:#c31f33;fill-opacity:1;fill-rule:evenodd;stroke:none;stroke-width:4;stroke-linecap:round;stroke-linejoin:round;stroke-miterlimit:4;stroke-dasharray:none;stroke-dashoffset:0;stroke-opacity:1"
     d="M 0.82675729,4.9462891e-6 H 147.26601 c 0.45802,0 0.82675,0.3687300037109 0.82675,0.8267500037109 V 147.50782 c 0,0.45802 -0.36873,0.82675 -0.82675,0.82675 H 0.82675729 c -0.45803,0 -0.8267600048437,-0.36873 -0.8267600048437,-0.82675 V 0.82675495 C -2.7148437e-6,0.36873495 0.36872729,4.9462891e-6 0.82675729,4.9462891e-6 Z"
     id="rect8528-63" />
  <style
     id="style970"
     type="text/css">
	.st0{fill:#418FDE;}
</style>
  <g
     aria-label="QUALITY EDUCATION"
     style="font-style:normal;font-variant:normal;font-weight:normal;font-stretch:normal;font-size:18.6667px;line-height:0.92;font-family:'Roadgeek 2005 Series B';-inkscape-font-specification:'Roadgeek 2005 Series B';letter-spacing:0px;word-spacing:0px;fill:#ffffff;fill-opacity:1;stroke:none"
     id="text6065-3-2-9"
     transform="translate(-537.83978,-228.93456)">
    <path
       d="m 582.0027,253.71589 q -0.42933,-0.46667 -0.57866,-0.98934 -0.13067,-0.52266 -0.13067,-1.232 v -6.216 q 0,-1.36266 0.85867,-2.27733 0.87733,-0.93333 2.20266,-0.93333 1.19467,0 2.10934,0.87733 0.896,0.87733 0.896,2.09067 v 6.45866 q 0,0.54134 -0.056,0.80267 -0.0373,0.26133 -0.14934,0.52267 l 1.176,0.98933 -0.98933,1.19467 -1.12,-0.896 q -0.82133,0.672 -1.97867,0.672 -0.616,0 -1.232,-0.29867 -0.59733,-0.29867 -1.008,-0.76533 z m 2.968,-2.688 0.59734,0.46666 v -6.216 q 0,-0.59733 -0.336,-1.008 -0.336,-0.42933 -0.93334,-0.42933 -0.37333,0 -0.65333,0.18667 -0.28,0.18666 -0.41067,0.448 -0.112,0.26133 -0.13066,0.41066 -0.0187,0.13067 -0.0187,0.392 v 6.216 0.13067 q 0,0.54133 0.29867,0.97067 0.31733,0.41066 0.97066,0.42933 0.18667,0 0.448,-0.112 l -0.82133,-0.69067 z"
       style="font-style:normal;font-variant:normal;font-weight:normal;font-stretch:normal;line-height:0.92;font-family:'Roadgeek 2005 Engschrift';-inkscape-font-specification:'Roadgeek 2005 Engschrift';fill:#ffffff;stroke:none"
       id="path1969" />
    <path
       d="m 594.49362,253.37989 q -0.41067,0.63466 -1.064,1.02666 -0.63467,0.392 -1.41867,0.392 -0.392,0 -0.784,-0.112 -0.37333,-0.112 -0.70933,-0.28 -0.336,-0.18666 -0.59733,-0.41066 -0.26134,-0.24267 -0.392,-0.504 -0.28,-0.52267 -0.37334,-0.91467 -0.0747,-0.392 -0.0747,-0.84 v -9.55733 h 1.792 v 9.55733 q 0,0.13067 0,0.24267 0.0187,0.0933 0.0373,0.18666 0.0187,0.14934 0.28,0.52267 0.24267,0.336 0.84,0.336 0.54133,0 0.80267,-0.392 0.28,-0.41067 0.28,-0.896 v -9.55733 h 1.792 v 9.55733 q 0,0.448 -0.0933,0.85867 -0.0933,0.41066 -0.31733,0.784 z"
       style="font-style:normal;font-variant:normal;font-weight:normal;font-stretch:normal;line-height:0.92;font-family:'Roadgeek 2005 Engschrift';-inkscape-font-specification:'Roadgeek 2005 Engschrift';fill:#ffffff;stroke:none"
       id="path1971" />
    <path
       d="m 595.85745,254.68655 2.8,-12.50666 h 1.54934 l 2.79999,12.50666 h -1.92266 l -0.504,-2.688 h -2.31467 l -0.52266,2.688 z m 2.72534,-4.34933 h 1.68 l -0.84,-4.55467 z"
       style="font-style:normal;font-variant:normal;font-weight:normal;font-stretch:normal;line-height:0.92;font-family:'Roadgeek 2005 Engschrift';-inkscape-font-specification:'Roadgeek 2005 Engschrift';fill:#ffffff;stroke:none"
       id="path1973" />
    <path
       d="m 609.27616,254.68655 h -5.33867 v -12.50666 h 1.792 v 10.71466 h 3.54667 z"
       style="font-style:normal;font-variant:normal;font-weight:normal;font-stretch:normal;line-height:0.92;font-family:'Roadgeek 2005 Engschrift';-inkscape-font-specification:'Roadgeek 2005 Engschrift';fill:#ffffff;stroke:none"
       id="path1975" />
    <path
       d="m 609.77909,254.68655 v -12.50666 h 1.77333 v 12.50666 z"
       style="font-style:normal;font-variant:normal;font-weight:normal;font-stretch:normal;line-height:0.92;font-family:'Roadgeek 2005 Engschrift';-inkscape-font-specification:'Roadgeek 2005 Engschrift';fill:#ffffff;stroke:none"
       id="path1977" />
    <path
       d="m 614.65248,254.68655 v -10.84533 h -2.10934 v -1.66133 h 6.02934 v 1.66133 h -2.14667 v 10.84533 z"
       style="font-style:normal;font-variant:normal;font-weight:normal;font-stretch:normal;line-height:0.92;font-family:'Roadgeek 2005 Engschrift';-inkscape-font-specification:'Roadgeek 2005 Engschrift';fill:#ffffff;stroke:none"
       id="path1979" />
    <path
       d="m 621.19544,254.68655 v -5.376 l -2.42667,-7.13066 h 1.86667 l 1.456,4.89066 1.47466,-4.89066 h 1.88534 l -2.48267,7.13066 v 5.376 z"
       style="font-style:normal;font-variant:normal;font-weight:normal;font-stretch:normal;line-height:0.92;font-family:'Roadgeek 2005 Engschrift';-inkscape-font-specification:'Roadgeek 2005 Engschrift';fill:#ffffff;stroke:none"
       id="path1981" />
    <path
       d="m 586.78137,270.14153 v 1.792 h -5.35733 v -12.50667 h 5.35733 v 1.64267 h -3.584 v 3.696 h 3.136 v 1.69867 h -3.136 v 3.67733 z"
       style="font-style:normal;font-variant:normal;font-weight:normal;font-stretch:normal;line-height:0.92;font-family:'Roadgeek 2005 Engschrift';-inkscape-font-specification:'Roadgeek 2005 Engschrift';fill:#ffffff;stroke:none"
       id="path1983" />
    <path
       d="m 590.97868,259.42686 q 1.21333,0 2.072,0.85867 0.87733,0.84 0.87733,2.05333 v 6.496 q 0,1.38134 -0.84,2.24 -0.84,0.85867 -2.16533,0.85867 h -2.78134 v -12.50667 z m 1.176,9.408 v -6.496 q 0,-0.52266 -0.392,-0.87733 -0.37334,-0.35467 -0.91467,-0.35467 h -0.93333 v 9.16534 h 0.87733 q 1.36267,0 1.36267,-1.43734 z"
       style="font-style:normal;font-variant:normal;font-weight:normal;font-stretch:normal;line-height:0.92;font-family:'Roadgeek 2005 Engschrift';-inkscape-font-specification:'Roadgeek 2005 Engschrift';fill:#ffffff;stroke:none"
       id="path1985" />
    <path
       d="m 600.85532,270.62686 q -0.41067,0.63467 -1.064,1.02667 -0.63467,0.392 -1.41867,0.392 -0.392,0 -0.784,-0.112 -0.37333,-0.112 -0.70933,-0.28 -0.336,-0.18667 -0.59733,-0.41067 -0.26134,-0.24266 -0.392,-0.504 -0.28,-0.52266 -0.37334,-0.91466 -0.0747,-0.392 -0.0747,-0.84 v -9.55734 h 1.792 v 9.55734 q 0,0.13066 0,0.24266 0.0187,0.0933 0.0373,0.18667 0.0187,0.14933 0.28,0.52267 0.24267,0.336 0.84,0.336 0.54133,0 0.80267,-0.392 0.28,-0.41067 0.28,-0.896 v -9.55734 h 1.792 v 9.55734 q 0,0.448 -0.0933,0.85866 -0.0933,0.41067 -0.31733,0.784 z"
       style="font-style:normal;font-variant:normal;font-weight:normal;font-stretch:normal;line-height:0.92;font-family:'Roadgeek 2005 Engschrift';-inkscape-font-specification:'Roadgeek 2005 Engschrift';fill:#ffffff;stroke:none"
       id="path1987" />
    <path
       d="m 608.56313,268.77886 q 0,0.59734 -0.0747,1.02667 -0.056,0.42933 -0.37333,0.93333 -0.168,0.26134 -0.42934,0.504 -0.24266,0.224 -0.55999,0.41067 -0.29867,0.168 -0.65334,0.28 -0.35466,0.112 -0.69066,0.112 -0.84,0 -1.53067,-0.35467 -0.672,-0.35466 -0.98933,-0.896 -0.31734,-0.54133 -0.41067,-1.008 -0.0747,-0.46666 -0.0747,-1.008 v -6.44 q 0,-0.52266 0.0933,-0.93333 0.112,-0.42933 0.448,-0.91467 0.336,-0.48533 0.952,-0.82133 0.616,-0.35467 1.288,-0.35467 1.288,0 2.14666,0.85867 0.85867,0.84 0.85867,2.16533 v 0.672 h -1.77333 v -0.672 q 0,-0.52266 -0.29867,-0.87733 -0.28,-0.35467 -0.84,-0.35467 -0.52267,0 -0.82133,0.35467 -0.28,0.35467 -0.28,0.87733 v 6.92534 q 0.0373,0.28 0.26133,0.63466 0.26133,0.37334 0.85867,0.37334 0.63466,0 0.84,-0.336 0.20533,-0.336 0.24266,-0.48534 0.0373,-0.168 0.0373,-0.448 v -0.63466 h 1.77333 z"
       style="font-style:normal;font-variant:normal;font-weight:normal;font-stretch:normal;line-height:0.92;font-family:'Roadgeek 2005 Engschrift';-inkscape-font-specification:'Roadgeek 2005 Engschrift';fill:#ffffff;stroke:none"
       id="path1989" />
    <path
       d="m 609.15521,271.93353 2.8,-12.50667 h 1.54934 l 2.79999,12.50667 h -1.92266 l -0.504,-2.688 h -2.31467 l -0.52266,2.688 z m 2.72534,-4.34933 h 1.68 l -0.84,-4.55467 z"
       style="font-style:normal;font-variant:normal;font-weight:normal;font-stretch:normal;line-height:0.92;font-family:'Roadgeek 2005 Engschrift';-inkscape-font-specification:'Roadgeek 2005 Engschrift';fill:#ffffff;stroke:none"
       id="path1991" />
    <path
       d="M 617.80585,271.93353 V 261.0882 h -2.10934 v -1.66134 h 6.02934 v 1.66134 h -2.14667 v 10.84533 z"
       style="font-style:normal;font-variant:normal;font-weight:normal;font-stretch:normal;line-height:0.92;font-family:'Roadgeek 2005 Engschrift';-inkscape-font-specification:'Roadgeek 2005 Engschrift';fill:#ffffff;stroke:none"
       id="path1993" />
    <path
       d="m 622.68478,271.93353 v -12.50667 h 1.77334 v 12.50667 z"
       style="font-style:normal;font-variant:normal;font-weight:normal;font-stretch:normal;line-height:0.92;font-family:'Roadgeek 2005 Engschrift';-inkscape-font-specification:'Roadgeek 2005 Engschrift';fill:#ffffff;stroke:none"
       id="path1995" />
    <path
       d="m 626.6143,260.60286 q 0.42934,-0.59733 1.08267,-0.93333 0.672,-0.35467 1.38133,-0.35467 0.69067,0 1.288,0.28 0.616,0.28 1.02667,0.76534 0.41067,0.48533 0.56,1.008 0.14933,0.504 0.14933,1.10133 v 6.36533 q 0,0.56 -0.112,0.98934 -0.0933,0.42933 -0.448,0.952 -0.336,0.52266 -0.98933,0.896 -0.63467,0.37333 -1.41867,0.37333 -0.448,0 -0.85866,-0.112 -0.41067,-0.13067 -0.76534,-0.336 -0.35466,-0.20533 -0.63466,-0.46667 -0.26134,-0.26133 -0.41067,-0.54133 -0.28,-0.57867 -0.336,-0.93333 -0.056,-0.35467 -0.056,-0.82134 v -6.36533 q 0,-0.56 0.112,-0.98933 0.13067,-0.448 0.42933,-0.87734 z m 3.472,0.98934 q -0.35466,-0.52267 -0.97066,-0.52267 -0.31734,0 -0.63467,0.18667 -0.29867,0.168 -0.42933,0.392 -0.112,0.224 -0.14934,0.448 -0.0373,0.224 -0.0373,0.37333 v 6.36533 q 0,0.0933 0,0.20534 0,0.0933 0.0187,0.20533 0.0187,0.18667 0.29866,0.616 0.28,0.392 0.93334,0.392 0.336,0 0.59733,-0.14933 0.28,-0.168 0.392,-0.37334 0.13067,-0.224 0.168,-0.41066 0.0373,-0.18667 0.0373,-0.48534 v -6.36533 q 0,-0.37333 -0.0373,-0.52267 -0.0187,-0.14933 -0.18667,-0.35466 z"
       style="font-style:normal;font-variant:normal;font-weight:normal;font-stretch:normal;line-height:0.92;font-family:'Roadgeek 2005 Engschrift';-inkscape-font-specification:'Roadgeek 2005 Engschrift';fill:#ffffff;stroke:none"
       id="path1997" />
    <path
       d="m 637.9871,271.93353 -2.78134,-7.59733 v 7.59733 h -1.792 v -12.50667 h 1.69867 l 2.76267,7.57867 v -7.57867 h 1.792 v 12.50667 z"
       style="font-style:normal;font-variant:normal;font-weight:normal;font-stretch:normal;line-height:0.92;font-family:'Roadgeek 2005 Engschrift';-inkscape-font-specification:'Roadgeek 2005 Engschrift';fill:#ffffff;stroke:none"
       id="path1999" />
  </g>
  <g
     aria-label="4"
     style="font-style:normal;font-variant:normal;font-weight:normal;font-stretch:normal;font-size:13.3333px;line-height:1.25;font-family:'Liberation Serif';-inkscape-font-specification:'Liberation Serif';letter-spacing:0px;word-spacing:0px;fill:#ffffff;fill-opacity:1;stroke:none"
     id="text6075-0-6-9"
     transform="translate(-537.83978,-228.93456)">
    <path
       d="m 561.75964,271.36417 v -4.556 h -8.53133 v -4.02 l 6.20866,-21.35067 h 4.51134 l -6.38734,21.35067 h 4.19867 v -8.53134 h 4.288 v 8.53134 h 2.09933 v 4.02 h -2.09933 v 4.556 z"
       style="font-style:normal;font-variant:normal;font-weight:normal;font-stretch:normal;font-size:44.6667px;font-family:'Roadgeek 2005 Engschrift';-inkscape-font-specification:'Roadgeek 2005 Engschrift';fill:#ffffff;stroke:none"
       id="path2002" />
  </g>
  <path
     id="path7004"
     style="opacity:1;fill:#ffffff;fill-opacity:1;fill-rule:evenodd;stroke:none;stroke-width:0.1;stroke-linecap:round;stroke-linejoin:round;stroke-miterlimit:4;stroke-dasharray:none;stroke-dashoffset:0;stroke-opacity:1"
     d="m 112.95905,59.895525 c -1.52074,0.008 -3.04297,0.84174 -3.04297,2.47656 v 4.45703 h 6.08398 v -4.45703 c 0,-1.66574 -1.52028,-2.48429 -3.04101,-2.47656 z m -3.04297,8.84961 v 44.550775 l 3.04297,9.98242 3.04101,-9.98242 V 68.745135 Z m -70.577053,-4.30688 v 49.263775 l 26.10588,8.05114 V 79.622515 Z m 25.8853,62.939695 -31.598,-8.93347 V 66.498035 l 2.74921,-2.09877 v 52.017055 l 29.48529,8.60218 h 2.39715 l 29.48529,-8.60218 V 64.399265 l 2.749213,2.09877 v 51.946445 l -31.598003,8.93347 z m 29.55545,-62.939695 v 49.263775 l -26.10588,8.05114 V 79.622515 Z" />
</svg>
