<?xml version="1.0" encoding="UTF-8" standalone="no"?>
<!-- Created with Inkscape (http://www.inkscape.org/) -->

<svg
   version="1.1"
   id="svg2"
   width="148.09276"
   height="148.33458"
   viewBox="0 0 148.09276 148.33458"
   sodipodi:docname="Sustainable_Development_Goals.svg"
   inkscape:version="0.92.3 (2405546, 2018-03-11)"
   inkscape:export-filename="sdg_1.svg"
   inkscape:export-xdpi="96"
   inkscape:export-ydpi="96"
   xmlns:inkscape="http://www.inkscape.org/namespaces/inkscape"
   xmlns:sodipodi="http://sodipodi.sourceforge.net/DTD/sodipodi-0.dtd"
   xmlns="http://www.w3.org/2000/svg"
   xmlns:svg="http://www.w3.org/2000/svg"
   xmlns:rdf="http://www.w3.org/1999/02/22-rdf-syntax-ns#"
   xmlns:cc="http://creativecommons.org/ns#"
   xmlns:dc="http://purl.org/dc/elements/1.1/">
  <metadata
     id="metadata8">
    <rdf:RDF>
      <cc:Work
         rdf:about="">
        <dc:format>image/svg+xml</dc:format>
        <dc:type
           rdf:resource="http://purl.org/dc/dcmitype/StillImage" />
        <dc:title />
      </cc:Work>
    </rdf:RDF>
  </metadata>
  <defs
     id="defs6" />
  <sodipodi:namedview
     pagecolor="#ffffff"
     bordercolor="#666666"
     borderopacity="1"
     objecttolerance="10"
     gridtolerance="10"
     guidetolerance="10"
     inkscape:pageopacity="0"
     inkscape:pageshadow="2"
     inkscape:window-width="1920"
     inkscape:window-height="1061"
     id="namedview4"
     showgrid="false"
     inkscape:zoom="1.0772059"
     inkscape:cx="528"
     inkscape:cy="408"
     inkscape:window-x="1920"
     inkscape:window-y="0"
     inkscape:window-maximized="1"
     inkscape:current-layer="svg2"
     showguides="true"
     inkscape:guide-bbox="true"
     inkscape:snap-global="true"
     inkscape:snap-center="true"
     inkscape:snap-object-midpoints="true"
     inkscape:snap-bbox="true"
     inkscape:snap-bbox-midpoints="true"
     inkscape:showpageshadow="2"
     inkscape:pagecheckerboard="0"
     inkscape:deskcolor="#d1d1d1" />
  <path
     style="opacity:1;fill:#d3a029;fill-opacity:1;fill-rule:evenodd;stroke:none;stroke-width:4;stroke-linecap:round;stroke-linejoin:round;stroke-miterlimit:4;stroke-dasharray:none;stroke-dashoffset:0;stroke-opacity:1"
     d="M 0.82675765,4.9462891e-6 H 147.26601 c 0.45802,0 0.82675,0.3687300037109 0.82675,0.8267500037109 V 147.50782 c 0,0.45802 -0.36873,0.82675 -0.82675,0.82675 H 0.82675765 c -0.45803,0 -0.8267599986328,-0.36873 -0.8267599986328,-0.82675 V 0.82675495 C -2.3486328e-6,0.36873495 0.36872765,4.9462891e-6 0.82675765,4.9462891e-6 Z"
     id="rect8528" />
  <style
     id="style970"
     type="text/css">
	.st0{fill:#418FDE;}
</style>
  <g
     aria-label="ZERO HUNGER"
     style="font-style:normal;font-variant:normal;font-weight:normal;font-stretch:normal;font-size:18.6667px;line-height:0.92;font-family:'Roadgeek 2005 Series B';-inkscape-font-specification:'Roadgeek 2005 Series B';letter-spacing:0px;word-spacing:0px;fill:#ffffff;fill-opacity:1;stroke:none"
     id="text6065-3"
     transform="translate(-209.89253,-228.93456)">
    <path
       d="m 252.66118,254.68655 v -1.60533 l 3.36,-9.24 h -3.11734 v -1.66133 h 5.11467 v 1.43733 l -3.34133,9.27733 h 3.34133 v 1.792 z"
       style="font-style:normal;font-variant:normal;font-weight:normal;font-stretch:normal;line-height:0.92;font-family:'Roadgeek 2005 Engschrift';-inkscape-font-specification:'Roadgeek 2005 Engschrift';fill:#ffffff;stroke:none"
       id="path1897" />
    <path
       d="m 264.88143,252.89455 v 1.792 h -5.35734 v -12.50666 h 5.35734 v 1.64266 h -3.584 v 3.696 h 3.136 v 1.69867 h -3.136 v 3.67733 z"
       style="font-style:normal;font-variant:normal;font-weight:normal;font-stretch:normal;line-height:0.92;font-family:'Roadgeek 2005 Engschrift';-inkscape-font-specification:'Roadgeek 2005 Engschrift';fill:#ffffff;stroke:none"
       id="path1899" />
    <path
       d="m 265.7987,254.68655 v -12.50666 h 3.136 q 1.232,0 2.072,0.85866 0.85867,0.85867 0.85867,2.10934 v 1.15733 q 0,1.736 -1.47467,2.65067 l 1.904,5.73066 h -1.904 l -1.68,-5.35733 h -1.12 v 5.35733 z m 3.976,-7.336 q 0.168,-0.20533 0.224,-0.46666 0.0747,-0.26134 0.0747,-0.57867 v -1.15733 q 0,-0.57867 -0.31734,-0.93334 -0.31733,-0.37333 -0.896,-0.37333 h -1.26933 v 3.90133 h 1.25067 q 0.56,0 0.93333,-0.392 z"
       style="font-style:normal;font-variant:normal;font-weight:normal;font-stretch:normal;line-height:0.92;font-family:'Roadgeek 2005 Engschrift';-inkscape-font-specification:'Roadgeek 2005 Engschrift';fill:#ffffff;stroke:none"
       id="path1901" />
    <path
       d="m 273.46249,243.35589 q 0.42933,-0.59734 1.08267,-0.93334 0.672,-0.35466 1.38133,-0.35466 0.69067,0 1.288,0.28 0.616,0.28 1.02667,0.76533 0.41066,0.48533 0.56,1.008 0.14933,0.504 0.14933,1.10133 v 6.36534 q 0,0.56 -0.112,0.98933 -0.0933,0.42933 -0.448,0.952 -0.336,0.52267 -0.98933,0.896 -0.63467,0.37333 -1.41867,0.37333 -0.448,0 -0.85867,-0.112 -0.41066,-0.13066 -0.76533,-0.336 -0.35467,-0.20533 -0.63467,-0.46666 -0.26133,-0.26134 -0.41066,-0.54134 -0.28,-0.57866 -0.336,-0.93333 -0.056,-0.35467 -0.056,-0.82133 v -6.36534 q 0,-0.56 0.112,-0.98933 0.13066,-0.448 0.42933,-0.87733 z m 3.472,0.98933 q -0.35467,-0.52267 -0.97067,-0.52267 -0.31733,0 -0.63466,0.18667 -0.29867,0.168 -0.42934,0.392 -0.112,0.224 -0.14933,0.448 -0.0373,0.224 -0.0373,0.37333 v 6.36534 q 0,0.0933 0,0.20533 0,0.0933 0.0187,0.20533 0.0187,0.18667 0.29867,0.616 0.28,0.392 0.93333,0.392 0.336,0 0.59734,-0.14933 0.28,-0.168 0.392,-0.37333 0.13066,-0.224 0.168,-0.41067 0.0373,-0.18667 0.0373,-0.48533 v -6.36534 q 0,-0.37333 -0.0373,-0.52266 -0.0187,-0.14934 -0.18667,-0.35467 z"
       style="font-style:normal;font-variant:normal;font-weight:normal;font-stretch:normal;line-height:0.92;font-family:'Roadgeek 2005 Engschrift';-inkscape-font-specification:'Roadgeek 2005 Engschrift';fill:#ffffff;stroke:none"
       id="path1903" />
    <path
       d="m 253.03451,271.93353 v -12.50667 h 1.77333 v 5.33867 h 2.27734 v -5.33867 h 1.77333 v 12.50667 h -1.77333 v -5.58133 h -2.27734 v 5.58133 z"
       style="font-style:normal;font-variant:normal;font-weight:normal;font-stretch:normal;line-height:0.92;font-family:'Roadgeek 2005 Engschrift';-inkscape-font-specification:'Roadgeek 2005 Engschrift';fill:#ffffff;stroke:none"
       id="path1905" />
    <path
       d="m 266.21347,270.62686 q -0.41067,0.63467 -1.064,1.02667 -0.63467,0.392 -1.41867,0.392 -0.392,0 -0.784,-0.112 -0.37333,-0.112 -0.70933,-0.28 -0.336,-0.18667 -0.59734,-0.41067 -0.26133,-0.24266 -0.392,-0.504 -0.28,-0.52266 -0.37333,-0.91466 -0.0747,-0.392 -0.0747,-0.84 v -9.55734 h 1.792 v 9.55734 q 0,0.13066 0,0.24266 0.0187,0.0933 0.0373,0.18667 0.0187,0.14933 0.28,0.52267 0.24266,0.336 0.84,0.336 0.54133,0 0.80266,-0.392 0.28,-0.41067 0.28,-0.896 v -9.55734 h 1.792 v 9.55734 q 0,0.448 -0.0933,0.85866 -0.0933,0.41067 -0.31733,0.784 z"
       style="font-style:normal;font-variant:normal;font-weight:normal;font-stretch:normal;line-height:0.92;font-family:'Roadgeek 2005 Engschrift';-inkscape-font-specification:'Roadgeek 2005 Engschrift';fill:#ffffff;stroke:none"
       id="path1907" />
    <path
       d="m 272.32523,271.93353 -2.78133,-7.59733 v 7.59733 h -1.792 v -12.50667 h 1.69867 l 2.76266,7.57867 v -7.57867 h 1.792 v 12.50667 z"
       style="font-style:normal;font-variant:normal;font-weight:normal;font-stretch:normal;line-height:0.92;font-family:'Roadgeek 2005 Engschrift';-inkscape-font-specification:'Roadgeek 2005 Engschrift';fill:#ffffff;stroke:none"
       id="path1909" />
    <path
       d="m 280.91098,270.62686 q -0.42933,0.672 -1.10133,1.04534 -0.672,0.37333 -1.47467,0.37333 -0.70933,0 -1.38133,-0.336 -0.65333,-0.336 -1.02667,-0.82133 -0.35466,-0.504 -0.48533,-1.008 -0.112,-0.504 -0.112,-1.13867 v -6.25333 q 0,-0.46667 0.0933,-0.93334 0.13067,-0.46666 0.69067,-1.32533 0.57867,-0.91467 2.27733,-0.91467 0.74667,0 1.4,0.35467 0.65334,0.35467 0.98934,0.87733 0.35466,0.504 0.448,0.97067 0.112,0.448 0.112,0.97067 v 0.52266 h -1.77334 v -0.52266 q 0,-0.14934 -0.0187,-0.26134 0,-0.13066 -0.0187,-0.224 -0.0187,-0.168 -0.28,-0.54133 -0.26133,-0.37333 -0.87733,-0.37333 -0.728,0 -0.97067,0.392 -0.224,0.392 -0.26133,0.57866 -0.0373,0.18667 -0.0373,0.42934 v 6.25333 q 0,0.18667 0,0.31733 0,0.13067 0.0187,0.224 0.0187,0.14934 0.28,0.57867 0.24267,0.392 0.952,0.392 0.728,0 0.93333,-0.392 0.112,-0.20533 0.168,-0.336 0.056,-0.14933 0.0747,-0.26133 0.0373,-0.112 0.0373,-0.224 0,-0.13067 0,-0.29867 v -2.184 h -1.43733 v -1.568 h 3.21067 v 3.752 q 0,0.392 -0.0187,0.672 -0.0187,0.26133 -0.0747,0.46667 -0.056,0.20533 -0.14933,0.392 -0.0747,0.168 -0.18667,0.35466 z"
       style="font-style:normal;font-variant:normal;font-weight:normal;font-stretch:normal;line-height:0.92;font-family:'Roadgeek 2005 Engschrift';-inkscape-font-specification:'Roadgeek 2005 Engschrift';fill:#ffffff;stroke:none"
       id="path1911" />
    <path
       d="m 288.04986,270.14153 v 1.792 h -5.35733 v -12.50667 h 5.35733 v 1.64267 h -3.584 v 3.696 h 3.136 v 1.69867 h -3.136 v 3.67733 z"
       style="font-style:normal;font-variant:normal;font-weight:normal;font-stretch:normal;line-height:0.92;font-family:'Roadgeek 2005 Engschrift';-inkscape-font-specification:'Roadgeek 2005 Engschrift';fill:#ffffff;stroke:none"
       id="path1913" />
    <path
       d="m 288.82579,271.93353 v -12.50667 h 3.136 q 1.232,0 2.072,0.85867 0.85867,0.85867 0.85867,2.10933 v 1.15734 q 0,1.736 -1.47467,2.65066 l 1.904,5.73067 h -1.904 l -1.68,-5.35733 h -1.12 v 5.35733 z m 3.976,-7.336 q 0.168,-0.20533 0.224,-0.46667 0.0747,-0.26133 0.0747,-0.57866 v -1.15734 q 0,-0.57866 -0.31734,-0.93333 -0.31733,-0.37333 -0.896,-0.37333 h -1.26933 v 3.90133 h 1.25067 q 0.56,0 0.93333,-0.392 z"
       style="font-style:normal;font-variant:normal;font-weight:normal;font-stretch:normal;line-height:0.92;font-family:'Roadgeek 2005 Engschrift';-inkscape-font-specification:'Roadgeek 2005 Engschrift';fill:#ffffff;stroke:none"
       id="path1915" />
  </g>
  <g
     aria-label="2"
     style="font-style:normal;font-variant:normal;font-weight:normal;font-stretch:normal;font-size:13.3333px;line-height:1.25;font-family:'Liberation Serif';-inkscape-font-specification:'Liberation Serif';letter-spacing:0px;word-spacing:0px;fill:#ffffff;fill-opacity:1;stroke:none"
     id="text6075-0"
     transform="translate(-209.89253,-228.93456)">
    <path
       d="m 238.4174,271.36417 h -12.73 v -3.93067 l 7.95067,-15.45467 q 0.536,-1.072 0.536,-2.18866 v -2.23334 q 0,-0.89333 -0.62534,-1.51866 -0.62533,-0.67 -1.51866,-0.67 -0.804,0 -1.474,0.58066 -0.62534,0.58067 -0.62534,1.42934 v 2.63533 h -4.33266 v -2.144 q 0,-1.742 1.29533,-4.24333 1.34,-2.45667 5.36,-2.45667 2.546,0 4.33267,1.92067 1.83133,1.96533 1.83133,4.46666 v 2.72467 q 0,1.83133 -0.98267,3.66267 l -6.7,13.17666 h 7.68267 z"
       style="font-style:normal;font-variant:normal;font-weight:normal;font-stretch:normal;font-size:44.6667px;font-family:'Roadgeek 2005 Engschrift';-inkscape-font-specification:'Roadgeek 2005 Engschrift';fill:#ffffff;stroke:none"
       id="path1918" />
  </g>
  <path
     id="path6925"
     style="opacity:1;fill:#ffffff;fill-opacity:1;fill-rule:evenodd;stroke:none;stroke-width:0.1;stroke-linecap:round;stroke-linejoin:round;stroke-miterlimit:4;stroke-dasharray:none;stroke-dashoffset:0;stroke-opacity:1"
     d="m 83.545738,129.20612 c 1.17407,0 1.38347,-1.27824 1.32577,-2.10564 -0.0702,-1.00557 0.89693,-1.1651 1.40376,-1.32577 5.71569,-1.81193 11.7114,-5.28829 16.455182,-10.29423 4.54768,-4.79901 8.13645,-9.77911 9.43638,-18.092885 0.15746,-1.00707 -0.4101,-1.79369 -1.40376,-1.79369 H 33.425658 c -0.99366,0 -1.56122,0.78662 -1.40376,1.79369 1.29993,8.313775 4.8887,13.293875 9.43638,18.092885 4.74377,5.00594 10.73948,8.4823 16.45517,10.29423 0.50683,0.16067 1.47395,0.3202 1.40376,1.32577 -0.0577,0.8274 0.1517,2.10564 1.32577,2.10564 z M 57.173988,92.195535 h 5.12847 c 0,0 2.35052,-6.56859 -3.25354,-12.18701 -1.79293,-1.79752 -2.92916,-4.4919 -2.92916,-7.03074 0,-4.82893 2.16703,-7.62523 2.80751,-8.65651 1.65102,-2.65841 -2.28383,-4.52833 -3.97731,-2.49557 -2.61573,3.13978 -4.13329,7.45543 -4.13329,11.54202 0,4.60542 2.23604,6.94404 4.52322,9.67033 4.24759,5.06307 1.8341,9.15748 1.8341,9.15748 z m 30.88269,0 h 5.12847 c 0,0 2.35052,-6.56859 -3.25354,-12.18701 -1.79293,-1.79752 -2.92916,-4.4919 -2.92916,-7.03074 0,-4.82893 2.16703,-7.62523 2.80751,-8.65651 1.65102,-2.65841 -2.28383,-4.52833 -3.97731,-2.49557 -2.61573,3.13978 -4.13329,7.45543 -4.13329,11.54202 0,4.60542 2.23604,6.94404 4.52322,9.67033 4.24759,5.06307 1.8341,9.15748 1.8341,9.15748 z m -15.36336,0 h 5.12847 c 0,0 2.35052,-6.56859 -3.25354,-12.18701 -1.79293,-1.79752 -2.92916,-4.4919 -2.92916,-7.03074 0,-4.82893 2.16703,-7.62523 2.80751,-8.65651 1.65102,-2.65841 -2.28383,-4.52833 -3.97731,-2.49557 -2.61573,3.13978 -4.13329,7.45543 -4.13329,11.54202 0,4.60542 2.23604,6.94404 4.52322,9.67033 4.24759,5.06307 1.8341,9.15748 1.8341,9.15748 z" />
</svg>
