<?xml version="1.0" encoding="UTF-8" standalone="no"?>
<!-- Created with Inkscape (http://www.inkscape.org/) -->

<svg
   version="1.1"
   id="svg2"
   width="148.09277"
   height="148.33459"
   viewBox="0 0 148.09277 148.33459"
   sodipodi:docname="Sustainable_Development_Goals.svg"
   inkscape:version="0.92.3 (2405546, 2018-03-11)"
   inkscape:export-filename="sdg_1.svg"
   inkscape:export-xdpi="96"
   inkscape:export-ydpi="96"
   xmlns:inkscape="http://www.inkscape.org/namespaces/inkscape"
   xmlns:sodipodi="http://sodipodi.sourceforge.net/DTD/sodipodi-0.dtd"
   xmlns="http://www.w3.org/2000/svg"
   xmlns:svg="http://www.w3.org/2000/svg"
   xmlns:rdf="http://www.w3.org/1999/02/22-rdf-syntax-ns#"
   xmlns:cc="http://creativecommons.org/ns#"
   xmlns:dc="http://purl.org/dc/elements/1.1/">
  <metadata
     id="metadata8">
    <rdf:RDF>
      <cc:Work
         rdf:about="">
        <dc:format>image/svg+xml</dc:format>
        <dc:type
           rdf:resource="http://purl.org/dc/dcmitype/StillImage" />
        <dc:title />
      </cc:Work>
    </rdf:RDF>
  </metadata>
  <defs
     id="defs6" />
  <sodipodi:namedview
     pagecolor="#ffffff"
     bordercolor="#666666"
     borderopacity="1"
     objecttolerance="10"
     gridtolerance="10"
     guidetolerance="10"
     inkscape:pageopacity="0"
     inkscape:pageshadow="2"
     inkscape:window-width="1920"
     inkscape:window-height="1061"
     id="namedview4"
     showgrid="false"
     inkscape:zoom="1.0772059"
     inkscape:cx="528"
     inkscape:cy="408"
     inkscape:window-x="1920"
     inkscape:window-y="0"
     inkscape:window-maximized="1"
     inkscape:current-layer="svg2"
     showguides="true"
     inkscape:guide-bbox="true"
     inkscape:snap-global="true"
     inkscape:snap-center="true"
     inkscape:snap-object-midpoints="true"
     inkscape:snap-bbox="true"
     inkscape:snap-bbox-midpoints="true"
     inkscape:showpageshadow="2"
     inkscape:pagecheckerboard="0"
     inkscape:deskcolor="#d1d1d1" />
  <path
     style="opacity:1;fill:#f36d25;fill-opacity:1;fill-rule:evenodd;stroke:none;stroke-width:4;stroke-linecap:round;stroke-linejoin:round;stroke-miterlimit:4;stroke-dasharray:none;stroke-dashoffset:0;stroke-opacity:1"
     d="M 0.8267501,-2.5195312e-6 H 147.266 c 0.45803,0 0.82676,0.3687299995312 0.82676,0.8267599995312 V 147.50783 c 0,0.45802 -0.36873,0.82675 -0.82676,0.82675 H 0.8267501 C 0.3687301,148.33458 9.7656255e-8,147.96585 9.7656255e-8,147.50783 V 0.82675748 C 9.7656255e-8,0.36872748 0.3687301,-2.5195312e-6 0.8267501,-2.5195312e-6 Z"
     id="rect8528-63-2-4-3-6-0-4" />
  <style
     id="style970"
     type="text/css">
	.st0{fill:#418FDE;}
</style>
  <g
     aria-label="INDUSTRY, INNOVATION AND INFRASTRUCTURE"
     style="font-style:normal;font-variant:normal;font-weight:normal;font-stretch:normal;font-size:18.6667px;line-height:0.92;font-family:'Roadgeek 2005 Series B';-inkscape-font-specification:'Roadgeek 2005 Series B';letter-spacing:0px;word-spacing:0px;fill:#ffffff;fill-opacity:1;stroke:none"
     id="text6065-3-2-9-6-6-5-0-0"
     transform="translate(-373.86615,-389.72833)">
    <path
       d="M 409.53829,414.96246 V 402.4558 h 1.77334 v 12.50666 z"
       style="font-style:normal;font-variant:normal;font-weight:normal;font-stretch:normal;line-height:0.92;font-family:'Roadgeek 2005 Engschrift';-inkscape-font-specification:'Roadgeek 2005 Engschrift';fill:#ffffff;stroke:none"
       id="path2197" />
    <path
       d="m 416.59125,414.96246 -2.78133,-7.59733 v 7.59733 h -1.792 V 402.4558 h 1.69866 l 2.76267,7.57866 v -7.57866 h 1.792 v 12.50666 z"
       style="font-style:normal;font-variant:normal;font-weight:normal;font-stretch:normal;line-height:0.92;font-family:'Roadgeek 2005 Engschrift';-inkscape-font-specification:'Roadgeek 2005 Engschrift';fill:#ffffff;stroke:none"
       id="path2199" />
    <path
       d="m 421.99016,402.4558 q 1.21334,0 2.072,0.85866 0.87734,0.84 0.87734,2.05334 v 6.496 q 0,1.38133 -0.84,2.24 -0.84,0.85866 -2.16534,0.85866 h -2.78133 V 402.4558 Z m 1.176,9.408 v -6.496 q 0,-0.52267 -0.392,-0.87734 -0.37333,-0.35466 -0.91466,-0.35466 h -0.93334 v 9.16533 h 0.87734 q 1.36266,0 1.36266,-1.43733 z"
       style="font-style:normal;font-variant:normal;font-weight:normal;font-stretch:normal;line-height:0.92;font-family:'Roadgeek 2005 Engschrift';-inkscape-font-specification:'Roadgeek 2005 Engschrift';fill:#ffffff;stroke:none"
       id="path2201" />
    <path
       d="m 431.38038,413.6558 q -0.41066,0.63466 -1.064,1.02666 -0.63466,0.392 -1.41866,0.392 -0.392,0 -0.784,-0.112 -0.37334,-0.112 -0.70934,-0.28 -0.336,-0.18666 -0.59733,-0.41066 -0.26133,-0.24267 -0.392,-0.504 -0.28,-0.52267 -0.37333,-0.91467 -0.0747,-0.392 -0.0747,-0.84 v -9.55733 h 1.792 v 9.55733 q 0,0.13067 0,0.24267 0.0187,0.0933 0.0373,0.18666 0.0187,0.14934 0.28,0.52267 0.24267,0.336 0.84,0.336 0.54134,0 0.80267,-0.392 0.28,-0.41067 0.28,-0.896 v -9.55733 h 1.792 v 9.55733 q 0,0.448 -0.0933,0.85867 -0.0933,0.41066 -0.31734,0.784 z"
       style="font-style:normal;font-variant:normal;font-weight:normal;font-stretch:normal;line-height:0.92;font-family:'Roadgeek 2005 Engschrift';-inkscape-font-specification:'Roadgeek 2005 Engschrift';fill:#ffffff;stroke:none"
       id="path2203" />
    <path
       d="m 434.29516,411.84513 q 0,0.18667 0,0.31733 0,0.13067 0.0187,0.224 0.0373,0.18667 0.28,0.54134 0.26133,0.37333 0.93333,0.37333 0.37334,0 0.69067,-0.14933 0.31733,-0.168 0.46667,-0.42934 0.112,-0.20533 0.13066,-0.392 0.0373,-0.18666 0.0373,-0.336 v -0.168 -0.87733 -0.168 q 0,-0.41067 -0.14934,-0.63467 -0.14933,-0.24266 -0.672,-0.54133 -0.35466,-0.18667 -1.26933,-0.52267 -0.91467,-0.336 -1.53067,-1.064 -0.616,-0.728 -0.616,-1.97866 v -0.56 q 0,-1.288 0.85867,-2.20267 0.87733,-0.93333 2.128,-0.93333 1.30667,0 2.16533,0.91466 0.87734,0.91467 0.87734,2.22134 v 0.56 h -1.792 v -0.56 q 0,-0.13067 -0.0187,-0.24267 0,-0.112 -0.0187,-0.20533 -0.0187,-0.0933 -0.0933,-0.224 -0.0747,-0.13067 -0.20533,-0.31734 -0.26134,-0.37333 -0.87734,-0.37333 -0.54133,0 -0.896,0.392 -0.336,0.392 -0.336,0.97067 v 0.56 0.168 q 0,0.37333 0.112,0.59733 0.13067,0.20533 0.59734,0.46667 0.14933,0.0747 0.448,0.20533 0.31733,0.112 0.76533,0.28 0.896,0.29867 1.60533,1.064 0.70934,0.76533 0.70934,2.016 v 1.008 q 0,0.65333 -0.13067,1.10133 -0.112,0.448 -0.76533,1.30667 -0.65334,0.82133 -2.184,0.82133 -1.624,0 -2.352,-1.04533 -0.728,-1.064 -0.728,-2.184 v -0.448 h 1.81066 z"
       style="font-style:normal;font-variant:normal;font-weight:normal;font-stretch:normal;line-height:0.92;font-family:'Roadgeek 2005 Engschrift';-inkscape-font-specification:'Roadgeek 2005 Engschrift';fill:#ffffff;stroke:none"
       id="path2205" />
    <path
       d="m 440.5087,414.96246 v -10.84533 h -2.10933 v -1.66133 h 6.02933 v 1.66133 h -2.14666 v 10.84533 z"
       style="font-style:normal;font-variant:normal;font-weight:normal;font-stretch:normal;line-height:0.92;font-family:'Roadgeek 2005 Engschrift';-inkscape-font-specification:'Roadgeek 2005 Engschrift';fill:#ffffff;stroke:none"
       id="path2207" />
    <path
       d="M 444.79709,414.96246 V 402.4558 h 3.136 q 1.232,0 2.072,0.85866 0.85867,0.85867 0.85867,2.10934 v 1.15733 q 0,1.736 -1.47467,2.65067 l 1.904,5.73066 h -1.904 l -1.68,-5.35733 h -1.12 v 5.35733 z m 3.976,-7.336 q 0.168,-0.20533 0.224,-0.46666 0.0747,-0.26134 0.0747,-0.57867 v -1.15733 q 0,-0.57867 -0.31733,-0.93334 -0.31734,-0.37333 -0.896,-0.37333 h -1.26934 v 3.90133 h 1.25067 q 0.56,0 0.93333,-0.392 z"
       style="font-style:normal;font-variant:normal;font-weight:normal;font-stretch:normal;line-height:0.92;font-family:'Roadgeek 2005 Engschrift';-inkscape-font-specification:'Roadgeek 2005 Engschrift';fill:#ffffff;stroke:none"
       id="path2209" />
    <path
       d="m 453.02896,414.96246 v -5.376 l -2.42667,-7.13066 h 1.86667 l 1.456,4.89066 1.47467,-4.89066 h 1.88533 l -2.48267,7.13066 v 5.376 z"
       style="font-style:normal;font-variant:normal;font-weight:normal;font-stretch:normal;line-height:0.92;font-family:'Roadgeek 2005 Engschrift';-inkscape-font-specification:'Roadgeek 2005 Engschrift';fill:#ffffff;stroke:none"
       id="path2211" />
    <path
       d="m 456.19489,416.2878 v -3.09867 h 1.792 v 1.77333 z"
       style="font-style:normal;font-variant:normal;font-weight:normal;font-stretch:normal;line-height:0.92;font-family:'Roadgeek 2005 Engschrift';-inkscape-font-specification:'Roadgeek 2005 Engschrift';fill:#ffffff;stroke:none"
       id="path2213" />
    <path
       d="M 460.70599,414.96246 V 402.4558 h 1.77333 v 12.50666 z"
       style="font-style:normal;font-variant:normal;font-weight:normal;font-stretch:normal;line-height:0.92;font-family:'Roadgeek 2005 Engschrift';-inkscape-font-specification:'Roadgeek 2005 Engschrift';fill:#ffffff;stroke:none"
       id="path2215" />
    <path
       d="m 467.97081,414.96246 -2.78134,-7.59733 v 7.59733 h -1.792 V 402.4558 h 1.69867 l 2.76267,7.57866 v -7.57866 h 1.792 v 12.50666 z"
       style="font-style:normal;font-variant:normal;font-weight:normal;font-stretch:normal;line-height:0.92;font-family:'Roadgeek 2005 Engschrift';-inkscape-font-specification:'Roadgeek 2005 Engschrift';fill:#ffffff;stroke:none"
       id="path2217" />
    <path
       d="m 474.72368,414.96246 -2.78133,-7.59733 v 7.59733 h -1.792 V 402.4558 h 1.69866 l 2.76267,7.57866 v -7.57866 h 1.792 v 12.50666 z"
       style="font-style:normal;font-variant:normal;font-weight:normal;font-stretch:normal;line-height:0.92;font-family:'Roadgeek 2005 Engschrift';-inkscape-font-specification:'Roadgeek 2005 Engschrift';fill:#ffffff;stroke:none"
       id="path2219" />
    <path
       d="m 477.49516,403.6318 q 0.42934,-0.59734 1.08267,-0.93334 0.672,-0.35466 1.38133,-0.35466 0.69067,0 1.288,0.28 0.616,0.28 1.02667,0.76533 0.41067,0.48533 0.56,1.008 0.14933,0.504 0.14933,1.10133 v 6.36534 q 0,0.56 -0.112,0.98933 -0.0933,0.42933 -0.448,0.952 -0.336,0.52267 -0.98933,0.896 -0.63467,0.37333 -1.41867,0.37333 -0.448,0 -0.85866,-0.112 -0.41067,-0.13066 -0.76534,-0.336 -0.35466,-0.20533 -0.63466,-0.46666 -0.26134,-0.26134 -0.41067,-0.54134 -0.28,-0.57866 -0.336,-0.93333 -0.056,-0.35467 -0.056,-0.82133 v -6.36534 q 0,-0.56 0.112,-0.98933 0.13067,-0.448 0.42933,-0.87733 z m 3.472,0.98933 q -0.35466,-0.52267 -0.97066,-0.52267 -0.31734,0 -0.63467,0.18667 -0.29867,0.168 -0.42933,0.392 -0.112,0.224 -0.14934,0.448 -0.0373,0.224 -0.0373,0.37333 v 6.36534 q 0,0.0933 0,0.20533 0,0.0933 0.0187,0.20533 0.0187,0.18667 0.29866,0.616 0.28,0.392 0.93334,0.392 0.336,0 0.59733,-0.14933 0.28,-0.168 0.392,-0.37333 0.13067,-0.224 0.168,-0.41067 0.0373,-0.18667 0.0373,-0.48533 v -6.36534 q 0,-0.37333 -0.0373,-0.52266 -0.0187,-0.14934 -0.18667,-0.35467 z"
       style="font-style:normal;font-variant:normal;font-weight:normal;font-stretch:normal;line-height:0.92;font-family:'Roadgeek 2005 Engschrift';-inkscape-font-specification:'Roadgeek 2005 Engschrift';fill:#ffffff;stroke:none"
       id="path2221" />
    <path
       d="m 485.75075,414.96246 -2.55734,-12.50666 h 1.86667 l 1.456,8.68 1.47467,-8.68 h 1.904 l -2.61334,12.50666 z"
       style="font-style:normal;font-variant:normal;font-weight:normal;font-stretch:normal;line-height:0.92;font-family:'Roadgeek 2005 Engschrift';-inkscape-font-specification:'Roadgeek 2005 Engschrift';fill:#ffffff;stroke:none"
       id="path2223" />
    <path
       d="m 489.12076,414.96246 2.8,-12.50666 h 1.54933 l 2.8,12.50666 h -1.92267 l -0.504,-2.688 h -2.31466 l -0.52267,2.688 z m 2.72533,-4.34933 h 1.68 l -0.84,-4.55467 z"
       style="font-style:normal;font-variant:normal;font-weight:normal;font-stretch:normal;line-height:0.92;font-family:'Roadgeek 2005 Engschrift';-inkscape-font-specification:'Roadgeek 2005 Engschrift';fill:#ffffff;stroke:none"
       id="path2225" />
    <path
       d="m 497.47135,414.96246 v -10.84533 h -2.10934 v -1.66133 h 6.02934 v 1.66133 h -2.14667 v 10.84533 z"
       style="font-style:normal;font-variant:normal;font-weight:normal;font-stretch:normal;line-height:0.92;font-family:'Roadgeek 2005 Engschrift';-inkscape-font-specification:'Roadgeek 2005 Engschrift';fill:#ffffff;stroke:none"
       id="path2227" />
    <path
       d="M 501.72656,414.96246 V 402.4558 h 1.77334 v 12.50666 z"
       style="font-style:normal;font-variant:normal;font-weight:normal;font-stretch:normal;line-height:0.92;font-family:'Roadgeek 2005 Engschrift';-inkscape-font-specification:'Roadgeek 2005 Engschrift';fill:#ffffff;stroke:none"
       id="path2229" />
    <path
       d="m 504.82872,403.6318 q 0.42933,-0.59734 1.08267,-0.93334 0.672,-0.35466 1.38133,-0.35466 0.69067,0 1.288,0.28 0.616,0.28 1.02667,0.76533 0.41066,0.48533 0.56,1.008 0.14933,0.504 0.14933,1.10133 v 6.36534 q 0,0.56 -0.112,0.98933 -0.0933,0.42933 -0.448,0.952 -0.336,0.52267 -0.98933,0.896 -0.63467,0.37333 -1.41867,0.37333 -0.448,0 -0.85867,-0.112 -0.41066,-0.13066 -0.76533,-0.336 -0.35467,-0.20533 -0.63467,-0.46666 -0.26133,-0.26134 -0.41066,-0.54134 -0.28,-0.57866 -0.336,-0.93333 -0.056,-0.35467 -0.056,-0.82133 v -6.36534 q 0,-0.56 0.112,-0.98933 0.13066,-0.448 0.42933,-0.87733 z m 3.472,0.98933 q -0.35467,-0.52267 -0.97067,-0.52267 -0.31733,0 -0.63466,0.18667 -0.29867,0.168 -0.42934,0.392 -0.112,0.224 -0.14933,0.448 -0.0373,0.224 -0.0373,0.37333 v 6.36534 q 0,0.0933 0,0.20533 0,0.0933 0.0187,0.20533 0.0187,0.18667 0.29867,0.616 0.28,0.392 0.93333,0.392 0.336,0 0.59734,-0.14933 0.28,-0.168 0.392,-0.37333 0.13066,-0.224 0.168,-0.41067 0.0373,-0.18667 0.0373,-0.48533 v -6.36534 q 0,-0.37333 -0.0373,-0.52266 -0.0187,-0.14934 -0.18667,-0.35467 z"
       style="font-style:normal;font-variant:normal;font-weight:normal;font-stretch:normal;line-height:0.92;font-family:'Roadgeek 2005 Engschrift';-inkscape-font-specification:'Roadgeek 2005 Engschrift';fill:#ffffff;stroke:none"
       id="path2231" />
    <path
       d="m 515.95896,414.96246 -2.78133,-7.59733 v 7.59733 h -1.792 V 402.4558 h 1.69867 l 2.76266,7.57866 v -7.57866 h 1.792 v 12.50666 z"
       style="font-style:normal;font-variant:normal;font-weight:normal;font-stretch:normal;line-height:0.92;font-family:'Roadgeek 2005 Engschrift';-inkscape-font-specification:'Roadgeek 2005 Engschrift';fill:#ffffff;stroke:none"
       id="path2233" />
    <path
       d="m 408.94886,432.20944 2.8,-12.50667 h 1.54933 l 2.8,12.50667 h -1.92267 l -0.504,-2.688 h -2.31466 l -0.52267,2.688 z m 2.72533,-4.34933 h 1.68 l -0.84,-4.55467 z"
       style="font-style:normal;font-variant:normal;font-weight:normal;font-stretch:normal;line-height:0.92;font-family:'Roadgeek 2005 Engschrift';-inkscape-font-specification:'Roadgeek 2005 Engschrift';fill:#ffffff;stroke:none"
       id="path2235" />
    <path
       d="m 420.79801,432.20944 -2.78133,-7.59733 v 7.59733 h -1.792 v -12.50667 h 1.69866 l 2.76267,7.57867 v -7.57867 h 1.792 v 12.50667 z"
       style="font-style:normal;font-variant:normal;font-weight:normal;font-stretch:normal;line-height:0.92;font-family:'Roadgeek 2005 Engschrift';-inkscape-font-specification:'Roadgeek 2005 Engschrift';fill:#ffffff;stroke:none"
       id="path2237" />
    <path
       d="m 426.23787,419.70277 q 1.21334,0 2.072,0.85867 0.87734,0.84 0.87734,2.05333 v 6.496 q 0,1.38134 -0.84,2.24 -0.84,0.85867 -2.16534,0.85867 h -2.78133 v -12.50667 z m 1.176,9.408 v -6.496 q 0,-0.52266 -0.392,-0.87733 -0.37333,-0.35467 -0.91466,-0.35467 h -0.93334 v 9.16534 h 0.87734 q 1.36266,0 1.36266,-1.43734 z"
       style="font-style:normal;font-variant:normal;font-weight:normal;font-stretch:normal;line-height:0.92;font-family:'Roadgeek 2005 Engschrift';-inkscape-font-specification:'Roadgeek 2005 Engschrift';fill:#ffffff;stroke:none"
       id="path2239" />
    <path
       d="m 431.76364,432.20944 v -12.50667 h 1.77333 v 12.50667 z"
       style="font-style:normal;font-variant:normal;font-weight:normal;font-stretch:normal;line-height:0.92;font-family:'Roadgeek 2005 Engschrift';-inkscape-font-specification:'Roadgeek 2005 Engschrift';fill:#ffffff;stroke:none"
       id="path2241" />
    <path
       d="m 438.96803,432.20944 -2.78133,-7.59733 v 7.59733 h -1.792 v -12.50667 h 1.69867 l 2.76266,7.57867 v -7.57867 h 1.792 v 12.50667 z"
       style="font-style:normal;font-variant:normal;font-weight:normal;font-stretch:normal;line-height:0.92;font-family:'Roadgeek 2005 Engschrift';-inkscape-font-specification:'Roadgeek 2005 Engschrift';fill:#ffffff;stroke:none"
       id="path2243" />
    <path
       d="m 441.208,432.20944 v -12.50667 h 5.33866 v 1.68 h -3.56533 v 3.752 h 3.11733 v 1.68 h -3.11733 v 5.39467 z"
       style="font-style:normal;font-variant:normal;font-weight:normal;font-stretch:normal;line-height:0.92;font-family:'Roadgeek 2005 Engschrift';-inkscape-font-specification:'Roadgeek 2005 Engschrift';fill:#ffffff;stroke:none"
       id="path2245" />
    <path
       d="m 446.81099,432.20944 v -12.50667 h 3.136 q 1.232,0 2.072,0.85867 0.85866,0.85867 0.85866,2.10933 v 1.15734 q 0,1.736 -1.47466,2.65066 l 1.904,5.73067 h -1.904 l -1.68,-5.35733 h -1.12 v 5.35733 z m 3.976,-7.336 q 0.168,-0.20533 0.224,-0.46667 0.0747,-0.26133 0.0747,-0.57866 v -1.15734 q 0,-0.57866 -0.31733,-0.93333 -0.31733,-0.37333 -0.896,-0.37333 h -1.26933 v 3.90133 h 1.25066 q 0.56,0 0.93334,-0.392 z"
       style="font-style:normal;font-variant:normal;font-weight:normal;font-stretch:normal;line-height:0.92;font-family:'Roadgeek 2005 Engschrift';-inkscape-font-specification:'Roadgeek 2005 Engschrift';fill:#ffffff;stroke:none"
       id="path2247" />
    <path
       d="m 453.06297,432.20944 2.8,-12.50667 h 1.54934 l 2.8,12.50667 h -1.92267 l -0.504,-2.688 h -2.31467 l -0.52266,2.688 z m 2.72534,-4.34933 h 1.68 l -0.84,-4.55467 z"
       style="font-style:normal;font-variant:normal;font-weight:normal;font-stretch:normal;line-height:0.92;font-family:'Roadgeek 2005 Engschrift';-inkscape-font-specification:'Roadgeek 2005 Engschrift';fill:#ffffff;stroke:none"
       id="path2249" />
    <path
       d="m 461.66413,429.09211 q 0,0.18666 0,0.31733 0,0.13067 0.0187,0.224 0.0373,0.18667 0.28,0.54133 0.26133,0.37334 0.93333,0.37334 0.37333,0 0.69067,-0.14934 0.31733,-0.168 0.46666,-0.42933 0.112,-0.20533 0.13067,-0.392 0.0373,-0.18667 0.0373,-0.336 v -0.168 -0.87733 -0.168 q 0,-0.41067 -0.14933,-0.63467 -0.14933,-0.24267 -0.672,-0.54133 -0.35467,-0.18667 -1.26933,-0.52267 -0.91467,-0.336 -1.53067,-1.064 -0.616,-0.728 -0.616,-1.97867 v -0.56 q 0,-1.288 0.85867,-2.20266 0.87733,-0.93334 2.128,-0.93334 1.30666,0 2.16533,0.91467 0.87733,0.91467 0.87733,2.22133 v 0.56 h -1.792 v -0.56 q 0,-0.13066 -0.0187,-0.24266 0,-0.112 -0.0187,-0.20534 -0.0187,-0.0933 -0.0933,-0.224 -0.0747,-0.13066 -0.20534,-0.31733 -0.26133,-0.37333 -0.87733,-0.37333 -0.54133,0 -0.896,0.392 -0.336,0.392 -0.336,0.97066 v 0.56 0.168 q 0,0.37334 0.112,0.59734 0.13067,0.20533 0.59733,0.46666 0.14934,0.0747 0.448,0.20534 0.31734,0.112 0.76534,0.28 0.896,0.29866 1.60533,1.064 0.70933,0.76533 0.70933,2.016 v 1.008 q 0,0.65333 -0.13066,1.10133 -0.112,0.448 -0.76534,1.30667 -0.65333,0.82133 -2.184,0.82133 -1.624,0 -2.352,-1.04533 -0.728,-1.064 -0.728,-2.184 v -0.448 h 1.81067 z"
       style="font-style:normal;font-variant:normal;font-weight:normal;font-stretch:normal;line-height:0.92;font-family:'Roadgeek 2005 Engschrift';-inkscape-font-specification:'Roadgeek 2005 Engschrift';fill:#ffffff;stroke:none"
       id="path2251" />
    <path
       d="m 467.82279,432.20944 v -10.84533 h -2.10933 v -1.66134 h 6.02933 v 1.66134 h -2.14667 v 10.84533 z"
       style="font-style:normal;font-variant:normal;font-weight:normal;font-stretch:normal;line-height:0.92;font-family:'Roadgeek 2005 Engschrift';-inkscape-font-specification:'Roadgeek 2005 Engschrift';fill:#ffffff;stroke:none"
       id="path2253" />
    <path
       d="m 472.05934,432.20944 v -12.50667 h 3.136 q 1.232,0 2.072,0.85867 0.85867,0.85867 0.85867,2.10933 v 1.15734 q 0,1.736 -1.47467,2.65066 l 1.904,5.73067 h -1.904 l -1.68,-5.35733 h -1.12 v 5.35733 z m 3.976,-7.336 q 0.168,-0.20533 0.224,-0.46667 0.0747,-0.26133 0.0747,-0.57866 v -1.15734 q 0,-0.57866 -0.31734,-0.93333 -0.31733,-0.37333 -0.896,-0.37333 h -1.26933 v 3.90133 h 1.25067 q 0.56,0 0.93333,-0.392 z"
       style="font-style:normal;font-variant:normal;font-weight:normal;font-stretch:normal;line-height:0.92;font-family:'Roadgeek 2005 Engschrift';-inkscape-font-specification:'Roadgeek 2005 Engschrift';fill:#ffffff;stroke:none"
       id="path2255" />
    <path
       d="m 483.95154,430.90277 q -0.41067,0.63467 -1.064,1.02667 -0.63467,0.392 -1.41867,0.392 -0.392,0 -0.784,-0.112 -0.37333,-0.112 -0.70933,-0.28 -0.336,-0.18667 -0.59734,-0.41067 -0.26133,-0.24266 -0.392,-0.504 -0.28,-0.52266 -0.37333,-0.91466 -0.0747,-0.392 -0.0747,-0.84 v -9.55734 h 1.792 v 9.55734 q 0,0.13066 0,0.24266 0.0187,0.0933 0.0373,0.18667 0.0187,0.14933 0.28,0.52267 0.24266,0.336 0.84,0.336 0.54133,0 0.80266,-0.392 0.28,-0.41067 0.28,-0.896 v -9.55734 h 1.792 v 9.55734 q 0,0.448 -0.0933,0.85866 -0.0933,0.41067 -0.31733,0.784 z"
       style="font-style:normal;font-variant:normal;font-weight:normal;font-stretch:normal;line-height:0.92;font-family:'Roadgeek 2005 Engschrift';-inkscape-font-specification:'Roadgeek 2005 Engschrift';fill:#ffffff;stroke:none"
       id="path2257" />
    <path
       d="m 491.15649,429.05477 q 0,0.59734 -0.0747,1.02667 -0.056,0.42933 -0.37333,0.93333 -0.168,0.26134 -0.42934,0.504 -0.24266,0.224 -0.56,0.41067 -0.29866,0.168 -0.65333,0.28 -0.35467,0.112 -0.69067,0.112 -0.84,0 -1.53066,-0.35467 -0.672,-0.35466 -0.98934,-0.896 -0.31733,-0.54133 -0.41066,-1.008 -0.0747,-0.46666 -0.0747,-1.008 v -6.44 q 0,-0.52266 0.0933,-0.93333 0.112,-0.42933 0.448,-0.91467 0.336,-0.48533 0.952,-0.82133 0.616,-0.35467 1.288,-0.35467 1.288,0 2.14667,0.85867 0.85867,0.84 0.85867,2.16533 v 0.672 h -1.77334 v -0.672 q 0,-0.52266 -0.29866,-0.87733 -0.28,-0.35467 -0.84,-0.35467 -0.52267,0 -0.82134,0.35467 -0.28,0.35467 -0.28,0.87733 v 6.92534 q 0.0373,0.28 0.26134,0.63466 0.26133,0.37334 0.85866,0.37334 0.63467,0 0.84,-0.336 0.20534,-0.336 0.24267,-0.48534 0.0373,-0.168 0.0373,-0.448 v -0.63466 h 1.77334 z"
       style="font-style:normal;font-variant:normal;font-weight:normal;font-stretch:normal;line-height:0.92;font-family:'Roadgeek 2005 Engschrift';-inkscape-font-specification:'Roadgeek 2005 Engschrift';fill:#ffffff;stroke:none"
       id="path2259" />
    <path
       d="m 493.41278,432.20944 v -10.84533 h -2.10934 v -1.66134 h 6.02934 v 1.66134 h -2.14667 v 10.84533 z"
       style="font-style:normal;font-variant:normal;font-weight:normal;font-stretch:normal;line-height:0.92;font-family:'Roadgeek 2005 Engschrift';-inkscape-font-specification:'Roadgeek 2005 Engschrift';fill:#ffffff;stroke:none"
       id="path2261" />
    <path
       d="m 503.02089,430.90277 q -0.41066,0.63467 -1.064,1.02667 -0.63466,0.392 -1.41866,0.392 -0.392,0 -0.784,-0.112 -0.37334,-0.112 -0.70934,-0.28 -0.336,-0.18667 -0.59733,-0.41067 -0.26133,-0.24266 -0.392,-0.504 -0.28,-0.52266 -0.37333,-0.91466 -0.0747,-0.392 -0.0747,-0.84 v -9.55734 h 1.792 v 9.55734 q 0,0.13066 0,0.24266 0.0187,0.0933 0.0373,0.18667 0.0187,0.14933 0.28,0.52267 0.24267,0.336 0.84,0.336 0.54134,0 0.80267,-0.392 0.28,-0.41067 0.28,-0.896 v -9.55734 h 1.792 v 9.55734 q 0,0.448 -0.0933,0.85866 -0.0933,0.41067 -0.31734,0.784 z"
       style="font-style:normal;font-variant:normal;font-weight:normal;font-stretch:normal;line-height:0.92;font-family:'Roadgeek 2005 Engschrift';-inkscape-font-specification:'Roadgeek 2005 Engschrift';fill:#ffffff;stroke:none"
       id="path2263" />
    <path
       d="m 504.2908,432.20944 v -12.50667 h 3.136 q 1.232,0 2.072,0.85867 0.85866,0.85867 0.85866,2.10933 v 1.15734 q 0,1.736 -1.47466,2.65066 l 1.904,5.73067 h -1.904 l -1.68,-5.35733 h -1.12 v 5.35733 z m 3.976,-7.336 q 0.168,-0.20533 0.224,-0.46667 0.0747,-0.26133 0.0747,-0.57866 v -1.15734 q 0,-0.57866 -0.31734,-0.93333 -0.31733,-0.37333 -0.896,-0.37333 h -1.26933 v 3.90133 h 1.25067 q 0.56,0 0.93333,-0.392 z"
       style="font-style:normal;font-variant:normal;font-weight:normal;font-stretch:normal;line-height:0.92;font-family:'Roadgeek 2005 Engschrift';-inkscape-font-specification:'Roadgeek 2005 Engschrift';fill:#ffffff;stroke:none"
       id="path2265" />
    <path
       d="m 516.24785,430.41744 v 1.792 h -5.35733 v -12.50667 h 5.35733 v 1.64267 h -3.584 v 3.696 h 3.136 v 1.69867 h -3.136 v 3.67733 z"
       style="font-style:normal;font-variant:normal;font-weight:normal;font-stretch:normal;line-height:0.92;font-family:'Roadgeek 2005 Engschrift';-inkscape-font-specification:'Roadgeek 2005 Engschrift';fill:#ffffff;stroke:none"
       id="path2267" />
  </g>
  <g
     aria-label="9"
     style="font-style:normal;font-variant:normal;font-weight:normal;font-stretch:normal;font-size:13.3333px;line-height:1.25;font-family:'Liberation Serif';-inkscape-font-specification:'Liberation Serif';letter-spacing:0px;word-spacing:0px;fill:#ffffff;fill-opacity:1;stroke:none"
     id="text6075-0-6-9-2-5-9-0-9"
     transform="translate(-373.86615,-389.72833)">
    <path
       d="m 389.10117,416.8399 q -0.31267,-0.62533 -0.402,-1.16133 -0.0447,-0.58067 -0.0447,-1.69733 v -6.07467 q 0,-0.98267 0.31267,-1.78667 0.17867,-0.44666 0.536,-1.072 0.402,-0.62533 1.02733,-1.51866 1.25067,-1.742 4.46667,-1.742 3.03733,0 4.69,2.05466 1.742,2.01 1.742,4.64534 v 4.86866 q 0,1.742 -0.71467,3.484 l -5.628,15.142 h -4.86866 l 5.00266,-12.596 q -1.16133,0.268 -1.78666,0.268 -1.42934,0 -2.63534,-0.75933 -1.16133,-0.804 -1.69733,-2.05467 z m 6.03,-10.854 q -1.072,0 -1.608,0.75934 -0.536,0.71466 -0.536,1.742 v 4.86866 q 0,1.11667 0.58067,1.83134 0.58066,0.71466 1.69733,0.71466 0.98267,0 1.42933,-0.67 0.49134,-0.71466 0.49134,-1.876 v -4.86866 q 0,-1.11667 -0.49134,-1.78667 -0.44666,-0.71467 -1.56333,-0.71467 z"
       style="font-style:normal;font-variant:normal;font-weight:normal;font-stretch:normal;font-size:44.6667px;font-family:'Roadgeek 2005 Engschrift';-inkscape-font-specification:'Roadgeek 2005 Engschrift';fill:#ffffff;stroke:none"
       id="path2270" />
  </g>
  <path
     style="fill:none;stroke:#ffffff;stroke-width:2.6;stroke-linecap:butt;stroke-linejoin:round;stroke-miterlimit:4;stroke-dasharray:none;stroke-opacity:1"
     d="m 94.40499,66.616097 v 20.98161 l -18.1706,10.49079 -18.1706,-10.49079 v -20.9816 l 18.1706,-10.49081 z"
     id="path7454" />
  <path
     style="fill:none;stroke:#ffffff;stroke-width:2.6;stroke-linecap:butt;stroke-linejoin:round;stroke-miterlimit:4;stroke-dasharray:none;stroke-opacity:1"
     d="m 112.71644,98.169807 v 20.981613 l -18.1706,10.49079 -18.1706,-10.49079 V 98.169817 l 18.1706,-10.49081 z"
     id="path7452" />
  <path
     style="fill:none;stroke:#ffffff;stroke-width:2.6;stroke-linecap:butt;stroke-linejoin:round;stroke-miterlimit:4;stroke-dasharray:none;stroke-opacity:1"
     d="m 76.23439,98.088507 v 20.981613 l -18.1706,10.49079 -18.1706,-10.49079 V 98.088517 l 18.1706,-10.49081 z"
     id="path7450" />
  <path
     style="fill:none;stroke:#ffffff;stroke-width:2.6;stroke-linecap:butt;stroke-linejoin:round;stroke-miterlimit:4;stroke-dasharray:none;stroke-opacity:1"
     d="M 58.00247,129.75894 V 87.399647 l 18.02975,-10.40948 36.68422,21.17964 -36.3412,20.981603 -18.31145,-10.57212 -0.0613,21.17965"
     id="path7448" />
  <path
     style="fill:none;stroke:#ffffff;stroke-width:2.6;stroke-linecap:butt;stroke-linejoin:round;stroke-miterlimit:4;stroke-dasharray:none;stroke-opacity:1"
     d="m 76.37524,76.792127 v 21.21505"
     id="path7446" />
  <path
     style="fill:#ffffff;stroke:#ffffff;stroke-width:2.6;stroke-linecap:butt;stroke-linejoin:round;stroke-miterlimit:4;stroke-dasharray:none;stroke-opacity:1"
     d="M 76.08304,76.960827 94.45581,66.353307 76.37524,55.914487 58.00247,66.522007 Z"
     id="path7414-8"
     inkscape:connector-curvature="0" />
  <path
     style="fill:#ffffff;stroke:#ffffff;stroke-width:2.6;stroke-linecap:butt;stroke-linejoin:round;stroke-miterlimit:4;stroke-dasharray:none;stroke-opacity:1"
     d="M 58.00247,108.6147 76.37524,98.007177 58.29467,87.568347 39.9219,98.175877 Z"
     id="path7414-8-8"
     inkscape:connector-curvature="0" />
  <path
     style="fill:#ffffff;stroke:#ffffff;stroke-width:2.6;stroke-linecap:butt;stroke-linejoin:round;stroke-miterlimit:4;stroke-dasharray:none;stroke-opacity:1"
     d="m 76.17308,119.03469 18.37276,10.60752 V 108.76457 L 76.17308,98.157047 Z"
     id="path7414-8-1"
     inkscape:connector-curvature="0" />
</svg>
