<?xml version="1.0" encoding="UTF-8" standalone="no"?>
<!-- Created with Inkscape (http://www.inkscape.org/) -->

<svg
   version="1.1"
   id="svg2"
   width="148.09274"
   height="148.33458"
   viewBox="0 0 148.09274 148.33458"
   sodipodi:docname="Sustainable_Development_Goals.svg"
   inkscape:version="0.92.3 (2405546, 2018-03-11)"
   inkscape:export-filename="sdg_1.svg"
   inkscape:export-xdpi="96"
   inkscape:export-ydpi="96"
   xmlns:inkscape="http://www.inkscape.org/namespaces/inkscape"
   xmlns:sodipodi="http://sodipodi.sourceforge.net/DTD/sodipodi-0.dtd"
   xmlns="http://www.w3.org/2000/svg"
   xmlns:svg="http://www.w3.org/2000/svg"
   xmlns:rdf="http://www.w3.org/1999/02/22-rdf-syntax-ns#"
   xmlns:cc="http://creativecommons.org/ns#"
   xmlns:dc="http://purl.org/dc/elements/1.1/">
  <metadata
     id="metadata8">
    <rdf:RDF>
      <cc:Work
         rdf:about="">
        <dc:format>image/svg+xml</dc:format>
        <dc:type
           rdf:resource="http://purl.org/dc/dcmitype/StillImage" />
        <dc:title />
      </cc:Work>
    </rdf:RDF>
  </metadata>
  <defs
     id="defs6" />
  <sodipodi:namedview
     pagecolor="#ffffff"
     bordercolor="#666666"
     borderopacity="1"
     objecttolerance="10"
     gridtolerance="10"
     guidetolerance="10"
     inkscape:pageopacity="0"
     inkscape:pageshadow="2"
     inkscape:window-width="1920"
     inkscape:window-height="1061"
     id="namedview4"
     showgrid="false"
     inkscape:zoom="1.0772059"
     inkscape:cx="528"
     inkscape:cy="408"
     inkscape:window-x="1920"
     inkscape:window-y="0"
     inkscape:window-maximized="1"
     inkscape:current-layer="svg2"
     showguides="true"
     inkscape:guide-bbox="true"
     inkscape:snap-global="true"
     inkscape:snap-center="true"
     inkscape:snap-object-midpoints="true"
     inkscape:snap-bbox="true"
     inkscape:snap-bbox-midpoints="true"
     inkscape:showpageshadow="2"
     inkscape:pagecheckerboard="0"
     inkscape:deskcolor="#d1d1d1" />
  <path
     style="opacity:1;fill:#eb1c2d;fill-opacity:1;fill-rule:evenodd;stroke:none;stroke-width:4;stroke-linecap:round;stroke-linejoin:round;stroke-miterlimit:4;stroke-dasharray:none;stroke-dashoffset:0;stroke-opacity:1"
     d="M 0.82675435,4.9462891e-6 H 147.266 c 0.45802,0 0.82675,0.3687300037109 0.82675,0.8267500037109 V 147.50782 c 0,0.45802 -0.36873,0.82675 -0.82675,0.82675 H 0.82675435 c -0.458022,0 -0.82675399794922,-0.36873 -0.82675399794922,-0.82675 V 0.82675495 C 3.5205078e-7,0.36873495 0.36873235,4.9462891e-6 0.82675435,4.9462891e-6 Z"
     id="rect8528-7"
     inkscape:export-filename="sdg_1.svg"
     inkscape:export-xdpi="96"
     inkscape:export-ydpi="96" />
  <style
     id="style970"
     type="text/css">
	.st0{fill:#418FDE;}
</style>
  <g
     aria-label="NO POVERTY"
     style="font-style:normal;font-variant:normal;font-weight:normal;font-stretch:normal;font-size:18.6667px;line-height:0.92;font-family:'Roadgeek 2005 Series B';-inkscape-font-specification:'Roadgeek 2005 Series B';letter-spacing:0px;word-spacing:0px;fill:#ffffff;fill-opacity:1;stroke:none"
     id="text6065"
     transform="translate(-45.918877,-228.93456)">
    <path
       d="m 92.768556,254.68655 -2.781333,-7.59733 v 7.59733 h -1.792 v -12.50666 h 1.698666 l 2.762667,7.57866 v -7.57866 h 1.792 v 12.50666 z"
       style="font-style:normal;font-variant:normal;font-weight:normal;font-stretch:normal;line-height:0.92;font-family:'Roadgeek 2005 Engschrift';-inkscape-font-specification:'Roadgeek 2005 Engschrift';fill:#ffffff;stroke:none"
       id="path1875" />
    <path
       d="m 96.379014,243.35589 q 0.429334,-0.59734 1.082667,-0.93334 0.672,-0.35466 1.381333,-0.35466 0.690667,0 1.287996,0.28 0.616,0.28 1.02667,0.76533 0.41067,0.48533 0.56,1.008 0.14933,0.504 0.14933,1.10133 v 6.36534 q 0,0.56 -0.112,0.98933 -0.0933,0.42933 -0.448,0.952 -0.336,0.52267 -0.98933,0.896 -0.634666,0.37333 -1.418666,0.37333 -0.448,0 -0.858666,-0.112 -0.410667,-0.13066 -0.765334,-0.336 -0.354666,-0.20533 -0.634666,-0.46666 -0.261334,-0.26134 -0.410667,-0.54134 -0.28,-0.57866 -0.336,-0.93333 -0.056,-0.35467 -0.056,-0.82133 v -6.36534 q 0,-0.56 0.112,-0.98933 0.130667,-0.448 0.429333,-0.87733 z m 3.472,0.98933 q -0.354666,-0.52267 -0.970666,-0.52267 -0.317334,0 -0.634667,0.18667 -0.298667,0.168 -0.429333,0.392 -0.112,0.224 -0.149334,0.448 -0.03733,0.224 -0.03733,0.37333 v 6.36534 q 0,0.0933 0,0.20533 0,0.0933 0.01867,0.20533 0.01867,0.18667 0.298666,0.616 0.28,0.392 0.933334,0.392 0.336,0 0.597333,-0.14933 0.28,-0.168 0.392,-0.37333 0.130673,-0.224 0.168003,-0.41067 0.0373,-0.18667 0.0373,-0.48533 v -6.36534 q 0,-0.37333 -0.0373,-0.52266 -0.0187,-0.14934 -0.18667,-0.35467 z"
       style="font-style:normal;font-variant:normal;font-weight:normal;font-stretch:normal;line-height:0.92;font-family:'Roadgeek 2005 Engschrift';-inkscape-font-specification:'Roadgeek 2005 Engschrift';fill:#ffffff;stroke:none"
       id="path1877" />
    <path
       d="m 88.195223,271.93353 v -12.50667 h 2.930666 0.03733 q 0.559999,0 1.063999,0.24267 0.504,0.224 0.896,0.59733 0.392,0.37334 0.616,0.85867 0.242667,0.46667 0.261334,0.97067 v 1.81066 0.18667 q 0,0.616 -0.242667,1.15733 -0.224,0.52267 -0.616,0.91467 -0.392,0.392 -0.933333,0.616 -0.522667,0.224 -1.12,0.224 h -0.168 -0.933333 v 4.928 z m 3.789333,-6.98133 q 0.168,-0.168 0.205333,-0.35467 0.056,-0.18667 0.056,-0.46667 v -1.848 q 0,-0.52266 -0.317333,-0.85866 -0.317334,-0.35467 -0.858667,-0.35467 h -1.082666 v 4.23733 h 0.933333 q 0.373333,0 0.597333,-0.056 0.242667,-0.0747 0.466667,-0.29866 z"
       style="font-style:normal;font-variant:normal;font-weight:normal;font-stretch:normal;line-height:0.92;font-family:'Roadgeek 2005 Engschrift';-inkscape-font-specification:'Roadgeek 2005 Engschrift';fill:#ffffff;stroke:none"
       id="path1879" />
    <path
       d="m 96.102842,260.60286 q 0.429334,-0.59733 1.082667,-0.93333 0.672,-0.35467 1.381333,-0.35467 0.690667,0 1.288,0.28 0.615998,0.28 1.026668,0.76534 0.41067,0.48533 0.56,1.008 0.14933,0.504 0.14933,1.10133 v 6.36533 q 0,0.56 -0.112,0.98934 -0.0933,0.42933 -0.448,0.952 -0.336,0.52266 -0.98933,0.896 -0.634668,0.37333 -1.418668,0.37333 -0.448,0 -0.858666,-0.112 -0.410667,-0.13067 -0.765334,-0.336 -0.354666,-0.20533 -0.634666,-0.46667 -0.261334,-0.26133 -0.410667,-0.54133 -0.28,-0.57867 -0.336,-0.93333 -0.056,-0.35467 -0.056,-0.82134 v -6.36533 q 0,-0.56 0.112,-0.98933 0.130667,-0.448 0.429333,-0.87734 z m 3.472,0.98934 q -0.354667,-0.52267 -0.970666,-0.52267 -0.317334,0 -0.634667,0.18667 -0.298667,0.168 -0.429333,0.392 -0.112,0.224 -0.149334,0.448 -0.03733,0.224 -0.03733,0.37333 v 6.36533 q 0,0.0933 0,0.20534 0,0.0933 0.01867,0.20533 0.01867,0.18667 0.298666,0.616 0.28,0.392 0.933334,0.392 0.336,0 0.597333,-0.14933 0.28,-0.168 0.392,-0.37334 0.130666,-0.224 0.168,-0.41066 0.03733,-0.18667 0.03733,-0.48534 v -6.36533 q 0,-0.37333 -0.03733,-0.52267 -0.01867,-0.14933 -0.186667,-0.35466 z"
       style="font-style:normal;font-variant:normal;font-weight:normal;font-stretch:normal;line-height:0.92;font-family:'Roadgeek 2005 Engschrift';-inkscape-font-specification:'Roadgeek 2005 Engschrift';fill:#ffffff;stroke:none"
       id="path1881" />
    <path
       d="m 105.08355,271.93353 -2.55733,-12.50667 h 1.86666 l 1.456,8.68 1.47467,-8.68 h 1.904 l -2.61333,12.50667 z"
       style="font-style:normal;font-variant:normal;font-weight:normal;font-stretch:normal;line-height:0.92;font-family:'Roadgeek 2005 Engschrift';-inkscape-font-specification:'Roadgeek 2005 Engschrift';fill:#ffffff;stroke:none"
       id="path1883" />
    <path
       d="m 115.6693,270.14153 v 1.792 h -5.35733 v -12.50667 h 5.35733 v 1.64267 h -3.584 v 3.696 h 3.136 v 1.69867 h -3.136 v 3.67733 z"
       style="font-style:normal;font-variant:normal;font-weight:normal;font-stretch:normal;line-height:0.92;font-family:'Roadgeek 2005 Engschrift';-inkscape-font-specification:'Roadgeek 2005 Engschrift';fill:#ffffff;stroke:none"
       id="path1885" />
    <path
       d="m 116.5159,271.93353 v -12.50667 h 3.136 q 1.232,0 2.072,0.85867 0.85867,0.85867 0.85867,2.10933 v 1.15734 q 0,1.736 -1.47467,2.65066 l 1.904,5.73067 h -1.904 l -1.68,-5.35733 h -1.12 v 5.35733 z m 3.976,-7.336 q 0.168,-0.20533 0.224,-0.46667 0.0747,-0.26133 0.0747,-0.57866 v -1.15734 q 0,-0.57866 -0.31734,-0.93333 -0.31733,-0.37333 -0.896,-0.37333 h -1.26933 v 3.90133 h 1.25067 q 0.56,0 0.93333,-0.392 z"
       style="font-style:normal;font-variant:normal;font-weight:normal;font-stretch:normal;line-height:0.92;font-family:'Roadgeek 2005 Engschrift';-inkscape-font-specification:'Roadgeek 2005 Engschrift';fill:#ffffff;stroke:none"
       id="path1887" />
    <path
       d="M 125.13568,271.93353 V 261.0882 h -2.10933 v -1.66134 h 6.02933 v 1.66134 h -2.14666 v 10.84533 z"
       style="font-style:normal;font-variant:normal;font-weight:normal;font-stretch:normal;line-height:0.92;font-family:'Roadgeek 2005 Engschrift';-inkscape-font-specification:'Roadgeek 2005 Engschrift';fill:#ffffff;stroke:none"
       id="path1889" />
    <path
       d="m 131.67864,271.93353 v -5.376 l -2.42667,-7.13067 h 1.86667 l 1.456,4.89067 1.47467,-4.89067 h 1.88533 l -2.48267,7.13067 v 5.376 z"
       style="font-style:normal;font-variant:normal;font-weight:normal;font-stretch:normal;line-height:0.92;font-family:'Roadgeek 2005 Engschrift';-inkscape-font-specification:'Roadgeek 2005 Engschrift';fill:#ffffff;stroke:none"
       id="path1891" />
  </g>
  <g
     aria-label="1"
     style="font-style:normal;font-variant:normal;font-weight:normal;font-stretch:normal;font-size:13.3333px;line-height:1.25;font-family:'Liberation Serif';-inkscape-font-specification:'Liberation Serif';letter-spacing:0px;word-spacing:0px;fill:#ffffff;fill-opacity:1;stroke:none"
     id="text6075"
     transform="translate(-45.918877,-228.93456)">
    <path
       d="m 67.144158,271.36417 v -25.46 l -4.288,3.216 v -4.556 l 4.288,-3.12667 h 4.243334 v 29.92667 z"
       style="font-style:normal;font-variant:normal;font-weight:normal;font-stretch:normal;font-size:44.6667px;font-family:'Roadgeek 2005 Engschrift';-inkscape-font-specification:'Roadgeek 2005 Engschrift';fill:#ffffff;stroke:none"
       id="path1894" />
  </g>
  <path
     style="opacity:1;fill:#ffffff;fill-opacity:1;fill-rule:evenodd;stroke:none;stroke-width:0.1;stroke-linecap:round;stroke-linejoin:round;stroke-miterlimit:4;stroke-dasharray:none;stroke-dashoffset:0;stroke-opacity:1"
     d="m 31.98235,70.902545 a 4.1184053,4.1184053 0 0 1 -4.118405,4.1184 4.1184053,4.1184053 0 0 1 -4.118406,-4.1184 4.1184053,4.1184053 0 0 1 4.118406,-4.11841 4.1184053,4.1184053 0 0 1 4.118405,4.11841 z"
     id="path6660" />
  <path
     style="opacity:1;fill:#ffffff;fill-opacity:1;fill-rule:evenodd;stroke:none;stroke-width:0.1;stroke-linecap:round;stroke-linejoin:round;stroke-miterlimit:4;stroke-dasharray:none;stroke-dashoffset:0;stroke-opacity:1"
     d="m 66.858343,73.182575 a 4.1184053,4.1184053 0 0 1 -4.11841,4.1184 4.1184053,4.1184053 0 0 1 -4.1184,-4.1184 4.1184053,4.1184053 0 0 1 4.1184,-4.11841 4.1184053,4.1184053 0 0 1 4.11841,4.11841 z"
     id="path6660-6" />
  <path
     style="opacity:1;fill:#ffffff;fill-opacity:1;fill-rule:evenodd;stroke:none;stroke-width:0.1;stroke-linecap:round;stroke-linejoin:round;stroke-miterlimit:4;stroke-dasharray:none;stroke-dashoffset:0;stroke-opacity:1"
     d="m 89.954613,73.182575 a 4.1184053,4.1184053 0 0 1 -4.11841,4.1184 4.1184053,4.1184053 0 0 1 -4.1184,-4.1184 4.1184053,4.1184053 0 0 1 4.1184,-4.11841 4.1184053,4.1184053 0 0 1 4.11841,4.11841 z"
     id="path6660-1" />
  <path
     style="opacity:1;fill:#ffffff;fill-opacity:1;fill-rule:evenodd;stroke:none;stroke-width:0.1;stroke-linecap:round;stroke-linejoin:round;stroke-miterlimit:4;stroke-dasharray:none;stroke-dashoffset:0;stroke-opacity:1"
     d="m 122.30214,70.997575 a 4.1184053,4.1184053 0 0 1 -4.1184,4.1184 4.1184053,4.1184053 0 0 1 -4.11841,-4.1184 4.1184053,4.1184053 0 0 1 4.11841,-4.11841 4.1184053,4.1184053 0 0 1 4.1184,4.11841 z"
     id="path6660-7" />
  <path
     style="opacity:1;fill:#ffffff;fill-opacity:1;fill-rule:evenodd;stroke:none;stroke-width:0.1;stroke-linecap:round;stroke-linejoin:round;stroke-miterlimit:4;stroke-dasharray:none;stroke-dashoffset:0;stroke-opacity:1"
     d="m 47.695649,91.621295 a 3.2947245,3.2947245 0 0 1 -3.294725,3.29472 3.2947245,3.2947245 0 0 1 -3.294724,-3.29472 3.2947245,3.2947245 0 0 1 3.294724,-3.29473 3.2947245,3.2947245 0 0 1 3.294725,3.29473 z"
     id="path6660-2" />
  <path
     style="opacity:1;fill:#ffffff;fill-opacity:1;fill-rule:evenodd;stroke:none;stroke-width:0.1;stroke-linecap:round;stroke-linejoin:round;stroke-miterlimit:4;stroke-dasharray:none;stroke-dashoffset:0;stroke-opacity:1"
     d="m 106.0283,91.621295 a 3.2947245,3.2947245 0 0 1 -3.29473,3.29472 3.2947245,3.2947245 0 0 1 -3.294717,-3.29472 3.2947245,3.2947245 0 0 1 3.294717,-3.29473 3.2947245,3.2947245 0 0 1 3.29473,3.29473 z"
     id="path6660-2-9" />
  <path
     style="opacity:1;fill:#ffffff;fill-opacity:1;fill-rule:evenodd;stroke:none;stroke-width:0.1;stroke-linecap:round;stroke-linejoin:round;stroke-miterlimit:4;stroke-dasharray:none;stroke-dashoffset:0;stroke-opacity:1"
     d="m 117.36005,96.151525 v 16.853785 c 0,2.88369 -4.24512,2.89661 -4.24512,0 V 83.479515 c 0,-1.06759 -1.45729,-1.15565 -1.45729,0 v 9.94753 c 0,2.35313 -3.10464,2.45191 -3.10464,0 v -12.10178 c 0,-2.47724 1.87488,-4.62528 4.62529,-4.62528 h 10.01089 c 2.75041,0 4.62529,2.14804 4.62529,4.62528 v 12.10178 c 0,2.45191 -3.10464,2.35313 -3.10464,0 v -9.94753 c 0,-1.15565 -1.45729,-1.06759 -1.45729,0 v 29.525795 c 0,2.89661 -4.24512,2.88369 -4.24512,0 V 96.151525 c 0,-0.93298 -1.64737,-0.96453 -1.64737,0 z"
     id="path6858" />
  <path
     style="opacity:1;fill:#ffffff;fill-opacity:1;fill-rule:evenodd;stroke:none;stroke-width:0.1;stroke-linecap:round;stroke-linejoin:round;stroke-miterlimit:4;stroke-dasharray:none;stroke-dashoffset:0;stroke-opacity:1"
     d="m 22.721748,76.700215 c -2.75041,0 -4.625,2.14776 -4.625,4.625 v 12.10156 c 0,0.83151 0.358138,1.36277 0.830078,1.61914 l -3.744141,18.718745 c -0.2196,1.09801 1.249233,1.33794 1.44336,0.27344 l 3.443359,-18.882815 c 0.612351,-0.18908 1.13086,-0.7679 1.13086,-1.72851 v -9.94727 c 0,-1.15565 1.457031,-1.06759 1.457031,0 v 29.525385 c 0,2.89661 4.246094,2.88369 4.246094,0 V 96.151385 c 0,-0.96453 1.646484,-0.93298 1.646484,0 v 16.853505 c 0,2.88369 4.246094,2.89661 4.246094,0 V 83.479505 c 0,-1.06759 1.457031,-1.15565 1.457031,0 v 9.94727 c 0,2.35313 3.103516,2.45191 3.103516,0 v -12.10156 c 0,-2.47724 -1.87459,-4.625 -4.625,-4.625 z"
     id="path6853" />
  <path
     id="path6660-7-6-5-9-4"
     style="opacity:1;fill:#ffffff;fill-opacity:1;fill-rule:evenodd;stroke:none;stroke-width:0.1;stroke-linecap:round;stroke-linejoin:round;stroke-miterlimit:4;stroke-dasharray:none;stroke-dashoffset:0;stroke-opacity:1"
     d="m 62.010693,101.18758 v 11.93165 c 0,2.95484 -4.1234,2.90619 -4.1234,0 v -11.93165 h -3.952012 l 4.478942,-15.895865 c 0.20244,-0.71847 -0.97798,-1.25089 -1.27342,-0.30738 l -2.7225,8.69443 c -0.643776,2.05593 -3.403831,1.32643 -2.678584,-1.05387 l 3.425074,-11.24128 c 0.39114,-1.28373 1.70041,-2.28338 3.1177,-2.28338 h 8.74084 c 1.41729,0 2.72656,0.99965 3.1177,2.28338 l 3.42507,11.24128 c 0.72525,2.3803 -2.03481,3.1098 -2.67858,1.05387 l -2.7225,-8.69443 c -0.29544,-0.94351 -1.47586,-0.41109 -1.27342,0.30738 l 4.47894,15.895865 h -3.95201 v 11.93165 c 0,2.90619 -4.12341,2.95484 -4.12341,0 v -11.93165 z"
     inkscape:connector-curvature="0"
     sodipodi:nodetypes="cssccccssccccccccccsscc" />
  <path
     style="opacity:1;fill:#ffffff;fill-opacity:1;fill-rule:evenodd;stroke:none;stroke-width:0.1;stroke-linecap:round;stroke-linejoin:round;stroke-miterlimit:4;stroke-dasharray:none;stroke-dashoffset:0;stroke-opacity:1"
     d="m 85.236043,101.18758 v 11.93165 c 0,2.95484 -4.1234,2.90619 -4.1234,0 v -11.93165 h -3.95201 l 4.47894,-15.895865 c 0.20244,-0.71847 -0.97798,-1.25089 -1.27342,-0.30738 l -2.7225,8.69443 c -0.64377,2.05593 -3.40383,1.32643 -2.67858,-1.05387 l 3.42507,-11.24128 c 0.39114,-1.28373 1.70041,-2.28338 3.1177,-2.28338 h 8.74084 c 1.41729,0 2.72656,0.99965 3.1177,2.28338 l 3.42507,11.24128 c 0.72525,2.3803 -2.03481,3.1098 -2.67858,1.05387 l -2.7225,-8.69443 c -0.29544,-0.94351 -1.47586,-0.41109 -1.27342,0.30738 l 4.47894,15.895865 h -3.95201 v 11.93165 c 0,2.90619 -4.12341,2.95484 -4.12341,0 v -11.93165 z"
     id="path6813" />
  <path
     style="opacity:1;fill:#ffffff;fill-opacity:1;fill-rule:evenodd;stroke:none;stroke-width:0.1;stroke-linecap:round;stroke-linejoin:round;stroke-miterlimit:4;stroke-dasharray:none;stroke-dashoffset:0;stroke-opacity:1"
     d="m 103.52584,108.43292 v 4.96197 c 0,2.10709 2.89815,2.37078 2.89815,0 v -11.83408 c 0,-0.62722 0.67204,-0.64583 0.90018,-0.0439 l 1.518,4.00512 c 0.51698,1.36401 2.10676,0.7832 1.53689,-0.61476 l -3.01098,-7.386275 c -0.26121,-0.64079 -0.89914,-1.16365 -1.75645,-1.16365 h -5.635417 c -0.85731,0 -1.49524,0.52286 -1.75645,1.16365 l -3.01098,7.386275 c -0.56987,1.39796 1.01991,1.97877 1.53689,0.61476 l 1.518,-4.00512 c 0.22814,-0.60193 0.90018,-0.58332 0.90018,0.0439 v 11.83408 c 0,2.37078 2.898147,2.10709 2.898147,0 v -4.96197 c 0,-0.88013 1.46384,-0.94265 1.46384,0 z"
     id="path6833" />
  <path
     id="path6660-7-6-5-9-4-3-7-8"
     style="opacity:1;fill:#ffffff;fill-opacity:1;fill-rule:evenodd;stroke:none;stroke-width:0.1;stroke-linecap:round;stroke-linejoin:round;stroke-miterlimit:4;stroke-dasharray:none;stroke-dashoffset:0;stroke-opacity:1"
     d="m 43.804704,108.73464 v 5.06913 c 0,1.82095 -2.651544,2.12845 -2.651544,0 v -5.57604 h -1.832685 l 1.598725,-5.81001 c 0.274838,-0.9988 0.06362,-2.01834 -0.428926,-2.885495 l -2.768524,-4.87416 c -0.829815,-1.46094 1.189593,-2.27427 1.832685,-1.24779 l 2.027651,3.23645 c 0.299693,0.47832 0.671558,0.42892 1.130806,0.42892 h 3.780504 c 0.459248,0 0.831113,0.0494 1.130806,-0.42892 l 2.027651,-3.23645 c 0.643092,-1.02648 2.6625,-0.21315 1.832685,1.24779 l -2.768524,4.87416 c -0.492549,0.867155 -0.703764,1.886695 -0.428926,2.885495 l 1.598725,5.81001 h -1.832685 v 5.57604 c 0,2.12845 -2.651544,1.82095 -2.651544,0 v -5.06913 c 0,-1.1454 -1.59688,-1.11387 -1.59688,0 z"
     inkscape:connector-curvature="0"
     sodipodi:nodetypes="sssccscsccccccscsccssss" />
</svg>
