<?xml version="1.0" encoding="UTF-8" standalone="no"?>
<!-- Created with Inkscape (http://www.inkscape.org/) -->

<svg
   version="1.1"
   id="svg2"
   width="148.09277"
   height="148.33459"
   viewBox="0 0 148.09277 148.33459"
   sodipodi:docname="Sustainable_Development_Goals.svg"
   inkscape:version="0.92.3 (2405546, 2018-03-11)"
   inkscape:export-filename="sdg_1.svg"
   inkscape:export-xdpi="96"
   inkscape:export-ydpi="96"
   xmlns:inkscape="http://www.inkscape.org/namespaces/inkscape"
   xmlns:sodipodi="http://sodipodi.sourceforge.net/DTD/sodipodi-0.dtd"
   xmlns="http://www.w3.org/2000/svg"
   xmlns:svg="http://www.w3.org/2000/svg"
   xmlns:rdf="http://www.w3.org/1999/02/22-rdf-syntax-ns#"
   xmlns:cc="http://creativecommons.org/ns#"
   xmlns:dc="http://purl.org/dc/elements/1.1/">
  <metadata
     id="metadata8">
    <rdf:RDF>
      <cc:Work
         rdf:about="">
        <dc:format>image/svg+xml</dc:format>
        <dc:type
           rdf:resource="http://purl.org/dc/dcmitype/StillImage" />
        <dc:title />
      </cc:Work>
    </rdf:RDF>
  </metadata>
  <defs
     id="defs6" />
  <sodipodi:namedview
     pagecolor="#ffffff"
     bordercolor="#666666"
     borderopacity="1"
     objecttolerance="10"
     gridtolerance="10"
     guidetolerance="10"
     inkscape:pageopacity="0"
     inkscape:pageshadow="2"
     inkscape:window-width="1920"
     inkscape:window-height="1061"
     id="namedview4"
     showgrid="false"
     inkscape:zoom="1.0772059"
     inkscape:cx="528"
     inkscape:cy="408"
     inkscape:window-x="1920"
     inkscape:window-y="0"
     inkscape:window-maximized="1"
     inkscape:current-layer="svg2"
     showguides="true"
     inkscape:guide-bbox="true"
     inkscape:snap-global="true"
     inkscape:snap-center="true"
     inkscape:snap-object-midpoints="true"
     inkscape:snap-bbox="true"
     inkscape:snap-bbox-midpoints="true"
     inkscape:showpageshadow="2"
     inkscape:pagecheckerboard="0"
     inkscape:deskcolor="#d1d1d1" />
  <path
     style="opacity:1;fill:#3eb049;fill-opacity:1;fill-rule:evenodd;stroke:none;stroke-width:4;stroke-linecap:round;stroke-linejoin:round;stroke-miterlimit:4;stroke-dasharray:none;stroke-dashoffset:0;stroke-opacity:1"
     d="M 0.8267501,3.0078126e-6 H 147.266 c 0.45803,0 0.82676,0.3687300021874 0.82676,0.8267500021874 V 147.50782 c 0,0.45802 -0.36873,0.82676 -0.82676,0.82676 H 0.8267501 C 0.3687301,148.33458 9.7656255e-8,147.96584 9.7656255e-8,147.50782 V 0.82675301 C 9.7656255e-8,0.36873301 0.3687301,3.0078126e-6 0.8267501,3.0078126e-6 Z"
     id="rect8528-63-2-4-3-6-0-4-3-6-3-7-4" />
  <style
     id="style970"
     type="text/css">
	.st0{fill:#418FDE;}
</style>
  <g
     aria-label="LIFE ON LAND"
     style="font-style:normal;font-variant:normal;font-weight:normal;font-stretch:normal;font-size:18.6667px;line-height:0.92;font-family:'Roadgeek 2005 Series B';-inkscape-font-specification:'Roadgeek 2005 Series B';letter-spacing:0px;word-spacing:0px;fill:#ffffff;fill-opacity:1;stroke:none"
     id="text6065-3-2-9-6-6-5-5-2-9"
     transform="translate(-373.86615,-550.03992)">
    <path
       d="m 426.76709,575.58014 h -5.33867 v -12.50667 h 1.792 v 10.71467 h 3.54667 z"
       style="font-style:normal;font-variant:normal;font-weight:normal;font-stretch:normal;line-height:0.92;font-family:'Roadgeek 2005 Engschrift';-inkscape-font-specification:'Roadgeek 2005 Engschrift';fill:#ffffff;stroke:none"
       id="path2528" />
    <path
       d="m 427.12166,575.58014 v -12.50667 h 1.77333 v 12.50667 z"
       style="font-style:normal;font-variant:normal;font-weight:normal;font-stretch:normal;line-height:0.92;font-family:'Roadgeek 2005 Engschrift';-inkscape-font-specification:'Roadgeek 2005 Engschrift';fill:#ffffff;stroke:none"
       id="path2530" />
    <path
       d="m 430.03427,575.58014 v -12.50667 h 5.33866 v 1.68 h -3.56533 v 3.752 h 3.11733 v 1.68 h -3.11733 v 5.39467 z"
       style="font-style:normal;font-variant:normal;font-weight:normal;font-stretch:normal;line-height:0.92;font-family:'Roadgeek 2005 Engschrift';-inkscape-font-specification:'Roadgeek 2005 Engschrift';fill:#ffffff;stroke:none"
       id="path2532" />
    <path
       d="m 441.3422,573.78814 v 1.792 h -5.35734 v -12.50667 h 5.35734 v 1.64267 h -3.584 v 3.696 h 3.136 v 1.69867 h -3.136 v 3.67733 z"
       style="font-style:normal;font-variant:normal;font-weight:normal;font-stretch:normal;line-height:0.92;font-family:'Roadgeek 2005 Engschrift';-inkscape-font-specification:'Roadgeek 2005 Engschrift';fill:#ffffff;stroke:none"
       id="path2534" />
    <path
       d="m 421.82042,581.49645 q 0.42933,-0.59733 1.08267,-0.93333 0.672,-0.35467 1.38133,-0.35467 0.69067,0 1.288,0.28 0.616,0.28 1.02667,0.76533 0.41066,0.48534 0.56,1.008 0.14933,0.504 0.14933,1.10134 v 6.36533 q 0,0.56 -0.112,0.98933 -0.0933,0.42934 -0.448,0.952 -0.336,0.52267 -0.98933,0.896 -0.63467,0.37334 -1.41867,0.37334 -0.448,0 -0.85867,-0.112 -0.41066,-0.13067 -0.76533,-0.336 -0.35467,-0.20534 -0.63467,-0.46667 -0.26133,-0.26133 -0.41066,-0.54133 -0.28,-0.57867 -0.336,-0.93334 -0.056,-0.35466 -0.056,-0.82133 v -6.36533 q 0,-0.56 0.112,-0.98934 0.13066,-0.448 0.42933,-0.87733 z m 3.472,0.98933 q -0.35467,-0.52266 -0.97067,-0.52266 -0.31733,0 -0.63466,0.18666 -0.29867,0.168 -0.42934,0.392 -0.112,0.224 -0.14933,0.448 -0.0373,0.224 -0.0373,0.37334 v 6.36533 q 0,0.0933 0,0.20533 0,0.0933 0.0187,0.20534 0.0187,0.18666 0.29867,0.616 0.28,0.392 0.93333,0.392 0.336,0 0.59734,-0.14934 0.28,-0.168 0.392,-0.37333 0.13066,-0.224 0.168,-0.41067 0.0373,-0.18666 0.0373,-0.48533 v -6.36533 q 0,-0.37334 -0.0373,-0.52267 -0.0187,-0.14933 -0.18667,-0.35467 z"
       style="font-style:normal;font-variant:normal;font-weight:normal;font-stretch:normal;line-height:0.92;font-family:'Roadgeek 2005 Engschrift';-inkscape-font-specification:'Roadgeek 2005 Engschrift';fill:#ffffff;stroke:none"
       id="path2536" />
    <path
       d="m 432.99385,592.82712 -2.78133,-7.59734 v 7.59734 h -1.792 v -12.50667 h 1.69866 l 2.76267,7.57867 v -7.57867 h 1.792 v 12.50667 z"
       style="font-style:normal;font-variant:normal;font-weight:normal;font-stretch:normal;line-height:0.92;font-family:'Roadgeek 2005 Engschrift';-inkscape-font-specification:'Roadgeek 2005 Engschrift';fill:#ffffff;stroke:none"
       id="path2538" />
    <path
       d="m 445.14714,592.82712 h -5.33867 v -12.50667 h 1.792 v 10.71467 h 3.54667 z"
       style="font-style:normal;font-variant:normal;font-weight:normal;font-stretch:normal;line-height:0.92;font-family:'Roadgeek 2005 Engschrift';-inkscape-font-specification:'Roadgeek 2005 Engschrift';fill:#ffffff;stroke:none"
       id="path2540" />
    <path
       d="m 445.24305,592.82712 2.8,-12.50667 h 1.54934 l 2.8,12.50667 h -1.92267 l -0.504,-2.688 h -2.31467 l -0.52266,2.688 z m 2.72534,-4.34934 h 1.68 l -0.84,-4.55466 z"
       style="font-style:normal;font-variant:normal;font-weight:normal;font-stretch:normal;line-height:0.92;font-family:'Roadgeek 2005 Engschrift';-inkscape-font-specification:'Roadgeek 2005 Engschrift';fill:#ffffff;stroke:none"
       id="path2542" />
    <path
       d="m 457.4989,592.82712 -2.78133,-7.59734 v 7.59734 h -1.792 v -12.50667 h 1.69867 l 2.76266,7.57867 v -7.57867 h 1.792 v 12.50667 z"
       style="font-style:normal;font-variant:normal;font-weight:normal;font-stretch:normal;line-height:0.92;font-family:'Roadgeek 2005 Engschrift';-inkscape-font-specification:'Roadgeek 2005 Engschrift';fill:#ffffff;stroke:none"
       id="path2544" />
    <path
       d="m 463.20831,580.32045 q 1.21334,0 2.072,0.85867 0.87734,0.84 0.87734,2.05333 v 6.496 q 0,1.38133 -0.84,2.24 -0.84,0.85867 -2.16534,0.85867 h -2.78133 v -12.50667 z m 1.176,9.408 v -6.496 q 0,-0.52267 -0.392,-0.87733 -0.37333,-0.35467 -0.91466,-0.35467 h -0.93334 v 9.16533 h 0.87734 q 1.36266,0 1.36266,-1.43733 z"
       style="font-style:normal;font-variant:normal;font-weight:normal;font-stretch:normal;line-height:0.92;font-family:'Roadgeek 2005 Engschrift';-inkscape-font-specification:'Roadgeek 2005 Engschrift';fill:#ffffff;stroke:none"
       id="path2546" />
  </g>
  <g
     aria-label="15"
     style="font-style:normal;font-variant:normal;font-weight:normal;font-stretch:normal;font-size:13.3333px;line-height:1.25;font-family:'Liberation Serif';-inkscape-font-specification:'Liberation Serif';letter-spacing:0px;word-spacing:0px;fill:#ffffff;fill-opacity:1;stroke:none"
     id="text6075-0-6-9-2-5-9-1-4-7"
     transform="translate(-373.86615,-550.03992)">
    <path
       d="m 388.66565,592.98285 v -25.46 l -4.288,3.216 v -4.556 l 4.288,-3.12667 h 4.24334 v 29.92667 z"
       style="font-style:normal;font-variant:normal;font-weight:normal;font-stretch:normal;font-size:44.6667px;font-family:'Roadgeek 2005 Engschrift';-inkscape-font-specification:'Roadgeek 2005 Engschrift';fill:#ffffff;stroke:none"
       id="path2549" />
    <path
       d="m 403.98589,573.73152 q 1.11667,0 2.23333,0.62533 1.16134,0.62533 1.69734,1.474 0.58066,0.84867 0.75933,1.78667 0.22333,0.89333 0.22333,1.92066 v 6.7 q 0,0.98267 -0.0893,1.69734 -0.0447,0.67 -0.49133,1.876 -0.44667,1.206 -2.18867,2.32266 -1.65267,1.11667 -3.66267,1.11667 -1.51866,0 -2.90333,-0.71467 -1.38467,-0.75933 -2.144,-1.83133 -0.75933,-1.072 -1.02733,-2.18867 -0.268,-1.11666 -0.268,-2.278 v -0.75933 h 4.37733 v 1.65267 q 0,0.22333 0.134,0.536 0.134,0.31266 0.35733,0.62533 0.22334,0.268 0.62534,0.49133 0.402,0.17867 0.938,0.17867 1.206,0 1.608,-0.67 0.402,-0.67 0.44666,-1.02733 0.0447,-0.402 0.0447,-0.84867 v -6.298 q 0,-0.22333 0,-0.402 0,-0.22333 -0.0447,-0.44667 0,-0.22333 -0.134,-0.536 -0.0893,-0.31266 -0.35733,-0.58066 -0.22333,-0.31267 -0.62533,-0.49134 -0.35734,-0.22333 -0.89334,-0.22333 -1.56333,0 -2.09933,1.608 h -3.84133 v -15.99067 h 12.23866 v 3.97534 h -8.39733 v 8.04 q 1.51867,-1.34 3.484,-1.34 z"
       style="font-style:normal;font-variant:normal;font-weight:normal;font-stretch:normal;font-size:44.6667px;font-family:'Roadgeek 2005 Engschrift';-inkscape-font-specification:'Roadgeek 2005 Engschrift';fill:#ffffff;stroke:none"
       id="path2551" />
  </g>
  <path
     style="fill:#ffffff;stroke:none;stroke-width:1px;stroke-linecap:butt;stroke-linejoin:miter;stroke-opacity:1"
     d="m 48.94135,69.254933 c -11.15566,0.77355 -9.99387,11.61265 -4.56548,14.6986 -4.58714,7.2031 -0.0344,14.03049 5.4563,14.03049 h 17.92784 c 9.86825,0 16.8023,-16.75104 1.39191,-23.66252 5.6227,-19.48255 -20.37156,-18.1647 -20.21057,-5.06657 z"
     id="path8267"
     inkscape:connector-curvature="0"
     sodipodi:nodetypes="ccsscc" />
  <path
     style="fill:#ffffff;stroke:none;stroke-width:0.2;stroke-linecap:butt;stroke-linejoin:miter;stroke-miterlimit:4;stroke-dasharray:none;stroke-opacity:1"
     d="m 85.65168,90.137033 c 5.00251,-2.32028 11.10213,2.83459 11.10213,2.83459 0,0 5.22925,-4.86692 10.94465,-2.75585 1.46989,0.54293 1.35731,-0.9857 0.86612,-1.33856 -2.91685,-2.09539 -6.57027,-4.11439 -11.6533,-0.0787 -6.14183,-3.92985 -9.54357,-2.14729 -11.96825,0 -0.63599,0.56323 -0.41367,1.85908 0.70865,1.33852 z"
     id="path8269"
     inkscape:connector-curvature="0"
     sodipodi:nodetypes="scsscss" />
  <path
     style="fill:#ffffff;stroke:none;stroke-width:0.165465;stroke-linecap:butt;stroke-linejoin:miter;stroke-miterlimit:4;stroke-dasharray:none;stroke-opacity:1"
     d="m 78.05141,72.113463 c 3.95448,-2.27507 9.35531,1.53087 9.35531,1.53087 0,0 3.95665,-4.39031 8.82006,-3.06502 1.25078,0.34083 1.04712,-0.91081 0.61671,-1.16599 -2.55586,-1.51534 -5.71324,-2.91429 -9.60966,0.78036 -5.34677,-2.79328 -8.021,-1.07747 -9.86353,0.86806 -0.4833,0.51032 -0.20608,1.56215 0.68111,1.05173 z"
     id="path8269-7"
     inkscape:connector-curvature="0"
     sodipodi:nodetypes="scsscss" />
  <path
     style="fill:#ffffff;stroke:none;stroke-width:0.133118;stroke-linecap:butt;stroke-linejoin:miter;stroke-miterlimit:4;stroke-dasharray:none;stroke-opacity:1"
     d="m 92.39262,61.260583 c 3.63094,-0.53623 6.55055,3.90562 6.55055,3.90562 0,0 4.25655,-2.11879 7.50569,0.30784 0.83563,0.6241 1.05244,-0.37281 0.80558,-0.69076 -1.46598,-1.88817 -3.41647,-3.86667 -7.42274,-2.25079 -3.17786,-3.66797 -5.6856,-3.17264 -7.63861,-2.26002 -0.51228,0.23938 -0.61508,1.10842 0.19953,0.9881 z"
     id="path8269-3"
     inkscape:connector-curvature="0"
     sodipodi:nodetypes="scsscss" />
  <path
     style="opacity:1;fill:#ffffff;fill-opacity:1;fill-rule:evenodd;stroke:none;stroke-width:0.2;stroke-linecap:round;stroke-linejoin:round;stroke-miterlimit:4;stroke-dasharray:none;stroke-dashoffset:0;stroke-opacity:1"
     d="m 58.60501,100.78497 h 3.71982 c 0.45802,0 0.82675,0.36873 0.82675,0.82675 v 9.91232 c 0,0.45803 -0.36873,0.82676 -0.82675,0.82676 h -3.71982 c -0.45802,0 -0.82675,-0.36873 -0.82675,-0.82676 v -9.91232 c 0,-0.45802 0.36873,-0.82675 0.82675,-0.82675 z"
     id="rect8292" />
  <path
     style="opacity:1;fill:#ffffff;fill-opacity:1;fill-rule:evenodd;stroke:none;stroke-width:0.2;stroke-linecap:round;stroke-linejoin:round;stroke-miterlimit:4;stroke-dasharray:none;stroke-dashoffset:0;stroke-opacity:1"
     d="m 39.00836,116.81012 h 70.8735 c 0.45803,0 0.82676,0.36873 0.82676,0.82675 v 3.52566 c 0,0.45802 -0.36873,0.82675 -0.82676,0.82675 h -70.8735 c -0.45802,0 -0.82675,-0.36873 -0.82675,-0.82675 v -3.52566 c 0,-0.45802 0.36873,-0.82675 0.82675,-0.82675 z"
     id="rect8292-7" />
  <path
     style="opacity:1;fill:#ffffff;fill-opacity:1;fill-rule:evenodd;stroke:none;stroke-width:0.2;stroke-linecap:round;stroke-linejoin:round;stroke-miterlimit:4;stroke-dasharray:none;stroke-dashoffset:0;stroke-opacity:1"
     d="m 39.00836,125.3139 h 70.8735 c 0.45803,0 0.82676,0.36873 0.82676,0.82675 v 3.52566 c 0,0.45802 -0.36873,0.82676 -0.82676,0.82676 h -70.8735 c -0.45802,0 -0.82675,-0.36874 -0.82675,-0.82676 v -3.52566 c 0,-0.45802 0.36873,-0.82675 0.82675,-0.82675 z"
     id="rect8292-7-1" />
</svg>
