<?xml version="1.0" encoding="UTF-8" standalone="no"?>
<!-- Created with Inkscape (http://www.inkscape.org/) -->

<svg
   version="1.1"
   id="svg2"
   width="148.09277"
   height="148.33458"
   viewBox="0 0 148.09277 148.33458"
   sodipodi:docname="Sustainable_Development_Goals.svg"
   inkscape:version="0.92.3 (2405546, 2018-03-11)"
   inkscape:export-filename="sdg_1.svg"
   inkscape:export-xdpi="96"
   inkscape:export-ydpi="96"
   xmlns:inkscape="http://www.inkscape.org/namespaces/inkscape"
   xmlns:sodipodi="http://sodipodi.sourceforge.net/DTD/sodipodi-0.dtd"
   xmlns="http://www.w3.org/2000/svg"
   xmlns:svg="http://www.w3.org/2000/svg"
   xmlns:rdf="http://www.w3.org/1999/02/22-rdf-syntax-ns#"
   xmlns:cc="http://creativecommons.org/ns#"
   xmlns:dc="http://purl.org/dc/elements/1.1/">
  <metadata
     id="metadata8">
    <rdf:RDF>
      <cc:Work
         rdf:about="">
        <dc:format>image/svg+xml</dc:format>
        <dc:type
           rdf:resource="http://purl.org/dc/dcmitype/StillImage" />
        <dc:title />
      </cc:Work>
    </rdf:RDF>
  </metadata>
  <defs
     id="defs6" />
  <sodipodi:namedview
     pagecolor="#ffffff"
     bordercolor="#666666"
     borderopacity="1"
     objecttolerance="10"
     gridtolerance="10"
     guidetolerance="10"
     inkscape:pageopacity="0"
     inkscape:pageshadow="2"
     inkscape:window-width="1920"
     inkscape:window-height="1061"
     id="namedview4"
     showgrid="false"
     inkscape:zoom="1.0772059"
     inkscape:cx="528"
     inkscape:cy="408"
     inkscape:window-x="1920"
     inkscape:window-y="0"
     inkscape:window-maximized="1"
     inkscape:current-layer="svg2"
     showguides="true"
     inkscape:guide-bbox="true"
     inkscape:snap-global="true"
     inkscape:snap-center="true"
     inkscape:snap-object-midpoints="true"
     inkscape:snap-bbox="true"
     inkscape:snap-bbox-midpoints="true"
     inkscape:showpageshadow="2"
     inkscape:pagecheckerboard="0"
     inkscape:deskcolor="#d1d1d1" />
  <path
     style="opacity:1;fill:#00aed9;fill-opacity:1;fill-rule:evenodd;stroke:none;stroke-width:4;stroke-linecap:round;stroke-linejoin:round;stroke-miterlimit:4;stroke-dasharray:none;stroke-dashoffset:0;stroke-opacity:1"
     d="M 0.82675166,4.9462891e-6 H 147.26605 c 0.458,0 0.8267,0.3687300037109 0.8267,0.8267500037109 V 147.50782 c 0,0.45802 -0.3687,0.82675 -0.8267,0.82675 H 0.82675166 c -0.45802,0 -0.8267499998437,-0.36873 -0.8267499998437,-0.82675 V 0.82675495 C 1.6601563e-6,0.36873495 0.36873166,4.9462891e-6 0.82675166,4.9462891e-6 Z"
     id="rect8528-63-2-4" />
  <style
     id="style970"
     type="text/css">
	.st0{fill:#418FDE;}
</style>
  <g
     aria-label="CLEAN WATER AND SANITATION"
     style="font-style:normal;font-variant:normal;font-weight:normal;font-stretch:normal;font-size:18.6667px;line-height:0.92;font-family:'Roadgeek 2005 Series B';-inkscape-font-specification:'Roadgeek 2005 Series B';letter-spacing:0px;word-spacing:0px;fill:#ffffff;fill-opacity:1;stroke:none"
     id="text6065-3-2-9-6-6"
     transform="translate(-865.78705,-228.93456)">
    <path
       d="m 914.82384,251.53189 q 0,0.59733 -0.0747,1.02666 -0.056,0.42934 -0.37333,0.93334 -0.168,0.26133 -0.42934,0.504 -0.24266,0.224 -0.56,0.41066 -0.29866,0.168 -0.65333,0.28 -0.35467,0.112 -0.69067,0.112 -0.84,0 -1.53066,-0.35466 -0.672,-0.35467 -0.98934,-0.896 -0.31733,-0.54134 -0.41066,-1.008 -0.0747,-0.46667 -0.0747,-1.008 v -6.44 q 0,-0.52267 0.0933,-0.93334 0.112,-0.42933 0.448,-0.91466 0.336,-0.48534 0.952,-0.82134 0.616,-0.35466 1.288,-0.35466 1.288,0 2.14667,0.85866 0.85867,0.84 0.85867,2.16534 v 0.672 h -1.77334 v -0.672 q 0,-0.52267 -0.29866,-0.87734 -0.28,-0.35466 -0.84,-0.35466 -0.52267,0 -0.82134,0.35466 -0.28,0.35467 -0.28,0.87734 v 6.92533 q 0.0373,0.28 0.26134,0.63467 0.26133,0.37333 0.85866,0.37333 0.63467,0 0.84,-0.336 0.20534,-0.336 0.24267,-0.48533 0.0373,-0.168 0.0373,-0.448 v -0.63467 h 1.77334 z"
       style="font-style:normal;font-variant:normal;font-weight:normal;font-stretch:normal;line-height:0.92;font-family:'Roadgeek 2005 Engschrift';-inkscape-font-specification:'Roadgeek 2005 Engschrift';fill:#ffffff;stroke:none"
       id="path2037" />
    <path
       d="m 921.44256,254.68655 h -5.33867 v -12.50666 h 1.792 v 10.71466 h 3.54667 z"
       style="font-style:normal;font-variant:normal;font-weight:normal;font-stretch:normal;line-height:0.92;font-family:'Roadgeek 2005 Engschrift';-inkscape-font-specification:'Roadgeek 2005 Engschrift';fill:#ffffff;stroke:none"
       id="path2039" />
    <path
       d="m 927.37349,252.89455 v 1.792 h -5.35733 v -12.50666 h 5.35733 v 1.64266 h -3.584 v 3.696 h 3.136 v 1.69867 h -3.136 v 3.67733 z"
       style="font-style:normal;font-variant:normal;font-weight:normal;font-stretch:normal;line-height:0.92;font-family:'Roadgeek 2005 Engschrift';-inkscape-font-specification:'Roadgeek 2005 Engschrift';fill:#ffffff;stroke:none"
       id="path2041" />
    <path
       d="m 927.7108,254.68655 2.8,-12.50666 h 1.54933 l 2.8,12.50666 h -1.92267 l -0.504,-2.688 h -2.31466 l -0.52267,2.688 z m 2.72533,-4.34933 h 1.68 l -0.84,-4.55467 z"
       style="font-style:normal;font-variant:normal;font-weight:normal;font-stretch:normal;line-height:0.92;font-family:'Roadgeek 2005 Engschrift';-inkscape-font-specification:'Roadgeek 2005 Engschrift';fill:#ffffff;stroke:none"
       id="path2043" />
    <path
       d="m 940.20416,254.68655 -2.78133,-7.59733 v 7.59733 h -1.792 v -12.50666 h 1.69866 l 2.76267,7.57866 v -7.57866 h 1.792 v 12.50666 z"
       style="font-style:normal;font-variant:normal;font-weight:normal;font-stretch:normal;line-height:0.92;font-family:'Roadgeek 2005 Engschrift';-inkscape-font-specification:'Roadgeek 2005 Engschrift';fill:#ffffff;stroke:none"
       id="path2045" />
    <path
       d="m 950.91018,254.68655 -1.47467,-7.616 -1.43733,7.616 h -1.66134 l -1.81066,-12.50666 h 1.904 l 0.896,7.56 1.43733,-7.56 h 1.32533 l 1.47467,7.56 0.896,-7.56 h 1.88533 l -1.75466,12.50666 z"
       style="font-style:normal;font-variant:normal;font-weight:normal;font-stretch:normal;line-height:0.92;font-family:'Roadgeek 2005 Engschrift';-inkscape-font-specification:'Roadgeek 2005 Engschrift';fill:#ffffff;stroke:none"
       id="path2047" />
    <path
       d="m 953.8935,254.68655 2.8,-12.50666 h 1.54934 l 2.8,12.50666 h -1.92267 l -0.504,-2.688 h -2.31467 l -0.52266,2.688 z m 2.72534,-4.34933 h 1.68 l -0.84,-4.55467 z"
       style="font-style:normal;font-variant:normal;font-weight:normal;font-stretch:normal;line-height:0.92;font-family:'Roadgeek 2005 Engschrift';-inkscape-font-specification:'Roadgeek 2005 Engschrift';fill:#ffffff;stroke:none"
       id="path2049" />
    <path
       d="m 962.40279,254.68655 v -10.84533 h -2.10933 v -1.66133 h 6.02933 v 1.66133 h -2.14666 v 10.84533 z"
       style="font-style:normal;font-variant:normal;font-weight:normal;font-stretch:normal;line-height:0.92;font-family:'Roadgeek 2005 Engschrift';-inkscape-font-specification:'Roadgeek 2005 Engschrift';fill:#ffffff;stroke:none"
       id="path2051" />
    <path
       d="m 972.70973,252.89455 v 1.792 h -5.35733 v -12.50666 h 5.35733 v 1.64266 h -3.584 v 3.696 h 3.136 v 1.69867 h -3.136 v 3.67733 z"
       style="font-style:normal;font-variant:normal;font-weight:normal;font-stretch:normal;line-height:0.92;font-family:'Roadgeek 2005 Engschrift';-inkscape-font-specification:'Roadgeek 2005 Engschrift';fill:#ffffff;stroke:none"
       id="path2053" />
    <path
       d="m 973.627,254.68655 v -12.50666 h 3.136 q 1.232,0 2.072,0.85866 0.85867,0.85867 0.85867,2.10934 v 1.15733 q 0,1.736 -1.47467,2.65067 l 1.904,5.73066 h -1.904 l -1.68,-5.35733 h -1.12 v 5.35733 z m 3.976,-7.336 q 0.168,-0.20533 0.224,-0.46666 0.0747,-0.26134 0.0747,-0.57867 v -1.15733 q 0,-0.57867 -0.31733,-0.93334 -0.31734,-0.37333 -0.896,-0.37333 H 975.419 v 3.90133 h 1.25067 q 0.56,0 0.93333,-0.392 z"
       style="font-style:normal;font-variant:normal;font-weight:normal;font-stretch:normal;line-height:0.92;font-family:'Roadgeek 2005 Engschrift';-inkscape-font-specification:'Roadgeek 2005 Engschrift';fill:#ffffff;stroke:none"
       id="path2055" />
    <path
       d="m 908.62121,271.93353 2.8,-12.50667 h 1.54933 l 2.8,12.50667 h -1.92267 l -0.504,-2.688 h -2.31466 l -0.52267,2.688 z m 2.72533,-4.34933 h 1.68 l -0.84,-4.55467 z"
       style="font-style:normal;font-variant:normal;font-weight:normal;font-stretch:normal;line-height:0.92;font-family:'Roadgeek 2005 Engschrift';-inkscape-font-specification:'Roadgeek 2005 Engschrift';fill:#ffffff;stroke:none"
       id="path2057" />
    <path
       d="m 921.11457,271.93353 -2.78134,-7.59733 v 7.59733 h -1.792 v -12.50667 h 1.69867 l 2.76267,7.57867 v -7.57867 h 1.792 v 12.50667 z"
       style="font-style:normal;font-variant:normal;font-weight:normal;font-stretch:normal;line-height:0.92;font-family:'Roadgeek 2005 Engschrift';-inkscape-font-specification:'Roadgeek 2005 Engschrift';fill:#ffffff;stroke:none"
       id="path2059" />
    <path
       d="m 926.73362,259.42686 q 1.21333,0 2.072,0.85867 0.87733,0.84 0.87733,2.05333 v 6.496 q 0,1.38134 -0.84,2.24 -0.84,0.85867 -2.16533,0.85867 h -2.78133 v -12.50667 z m 1.176,9.408 v -6.496 q 0,-0.52266 -0.392,-0.87733 -0.37333,-0.35467 -0.91467,-0.35467 h -0.93333 v 9.16534 h 0.87733 q 1.36267,0 1.36267,-1.43734 z"
       style="font-style:normal;font-variant:normal;font-weight:normal;font-stretch:normal;line-height:0.92;font-family:'Roadgeek 2005 Engschrift';-inkscape-font-specification:'Roadgeek 2005 Engschrift';fill:#ffffff;stroke:none"
       id="path2061" />
    <path
       d="m 934.92122,268.8162 q 0,0.18666 0,0.31733 0,0.13067 0.0187,0.224 0.0373,0.18667 0.28,0.54133 0.26133,0.37334 0.93333,0.37334 0.37334,0 0.69067,-0.14934 0.31733,-0.168 0.46667,-0.42933 0.112,-0.20533 0.13066,-0.392 0.0373,-0.18667 0.0373,-0.336 v -0.168 -0.87733 -0.168 q 0,-0.41067 -0.14934,-0.63467 -0.14933,-0.24267 -0.672,-0.54133 -0.35466,-0.18667 -1.26933,-0.52267 -0.91466,-0.336 -1.53066,-1.064 -0.616,-0.728 -0.616,-1.97867 v -0.56 q 0,-1.288 0.85866,-2.20266 0.87733,-0.93334 2.128,-0.93334 1.30667,0 2.16533,0.91467 0.87734,0.91467 0.87734,2.22133 v 0.56 h -1.792 v -0.56 q 0,-0.13066 -0.0187,-0.24266 0,-0.112 -0.0187,-0.20534 -0.0187,-0.0933 -0.0933,-0.224 -0.0747,-0.13066 -0.20533,-0.31733 -0.26134,-0.37333 -0.87734,-0.37333 -0.54133,0 -0.896,0.392 -0.336,0.392 -0.336,0.97066 v 0.56 0.168 q 0,0.37334 0.112,0.59734 0.13067,0.20533 0.59734,0.46666 0.14933,0.0747 0.448,0.20534 0.31733,0.112 0.76533,0.28 0.896,0.29866 1.60533,1.064 0.70934,0.76533 0.70934,2.016 v 1.008 q 0,0.65333 -0.13067,1.10133 -0.112,0.448 -0.76533,1.30667 -0.65334,0.82133 -2.184,0.82133 -1.624,0 -2.352,-1.04533 -0.728,-1.064 -0.728,-2.184 v -0.448 h 1.81066 z"
       style="font-style:normal;font-variant:normal;font-weight:normal;font-stretch:normal;line-height:0.92;font-family:'Roadgeek 2005 Engschrift';-inkscape-font-specification:'Roadgeek 2005 Engschrift';fill:#ffffff;stroke:none"
       id="path2063" />
    <path
       d="m 939.61641,271.93353 2.8,-12.50667 h 1.54933 l 2.8,12.50667 h -1.92266 l -0.504,-2.688 h -2.31467 l -0.52267,2.688 z m 2.72533,-4.34933 h 1.68 l -0.84,-4.55467 z"
       style="font-style:normal;font-variant:normal;font-weight:normal;font-stretch:normal;line-height:0.92;font-family:'Roadgeek 2005 Engschrift';-inkscape-font-specification:'Roadgeek 2005 Engschrift';fill:#ffffff;stroke:none"
       id="path2065" />
    <path
       d="m 952.25112,271.93353 -2.78133,-7.59733 v 7.59733 h -1.792 v -12.50667 h 1.69866 l 2.76267,7.57867 v -7.57867 h 1.792 v 12.50667 z"
       style="font-style:normal;font-variant:normal;font-weight:normal;font-stretch:normal;line-height:0.92;font-family:'Roadgeek 2005 Engschrift';-inkscape-font-specification:'Roadgeek 2005 Engschrift';fill:#ffffff;stroke:none"
       id="path2067" />
    <path
       d="m 955.10351,271.93353 v -12.50667 h 1.77333 v 12.50667 z"
       style="font-style:normal;font-variant:normal;font-weight:normal;font-stretch:normal;line-height:0.92;font-family:'Roadgeek 2005 Engschrift';-inkscape-font-specification:'Roadgeek 2005 Engschrift';fill:#ffffff;stroke:none"
       id="path2069" />
    <path
       d="M 959.9769,271.93353 V 261.0882 h -2.10933 v -1.66134 h 6.02933 v 1.66134 h -2.14667 v 10.84533 z"
       style="font-style:normal;font-variant:normal;font-weight:normal;font-stretch:normal;line-height:0.92;font-family:'Roadgeek 2005 Engschrift';-inkscape-font-specification:'Roadgeek 2005 Engschrift';fill:#ffffff;stroke:none"
       id="path2071" />
    <path
       d="m 963.26778,271.93353 2.8,-12.50667 h 1.54933 l 2.8,12.50667 h -1.92266 l -0.504,-2.688 h -2.31467 l -0.52267,2.688 z m 2.72533,-4.34933 h 1.68 l -0.84,-4.55467 z"
       style="font-style:normal;font-variant:normal;font-weight:normal;font-stretch:normal;line-height:0.92;font-family:'Roadgeek 2005 Engschrift';-inkscape-font-specification:'Roadgeek 2005 Engschrift';fill:#ffffff;stroke:none"
       id="path2073" />
    <path
       d="M 971.98909,271.93353 V 261.0882 h -2.10933 v -1.66134 h 6.02933 v 1.66134 h -2.14667 v 10.84533 z"
       style="font-style:normal;font-variant:normal;font-weight:normal;font-stretch:normal;line-height:0.92;font-family:'Roadgeek 2005 Engschrift';-inkscape-font-specification:'Roadgeek 2005 Engschrift';fill:#ffffff;stroke:none"
       id="path2075" />
    <path
       d="m 976.86802,271.93353 v -12.50667 h 1.77333 v 12.50667 z"
       style="font-style:normal;font-variant:normal;font-weight:normal;font-stretch:normal;line-height:0.92;font-family:'Roadgeek 2005 Engschrift';-inkscape-font-specification:'Roadgeek 2005 Engschrift';fill:#ffffff;stroke:none"
       id="path2077" />
    <path
       d="m 980.64407,260.60286 q 0.42934,-0.59733 1.08267,-0.93333 0.672,-0.35467 1.38133,-0.35467 0.69067,0 1.288,0.28 0.616,0.28 1.02667,0.76534 0.41067,0.48533 0.56,1.008 0.14933,0.504 0.14933,1.10133 v 6.36533 q 0,0.56 -0.112,0.98934 -0.0933,0.42933 -0.448,0.952 -0.336,0.52266 -0.98933,0.896 -0.63467,0.37333 -1.41867,0.37333 -0.448,0 -0.85866,-0.112 -0.41067,-0.13067 -0.76534,-0.336 -0.35466,-0.20533 -0.63466,-0.46667 -0.26134,-0.26133 -0.41067,-0.54133 -0.28,-0.57867 -0.336,-0.93333 -0.056,-0.35467 -0.056,-0.82134 v -6.36533 q 0,-0.56 0.112,-0.98933 0.13067,-0.448 0.42933,-0.87734 z m 3.472,0.98934 q -0.35466,-0.52267 -0.97066,-0.52267 -0.31734,0 -0.63467,0.18667 -0.29867,0.168 -0.42933,0.392 -0.112,0.224 -0.14934,0.448 -0.0373,0.224 -0.0373,0.37333 v 6.36533 q 0,0.0933 0,0.20534 0,0.0933 0.0187,0.20533 0.0187,0.18667 0.29866,0.616 0.28,0.392 0.93334,0.392 0.336,0 0.59733,-0.14933 0.28,-0.168 0.392,-0.37334 0.13067,-0.224 0.168,-0.41066 0.0373,-0.18667 0.0373,-0.48534 v -6.36533 q 0,-0.37333 -0.0373,-0.52267 -0.0187,-0.14933 -0.18667,-0.35466 z"
       style="font-style:normal;font-variant:normal;font-weight:normal;font-stretch:normal;line-height:0.92;font-family:'Roadgeek 2005 Engschrift';-inkscape-font-specification:'Roadgeek 2005 Engschrift';fill:#ffffff;stroke:none"
       id="path2079" />
    <path
       d="m 992.21676,271.93353 -2.78133,-7.59733 v 7.59733 h -1.792 v -12.50667 h 1.69866 l 2.76267,7.57867 v -7.57867 h 1.792 v 12.50667 z"
       style="font-style:normal;font-variant:normal;font-weight:normal;font-stretch:normal;line-height:0.92;font-family:'Roadgeek 2005 Engschrift';-inkscape-font-specification:'Roadgeek 2005 Engschrift';fill:#ffffff;stroke:none"
       id="path2081" />
  </g>
  <g
     aria-label="6"
     style="font-style:normal;font-variant:normal;font-weight:normal;font-stretch:normal;font-size:13.3333px;line-height:1.25;font-family:'Liberation Serif';-inkscape-font-specification:'Liberation Serif';letter-spacing:0px;word-spacing:0px;fill:#ffffff;fill-opacity:1;stroke:none"
     id="text6075-0-6-9-2-5"
     transform="translate(-865.78705,-228.93456)">
    <path
       d="m 894.17815,256.0435 q 0.35734,0.62533 0.44667,1.29533 0.134,0.67 0.134,1.65267 v 5.71733 q 0,1.02734 -0.22333,2.05467 -0.22334,0.98267 -1.34,2.76933 -1.16134,1.83134 -4.37734,2.09934 -2.01,0 -3.66266,-0.84867 -1.608,-0.89333 -2.278,-2.09933 -0.62534,-1.25067 -0.804,-2.09934 -0.134,-0.84866 -0.134,-1.876 v -4.69 q 0,-0.98266 0.0447,-1.38466 0.0447,-0.44667 0.31267,-1.16134 l 5.94067,-16.03533 h 4.824 l -4.824,12.55133 q 0.804,-0.31266 1.92066,-0.31266 h 0.402 q 2.45667,0.35733 3.618,2.36733 z m -4.06466,2.278 q -0.67,-0.89333 -1.78667,-0.89333 -0.98267,0 -1.51867,0.71466 -0.536,0.71467 -0.536,1.876 v 4.69 q 0,0.938 0.44667,1.78667 0.49133,0.804 1.65267,0.804 h 0.268 q 1.16133,0 1.51866,-0.804 0.35734,-0.804 0.35734,-1.78667 v -4.69 q 0,-0.58066 -0.0893,-0.938 -0.0447,-0.402 -0.31266,-0.75933 z"
       style="font-style:normal;font-variant:normal;font-weight:normal;font-stretch:normal;font-size:44.6667px;font-family:'Roadgeek 2005 Engschrift';-inkscape-font-specification:'Roadgeek 2005 Engschrift';fill:#ffffff;stroke:none"
       id="path2084" />
  </g>
  <path
     style="fill:#ffffff;stroke:none;stroke-width:1px;stroke-linecap:butt;stroke-linejoin:miter;stroke-opacity:1"
     d="m 47.826232,59.797865 c -0.7092,0 -1.4023,0.62263 -1.24805,1.56055 l 8.73438,53.107415 c 0.11306,0.68745 0.54915,1.32617 1.24805,1.32617 h 10.60546 l 0.78126,8.65625 h -4.52344 l 10.72265,10.72461 10.72266,-10.72461 h -4.52344 l 0.78125,-8.65625 h 10.60547 c 0.6989,0 1.13499,-0.63872 1.24805,-1.32617 L 101.7149,61.358415 c 0.15425,-0.93792 -0.53884,-1.56055 -1.24804,-1.56055 z m 1.61328,2.64649 h 49.41406 l -1.45898,8.87304 c -5.72741,-0.66289 -14.31476,6.67387 -23.96289,1.82617 -11.87489,-5.96651 -12.13217,0.46526 -22.24609,-0.0781 z m 24.66797,18.5664 c 4.66247,8.07562 8.64258,11.18628 8.64258,16.65039 0,3.651915 -2.30479,8.382815 -8.64258,8.382815 -6.33779,0 -8.64258,-4.7309 -8.64258,-8.382815 0,-5.46411 3.98012,-8.57477 8.64258,-16.65039 z"
     id="path7044-1" />
</svg>
