<?xml version="1.0" encoding="UTF-8" standalone="no"?>
<!-- Created with Inkscape (http://www.inkscape.org/) -->

<svg
   version="1.1"
   id="svg2"
   width="148.09277"
   height="148.33459"
   viewBox="0 0 148.09277 148.33459"
   sodipodi:docname="Sustainable_Development_Goals.svg"
   inkscape:version="0.92.3 (2405546, 2018-03-11)"
   inkscape:export-filename="sdg_1.svg"
   inkscape:export-xdpi="96"
   inkscape:export-ydpi="96"
   xmlns:inkscape="http://www.inkscape.org/namespaces/inkscape"
   xmlns:sodipodi="http://sodipodi.sourceforge.net/DTD/sodipodi-0.dtd"
   xmlns="http://www.w3.org/2000/svg"
   xmlns:svg="http://www.w3.org/2000/svg"
   xmlns:rdf="http://www.w3.org/1999/02/22-rdf-syntax-ns#"
   xmlns:cc="http://creativecommons.org/ns#"
   xmlns:dc="http://purl.org/dc/elements/1.1/">
  <metadata
     id="metadata8">
    <rdf:RDF>
      <cc:Work
         rdf:about="">
        <dc:format>image/svg+xml</dc:format>
        <dc:type
           rdf:resource="http://purl.org/dc/dcmitype/StillImage" />
        <dc:title />
      </cc:Work>
    </rdf:RDF>
  </metadata>
  <defs
     id="defs6" />
  <sodipodi:namedview
     pagecolor="#ffffff"
     bordercolor="#666666"
     borderopacity="1"
     objecttolerance="10"
     gridtolerance="10"
     guidetolerance="10"
     inkscape:pageopacity="0"
     inkscape:pageshadow="2"
     inkscape:window-width="1920"
     inkscape:window-height="1061"
     id="namedview4"
     showgrid="false"
     inkscape:zoom="1.0772059"
     inkscape:cx="528"
     inkscape:cy="408"
     inkscape:window-x="1920"
     inkscape:window-y="0"
     inkscape:window-maximized="1"
     inkscape:current-layer="svg2"
     showguides="true"
     inkscape:guide-bbox="true"
     inkscape:snap-global="true"
     inkscape:snap-center="true"
     inkscape:snap-object-midpoints="true"
     inkscape:snap-bbox="true"
     inkscape:snap-bbox-midpoints="true"
     inkscape:showpageshadow="2"
     inkscape:pagecheckerboard="0"
     inkscape:deskcolor="#d1d1d1" />
  <path
     style="opacity:1;fill:#cf8d2a;fill-opacity:1;fill-rule:evenodd;stroke:none;stroke-width:4;stroke-linecap:round;stroke-linejoin:round;stroke-miterlimit:4;stroke-dasharray:none;stroke-dashoffset:0;stroke-opacity:1"
     d="M 0.82675166,-2.5195312e-6 H 147.26605 c 0.458,0 0.8267,0.3687299995312 0.8267,0.8267599995312 V 147.50783 c 0,0.45802 -0.3687,0.82675 -0.8267,0.82675 H 0.82675166 c -0.45802,0 -0.8267499998437,-0.36873 -0.8267499998437,-0.82675 V 0.82675748 C 1.6601563e-6,0.36872748 0.36873166,-2.5195312e-6 0.82675166,-2.5195312e-6 Z"
     id="rect8528-63-2-4-3" />
  <style
     id="style970"
     type="text/css">
	.st0{fill:#418FDE;}
</style>
  <g
     aria-label="RESPONSIBLE CONSUMPTION AND PRODUCTION"
     style="font-style:normal;font-variant:normal;font-weight:normal;font-stretch:normal;font-size:18.6667px;line-height:0.92;font-family:'Roadgeek 2005 Series B';-inkscape-font-specification:'Roadgeek 2005 Series B';letter-spacing:0px;word-spacing:0px;fill:#ffffff;fill-opacity:1;stroke:none"
     id="text6065-3-2-9-6-6-5-0-0-8-8-8"
     transform="translate(-865.78705,-389.72833)">
    <path
       d="M 913.44278,414.96246 V 402.4558 h 3.136 q 1.232,0 2.072,0.85866 0.85867,0.85867 0.85867,2.10934 v 1.15733 q 0,1.736 -1.47467,2.65067 l 1.904,5.73066 h -1.904 l -1.68,-5.35733 h -1.12 v 5.35733 z m 3.976,-7.336 q 0.168,-0.20533 0.224,-0.46666 0.0747,-0.26134 0.0747,-0.57867 v -1.15733 q 0,-0.57867 -0.31733,-0.93334 -0.31734,-0.37333 -0.896,-0.37333 h -1.26934 v 3.90133 h 1.25067 q 0.56,0 0.93333,-0.392 z"
       style="font-style:normal;font-variant:normal;font-weight:normal;font-stretch:normal;line-height:0.92;font-family:'Roadgeek 2005 Engschrift';-inkscape-font-specification:'Roadgeek 2005 Engschrift';fill:#ffffff;stroke:none"
       id="path2386" />
    <path
       d="m 925.77884,413.17046 v 1.792 H 920.4215 V 402.4558 h 5.35734 v 1.64266 h -3.584 v 3.696 h 3.136 v 1.69867 h -3.136 v 3.67733 z"
       style="font-style:normal;font-variant:normal;font-weight:normal;font-stretch:normal;line-height:0.92;font-family:'Roadgeek 2005 Engschrift';-inkscape-font-specification:'Roadgeek 2005 Engschrift';fill:#ffffff;stroke:none"
       id="path2388" />
    <path
       d="m 927.80681,411.84513 q 0,0.18667 0,0.31733 0,0.13067 0.0187,0.224 0.0373,0.18667 0.28,0.54134 0.26133,0.37333 0.93333,0.37333 0.37333,0 0.69067,-0.14933 0.31733,-0.168 0.46666,-0.42934 0.112,-0.20533 0.13067,-0.392 0.0373,-0.18666 0.0373,-0.336 v -0.168 -0.87733 -0.168 q 0,-0.41067 -0.14933,-0.63467 -0.14933,-0.24266 -0.672,-0.54133 -0.35467,-0.18667 -1.26933,-0.52267 -0.91467,-0.336 -1.53067,-1.064 -0.616,-0.728 -0.616,-1.97866 v -0.56 q 0,-1.288 0.85867,-2.20267 0.87733,-0.93333 2.128,-0.93333 1.30666,0 2.16533,0.91466 0.87733,0.91467 0.87733,2.22134 v 0.56 h -1.792 v -0.56 q 0,-0.13067 -0.0187,-0.24267 0,-0.112 -0.0187,-0.20533 -0.0187,-0.0933 -0.0933,-0.224 -0.0747,-0.13067 -0.20534,-0.31734 -0.26133,-0.37333 -0.87733,-0.37333 -0.54133,0 -0.896,0.392 -0.336,0.392 -0.336,0.97067 v 0.56 0.168 q 0,0.37333 0.112,0.59733 0.13067,0.20533 0.59733,0.46667 0.14934,0.0747 0.448,0.20533 0.31734,0.112 0.76534,0.28 0.896,0.29867 1.60533,1.064 0.70933,0.76533 0.70933,2.016 v 1.008 q 0,0.65333 -0.13066,1.10133 -0.112,0.448 -0.76534,1.30667 -0.65333,0.82133 -2.184,0.82133 -1.624,0 -2.352,-1.04533 -0.728,-1.064 -0.728,-2.184 v -0.448 h 1.81067 z"
       style="font-style:normal;font-variant:normal;font-weight:normal;font-stretch:normal;line-height:0.92;font-family:'Roadgeek 2005 Engschrift';-inkscape-font-specification:'Roadgeek 2005 Engschrift';fill:#ffffff;stroke:none"
       id="path2390" />
    <path
       d="M 932.96757,414.96246 V 402.4558 h 2.93067 0.0373 q 0.56,0 1.064,0.24266 0.504,0.224 0.896,0.59734 0.392,0.37333 0.616,0.85866 0.24267,0.46667 0.26134,0.97067 v 1.81067 0.18666 q 0,0.616 -0.24267,1.15734 -0.224,0.52266 -0.616,0.91466 -0.392,0.392 -0.93333,0.616 -0.52267,0.224 -1.12,0.224 h -0.168 -0.93334 v 4.928 z m 3.78934,-6.98133 q 0.168,-0.168 0.20533,-0.35467 0.056,-0.18666 0.056,-0.46666 v -1.848 q 0,-0.52267 -0.31733,-0.85867 -0.31734,-0.35467 -0.85867,-0.35467 h -1.08267 v 4.23734 h 0.93334 q 0.37333,0 0.59733,-0.056 0.24267,-0.0747 0.46667,-0.29867 z"
       style="font-style:normal;font-variant:normal;font-weight:normal;font-stretch:normal;line-height:0.92;font-family:'Roadgeek 2005 Engschrift';-inkscape-font-specification:'Roadgeek 2005 Engschrift';fill:#ffffff;stroke:none"
       id="path2392" />
    <path
       d="m 940.19479,403.6318 q 0.42933,-0.59734 1.08266,-0.93334 0.672,-0.35466 1.38133,-0.35466 0.69067,0 1.288,0.28 0.616,0.28 1.02667,0.76533 0.41067,0.48533 0.56,1.008 0.14933,0.504 0.14933,1.10133 v 6.36534 q 0,0.56 -0.112,0.98933 -0.0933,0.42933 -0.448,0.952 -0.336,0.52267 -0.98933,0.896 -0.63467,0.37333 -1.41867,0.37333 -0.448,0 -0.85866,-0.112 -0.41067,-0.13066 -0.76533,-0.336 -0.35467,-0.20533 -0.63467,-0.46666 -0.26133,-0.26134 -0.41067,-0.54134 -0.28,-0.57866 -0.336,-0.93333 -0.056,-0.35467 -0.056,-0.82133 v -6.36534 q 0,-0.56 0.112,-0.98933 0.13067,-0.448 0.42934,-0.87733 z m 3.47199,0.98933 q -0.35466,-0.52267 -0.97066,-0.52267 -0.31734,0 -0.63467,0.18667 -0.29867,0.168 -0.42933,0.392 -0.112,0.224 -0.14933,0.448 -0.0373,0.224 -0.0373,0.37333 v 6.36534 q 0,0.0933 0,0.20533 0,0.0933 0.0187,0.20533 0.0187,0.18667 0.29866,0.616 0.28,0.392 0.93334,0.392 0.336,0 0.59733,-0.14933 0.28,-0.168 0.392,-0.37333 0.13067,-0.224 0.168,-0.41067 0.0373,-0.18667 0.0373,-0.48533 v -6.36534 q 0,-0.37333 -0.0373,-0.52266 -0.0187,-0.14934 -0.18667,-0.35467 z"
       style="font-style:normal;font-variant:normal;font-weight:normal;font-stretch:normal;line-height:0.92;font-family:'Roadgeek 2005 Engschrift';-inkscape-font-specification:'Roadgeek 2005 Engschrift';fill:#ffffff;stroke:none"
       id="path2394" />
    <path
       d="m 951.53742,414.96246 -2.78134,-7.59733 v 7.59733 h -1.792 V 402.4558 h 1.69867 l 2.76267,7.57866 v -7.57866 h 1.792 v 12.50666 z"
       style="font-style:normal;font-variant:normal;font-weight:normal;font-stretch:normal;line-height:0.92;font-family:'Roadgeek 2005 Engschrift';-inkscape-font-specification:'Roadgeek 2005 Engschrift';fill:#ffffff;stroke:none"
       id="path2396" />
    <path
       d="m 955.55252,411.84513 q 0,0.18667 0,0.31733 0,0.13067 0.0187,0.224 0.0373,0.18667 0.28,0.54134 0.26134,0.37333 0.93334,0.37333 0.37333,0 0.69066,-0.14933 0.31734,-0.168 0.46667,-0.42934 0.112,-0.20533 0.13067,-0.392 0.0373,-0.18666 0.0373,-0.336 v -0.168 -0.87733 -0.168 q 0,-0.41067 -0.14933,-0.63467 -0.14934,-0.24266 -0.672,-0.54133 -0.35467,-0.18667 -1.26934,-0.52267 -0.91466,-0.336 -1.53066,-1.064 -0.616,-0.728 -0.616,-1.97866 v -0.56 q 0,-1.288 0.85866,-2.20267 0.87734,-0.93333 2.128,-0.93333 1.30667,0 2.16534,0.91466 0.87733,0.91467 0.87733,2.22134 v 0.56 h -1.792 v -0.56 q 0,-0.13067 -0.0187,-0.24267 0,-0.112 -0.0187,-0.20533 -0.0187,-0.0933 -0.0933,-0.224 -0.0747,-0.13067 -0.20533,-0.31734 -0.26133,-0.37333 -0.87733,-0.37333 -0.54134,0 -0.896,0.392 -0.336,0.392 -0.336,0.97067 v 0.56 0.168 q 0,0.37333 0.112,0.59733 0.13066,0.20533 0.59733,0.46667 0.14933,0.0747 0.448,0.20533 0.31733,0.112 0.76533,0.28 0.896,0.29867 1.60534,1.064 0.70933,0.76533 0.70933,2.016 v 1.008 q 0,0.65333 -0.13067,1.10133 -0.112,0.448 -0.76533,1.30667 -0.65333,0.82133 -2.184,0.82133 -1.624,0 -2.352,-1.04533 -0.728,-1.064 -0.728,-2.184 v -0.448 h 1.81067 z"
       style="font-style:normal;font-variant:normal;font-weight:normal;font-stretch:normal;line-height:0.92;font-family:'Roadgeek 2005 Engschrift';-inkscape-font-specification:'Roadgeek 2005 Engschrift';fill:#ffffff;stroke:none"
       id="path2398" />
    <path
       d="M 960.88419,414.96246 V 402.4558 h 1.77333 v 12.50666 z"
       style="font-style:normal;font-variant:normal;font-weight:normal;font-stretch:normal;line-height:0.92;font-family:'Roadgeek 2005 Engschrift';-inkscape-font-specification:'Roadgeek 2005 Engschrift';fill:#ffffff;stroke:none"
       id="path2400" />
    <path
       d="m 966.86862,402.4558 q 0.57867,0 1.08267,0.24266 0.56,0.26134 1.13866,0.84 0.616,0.59734 0.616,1.86667 v 0.952 q 0,1.43733 -1.13866,2.016 1.13866,0.672 1.13866,2.09067 v 1.456 q 0,1.32533 -0.85866,2.184 -0.84,0.85866 -2.16534,0.85866 h -2.76266 V 402.4558 Z m 1.064,3.71466 v -0.76533 q 0,-0.57867 -0.336,-0.91467 -0.336,-0.35466 -0.896,-0.35466 h -1.008 v 3.45333 h 1.064 q 0.616,0 0.896,-0.37333 0.28,-0.392 0.28,-1.04534 z m 0,5.74934 v -1.456 q 0,-0.59734 -0.336,-0.93334 -0.31733,-0.35466 -0.896,-0.35466 h -1.008 v 4.01333 h 1.02667 q 0.54133,0 0.87733,-0.35467 0.336,-0.37333 0.336,-0.91466 z"
       style="font-style:normal;font-variant:normal;font-weight:normal;font-stretch:normal;line-height:0.92;font-family:'Roadgeek 2005 Engschrift';-inkscape-font-specification:'Roadgeek 2005 Engschrift';fill:#ffffff;stroke:none"
       id="path2402" />
    <path
       d="m 975.96892,414.96246 h -5.33866 V 402.4558 h 1.792 v 10.71466 h 3.54666 z"
       style="font-style:normal;font-variant:normal;font-weight:normal;font-stretch:normal;line-height:0.92;font-family:'Roadgeek 2005 Engschrift';-inkscape-font-specification:'Roadgeek 2005 Engschrift';fill:#ffffff;stroke:none"
       id="path2404" />
    <path
       d="m 981.82269,413.17046 v 1.792 h -5.35734 V 402.4558 h 5.35734 v 1.64266 h -3.584 v 3.696 h 3.136 v 1.69867 h -3.136 v 3.67733 z"
       style="font-style:normal;font-variant:normal;font-weight:normal;font-stretch:normal;line-height:0.92;font-family:'Roadgeek 2005 Engschrift';-inkscape-font-specification:'Roadgeek 2005 Engschrift';fill:#ffffff;stroke:none"
       id="path2406" />
    <path
       d="m 919.13612,429.05477 q 0,0.59734 -0.0747,1.02667 -0.056,0.42933 -0.37333,0.93333 -0.168,0.26134 -0.42934,0.504 -0.24266,0.224 -0.56,0.41067 -0.29866,0.168 -0.65333,0.28 -0.35467,0.112 -0.69067,0.112 -0.84,0 -1.53066,-0.35467 -0.672,-0.35466 -0.98934,-0.896 -0.31733,-0.54133 -0.41066,-1.008 -0.0747,-0.46666 -0.0747,-1.008 v -6.44 q 0,-0.52266 0.0933,-0.93333 0.112,-0.42933 0.448,-0.91467 0.336,-0.48533 0.952,-0.82133 0.616,-0.35467 1.288,-0.35467 1.288,0 2.14667,0.85867 0.85867,0.84 0.85867,2.16533 v 0.672 h -1.77334 v -0.672 q 0,-0.52266 -0.29866,-0.87733 -0.28,-0.35467 -0.84,-0.35467 -0.52267,0 -0.82134,0.35467 -0.28,0.35467 -0.28,0.87733 v 6.92534 q 0.0373,0.28 0.26134,0.63466 0.26133,0.37334 0.85866,0.37334 0.63467,0 0.84,-0.336 0.20534,-0.336 0.24267,-0.48534 0.0373,-0.168 0.0373,-0.448 v -0.63466 h 1.77334 z"
       style="font-style:normal;font-variant:normal;font-weight:normal;font-stretch:normal;line-height:0.92;font-family:'Roadgeek 2005 Engschrift';-inkscape-font-specification:'Roadgeek 2005 Engschrift';fill:#ffffff;stroke:none"
       id="path2408" />
    <path
       d="m 921.09087,420.87877 q 0.42933,-0.59733 1.08266,-0.93333 0.672,-0.35467 1.38134,-0.35467 0.69066,0 1.288,0.28 0.616,0.28 1.02666,0.76534 0.41067,0.48533 0.56,1.008 0.14934,0.504 0.14934,1.10133 v 6.36533 q 0,0.56 -0.112,0.98934 -0.0933,0.42933 -0.448,0.952 -0.336,0.52266 -0.98934,0.896 -0.63466,0.37333 -1.41866,0.37333 -0.448,0 -0.85867,-0.112 -0.41067,-0.13067 -0.76533,-0.336 -0.35467,-0.20533 -0.63467,-0.46667 -0.26133,-0.26133 -0.41067,-0.54133 -0.28,-0.57867 -0.336,-0.93333 -0.056,-0.35467 -0.056,-0.82134 v -6.36533 q 0,-0.56 0.112,-0.98933 0.13067,-0.448 0.42934,-0.87734 z m 3.472,0.98934 q -0.35467,-0.52267 -0.97067,-0.52267 -0.31733,0 -0.63467,0.18667 -0.29866,0.168 -0.42933,0.392 -0.112,0.224 -0.14933,0.448 -0.0373,0.224 -0.0373,0.37333 v 6.36533 q 0,0.0933 0,0.20534 0,0.0933 0.0187,0.20533 0.0187,0.18667 0.29867,0.616 0.28,0.392 0.93333,0.392 0.336,0 0.59733,-0.14933 0.28,-0.168 0.392,-0.37334 0.13067,-0.224 0.168,-0.41066 0.0373,-0.18667 0.0373,-0.48534 v -6.36533 q 0,-0.37333 -0.0373,-0.52267 -0.0187,-0.14933 -0.18666,-0.35466 z"
       style="font-style:normal;font-variant:normal;font-weight:normal;font-stretch:normal;line-height:0.92;font-family:'Roadgeek 2005 Engschrift';-inkscape-font-specification:'Roadgeek 2005 Engschrift';fill:#ffffff;stroke:none"
       id="path2410" />
    <path
       d="m 932.34804,432.20944 -2.78133,-7.59733 v 7.59733 h -1.792 v -12.50667 h 1.69867 l 2.76266,7.57867 v -7.57867 h 1.792 v 12.50667 z"
       style="font-style:normal;font-variant:normal;font-weight:normal;font-stretch:normal;line-height:0.92;font-family:'Roadgeek 2005 Engschrift';-inkscape-font-specification:'Roadgeek 2005 Engschrift';fill:#ffffff;stroke:none"
       id="path2412" />
    <path
       d="m 936.27768,429.09211 q 0,0.18666 0,0.31733 0,0.13067 0.0187,0.224 0.0373,0.18667 0.28,0.54133 0.26133,0.37334 0.93333,0.37334 0.37334,0 0.69067,-0.14934 0.31733,-0.168 0.46667,-0.42933 0.112,-0.20533 0.13066,-0.392 0.0373,-0.18667 0.0373,-0.336 v -0.168 -0.87733 -0.168 q 0,-0.41067 -0.14934,-0.63467 -0.14933,-0.24267 -0.672,-0.54133 -0.35466,-0.18667 -1.26933,-0.52267 -0.91467,-0.336 -1.53067,-1.064 -0.616,-0.728 -0.616,-1.97867 v -0.56 q 0,-1.288 0.85867,-2.20266 0.87733,-0.93334 2.128,-0.93334 1.30667,0 2.16533,0.91467 0.87734,0.91467 0.87734,2.22133 v 0.56 h -1.792 v -0.56 q 0,-0.13066 -0.0187,-0.24266 0,-0.112 -0.0187,-0.20534 -0.0187,-0.0933 -0.0933,-0.224 -0.0747,-0.13066 -0.20533,-0.31733 -0.26134,-0.37333 -0.87734,-0.37333 -0.54133,0 -0.896,0.392 -0.336,0.392 -0.336,0.97066 v 0.56 0.168 q 0,0.37334 0.112,0.59734 0.13067,0.20533 0.59734,0.46666 0.14933,0.0747 0.448,0.20534 0.31733,0.112 0.76533,0.28 0.896,0.29866 1.60533,1.064 0.70934,0.76533 0.70934,2.016 v 1.008 q 0,0.65333 -0.13067,1.10133 -0.112,0.448 -0.76533,1.30667 -0.65334,0.82133 -2.184,0.82133 -1.624,0 -2.352,-1.04533 -0.728,-1.064 -0.728,-2.184 v -0.448 h 1.81066 z"
       style="font-style:normal;font-variant:normal;font-weight:normal;font-stretch:normal;line-height:0.92;font-family:'Roadgeek 2005 Engschrift';-inkscape-font-specification:'Roadgeek 2005 Engschrift';fill:#ffffff;stroke:none"
       id="path2414" />
    <path
       d="m 946.85178,430.90277 q -0.41067,0.63467 -1.064,1.02667 -0.63467,0.392 -1.41867,0.392 -0.392,0 -0.784,-0.112 -0.37333,-0.112 -0.70933,-0.28 -0.336,-0.18667 -0.59733,-0.41067 -0.26134,-0.24266 -0.392,-0.504 -0.28,-0.52266 -0.37334,-0.91466 -0.0747,-0.392 -0.0747,-0.84 v -9.55734 h 1.792 v 9.55734 q 0,0.13066 0,0.24266 0.0187,0.0933 0.0373,0.18667 0.0187,0.14933 0.28,0.52267 0.24267,0.336 0.84,0.336 0.54133,0 0.80267,-0.392 0.28,-0.41067 0.28,-0.896 v -9.55734 h 1.792 v 9.55734 q 0,0.448 -0.0933,0.85866 -0.0933,0.41067 -0.31733,0.784 z"
       style="font-style:normal;font-variant:normal;font-weight:normal;font-stretch:normal;line-height:0.92;font-family:'Roadgeek 2005 Engschrift';-inkscape-font-specification:'Roadgeek 2005 Engschrift';fill:#ffffff;stroke:none"
       id="path2416" />
    <path
       d="m 954.13909,432.20944 v -7.616 l -1.792,5.33867 h -0.896 l -1.77333,-5.33867 v 7.616 h -1.792 v -12.50667 h 1.68 l 2.37067,6.664 2.33333,-6.664 h 1.64267 v 12.50667 z"
       style="font-style:normal;font-variant:normal;font-weight:normal;font-stretch:normal;line-height:0.92;font-family:'Roadgeek 2005 Engschrift';-inkscape-font-specification:'Roadgeek 2005 Engschrift';fill:#ffffff;stroke:none"
       id="path2418" />
    <path
       d="m 957.15523,432.20944 v -12.50667 h 2.93066 0.0373 q 0.56,0 1.064,0.24267 0.504,0.224 0.896,0.59733 0.392,0.37334 0.616,0.85867 0.24266,0.46667 0.26133,0.97067 v 1.81066 0.18667 q 0,0.616 -0.24267,1.15733 -0.224,0.52267 -0.616,0.91467 -0.392,0.392 -0.93333,0.616 -0.52267,0.224 -1.12,0.224 h -0.168 -0.93333 v 4.928 z m 3.78933,-6.98133 q 0.168,-0.168 0.20533,-0.35467 0.056,-0.18667 0.056,-0.46667 v -1.848 q 0,-0.52266 -0.31733,-0.85866 -0.31733,-0.35467 -0.85867,-0.35467 h -1.08266 v 4.23733 h 0.93333 q 0.37333,0 0.59733,-0.056 0.24267,-0.0747 0.46667,-0.29866 z"
       style="font-style:normal;font-variant:normal;font-weight:normal;font-stretch:normal;line-height:0.92;font-family:'Roadgeek 2005 Engschrift';-inkscape-font-specification:'Roadgeek 2005 Engschrift';fill:#ffffff;stroke:none"
       id="path2420" />
    <path
       d="m 965.40911,432.20944 v -10.84533 h -2.10934 v -1.66134 h 6.02934 v 1.66134 h -2.14667 v 10.84533 z"
       style="font-style:normal;font-variant:normal;font-weight:normal;font-stretch:normal;line-height:0.92;font-family:'Roadgeek 2005 Engschrift';-inkscape-font-specification:'Roadgeek 2005 Engschrift';fill:#ffffff;stroke:none"
       id="path2422" />
    <path
       d="m 969.97253,432.20944 v -12.50667 h 1.77334 v 12.50667 z"
       style="font-style:normal;font-variant:normal;font-weight:normal;font-stretch:normal;line-height:0.92;font-family:'Roadgeek 2005 Engschrift';-inkscape-font-specification:'Roadgeek 2005 Engschrift';fill:#ffffff;stroke:none"
       id="path2424" />
    <path
       d="m 973.5892,420.87877 q 0.42934,-0.59733 1.08267,-0.93333 0.672,-0.35467 1.38133,-0.35467 0.69067,0 1.288,0.28 0.616,0.28 1.02667,0.76534 0.41067,0.48533 0.56,1.008 0.14933,0.504 0.14933,1.10133 v 6.36533 q 0,0.56 -0.112,0.98934 -0.0933,0.42933 -0.448,0.952 -0.336,0.52266 -0.98933,0.896 -0.63467,0.37333 -1.41867,0.37333 -0.448,0 -0.85866,-0.112 -0.41067,-0.13067 -0.76534,-0.336 -0.35466,-0.20533 -0.63466,-0.46667 -0.26134,-0.26133 -0.41067,-0.54133 -0.28,-0.57867 -0.336,-0.93333 -0.056,-0.35467 -0.056,-0.82134 v -6.36533 q 0,-0.56 0.112,-0.98933 0.13067,-0.448 0.42933,-0.87734 z m 3.472,0.98934 q -0.35466,-0.52267 -0.97066,-0.52267 -0.31734,0 -0.63467,0.18667 -0.29867,0.168 -0.42933,0.392 -0.112,0.224 -0.14934,0.448 -0.0373,0.224 -0.0373,0.37333 v 6.36533 q 0,0.0933 0,0.20534 0,0.0933 0.0187,0.20533 0.0187,0.18667 0.29866,0.616 0.28,0.392 0.93334,0.392 0.336,0 0.59733,-0.14933 0.28,-0.168 0.392,-0.37334 0.13067,-0.224 0.168,-0.41066 0.0373,-0.18667 0.0373,-0.48534 v -6.36533 q 0,-0.37333 -0.0373,-0.52267 -0.0187,-0.14933 -0.18667,-0.35466 z"
       style="font-style:normal;font-variant:normal;font-weight:normal;font-stretch:normal;line-height:0.92;font-family:'Roadgeek 2005 Engschrift';-inkscape-font-specification:'Roadgeek 2005 Engschrift';fill:#ffffff;stroke:none"
       id="path2426" />
    <path
       d="m 985.0173,432.20944 -2.78134,-7.59733 v 7.59733 h -1.792 v -12.50667 h 1.69867 l 2.76267,7.57867 v -7.57867 h 1.792 v 12.50667 z"
       style="font-style:normal;font-variant:normal;font-weight:normal;font-stretch:normal;line-height:0.92;font-family:'Roadgeek 2005 Engschrift';-inkscape-font-specification:'Roadgeek 2005 Engschrift';fill:#ffffff;stroke:none"
       id="path2428" />
    <path
       d="m 912.76582,449.45642 2.8,-12.50667 h 1.54933 l 2.8,12.50667 h -1.92266 l -0.504,-2.688 h -2.31467 l -0.52267,2.688 z m 2.72533,-4.34934 h 1.68 l -0.84,-4.55466 z"
       style="font-style:normal;font-variant:normal;font-weight:normal;font-stretch:normal;line-height:0.92;font-family:'Roadgeek 2005 Engschrift';-inkscape-font-specification:'Roadgeek 2005 Engschrift';fill:#ffffff;stroke:none"
       id="path2430" />
    <path
       d="m 925.31507,449.45642 -2.78133,-7.59734 v 7.59734 h -1.792 v -12.50667 h 1.69867 l 2.76266,7.57867 v -7.57867 h 1.792 v 12.50667 z"
       style="font-style:normal;font-variant:normal;font-weight:normal;font-stretch:normal;line-height:0.92;font-family:'Roadgeek 2005 Engschrift';-inkscape-font-specification:'Roadgeek 2005 Engschrift';fill:#ffffff;stroke:none"
       id="path2432" />
    <path
       d="m 930.84217,436.94975 q 1.21333,0 2.072,0.85867 0.87733,0.84 0.87733,2.05333 v 6.496 q 0,1.38133 -0.84,2.24 -0.84,0.85867 -2.16533,0.85867 h -2.78133 v -12.50667 z m 1.176,9.408 v -6.496 q 0,-0.52267 -0.392,-0.87733 -0.37333,-0.35467 -0.91467,-0.35467 h -0.93333 v 9.16533 h 0.87733 q 1.36267,0 1.36267,-1.43733 z"
       style="font-style:normal;font-variant:normal;font-weight:normal;font-stretch:normal;line-height:0.92;font-family:'Roadgeek 2005 Engschrift';-inkscape-font-specification:'Roadgeek 2005 Engschrift';fill:#ffffff;stroke:none"
       id="path2434" />
    <path
       d="m 936.76945,449.45642 v -12.50667 h 2.93067 0.0373 q 0.56,0 1.064,0.24267 0.504,0.224 0.896,0.59733 0.392,0.37333 0.616,0.85867 0.24267,0.46666 0.26134,0.97066 v 1.81067 0.18667 q 0,0.616 -0.24267,1.15733 -0.224,0.52267 -0.616,0.91467 -0.392,0.392 -0.93333,0.616 -0.52267,0.224 -1.12,0.224 h -0.168 -0.93334 v 4.928 z m 3.78934,-6.98134 q 0.168,-0.168 0.20533,-0.35466 0.056,-0.18667 0.056,-0.46667 v -1.848 q 0,-0.52267 -0.31733,-0.85867 -0.31734,-0.35466 -0.85867,-0.35466 h -1.08267 v 4.23733 h 0.93334 q 0.37333,0 0.59733,-0.056 0.24267,-0.0747 0.46667,-0.29867 z"
       style="font-style:normal;font-variant:normal;font-weight:normal;font-stretch:normal;line-height:0.92;font-family:'Roadgeek 2005 Engschrift';-inkscape-font-specification:'Roadgeek 2005 Engschrift';fill:#ffffff;stroke:none"
       id="path2436" />
    <path
       d="m 943.65279,449.45642 v -12.50667 h 3.136 q 1.232,0 2.072,0.85867 0.85867,0.85866 0.85867,2.10933 v 1.15733 q 0,1.736 -1.47467,2.65067 l 1.904,5.73067 h -1.904 l -1.68,-5.35734 h -1.12 v 5.35734 z m 3.976,-7.336 q 0.168,-0.20534 0.224,-0.46667 0.0747,-0.26133 0.0747,-0.57867 v -1.15733 q 0,-0.57867 -0.31734,-0.93333 -0.31733,-0.37334 -0.896,-0.37334 h -1.26933 v 3.90134 h 1.25067 q 0.56,0 0.93333,-0.392 z"
       style="font-style:normal;font-variant:normal;font-weight:normal;font-stretch:normal;line-height:0.92;font-family:'Roadgeek 2005 Engschrift';-inkscape-font-specification:'Roadgeek 2005 Engschrift';fill:#ffffff;stroke:none"
       id="path2438" />
    <path
       d="m 951.04218,438.12575 q 0.42933,-0.59733 1.08266,-0.93333 0.672,-0.35467 1.38134,-0.35467 0.69066,0 1.288,0.28 0.616,0.28 1.02666,0.76533 0.41067,0.48534 0.56,1.008 0.14934,0.504 0.14934,1.10134 v 6.36533 q 0,0.56 -0.112,0.98933 -0.0933,0.42934 -0.448,0.952 -0.336,0.52267 -0.98934,0.896 -0.63466,0.37334 -1.41866,0.37334 -0.448,0 -0.85867,-0.112 -0.41067,-0.13067 -0.76533,-0.336 -0.35467,-0.20534 -0.63467,-0.46667 -0.26133,-0.26133 -0.41067,-0.54133 -0.28,-0.57867 -0.336,-0.93334 -0.056,-0.35466 -0.056,-0.82133 v -6.36533 q 0,-0.56 0.112,-0.98934 0.13067,-0.448 0.42934,-0.87733 z m 3.472,0.98933 q -0.35467,-0.52266 -0.97067,-0.52266 -0.31733,0 -0.63467,0.18666 -0.29866,0.168 -0.42933,0.392 -0.112,0.224 -0.14933,0.448 -0.0373,0.224 -0.0373,0.37334 v 6.36533 q 0,0.0933 0,0.20533 0,0.0933 0.0187,0.20534 0.0187,0.18666 0.29867,0.616 0.28,0.392 0.93333,0.392 0.336,0 0.59733,-0.14934 0.28,-0.168 0.392,-0.37333 0.13067,-0.224 0.168,-0.41067 0.0373,-0.18666 0.0373,-0.48533 v -6.36533 q 0,-0.37334 -0.0373,-0.52267 -0.0187,-0.14933 -0.18666,-0.35467 z"
       style="font-style:normal;font-variant:normal;font-weight:normal;font-stretch:normal;line-height:0.92;font-family:'Roadgeek 2005 Engschrift';-inkscape-font-specification:'Roadgeek 2005 Engschrift';fill:#ffffff;stroke:none"
       id="path2440" />
    <path
       d="m 960.56335,436.94975 q 1.21334,0 2.072,0.85867 0.87734,0.84 0.87734,2.05333 v 6.496 q 0,1.38133 -0.84,2.24 -0.84,0.85867 -2.16534,0.85867 h -2.78133 v -12.50667 z m 1.176,9.408 v -6.496 q 0,-0.52267 -0.392,-0.87733 -0.37333,-0.35467 -0.91466,-0.35467 h -0.93334 v 9.16533 h 0.87734 q 1.36266,0 1.36266,-1.43733 z"
       style="font-style:normal;font-variant:normal;font-weight:normal;font-stretch:normal;line-height:0.92;font-family:'Roadgeek 2005 Engschrift';-inkscape-font-specification:'Roadgeek 2005 Engschrift';fill:#ffffff;stroke:none"
       id="path2442" />
    <path
       d="m 970.38086,448.14975 q -0.41067,0.63467 -1.064,1.02667 -0.63467,0.392 -1.41867,0.392 -0.392,0 -0.784,-0.112 -0.37333,-0.112 -0.70933,-0.28 -0.336,-0.18667 -0.59734,-0.41067 -0.26133,-0.24267 -0.392,-0.504 -0.28,-0.52267 -0.37333,-0.91467 -0.0747,-0.392 -0.0747,-0.84 v -9.55733 h 1.792 v 9.55733 q 0,0.13067 0,0.24267 0.0187,0.0933 0.0373,0.18667 0.0187,0.14933 0.28,0.52266 0.24266,0.336 0.84,0.336 0.54133,0 0.80266,-0.392 0.28,-0.41066 0.28,-0.896 v -9.55733 h 1.792 v 9.55733 q 0,0.448 -0.0933,0.85867 -0.0933,0.41067 -0.31733,0.784 z"
       style="font-style:normal;font-variant:normal;font-weight:normal;font-stretch:normal;line-height:0.92;font-family:'Roadgeek 2005 Engschrift';-inkscape-font-specification:'Roadgeek 2005 Engschrift';fill:#ffffff;stroke:none"
       id="path2444" />
    <path
       d="m 977.94407,446.30175 q 0,0.59733 -0.0747,1.02667 -0.056,0.42933 -0.37334,0.93333 -0.168,0.26133 -0.42933,0.504 -0.24267,0.224 -0.56,0.41067 -0.29867,0.168 -0.65333,0.28 -0.35467,0.112 -0.69067,0.112 -0.84,0 -1.53067,-0.35467 -0.672,-0.35467 -0.98933,-0.896 -0.31733,-0.54133 -0.41067,-1.008 -0.0747,-0.46667 -0.0747,-1.008 v -6.44 q 0,-0.52267 0.0933,-0.93333 0.112,-0.42934 0.448,-0.91467 0.336,-0.48533 0.952,-0.82133 0.616,-0.35467 1.288,-0.35467 1.288,0 2.14667,0.85867 0.85866,0.84 0.85866,2.16533 v 0.672 h -1.77333 v -0.672 q 0,-0.52267 -0.29867,-0.87733 -0.28,-0.35467 -0.84,-0.35467 -0.52266,0 -0.82133,0.35467 -0.28,0.35466 -0.28,0.87733 v 6.92533 q 0.0373,0.28 0.26133,0.63467 0.26134,0.37333 0.85867,0.37333 0.63467,0 0.84,-0.336 0.20533,-0.336 0.24267,-0.48533 0.0373,-0.168 0.0373,-0.448 v -0.63467 h 1.77333 z"
       style="font-style:normal;font-variant:normal;font-weight:normal;font-stretch:normal;line-height:0.92;font-family:'Roadgeek 2005 Engschrift';-inkscape-font-specification:'Roadgeek 2005 Engschrift';fill:#ffffff;stroke:none"
       id="path2446" />
    <path
       d="m 980.32729,449.45642 v -10.84534 h -2.10933 v -1.66133 h 6.02933 v 1.66133 h -2.14667 v 10.84534 z"
       style="font-style:normal;font-variant:normal;font-weight:normal;font-stretch:normal;line-height:0.92;font-family:'Roadgeek 2005 Engschrift';-inkscape-font-specification:'Roadgeek 2005 Engschrift';fill:#ffffff;stroke:none"
       id="path2448" />
    <path
       d="m 984.97618,449.45642 v -12.50667 h 1.77333 v 12.50667 z"
       style="font-style:normal;font-variant:normal;font-weight:normal;font-stretch:normal;line-height:0.92;font-family:'Roadgeek 2005 Engschrift';-inkscape-font-specification:'Roadgeek 2005 Engschrift';fill:#ffffff;stroke:none"
       id="path2450" />
    <path
       d="m 988.42193,438.12575 q 0.42933,-0.59733 1.08267,-0.93333 0.672,-0.35467 1.38133,-0.35467 0.69067,0 1.288,0.28 0.616,0.28 1.02667,0.76533 0.41066,0.48534 0.56,1.008 0.14933,0.504 0.14933,1.10134 v 6.36533 q 0,0.56 -0.112,0.98933 -0.0933,0.42934 -0.448,0.952 -0.336,0.52267 -0.98933,0.896 -0.63467,0.37334 -1.41867,0.37334 -0.448,0 -0.85867,-0.112 -0.41066,-0.13067 -0.76533,-0.336 -0.35467,-0.20534 -0.63467,-0.46667 -0.26133,-0.26133 -0.41066,-0.54133 -0.28,-0.57867 -0.336,-0.93334 -0.056,-0.35466 -0.056,-0.82133 v -6.36533 q 0,-0.56 0.112,-0.98934 0.13066,-0.448 0.42933,-0.87733 z m 3.472,0.98933 q -0.35467,-0.52266 -0.97067,-0.52266 -0.31733,0 -0.63466,0.18666 -0.29867,0.168 -0.42934,0.392 -0.112,0.224 -0.14933,0.448 -0.0373,0.224 -0.0373,0.37334 v 6.36533 q 0,0.0933 0,0.20533 0,0.0933 0.0187,0.20534 0.0187,0.18666 0.29867,0.616 0.28,0.392 0.93333,0.392 0.336,0 0.59734,-0.14934 0.28,-0.168 0.392,-0.37333 0.13066,-0.224 0.168,-0.41067 0.0373,-0.18666 0.0373,-0.48533 v -6.36533 q 0,-0.37334 -0.0373,-0.52267 -0.0187,-0.14933 -0.18667,-0.35467 z"
       style="font-style:normal;font-variant:normal;font-weight:normal;font-stretch:normal;line-height:0.92;font-family:'Roadgeek 2005 Engschrift';-inkscape-font-specification:'Roadgeek 2005 Engschrift';fill:#ffffff;stroke:none"
       id="path2452" />
    <path
       d="m 999.67911,449.45642 -2.78133,-7.59734 v 7.59734 h -1.792 v -12.50667 h 1.69866 l 2.76267,7.57867 v -7.57867 h 1.79199 v 12.50667 z"
       style="font-style:normal;font-variant:normal;font-weight:normal;font-stretch:normal;line-height:0.92;font-family:'Roadgeek 2005 Engschrift';-inkscape-font-specification:'Roadgeek 2005 Engschrift';fill:#ffffff;stroke:none"
       id="path2454" />
  </g>
  <g
     aria-label="12"
     style="font-style:normal;font-variant:normal;font-weight:normal;font-stretch:normal;font-size:13.3333px;line-height:1.25;font-family:'Liberation Serif';-inkscape-font-specification:'Liberation Serif';letter-spacing:0px;word-spacing:0px;fill:#ffffff;fill-opacity:1;stroke:none"
     id="text6075-0-6-9-2-5-9-0-9-4-2-8"
     transform="translate(-865.78705,-389.72833)">
    <path
       d="m 881.0824,431.9819 v -25.46 l -4.288,3.216 v -4.556 l 4.288,-3.12666 h 4.24334 v 29.92666 z"
       style="font-style:normal;font-variant:normal;font-weight:normal;font-stretch:normal;font-size:44.6667px;font-family:'Roadgeek 2005 Engschrift';-inkscape-font-specification:'Roadgeek 2005 Engschrift';fill:#ffffff;stroke:none"
       id="path2457" />
    <path
       d="m 901.64178,431.9819 h -12.73 v -3.93066 l 7.95067,-15.45467 q 0.536,-1.072 0.536,-2.18867 v -2.23333 q 0,-0.89333 -0.62533,-1.51867 -0.62534,-0.67 -1.51867,-0.67 -0.804,0 -1.474,0.58067 -0.62533,0.58067 -0.62533,1.42933 v 2.63534 h -4.33267 v -2.144 q 0,-1.742 1.29533,-4.24334 1.34,-2.45666 5.36,-2.45666 2.546,0 4.33267,1.92066 1.83133,1.96534 1.83133,4.46667 v 2.72467 q 0,1.83133 -0.98266,3.66266 l -6.7,13.17667 h 7.68266 z"
       style="font-style:normal;font-variant:normal;font-weight:normal;font-stretch:normal;font-size:44.6667px;font-family:'Roadgeek 2005 Engschrift';-inkscape-font-specification:'Roadgeek 2005 Engschrift';fill:#ffffff;stroke:none"
       id="path2459" />
  </g>
  <path
     id="path8194"
     style="color:#000000;font-style:normal;font-variant:normal;font-weight:normal;font-stretch:normal;font-size:medium;line-height:normal;font-family:sans-serif;font-variant-ligatures:normal;font-variant-position:normal;font-variant-caps:normal;font-variant-numeric:normal;font-variant-alternates:normal;font-feature-settings:normal;text-indent:0;text-align:start;text-decoration:none;text-decoration-line:none;text-decoration-style:solid;text-decoration-color:#000000;letter-spacing:normal;word-spacing:normal;text-transform:none;writing-mode:lr-tb;direction:ltr;text-orientation:mixed;dominant-baseline:auto;baseline-shift:baseline;text-anchor:start;white-space:normal;shape-padding:0;clip-rule:nonzero;display:inline;overflow:visible;visibility:visible;opacity:1;isolation:auto;mix-blend-mode:normal;color-interpolation:sRGB;color-interpolation-filters:linearRGB;solid-color:#000000;solid-opacity:1;vector-effect:none;fill:#ffffff;fill-opacity:1;fill-rule:evenodd;stroke:none;stroke-width:1.6;stroke-linecap:round;stroke-linejoin:round;stroke-miterlimit:4;stroke-dasharray:none;stroke-dashoffset:0;stroke-opacity:1;color-rendering:auto;image-rendering:auto;shape-rendering:auto;text-rendering:auto;enable-background:accumulate"
     d="m 68.581352,101.32572 -13.21631,4.39055 c -0.58404,0.19423 -0.73921,0.94763 -0.27945,1.35684 l 10.40893,9.25007 c 0.45986,0.40885 1.18985,0.16722 1.31497,-0.43525 l 2.80739,-13.64062 c 0.12499,-0.6035 -0.45061,-1.11577 -1.03553,-0.92159 z m 28.6023,-29.450533 c -10.72611,0 -17.68448,7.71578 -21.1113,11.72885 0,0 2.62262,5.43343 4.08982,6.24185 0,0 6.81999,-11.07031 17.02148,-11.07031 3.597578,0 7.567298,1.17898 10.529298,3.83398 2.962,2.655 5.17773,6.78112 5.17773,13.70313 0,4.164303 -1.37211,8.224333 -3.73828,11.103513 -2.36616,2.87918 -5.57748,4.67774 -10.037108,4.67774 -4.80738,0 -8.61675,-1.37713 -12.28125,-4.3086 -3.66449,-2.93147 -7.1286,-7.54789 -10.46289,-13.931643 -1.71102,-3.27588 -4.47155,-8.58205 -8.79297,-13.19922 -4.32141,-4.61717 -10.48182,-8.63867 -18.42578,-8.63867 -5.32164,0 -10.85706,1.65562 -15.09179,5.63086 -4.23474,3.97524 -6.91486,10.17671 -6.95118,18.29883 -0.061,13.630193 10.28855,22.833983 22.11329,22.833983 8.51054,0 14.23632,-5.25 14.23632,-5.25 l -4.625,-5.12109 c 0,0 -3.92609,3.4707 -9.61132,3.4707 -8.47629,0 -15.26106,-5.57438 -15.21485,-15.902343 0.0299,-6.68065 2.03609,-10.72739 4.77539,-13.29883 2.73931,-2.57144 6.46679,-3.76172 10.36914,-3.76172 5.66999,0 9.88453,2.70916 13.38867,6.45313 3.50415,3.74396 6.01792,8.43079 7.71485,11.67968 3.60336,6.898913 7.52453,12.328783 12.26758,16.123053 4.74304,3.79427 10.36489,5.82227 16.59179,5.82227 6.446318,0 11.846908,-2.91374 15.367188,-7.19727 3.52028,-4.28353 5.3086,-9.83838 5.30859,-15.484373 0,-8.48665 -3.02496,-14.85314 -7.47265,-18.83985 -4.44769,-3.98671 -10.05791,-5.59765 -15.134768,-5.59765 z" />
</svg>
