<?xml version="1.0" encoding="UTF-8" standalone="no"?>
<!-- Created with Inkscape (http://www.inkscape.org/) -->

<svg
   version="1.1"
   id="svg2"
   width="148.09277"
   height="148.33459"
   viewBox="0 0 148.09277 148.33459"
   sodipodi:docname="Sustainable_Development_Goals.svg"
   inkscape:version="0.92.3 (2405546, 2018-03-11)"
   inkscape:export-filename="sdg_1.svg"
   inkscape:export-xdpi="96"
   inkscape:export-ydpi="96"
   xmlns:inkscape="http://www.inkscape.org/namespaces/inkscape"
   xmlns:sodipodi="http://sodipodi.sourceforge.net/DTD/sodipodi-0.dtd"
   xmlns="http://www.w3.org/2000/svg"
   xmlns:svg="http://www.w3.org/2000/svg"
   xmlns:rdf="http://www.w3.org/1999/02/22-rdf-syntax-ns#"
   xmlns:cc="http://creativecommons.org/ns#"
   xmlns:dc="http://purl.org/dc/elements/1.1/">
  <metadata
     id="metadata8">
    <rdf:RDF>
      <cc:Work
         rdf:about="">
        <dc:format>image/svg+xml</dc:format>
        <dc:type
           rdf:resource="http://purl.org/dc/dcmitype/StillImage" />
        <dc:title />
      </cc:Work>
    </rdf:RDF>
  </metadata>
  <defs
     id="defs6" />
  <sodipodi:namedview
     pagecolor="#ffffff"
     bordercolor="#666666"
     borderopacity="1"
     objecttolerance="10"
     gridtolerance="10"
     guidetolerance="10"
     inkscape:pageopacity="0"
     inkscape:pageshadow="2"
     inkscape:window-width="1920"
     inkscape:window-height="1061"
     id="namedview4"
     showgrid="false"
     inkscape:zoom="1.0772059"
     inkscape:cx="528"
     inkscape:cy="408"
     inkscape:window-x="1920"
     inkscape:window-y="0"
     inkscape:window-maximized="1"
     inkscape:current-layer="svg2"
     showguides="true"
     inkscape:guide-bbox="true"
     inkscape:snap-global="true"
     inkscape:snap-center="true"
     inkscape:snap-object-midpoints="true"
     inkscape:snap-bbox="true"
     inkscape:snap-bbox-midpoints="true"
     inkscape:showpageshadow="2"
     inkscape:pagecheckerboard="0"
     inkscape:deskcolor="#d1d1d1" />
  <path
     style="opacity:1;fill:#183668;fill-opacity:1;fill-rule:evenodd;stroke:none;stroke-width:4;stroke-linecap:round;stroke-linejoin:round;stroke-miterlimit:4;stroke-dasharray:none;stroke-dashoffset:0;stroke-opacity:1"
     d="M 0.82675447,3.0078126e-6 H 147.266 c 0.45802,0 0.82675,0.3687300021874 0.82675,0.8267500021874 V 147.50782 c 0,0.45802 -0.36873,0.82676 -0.82675,0.82676 H 0.82675447 c -0.45802,0 -0.8267499973437,-0.36874 -0.8267499973437,-0.82676 V 0.82675301 C 4.4726563e-6,0.36873301 0.36873447,3.0078126e-6 0.82675447,3.0078126e-6 Z"
     id="rect8528-63-2-4-3-6-0-4-3-6-3-7-4-9-4" />
  <style
     id="style970"
     type="text/css">
	.st0{fill:#418FDE;}
</style>
  <g
     aria-label="PARTNERSHIPS FOR THE GOALS"
     style="font-style:normal;font-variant:normal;font-weight:normal;font-stretch:normal;font-size:18.6667px;line-height:0.92;font-family:'Roadgeek 2005 Series B';-inkscape-font-specification:'Roadgeek 2005 Series B';letter-spacing:0px;word-spacing:0px;fill:#ffffff;fill-opacity:1;stroke:none"
     id="text6065-3-2-9-6-6-5-5-2-9-7-0"
     transform="translate(-701.81342,-550.03992)">
    <path
       d="m 750.03079,575.58014 v -12.50667 h 2.93066 0.0373 q 0.56,0 1.064,0.24267 0.504,0.224 0.896,0.59733 0.392,0.37334 0.616,0.85867 0.24266,0.46667 0.26133,0.97067 v 1.81066 0.18667 q 0,0.616 -0.24267,1.15733 -0.224,0.52267 -0.616,0.91467 -0.392,0.392 -0.93333,0.616 -0.52267,0.224 -1.12,0.224 h -0.168 -0.93333 v 4.928 z m 3.78933,-6.98133 q 0.168,-0.168 0.20533,-0.35467 0.056,-0.18667 0.056,-0.46667 v -1.848 q 0,-0.52266 -0.31733,-0.85866 -0.31733,-0.35467 -0.85867,-0.35467 h -1.08266 v 4.23733 h 0.93333 q 0.37333,0 0.59733,-0.056 0.24267,-0.0747 0.46667,-0.29866 z"
       style="font-style:normal;font-variant:normal;font-weight:normal;font-stretch:normal;line-height:0.92;font-family:'Roadgeek 2005 Engschrift';-inkscape-font-specification:'Roadgeek 2005 Engschrift';fill:#ffffff;stroke:none"
       id="path2628" />
    <path
       d="m 755.97249,575.58014 2.8,-12.50667 h 1.54934 l 2.8,12.50667 h -1.92267 l -0.504,-2.688 h -2.31467 l -0.52266,2.688 z m 2.72534,-4.34933 h 1.68 l -0.84,-4.55467 z"
       style="font-style:normal;font-variant:normal;font-weight:normal;font-stretch:normal;line-height:0.92;font-family:'Roadgeek 2005 Engschrift';-inkscape-font-specification:'Roadgeek 2005 Engschrift';fill:#ffffff;stroke:none"
       id="path2630" />
    <path
       d="m 764.0152,575.58014 v -12.50667 h 3.136 q 1.232,0 2.072,0.85867 0.85867,0.85867 0.85867,2.10933 v 1.15734 q 0,1.736 -1.47467,2.65066 l 1.904,5.73067 h -1.904 l -1.68,-5.35733 h -1.12 v 5.35733 z m 3.976,-7.336 q 0.168,-0.20533 0.224,-0.46667 0.0747,-0.26133 0.0747,-0.57866 v -1.15734 q 0,-0.57866 -0.31734,-0.93333 -0.31733,-0.37333 -0.896,-0.37333 h -1.26933 v 3.90133 h 1.25067 q 0.56,0 0.93333,-0.392 z"
       style="font-style:normal;font-variant:normal;font-weight:normal;font-stretch:normal;line-height:0.92;font-family:'Roadgeek 2005 Engschrift';-inkscape-font-specification:'Roadgeek 2005 Engschrift';fill:#ffffff;stroke:none"
       id="path2632" />
    <path
       d="m 772.57313,575.58014 v -10.84533 h -2.10933 v -1.66134 h 6.02933 v 1.66134 h -2.14666 v 10.84533 z"
       style="font-style:normal;font-variant:normal;font-weight:normal;font-stretch:normal;line-height:0.92;font-family:'Roadgeek 2005 Engschrift';-inkscape-font-specification:'Roadgeek 2005 Engschrift';fill:#ffffff;stroke:none"
       id="path2634" />
    <path
       d="m 781.77047,575.58014 -2.78134,-7.59733 v 7.59733 h -1.792 v -12.50667 h 1.69867 l 2.76267,7.57867 v -7.57867 h 1.79199 v 12.50667 z"
       style="font-style:normal;font-variant:normal;font-weight:normal;font-stretch:normal;line-height:0.92;font-family:'Roadgeek 2005 Engschrift';-inkscape-font-specification:'Roadgeek 2005 Engschrift';fill:#ffffff;stroke:none"
       id="path2636" />
    <path
       d="m 789.86154,573.78814 v 1.792 h -5.35733 v -12.50667 h 5.35733 v 1.64267 h -3.584 v 3.696 h 3.136 v 1.69867 h -3.136 v 3.67733 z"
       style="font-style:normal;font-variant:normal;font-weight:normal;font-stretch:normal;line-height:0.92;font-family:'Roadgeek 2005 Engschrift';-inkscape-font-specification:'Roadgeek 2005 Engschrift';fill:#ffffff;stroke:none"
       id="path2638" />
    <path
       d="m 790.6791,575.58014 v -12.50667 h 3.136 q 1.232,0 2.072,0.85867 0.85867,0.85867 0.85867,2.10933 v 1.15734 q 0,1.736 -1.47467,2.65066 l 1.904,5.73067 h -1.904 l -1.68,-5.35733 h -1.12 v 5.35733 z m 3.976,-7.336 q 0.168,-0.20533 0.224,-0.46667 0.0747,-0.26133 0.0747,-0.57866 v -1.15734 q 0,-0.57866 -0.31734,-0.93333 -0.31733,-0.37333 -0.896,-0.37333 h -1.26933 v 3.90133 h 1.25067 q 0.56,0 0.93333,-0.392 z"
       style="font-style:normal;font-variant:normal;font-weight:normal;font-stretch:normal;line-height:0.92;font-family:'Roadgeek 2005 Engschrift';-inkscape-font-specification:'Roadgeek 2005 Engschrift';fill:#ffffff;stroke:none"
       id="path2640" />
    <path
       d="m 799.21464,572.46281 q 0,0.18666 0,0.31733 0,0.13067 0.0187,0.224 0.0373,0.18667 0.28,0.54133 0.26133,0.37334 0.93333,0.37334 0.37333,0 0.69067,-0.14934 0.31733,-0.168 0.46666,-0.42933 0.112,-0.20533 0.13067,-0.392 0.0373,-0.18667 0.0373,-0.336 v -0.168 -0.87733 -0.168 q 0,-0.41067 -0.14933,-0.63467 -0.14933,-0.24267 -0.672,-0.54133 -0.35467,-0.18667 -1.26933,-0.52267 -0.91467,-0.336 -1.53067,-1.064 -0.616,-0.728 -0.616,-1.97867 v -0.56 q 0,-1.288 0.85867,-2.20266 0.87733,-0.93334 2.128,-0.93334 1.30666,0 2.16533,0.91467 0.87733,0.91467 0.87733,2.22133 v 0.56 h -1.792 v -0.56 q 0,-0.13066 -0.0187,-0.24266 0,-0.112 -0.0187,-0.20534 -0.0187,-0.0933 -0.0933,-0.224 -0.0747,-0.13066 -0.20534,-0.31733 -0.26133,-0.37333 -0.87733,-0.37333 -0.54133,0 -0.896,0.392 -0.336,0.392 -0.336,0.97066 v 0.56 0.168 q 0,0.37334 0.112,0.59734 0.13067,0.20533 0.59733,0.46666 0.14934,0.0747 0.448,0.20534 0.31734,0.112 0.76534,0.28 0.896,0.29866 1.60533,1.064 0.70933,0.76533 0.70933,2.016 v 1.008 q 0,0.65333 -0.13066,1.10133 -0.112,0.448 -0.76534,1.30667 -0.65333,0.82133 -2.184,0.82133 -1.624,0 -2.352,-1.04533 -0.728,-1.064 -0.728,-2.184 v -0.448 h 1.81067 z"
       style="font-style:normal;font-variant:normal;font-weight:normal;font-stretch:normal;line-height:0.92;font-family:'Roadgeek 2005 Engschrift';-inkscape-font-specification:'Roadgeek 2005 Engschrift';fill:#ffffff;stroke:none"
       id="path2642" />
    <path
       d="m 804.60689,575.58014 v -12.50667 h 1.77333 v 5.33867 h 2.27733 v -5.33867 h 1.77334 v 12.50667 h -1.77334 v -5.58133 h -2.27733 v 5.58133 z"
       style="font-style:normal;font-variant:normal;font-weight:normal;font-stretch:normal;line-height:0.92;font-family:'Roadgeek 2005 Engschrift';-inkscape-font-specification:'Roadgeek 2005 Engschrift';fill:#ffffff;stroke:none"
       id="path2644" />
    <path
       d="m 812.1933,575.58014 v -12.50667 h 1.77333 v 12.50667 z"
       style="font-style:normal;font-variant:normal;font-weight:normal;font-stretch:normal;line-height:0.92;font-family:'Roadgeek 2005 Engschrift';-inkscape-font-specification:'Roadgeek 2005 Engschrift';fill:#ffffff;stroke:none"
       id="path2646" />
    <path
       d="m 815.46403,575.58014 v -12.50667 h 2.93067 0.0373 q 0.56,0 1.064,0.24267 0.504,0.224 0.896,0.59733 0.392,0.37334 0.616,0.85867 0.24267,0.46667 0.26133,0.97067 v 1.81066 0.18667 q 0,0.616 -0.24266,1.15733 -0.224,0.52267 -0.616,0.91467 -0.392,0.392 -0.93334,0.616 -0.52266,0.224 -1.12,0.224 h -0.168 -0.93333 v 4.928 z m 3.78933,-6.98133 q 0.168,-0.168 0.20534,-0.35467 0.056,-0.18667 0.056,-0.46667 v -1.848 q 0,-0.52266 -0.31734,-0.85866 -0.31733,-0.35467 -0.85866,-0.35467 h -1.08267 v 4.23733 h 0.93333 q 0.37334,0 0.59734,-0.056 0.24266,-0.0747 0.46666,-0.29866 z"
       style="font-style:normal;font-variant:normal;font-weight:normal;font-stretch:normal;line-height:0.92;font-family:'Roadgeek 2005 Engschrift';-inkscape-font-specification:'Roadgeek 2005 Engschrift';fill:#ffffff;stroke:none"
       id="path2648" />
    <path
       d="m 823.95188,572.46281 q 0,0.18666 0,0.31733 0,0.13067 0.0187,0.224 0.0373,0.18667 0.28,0.54133 0.26133,0.37334 0.93333,0.37334 0.37334,0 0.69067,-0.14934 0.31733,-0.168 0.46667,-0.42933 0.112,-0.20533 0.13066,-0.392 0.0373,-0.18667 0.0373,-0.336 v -0.168 -0.87733 -0.168 q 0,-0.41067 -0.14934,-0.63467 -0.14933,-0.24267 -0.672,-0.54133 -0.35466,-0.18667 -1.26933,-0.52267 -0.91467,-0.336 -1.53067,-1.064 -0.616,-0.728 -0.616,-1.97867 v -0.56 q 0,-1.288 0.85867,-2.20266 0.87733,-0.93334 2.128,-0.93334 1.30667,0 2.16533,0.91467 0.87734,0.91467 0.87734,2.22133 v 0.56 h -1.792 v -0.56 q 0,-0.13066 -0.0187,-0.24266 0,-0.112 -0.0187,-0.20534 -0.0187,-0.0933 -0.0933,-0.224 -0.0747,-0.13066 -0.20533,-0.31733 -0.26134,-0.37333 -0.87734,-0.37333 -0.54133,0 -0.896,0.392 -0.336,0.392 -0.336,0.97066 v 0.56 0.168 q 0,0.37334 0.112,0.59734 0.13067,0.20533 0.59734,0.46666 0.14933,0.0747 0.448,0.20534 0.31733,0.112 0.76533,0.28 0.896,0.29866 1.60533,1.064 0.70934,0.76533 0.70934,2.016 v 1.008 q 0,0.65333 -0.13067,1.10133 -0.112,0.448 -0.76533,1.30667 -0.65334,0.82133 -2.184,0.82133 -1.624,0 -2.352,-1.04533 -0.728,-1.064 -0.728,-2.184 v -0.448 h 1.81066 z"
       style="font-style:normal;font-variant:normal;font-weight:normal;font-stretch:normal;line-height:0.92;font-family:'Roadgeek 2005 Engschrift';-inkscape-font-specification:'Roadgeek 2005 Engschrift';fill:#ffffff;stroke:none"
       id="path2650" />
    <path
       d="m 750.03079,592.82712 v -12.50667 h 5.33866 v 1.68 h -3.56533 v 3.752 h 3.11733 v 1.68 h -3.11733 v 5.39467 z"
       style="font-style:normal;font-variant:normal;font-weight:normal;font-stretch:normal;line-height:0.92;font-family:'Roadgeek 2005 Engschrift';-inkscape-font-specification:'Roadgeek 2005 Engschrift';fill:#ffffff;stroke:none"
       id="path2652" />
    <path
       d="m 756.25682,581.49645 q 0.42933,-0.59733 1.08267,-0.93333 0.672,-0.35467 1.38133,-0.35467 0.69067,0 1.288,0.28 0.616,0.28 1.02667,0.76533 0.41066,0.48534 0.56,1.008 0.14933,0.504 0.14933,1.10134 v 6.36533 q 0,0.56 -0.112,0.98933 -0.0933,0.42934 -0.448,0.952 -0.336,0.52267 -0.98933,0.896 -0.63467,0.37334 -1.41867,0.37334 -0.448,0 -0.85867,-0.112 -0.41066,-0.13067 -0.76533,-0.336 -0.35467,-0.20534 -0.63467,-0.46667 -0.26133,-0.26133 -0.41066,-0.54133 -0.28,-0.57867 -0.336,-0.93334 -0.056,-0.35466 -0.056,-0.82133 v -6.36533 q 0,-0.56 0.112,-0.98934 0.13066,-0.448 0.42933,-0.87733 z m 3.472,0.98933 q -0.35467,-0.52266 -0.97067,-0.52266 -0.31733,0 -0.63466,0.18666 -0.29867,0.168 -0.42934,0.392 -0.112,0.224 -0.14933,0.448 -0.0373,0.224 -0.0373,0.37334 v 6.36533 q 0,0.0933 0,0.20533 0,0.0933 0.0187,0.20534 0.0187,0.18666 0.29867,0.616 0.28,0.392 0.93333,0.392 0.336,0 0.59734,-0.14934 0.28,-0.168 0.392,-0.37333 0.13066,-0.224 0.168,-0.41067 0.0373,-0.18666 0.0373,-0.48533 v -6.36533 q 0,-0.37334 -0.0373,-0.52267 -0.0187,-0.14933 -0.18667,-0.35467 z"
       style="font-style:normal;font-variant:normal;font-weight:normal;font-stretch:normal;line-height:0.92;font-family:'Roadgeek 2005 Engschrift';-inkscape-font-specification:'Roadgeek 2005 Engschrift';fill:#ffffff;stroke:none"
       id="path2654" />
    <path
       d="m 763.25138,592.82712 v -12.50667 h 3.136 q 1.232,0 2.072,0.85867 0.85867,0.85866 0.85867,2.10933 v 1.15733 q 0,1.736 -1.47467,2.65067 l 1.904,5.73067 h -1.904 l -1.68,-5.35734 h -1.12 v 5.35734 z m 3.976,-7.336 q 0.168,-0.20534 0.224,-0.46667 0.0747,-0.26133 0.0747,-0.57867 v -1.15733 q 0,-0.57867 -0.31733,-0.93333 -0.31734,-0.37334 -0.896,-0.37334 h -1.26934 v 3.90134 h 1.25067 q 0.56,0 0.93333,-0.392 z"
       style="font-style:normal;font-variant:normal;font-weight:normal;font-stretch:normal;line-height:0.92;font-family:'Roadgeek 2005 Engschrift';-inkscape-font-specification:'Roadgeek 2005 Engschrift';fill:#ffffff;stroke:none"
       id="path2656" />
    <path
       d="m 773.87256,592.82712 v -10.84534 h -2.10934 v -1.66133 h 6.02934 v 1.66133 h -2.14667 v 10.84534 z"
       style="font-style:normal;font-variant:normal;font-weight:normal;font-stretch:normal;line-height:0.92;font-family:'Roadgeek 2005 Engschrift';-inkscape-font-specification:'Roadgeek 2005 Engschrift';fill:#ffffff;stroke:none"
       id="path2658" />
    <path
       d="m 778.49656,592.82712 v -12.50667 h 1.77333 v 5.33867 h 2.27733 v -5.33867 h 1.77333 v 12.50667 h -1.77333 v -5.58134 h -2.27733 v 5.58134 z"
       style="font-style:normal;font-variant:normal;font-weight:normal;font-stretch:normal;line-height:0.92;font-family:'Roadgeek 2005 Engschrift';-inkscape-font-specification:'Roadgeek 2005 Engschrift';fill:#ffffff;stroke:none"
       id="path2660" />
    <path
       d="m 791.3507,591.03512 v 1.792 h -5.35734 v -12.50667 h 5.35734 v 1.64267 h -3.584 v 3.696 h 3.136 v 1.69866 h -3.136 v 3.67734 z"
       style="font-style:normal;font-variant:normal;font-weight:normal;font-stretch:normal;line-height:0.92;font-family:'Roadgeek 2005 Engschrift';-inkscape-font-specification:'Roadgeek 2005 Engschrift';fill:#ffffff;stroke:none"
       id="path2662" />
    <path
       d="m 799.61123,591.52045 q -0.42933,0.672 -1.10133,1.04533 -0.672,0.37334 -1.47467,0.37334 -0.70933,0 -1.38133,-0.336 -0.65334,-0.336 -1.02667,-0.82134 -0.35467,-0.504 -0.48533,-1.008 -0.112,-0.504 -0.112,-1.13866 v -6.25334 q 0,-0.46666 0.0933,-0.93333 0.13067,-0.46667 0.69067,-1.32533 0.57866,-0.91467 2.27733,-0.91467 0.74667,0 1.4,0.35467 0.65333,0.35466 0.98933,0.87733 0.35467,0.504 0.448,0.97067 0.112,0.448 0.112,0.97066 v 0.52267 h -1.77333 v -0.52267 q 0,-0.14933 -0.0187,-0.26133 0,-0.13067 -0.0187,-0.224 -0.0187,-0.168 -0.28,-0.54133 -0.26134,-0.37334 -0.87734,-0.37334 -0.728,0 -0.97066,0.392 -0.224,0.392 -0.26134,0.57867 -0.0373,0.18667 -0.0373,0.42933 v 6.25334 q 0,0.18666 0,0.31733 0,0.13067 0.0187,0.224 0.0187,0.14933 0.28,0.57867 0.24266,0.392 0.952,0.392 0.728,0 0.93333,-0.392 0.112,-0.20534 0.168,-0.336 0.056,-0.14934 0.0747,-0.26134 0.0373,-0.112 0.0373,-0.224 0,-0.13066 0,-0.29866 v -2.184 h -1.43733 v -1.568 h 3.21066 v 3.752 q 0,0.392 -0.0187,0.672 -0.0187,0.26133 -0.0747,0.46666 -0.056,0.20534 -0.14933,0.392 -0.0747,0.168 -0.18667,0.35467 z"
       style="font-style:normal;font-variant:normal;font-weight:normal;font-stretch:normal;line-height:0.92;font-family:'Roadgeek 2005 Engschrift';-inkscape-font-specification:'Roadgeek 2005 Engschrift';fill:#ffffff;stroke:none"
       id="path2664" />
    <path
       d="m 802.04827,581.49645 q 0.42933,-0.59733 1.08266,-0.93333 0.672,-0.35467 1.38134,-0.35467 0.69066,0 1.288,0.28 0.616,0.28 1.02666,0.76533 0.41067,0.48534 0.56,1.008 0.14934,0.504 0.14934,1.10134 v 6.36533 q 0,0.56 -0.112,0.98933 -0.0933,0.42934 -0.448,0.952 -0.336,0.52267 -0.98934,0.896 -0.63466,0.37334 -1.41866,0.37334 -0.448,0 -0.85867,-0.112 -0.41067,-0.13067 -0.76533,-0.336 -0.35467,-0.20534 -0.63467,-0.46667 -0.26133,-0.26133 -0.41067,-0.54133 -0.28,-0.57867 -0.336,-0.93334 -0.056,-0.35466 -0.056,-0.82133 v -6.36533 q 0,-0.56 0.112,-0.98934 0.13067,-0.448 0.42934,-0.87733 z m 3.472,0.98933 q -0.35467,-0.52266 -0.97067,-0.52266 -0.31733,0 -0.63467,0.18666 -0.29866,0.168 -0.42933,0.392 -0.112,0.224 -0.14933,0.448 -0.0373,0.224 -0.0373,0.37334 v 6.36533 q 0,0.0933 0,0.20533 0,0.0933 0.0187,0.20534 0.0187,0.18666 0.29867,0.616 0.28,0.392 0.93333,0.392 0.336,0 0.59733,-0.14934 0.28,-0.168 0.392,-0.37333 0.13067,-0.224 0.168,-0.41067 0.0373,-0.18666 0.0373,-0.48533 v -6.36533 q 0,-0.37334 -0.0373,-0.52267 -0.0187,-0.14933 -0.18666,-0.35467 z"
       style="font-style:normal;font-variant:normal;font-weight:normal;font-stretch:normal;line-height:0.92;font-family:'Roadgeek 2005 Engschrift';-inkscape-font-specification:'Roadgeek 2005 Engschrift';fill:#ffffff;stroke:none"
       id="path2666" />
    <path
       d="m 808.28871,592.82712 2.8,-12.50667 h 1.54933 l 2.8,12.50667 h -1.92267 l -0.504,-2.688 h -2.31466 l -0.52267,2.688 z m 2.72533,-4.34934 h 1.68 l -0.84,-4.55466 z"
       style="font-style:normal;font-variant:normal;font-weight:normal;font-stretch:normal;line-height:0.92;font-family:'Roadgeek 2005 Engschrift';-inkscape-font-specification:'Roadgeek 2005 Engschrift';fill:#ffffff;stroke:none"
       id="path2668" />
    <path
       d="m 821.61781,592.82712 h -5.33867 v -12.50667 h 1.792 v 10.71467 h 3.54667 z"
       style="font-style:normal;font-variant:normal;font-weight:normal;font-stretch:normal;line-height:0.92;font-family:'Roadgeek 2005 Engschrift';-inkscape-font-specification:'Roadgeek 2005 Engschrift';fill:#ffffff;stroke:none"
       id="path2670" />
    <path
       d="m 823.4877,589.70978 q 0,0.18667 0,0.31734 0,0.13066 0.0187,0.224 0.0373,0.18666 0.28,0.54133 0.26134,0.37333 0.93334,0.37333 0.37333,0 0.69066,-0.14933 0.31734,-0.168 0.46667,-0.42933 0.112,-0.20534 0.13067,-0.392 0.0373,-0.18667 0.0373,-0.336 v -0.168 -0.87734 -0.168 q 0,-0.41066 -0.14933,-0.63466 -0.14934,-0.24267 -0.672,-0.54134 -0.35467,-0.18666 -1.26934,-0.52266 -0.91466,-0.336 -1.53066,-1.064 -0.616,-0.728 -0.616,-1.97867 v -0.56 q 0,-1.288 0.85866,-2.20267 0.87734,-0.93333 2.128,-0.93333 1.30667,0 2.16534,0.91467 0.87733,0.91466 0.87733,2.22133 v 0.56 h -1.792 v -0.56 q 0,-0.13067 -0.0187,-0.24267 0,-0.112 -0.0187,-0.20533 -0.0187,-0.0933 -0.0933,-0.224 -0.0747,-0.13067 -0.20533,-0.31733 -0.26133,-0.37334 -0.87733,-0.37334 -0.54134,0 -0.896,0.392 -0.336,0.392 -0.336,0.97067 v 0.56 0.168 q 0,0.37333 0.112,0.59733 0.13066,0.20534 0.59733,0.46667 0.14933,0.0747 0.448,0.20533 0.31733,0.112 0.76533,0.28 0.896,0.29867 1.60534,1.064 0.70933,0.76534 0.70933,2.016 v 1.008 q 0,0.65334 -0.13067,1.10134 -0.112,0.448 -0.76533,1.30666 -0.65333,0.82134 -2.184,0.82134 -1.624,0 -2.352,-1.04534 -0.728,-1.064 -0.728,-2.184 v -0.448 h 1.81067 z"
       style="font-style:normal;font-variant:normal;font-weight:normal;font-stretch:normal;line-height:0.92;font-family:'Roadgeek 2005 Engschrift';-inkscape-font-specification:'Roadgeek 2005 Engschrift';fill:#ffffff;stroke:none"
       id="path2672" />
  </g>
  <g
     aria-label="17"
     style="font-style:normal;font-variant:normal;font-weight:normal;font-stretch:normal;font-size:13.3333px;line-height:1.25;font-family:'Liberation Serif';-inkscape-font-specification:'Liberation Serif';letter-spacing:0px;word-spacing:0px;fill:#ffffff;fill-opacity:1;stroke:none"
     id="text6075-0-6-9-2-5-9-1-4-7-6-6"
     transform="translate(-701.81342,-550.03992)">
    <path
       d="m 719.45899,592.98285 v -25.46 l -4.288,3.216 v -4.556 l 4.288,-3.12667 h 4.24333 v 29.92667 z"
       style="font-style:normal;font-variant:normal;font-weight:normal;font-stretch:normal;font-size:44.6667px;font-family:'Roadgeek 2005 Engschrift';-inkscape-font-specification:'Roadgeek 2005 Engschrift';fill:#ffffff;stroke:none"
       id="path2675" />
    <path
       d="m 730.14514,570.56018 h -3.79667 v -7.504 h 12.77467 v 3.886 l -6.968,26.04067 h -4.556 l 7.28066,-25.95133 h -4.73466 z"
       style="font-style:normal;font-variant:normal;font-weight:normal;font-stretch:normal;font-size:44.6667px;font-family:'Roadgeek 2005 Engschrift';-inkscape-font-specification:'Roadgeek 2005 Engschrift';fill:#ffffff;stroke:none"
       id="path2677" />
  </g>
  <path
     style="opacity:1;fill:none;fill-opacity:1;fill-rule:evenodd;stroke:#ffffff;stroke-width:4;stroke-linecap:round;stroke-linejoin:round;stroke-miterlimit:4;stroke-dasharray:none;stroke-dashoffset:0;stroke-opacity:1"
     d="m 74.863054,90.452023 a 17.322468,17.322468 0 0 1 -17.32247,17.322467 17.322468,17.322468 0 0 1 -17.32246,-17.322467 17.322468,17.322468 0 0 1 17.32246,-17.32246 17.322468,17.322468 0 0 1 17.32247,17.32246 z"
     id="path8491" />
  <path
     style="opacity:1;fill:none;fill-opacity:1;fill-rule:evenodd;stroke:#ffffff;stroke-width:4;stroke-linecap:round;stroke-linejoin:round;stroke-miterlimit:4;stroke-dasharray:none;stroke-dashoffset:0;stroke-opacity:1"
     d="m 92.419204,77.662113 a 17.322468,17.322468 0 0 1 -17.32246,17.32246 17.322468,17.322468 0 0 1 -17.32247,-17.32246 17.322468,17.322468 0 0 1 17.32247,-17.32247 17.322468,17.322468 0 0 1 17.32246,17.32247 z"
     id="path8491-5" />
  <path
     style="opacity:1;fill:none;fill-opacity:1;fill-rule:evenodd;stroke:#ffffff;stroke-width:4;stroke-linecap:round;stroke-linejoin:round;stroke-miterlimit:4;stroke-dasharray:none;stroke-dashoffset:0;stroke-opacity:1"
     d="M 103.10908,110.84533 A 17.322468,17.322468 0 0 1 85.786624,128.1678 17.322468,17.322468 0 0 1 68.464154,110.84533 17.322468,17.322468 0 0 1 85.786624,93.522873 17.322468,17.322468 0 0 1 103.10908,110.84533 Z"
     id="path8491-6" />
  <path
     style="opacity:1;fill:none;fill-opacity:1;fill-rule:evenodd;stroke:#ffffff;stroke-width:4;stroke-linecap:round;stroke-linejoin:round;stroke-miterlimit:4;stroke-dasharray:none;stroke-dashoffset:0;stroke-opacity:1"
     d="M 109.7903,90.244933 A 17.322468,17.322468 0 0 1 92.467834,107.5674 17.322468,17.322468 0 0 1 75.145364,90.244933 17.322468,17.322468 0 0 1 92.467834,72.922463 17.322468,17.322468 0 0 1 109.7903,90.244933 Z"
     id="path8491-0" />
  <path
     style="opacity:1;fill:none;fill-opacity:1;fill-rule:evenodd;stroke:#ffffff;stroke-width:4;stroke-linecap:round;stroke-linejoin:round;stroke-miterlimit:4;stroke-dasharray:none;stroke-dashoffset:0;stroke-opacity:1"
     d="m 81.506614,110.95666 a 17.322468,17.322468 0 0 1 -17.32247,17.32247 17.322468,17.322468 0 0 1 -17.32247,-17.32247 17.322468,17.322468 0 0 1 17.32247,-17.322467 17.322468,17.322468 0 0 1 17.32247,17.322467 z"
     id="path8491-52" />
</svg>
