<?xml version="1.0" encoding="UTF-8" standalone="no"?>
<!-- Created with Inkscape (http://www.inkscape.org/) -->

<svg
   version="1.1"
   id="svg2"
   width="148.09276"
   height="148.33459"
   viewBox="0 0 148.09276 148.33459"
   sodipodi:docname="Sustainable_Development_Goals.svg"
   inkscape:version="0.92.3 (2405546, 2018-03-11)"
   inkscape:export-filename="sdg_1.svg"
   inkscape:export-xdpi="96"
   inkscape:export-ydpi="96"
   xmlns:inkscape="http://www.inkscape.org/namespaces/inkscape"
   xmlns:sodipodi="http://sodipodi.sourceforge.net/DTD/sodipodi-0.dtd"
   xmlns="http://www.w3.org/2000/svg"
   xmlns:svg="http://www.w3.org/2000/svg"
   xmlns:rdf="http://www.w3.org/1999/02/22-rdf-syntax-ns#"
   xmlns:cc="http://creativecommons.org/ns#"
   xmlns:dc="http://purl.org/dc/elements/1.1/">
  <metadata
     id="metadata8">
    <rdf:RDF>
      <cc:Work
         rdf:about="">
        <dc:format>image/svg+xml</dc:format>
        <dc:type
           rdf:resource="http://purl.org/dc/dcmitype/StillImage" />
        <dc:title />
      </cc:Work>
    </rdf:RDF>
  </metadata>
  <defs
     id="defs6" />
  <sodipodi:namedview
     pagecolor="#ffffff"
     bordercolor="#666666"
     borderopacity="1"
     objecttolerance="10"
     gridtolerance="10"
     guidetolerance="10"
     inkscape:pageopacity="0"
     inkscape:pageshadow="2"
     inkscape:window-width="1920"
     inkscape:window-height="1061"
     id="namedview4"
     showgrid="false"
     inkscape:zoom="1.0772059"
     inkscape:cx="528"
     inkscape:cy="408"
     inkscape:window-x="1920"
     inkscape:window-y="0"
     inkscape:window-maximized="1"
     inkscape:current-layer="svg2"
     showguides="true"
     inkscape:guide-bbox="true"
     inkscape:snap-global="true"
     inkscape:snap-center="true"
     inkscape:snap-object-midpoints="true"
     inkscape:snap-bbox="true"
     inkscape:snap-bbox-midpoints="true"
     inkscape:showpageshadow="2"
     inkscape:pagecheckerboard="0"
     inkscape:deskcolor="#d1d1d1" />
  <path
     style="opacity:1;fill:#007dbc;fill-opacity:1;fill-rule:evenodd;stroke:none;stroke-width:4;stroke-linecap:round;stroke-linejoin:round;stroke-miterlimit:4;stroke-dasharray:none;stroke-dashoffset:0;stroke-opacity:1"
     d="M 0.82675765,3.0078126e-6 H 147.26601 c 0.45802,0 0.82675,0.3687300021874 0.82675,0.8267500021874 V 147.50782 c 0,0.45802 -0.36873,0.82676 -0.82675,0.82676 H 0.82675765 c -0.45803,0 -0.8267599986328,-0.36874 -0.8267599986328,-0.82676 V 0.82675301 C -2.3486328e-6,0.36873301 0.36872765,3.0078126e-6 0.82675765,3.0078126e-6 Z"
     id="rect8528-63-2-4-3-6-0-4-3-6-3-7" />
  <style
     id="style970"
     type="text/css">
	.st0{fill:#418FDE;}
</style>
  <g
     aria-label="LIFE BELOW WATER"
     style="font-style:normal;font-variant:normal;font-weight:normal;font-stretch:normal;font-size:18.6667px;line-height:0.92;font-family:'Roadgeek 2005 Series B';-inkscape-font-specification:'Roadgeek 2005 Series B';letter-spacing:0px;word-spacing:0px;fill:#ffffff;fill-opacity:1;stroke:none"
     id="text6065-3-2-9-6-6-5-5-2"
     transform="translate(-209.89253,-550.03992)">
    <path
       d="m 263.61361,575.58014 h -5.33866 v -12.50667 h 1.792 v 10.71467 h 3.54666 z"
       style="font-style:normal;font-variant:normal;font-weight:normal;font-stretch:normal;line-height:0.92;font-family:'Roadgeek 2005 Engschrift';-inkscape-font-specification:'Roadgeek 2005 Engschrift';fill:#ffffff;stroke:none"
       id="path2494" />
    <path
       d="m 264.1955,575.58014 v -12.50667 h 1.77333 v 12.50667 z"
       style="font-style:normal;font-variant:normal;font-weight:normal;font-stretch:normal;line-height:0.92;font-family:'Roadgeek 2005 Engschrift';-inkscape-font-specification:'Roadgeek 2005 Engschrift';fill:#ffffff;stroke:none"
       id="path2496" />
    <path
       d="m 267.48697,575.58014 v -12.50667 h 5.33866 v 1.68 h -3.56533 v 3.752 h 3.11733 v 1.68 h -3.11733 v 5.39467 z"
       style="font-style:normal;font-variant:normal;font-weight:normal;font-stretch:normal;line-height:0.92;font-family:'Roadgeek 2005 Engschrift';-inkscape-font-specification:'Roadgeek 2005 Engschrift';fill:#ffffff;stroke:none"
       id="path2498" />
    <path
       d="m 278.7949,573.78814 v 1.792 h -5.35734 v -12.50667 h 5.35734 v 1.64267 h -3.584 v 3.696 h 3.136 v 1.69867 h -3.136 v 3.67733 z"
       style="font-style:normal;font-variant:normal;font-weight:normal;font-stretch:normal;line-height:0.92;font-family:'Roadgeek 2005 Engschrift';-inkscape-font-specification:'Roadgeek 2005 Engschrift';fill:#ffffff;stroke:none"
       id="path2500" />
    <path
       d="m 261.20561,580.32045 q 0.57867,0 1.08267,0.24267 0.56,0.26133 1.13867,0.84 0.616,0.59733 0.616,1.86666 v 0.952 q 0,1.43734 -1.13867,2.016 1.13867,0.672 1.13867,2.09067 v 1.456 q 0,1.32533 -0.85867,2.184 -0.84,0.85867 -2.16533,0.85867 h -2.76267 v -12.50667 z m 1.064,3.71467 v -0.76534 q 0,-0.57866 -0.336,-0.91466 -0.336,-0.35467 -0.896,-0.35467 h -1.008 v 3.45333 h 1.064 q 0.616,0 0.896,-0.37333 0.28,-0.392 0.28,-1.04533 z m 0,5.74933 v -1.456 q 0,-0.59733 -0.336,-0.93333 -0.31733,-0.35467 -0.896,-0.35467 h -1.008 v 4.01333 h 1.02667 q 0.54133,0 0.87733,-0.35466 0.336,-0.37334 0.336,-0.91467 z"
       style="font-style:normal;font-variant:normal;font-weight:normal;font-stretch:normal;line-height:0.92;font-family:'Roadgeek 2005 Engschrift';-inkscape-font-specification:'Roadgeek 2005 Engschrift';fill:#ffffff;stroke:none"
       id="path2502" />
    <path
       d="m 271.16049,591.03512 v 1.792 h -5.35733 v -12.50667 h 5.35733 v 1.64267 h -3.584 v 3.696 h 3.136 v 1.69866 h -3.136 v 3.67734 z"
       style="font-style:normal;font-variant:normal;font-weight:normal;font-stretch:normal;line-height:0.92;font-family:'Roadgeek 2005 Engschrift';-inkscape-font-specification:'Roadgeek 2005 Engschrift';fill:#ffffff;stroke:none"
       id="path2504" />
    <path
       d="m 277.22046,592.82712 h -5.33866 v -12.50667 h 1.792 v 10.71467 h 3.54666 z"
       style="font-style:normal;font-variant:normal;font-weight:normal;font-stretch:normal;line-height:0.92;font-family:'Roadgeek 2005 Engschrift';-inkscape-font-specification:'Roadgeek 2005 Engschrift';fill:#ffffff;stroke:none"
       id="path2506" />
    <path
       d="m 277.95664,581.49645 q 0.42934,-0.59733 1.08267,-0.93333 0.672,-0.35467 1.38133,-0.35467 0.69067,0 1.288,0.28 0.616,0.28 1.02667,0.76533 0.41067,0.48534 0.56,1.008 0.14933,0.504 0.14933,1.10134 v 6.36533 q 0,0.56 -0.112,0.98933 -0.0933,0.42934 -0.448,0.952 -0.336,0.52267 -0.98933,0.896 -0.63467,0.37334 -1.41867,0.37334 -0.448,0 -0.85866,-0.112 -0.41067,-0.13067 -0.76534,-0.336 -0.35466,-0.20534 -0.63466,-0.46667 -0.26134,-0.26133 -0.41067,-0.54133 -0.28,-0.57867 -0.336,-0.93334 -0.056,-0.35466 -0.056,-0.82133 v -6.36533 q 0,-0.56 0.112,-0.98934 0.13067,-0.448 0.42933,-0.87733 z m 3.472,0.98933 q -0.35466,-0.52266 -0.97066,-0.52266 -0.31734,0 -0.63467,0.18666 -0.29867,0.168 -0.42933,0.392 -0.112,0.224 -0.14934,0.448 -0.0373,0.224 -0.0373,0.37334 v 6.36533 q 0,0.0933 0,0.20533 0,0.0933 0.0187,0.20534 0.0187,0.18666 0.29866,0.616 0.28,0.392 0.93334,0.392 0.336,0 0.59733,-0.14934 0.28,-0.168 0.392,-0.37333 0.13067,-0.224 0.168,-0.41067 0.0373,-0.18666 0.0373,-0.48533 v -6.36533 q 0,-0.37334 -0.0373,-0.52267 -0.0187,-0.14933 -0.18667,-0.35467 z"
       style="font-style:normal;font-variant:normal;font-weight:normal;font-stretch:normal;line-height:0.92;font-family:'Roadgeek 2005 Engschrift';-inkscape-font-specification:'Roadgeek 2005 Engschrift';fill:#ffffff;stroke:none"
       id="path2508" />
    <path
       d="m 290.76402,592.82712 -1.47467,-7.616 -1.43733,7.616 h -1.66133 l -1.81067,-12.50667 h 1.904 l 0.896,7.56 1.43733,-7.56 h 1.32534 l 1.47466,7.56 0.896,-7.56 h 1.88534 l -1.75467,12.50667 z"
       style="font-style:normal;font-variant:normal;font-weight:normal;font-stretch:normal;line-height:0.92;font-family:'Roadgeek 2005 Engschrift';-inkscape-font-specification:'Roadgeek 2005 Engschrift';fill:#ffffff;stroke:none"
       id="path2510" />
    <path
       d="m 302.91137,592.82712 -1.47467,-7.616 -1.43733,7.616 h -1.66133 l -1.81067,-12.50667 h 1.904 l 0.896,7.56 1.43733,-7.56 h 1.32534 l 1.47466,7.56 0.896,-7.56 h 1.88534 l -1.75467,12.50667 z"
       style="font-style:normal;font-variant:normal;font-weight:normal;font-stretch:normal;line-height:0.92;font-family:'Roadgeek 2005 Engschrift';-inkscape-font-specification:'Roadgeek 2005 Engschrift';fill:#ffffff;stroke:none"
       id="path2512" />
    <path
       d="m 305.94734,592.82712 2.8,-12.50667 h 1.54933 l 2.8,12.50667 H 311.174 l -0.504,-2.688 h -2.31466 l -0.52267,2.688 z m 2.72533,-4.34934 h 1.68 l -0.84,-4.55466 z"
       style="font-style:normal;font-variant:normal;font-weight:normal;font-stretch:normal;line-height:0.92;font-family:'Roadgeek 2005 Engschrift';-inkscape-font-specification:'Roadgeek 2005 Engschrift';fill:#ffffff;stroke:none"
       id="path2514" />
    <path
       d="m 314.59148,592.82712 v -10.84534 h -2.10934 v -1.66133 h 6.02934 v 1.66133 h -2.14667 v 10.84534 z"
       style="font-style:normal;font-variant:normal;font-weight:normal;font-stretch:normal;line-height:0.92;font-family:'Roadgeek 2005 Engschrift';-inkscape-font-specification:'Roadgeek 2005 Engschrift';fill:#ffffff;stroke:none"
       id="path2516" />
    <path
       d="m 324.85406,591.03512 v 1.792 h -5.35733 v -12.50667 h 5.35733 v 1.64267 h -3.584 v 3.696 h 3.136 v 1.69866 h -3.136 v 3.67734 z"
       style="font-style:normal;font-variant:normal;font-weight:normal;font-stretch:normal;line-height:0.92;font-family:'Roadgeek 2005 Engschrift';-inkscape-font-specification:'Roadgeek 2005 Engschrift';fill:#ffffff;stroke:none"
       id="path2518" />
    <path
       d="m 325.53804,592.82712 v -12.50667 h 3.136 q 1.232,0 2.072,0.85867 0.85866,0.85866 0.85866,2.10933 v 1.15733 q 0,1.736 -1.47466,2.65067 l 1.904,5.73067 h -1.904 l -1.68,-5.35734 h -1.12 v 5.35734 z m 3.976,-7.336 q 0.168,-0.20534 0.224,-0.46667 0.0747,-0.26133 0.0747,-0.57867 v -1.15733 q 0,-0.57867 -0.31733,-0.93333 -0.31733,-0.37334 -0.896,-0.37334 h -1.26933 v 3.90134 h 1.25066 q 0.56,0 0.93334,-0.392 z"
       style="font-style:normal;font-variant:normal;font-weight:normal;font-stretch:normal;line-height:0.92;font-family:'Roadgeek 2005 Engschrift';-inkscape-font-specification:'Roadgeek 2005 Engschrift';fill:#ffffff;stroke:none"
       id="path2520" />
  </g>
  <g
     aria-label="14"
     style="font-style:normal;font-variant:normal;font-weight:normal;font-stretch:normal;font-size:13.3333px;line-height:1.25;font-family:'Liberation Serif';-inkscape-font-specification:'Liberation Serif';letter-spacing:0px;word-spacing:0px;fill:#ffffff;fill-opacity:1;stroke:none"
     id="text6075-0-6-9-2-5-9-1-4"
     transform="translate(-209.89253,-550.03992)">
    <path
       d="m 224.54534,592.98285 v -25.46 l -4.288,3.216 v -4.556 l 4.288,-3.12667 h 4.24333 v 29.92667 z"
       style="font-style:normal;font-variant:normal;font-weight:normal;font-stretch:normal;font-size:44.6667px;font-family:'Roadgeek 2005 Engschrift';-inkscape-font-specification:'Roadgeek 2005 Engschrift';fill:#ffffff;stroke:none"
       id="path2523" />
    <path
       d="m 240.10241,592.98285 v -4.556 h -8.53133 v -4.02 l 6.20867,-21.35067 h 4.51133 l -6.38733,21.35067 h 4.19866 v -8.53133 h 4.288 v 8.53133 h 2.09934 v 4.02 h -2.09934 v 4.556 z"
       style="font-style:normal;font-variant:normal;font-weight:normal;font-stretch:normal;font-size:44.6667px;font-family:'Roadgeek 2005 Engschrift';-inkscape-font-specification:'Roadgeek 2005 Engschrift';fill:#ffffff;stroke:none"
       id="path2525" />
  </g>
  <path
     id="path8226-6-0"
     style="opacity:1;fill:#ffffff;stroke:none;stroke-width:1px;stroke-linecap:butt;stroke-linejoin:miter;stroke-opacity:1"
     d="m 82.691448,91.049923 c -10.10214,0.2348 -20.00686,5.57025 -29.83593,12.859377 -4.32771,-7.433507 -10.03439,-12.722397 -19.12305,-12.749997 8.68662,12.930787 6.94288,24.448227 0,35.259757 9.08866,-0.0276 14.79534,-5.31649 19.12305,-12.75 19.65815,14.57826 39.61813,21.33868 60.855472,-4.8789 C 103.09232,95.681373 92.793598,90.815123 82.691448,91.049923 Z m 9.78125,10.199217 a 4.8447647,4.8447647 0 0 1 4.84571,4.84571 4.8447647,4.8447647 0 0 1 -4.84571,4.84375 4.8447647,4.8447647 0 0 1 -4.84375,-4.84375 4.8447647,4.8447647 0 0 1 4.84375,-4.84571 z m 20.492012,-27.071137 0.34861,3.98405 c -7.54085,5.18856 -13.14156,3.12714 -18.177222,-1.04581 -6.22279,4.59131 -13.07486,5.95752 -21.41426,-0.29881 -6.15403,3.76753 -12.45429,7.05546 -21.86246,0.14941 -4.90965,3.8293 -9.83642,7.60128 -17.72901,1.44421 l -0.1992,-4.18325 c 7.25245,4.24711 12.95871,1.82536 18.37642,-2.49003 7.18789,4.86393 14.29193,6.29026 21.21505,0.29881 8.02938,7.36181 14.77437,4.21498 21.36446,-0.19921 4.82869,3.09212 9.276822,7.05546 18.077612,2.34063 z m 0,-12.25095 0.34861,3.98405 c -7.54085,5.18856 -13.14156,3.12714 -18.177222,-1.04581 -6.22279,4.59131 -13.07486,5.95752 -21.41426,-0.29881 -6.15403,3.76753 -12.45429,7.05546 -21.86246,0.14941 -4.90965,3.8293 -9.83642,7.60128 -17.72901,1.44421 l -0.1992,-4.18325 c 7.25245,4.24711 12.95871,1.82536 18.37642,-2.49003 7.18789,4.86393 14.29193,6.29026 21.21505,0.29881 8.02938,7.36181 14.77437,4.21498 21.36446,-0.19921 4.82869,3.09212 9.276822,7.05546 18.077612,2.34063 z" />
</svg>
