<?xml version="1.0" encoding="UTF-8" standalone="no"?>
<!-- Created with Inkscape (http://www.inkscape.org/) -->

<svg
   version="1.1"
   id="svg2"
   width="148.09277"
   height="148.33458"
   viewBox="0 0 148.09277 148.33458"
   sodipodi:docname="Sustainable_Development_Goals.svg"
   inkscape:version="0.92.3 (2405546, 2018-03-11)"
   inkscape:export-filename="sdg_1.svg"
   inkscape:export-xdpi="96"
   inkscape:export-ydpi="96"
   xmlns:inkscape="http://www.inkscape.org/namespaces/inkscape"
   xmlns:sodipodi="http://sodipodi.sourceforge.net/DTD/sodipodi-0.dtd"
   xmlns="http://www.w3.org/2000/svg"
   xmlns:svg="http://www.w3.org/2000/svg"
   xmlns:rdf="http://www.w3.org/1999/02/22-rdf-syntax-ns#"
   xmlns:cc="http://creativecommons.org/ns#"
   xmlns:dc="http://purl.org/dc/elements/1.1/">
  <metadata
     id="metadata8">
    <rdf:RDF>
      <cc:Work
         rdf:about="">
        <dc:format>image/svg+xml</dc:format>
        <dc:type
           rdf:resource="http://purl.org/dc/dcmitype/StillImage" />
        <dc:title />
      </cc:Work>
    </rdf:RDF>
  </metadata>
  <defs
     id="defs6" />
  <sodipodi:namedview
     pagecolor="#ffffff"
     bordercolor="#666666"
     borderopacity="1"
     objecttolerance="10"
     gridtolerance="10"
     guidetolerance="10"
     inkscape:pageopacity="0"
     inkscape:pageshadow="2"
     inkscape:window-width="1920"
     inkscape:window-height="1061"
     id="namedview4"
     showgrid="false"
     inkscape:zoom="1.0772059"
     inkscape:cx="528"
     inkscape:cy="408"
     inkscape:window-x="1920"
     inkscape:window-y="0"
     inkscape:window-maximized="1"
     inkscape:current-layer="svg2"
     showguides="true"
     inkscape:guide-bbox="true"
     inkscape:snap-global="true"
     inkscape:snap-center="true"
     inkscape:snap-object-midpoints="true"
     inkscape:snap-bbox="true"
     inkscape:snap-bbox-midpoints="true"
     inkscape:showpageshadow="2"
     inkscape:pagecheckerboard="0"
     inkscape:deskcolor="#d1d1d1" />
  <path
     style="opacity:1;fill:#ef402b;fill-opacity:1;fill-rule:evenodd;stroke:none;stroke-width:4;stroke-linecap:round;stroke-linejoin:round;stroke-miterlimit:4;stroke-dasharray:none;stroke-dashoffset:0;stroke-opacity:1"
     d="M 0.82675447,4.9462891e-6 H 147.266 c 0.45802,0 0.82675,0.3687300037109 0.82675,0.8267500037109 V 147.50782 c 0,0.45802 -0.36873,0.82675 -0.82675,0.82675 H 0.82675447 c -0.45802,0 -0.8267499973437,-0.36873 -0.8267499973437,-0.82675 V 0.82675495 C 4.4726563e-6,0.36873495 0.36873447,4.9462891e-6 0.82675447,4.9462891e-6 Z"
     id="rect8528-63-2" />
  <style
     id="style970"
     type="text/css">
	.st0{fill:#418FDE;}
</style>
  <g
     aria-label="GENDER EQUALITY"
     style="font-style:normal;font-variant:normal;font-weight:normal;font-stretch:normal;font-size:18.6667px;line-height:0.92;font-family:'Roadgeek 2005 Series B';-inkscape-font-specification:'Roadgeek 2005 Series B';letter-spacing:0px;word-spacing:0px;fill:#ffffff;fill-opacity:1;stroke:none"
     id="text6065-3-2-9-6"
     transform="translate(-701.81342,-228.93456)">
    <path
       d="m 751.40083,253.37989 q -0.42934,0.672 -1.10134,1.04533 -0.672,0.37333 -1.47466,0.37333 -0.70934,0 -1.38134,-0.336 -0.65333,-0.336 -1.02666,-0.82133 -0.35467,-0.504 -0.48534,-1.008 -0.112,-0.504 -0.112,-1.13867 v -6.25333 q 0,-0.46667 0.0933,-0.93333 0.13066,-0.46667 0.69066,-1.32534 0.57867,-0.91466 2.27734,-0.91466 0.74666,0 1.4,0.35466 0.65333,0.35467 0.98933,0.87734 0.35467,0.504 0.448,0.97066 0.112,0.448 0.112,0.97067 v 0.52267 h -1.77333 v -0.52267 q 0,-0.14933 -0.0187,-0.26133 0,-0.13067 -0.0187,-0.224 -0.0187,-0.168 -0.28,-0.54134 -0.26133,-0.37333 -0.87733,-0.37333 -0.728,0 -0.97067,0.392 -0.224,0.392 -0.26133,0.57867 -0.0373,0.18666 -0.0373,0.42933 v 6.25333 q 0,0.18667 0,0.31734 0,0.13066 0.0187,0.224 0.0187,0.14933 0.28,0.57866 0.24267,0.392 0.952,0.392 0.728,0 0.93334,-0.392 0.112,-0.20533 0.168,-0.336 0.056,-0.14933 0.0747,-0.26133 0.0373,-0.112 0.0373,-0.224 0,-0.13067 0,-0.29867 v -2.184 h -1.43734 v -1.568 h 3.21067 v 3.752 q 0,0.392 -0.0187,0.672 -0.0187,0.26134 -0.0747,0.46667 -0.056,0.20533 -0.14934,0.392 -0.0747,0.168 -0.18666,0.35467 z"
       style="font-style:normal;font-variant:normal;font-weight:normal;font-stretch:normal;line-height:0.92;font-family:'Roadgeek 2005 Engschrift';-inkscape-font-specification:'Roadgeek 2005 Engschrift';fill:#ffffff;stroke:none"
       id="path2005" />
    <path
       d="m 758.96374,252.89455 v 1.792 h -5.35733 v -12.50666 h 5.35733 v 1.64266 h -3.584 v 3.696 h 3.136 v 1.69867 h -3.136 v 3.67733 z"
       style="font-style:normal;font-variant:normal;font-weight:normal;font-stretch:normal;line-height:0.92;font-family:'Roadgeek 2005 Engschrift';-inkscape-font-specification:'Roadgeek 2005 Engschrift';fill:#ffffff;stroke:none"
       id="path2007" />
    <path
       d="m 764.19032,254.68655 -2.78133,-7.59733 v 7.59733 h -1.792 v -12.50666 h 1.69867 l 2.76266,7.57866 v -7.57866 h 1.792 v 12.50666 z"
       style="font-style:normal;font-variant:normal;font-weight:normal;font-stretch:normal;line-height:0.92;font-family:'Roadgeek 2005 Engschrift';-inkscape-font-specification:'Roadgeek 2005 Engschrift';fill:#ffffff;stroke:none"
       id="path2009" />
    <path
       d="m 769.95072,242.17989 q 1.21333,0 2.072,0.85866 0.87733,0.84 0.87733,2.05334 v 6.496 q 0,1.38133 -0.84,2.24 -0.84,0.85866 -2.16533,0.85866 h -2.78133 v -12.50666 z m 1.176,9.408 v -6.496 q 0,-0.52267 -0.392,-0.87734 -0.37333,-0.35466 -0.91467,-0.35466 h -0.93333 v 9.16533 h 0.87733 q 1.36267,0 1.36267,-1.43733 z"
       style="font-style:normal;font-variant:normal;font-weight:normal;font-stretch:normal;line-height:0.92;font-family:'Roadgeek 2005 Engschrift';-inkscape-font-specification:'Roadgeek 2005 Engschrift';fill:#ffffff;stroke:none"
       id="path2011" />
    <path
       d="m 779.48867,252.89455 v 1.792 h -5.35733 v -12.50666 h 5.35733 v 1.64266 h -3.584 v 3.696 h 3.136 v 1.69867 h -3.136 v 3.67733 z"
       style="font-style:normal;font-variant:normal;font-weight:normal;font-stretch:normal;line-height:0.92;font-family:'Roadgeek 2005 Engschrift';-inkscape-font-specification:'Roadgeek 2005 Engschrift';fill:#ffffff;stroke:none"
       id="path2013" />
    <path
       d="m 780.40595,254.68655 v -12.50666 h 3.136 q 1.23199,0 2.07199,0.85866 0.85867,0.85867 0.85867,2.10934 v 1.15733 q 0,1.736 -1.47467,2.65067 l 1.904,5.73066 h -1.904 l -1.67999,-5.35733 h -1.12 v 5.35733 z m 3.97599,-7.336 q 0.168,-0.20533 0.224,-0.46666 0.0747,-0.26134 0.0747,-0.57867 v -1.15733 q 0,-0.57867 -0.31733,-0.93334 -0.31733,-0.37333 -0.896,-0.37333 h -1.26933 v 3.90133 h 1.25066 q 0.56,0 0.93333,-0.392 z"
       style="font-style:normal;font-variant:normal;font-weight:normal;font-stretch:normal;line-height:0.92;font-family:'Roadgeek 2005 Engschrift';-inkscape-font-specification:'Roadgeek 2005 Engschrift';fill:#ffffff;stroke:none"
       id="path2015" />
    <path
       d="m 751.30749,270.14153 v 1.792 h -5.35733 v -12.50667 h 5.35733 v 1.64267 h -3.584 v 3.696 h 3.136 v 1.69867 h -3.136 v 3.67733 z"
       style="font-style:normal;font-variant:normal;font-weight:normal;font-stretch:normal;line-height:0.92;font-family:'Roadgeek 2005 Engschrift';-inkscape-font-specification:'Roadgeek 2005 Engschrift';fill:#ffffff;stroke:none"
       id="path2017" />
    <path
       d="m 752.68075,270.96286 q -0.42933,-0.46666 -0.57866,-0.98933 -0.13067,-0.52267 -0.13067,-1.232 v -6.216 q 0,-1.36267 0.85867,-2.27733 0.87733,-0.93334 2.20266,-0.93334 1.19467,0 2.10934,0.87734 0.896,0.87733 0.896,2.09066 v 6.45867 q 0,0.54133 -0.056,0.80267 -0.0373,0.26133 -0.14934,0.52266 l 1.176,0.98934 -0.98933,1.19466 -1.12,-0.896 q -0.82133,0.672 -1.97867,0.672 -0.616,0 -1.232,-0.29866 -0.59733,-0.29867 -1.008,-0.76534 z m 2.968,-2.688 0.59734,0.46667 v -6.216 q 0,-0.59733 -0.336,-1.008 -0.336,-0.42933 -0.93334,-0.42933 -0.37333,0 -0.65333,0.18666 -0.28,0.18667 -0.41067,0.448 -0.112,0.26134 -0.13066,0.41067 -0.0187,0.13067 -0.0187,0.392 v 6.216 0.13067 q 0,0.54133 0.29867,0.97066 0.31733,0.41067 0.97066,0.42934 0.18667,0 0.448,-0.112 l -0.82133,-0.69067 z"
       style="font-style:normal;font-variant:normal;font-weight:normal;font-stretch:normal;line-height:0.92;font-family:'Roadgeek 2005 Engschrift';-inkscape-font-specification:'Roadgeek 2005 Engschrift';fill:#ffffff;stroke:none"
       id="path2019" />
    <path
       d="m 765.17167,270.62686 q -0.41067,0.63467 -1.064,1.02667 -0.63467,0.392 -1.41867,0.392 -0.392,0 -0.784,-0.112 -0.37333,-0.112 -0.70933,-0.28 -0.336,-0.18667 -0.59733,-0.41067 -0.26134,-0.24266 -0.392,-0.504 -0.28,-0.52266 -0.37334,-0.91466 -0.0747,-0.392 -0.0747,-0.84 v -9.55734 h 1.792 v 9.55734 q 0,0.13066 0,0.24266 0.0187,0.0933 0.0373,0.18667 0.0187,0.14933 0.28,0.52267 0.24267,0.336 0.84,0.336 0.54133,0 0.80267,-0.392 0.28,-0.41067 0.28,-0.896 v -9.55734 h 1.792 v 9.55734 q 0,0.448 -0.0933,0.85866 -0.0933,0.41067 -0.31733,0.784 z"
       style="font-style:normal;font-variant:normal;font-weight:normal;font-stretch:normal;line-height:0.92;font-family:'Roadgeek 2005 Engschrift';-inkscape-font-specification:'Roadgeek 2005 Engschrift';fill:#ffffff;stroke:none"
       id="path2021" />
    <path
       d="m 765.97012,271.93353 2.8,-12.50667 h 1.54933 l 2.8,12.50667 h -1.92266 l -0.504,-2.688 h -2.31467 l -0.52267,2.688 z m 2.72533,-4.34933 h 1.68 l -0.84,-4.55467 z"
       style="font-style:normal;font-variant:normal;font-weight:normal;font-stretch:normal;line-height:0.92;font-family:'Roadgeek 2005 Engschrift';-inkscape-font-specification:'Roadgeek 2005 Engschrift';fill:#ffffff;stroke:none"
       id="path2023" />
    <path
       d="m 779.38883,271.93353 h -5.33867 v -12.50667 h 1.792 v 10.71467 h 3.54667 z"
       style="font-style:normal;font-variant:normal;font-weight:normal;font-stretch:normal;line-height:0.92;font-family:'Roadgeek 2005 Engschrift';-inkscape-font-specification:'Roadgeek 2005 Engschrift';fill:#ffffff;stroke:none"
       id="path2025" />
    <path
       d="m 779.89176,271.93353 v -12.50667 h 1.77333 v 12.50667 z"
       style="font-style:normal;font-variant:normal;font-weight:normal;font-stretch:normal;line-height:0.92;font-family:'Roadgeek 2005 Engschrift';-inkscape-font-specification:'Roadgeek 2005 Engschrift';fill:#ffffff;stroke:none"
       id="path2027" />
    <path
       d="M 784.76515,271.93353 V 261.0882 h -2.10934 v -1.66134 h 6.02934 v 1.66134 h -2.14667 v 10.84533 z"
       style="font-style:normal;font-variant:normal;font-weight:normal;font-stretch:normal;line-height:0.92;font-family:'Roadgeek 2005 Engschrift';-inkscape-font-specification:'Roadgeek 2005 Engschrift';fill:#ffffff;stroke:none"
       id="path2029" />
    <path
       d="m 791.3081,271.93353 v -5.376 l -2.42666,-7.13067 h 1.86666 l 1.456,4.89067 1.47467,-4.89067 h 1.88533 l -2.48266,7.13067 v 5.376 z"
       style="font-style:normal;font-variant:normal;font-weight:normal;font-stretch:normal;line-height:0.92;font-family:'Roadgeek 2005 Engschrift';-inkscape-font-specification:'Roadgeek 2005 Engschrift';fill:#ffffff;stroke:none"
       id="path2031" />
  </g>
  <g
     aria-label="5"
     style="font-style:normal;font-variant:normal;font-weight:normal;font-stretch:normal;font-size:13.3333px;line-height:1.25;font-family:'Liberation Serif';-inkscape-font-specification:'Liberation Serif';letter-spacing:0px;word-spacing:0px;fill:#ffffff;fill-opacity:1;stroke:none"
     id="text6075-0-6-9-2"
     transform="translate(-701.81342,-228.93456)">
    <path
       d="m 725.9731,252.11283 q 1.11666,0 2.23333,0.62534 1.16133,0.62533 1.69733,1.474 0.58067,0.84866 0.75934,1.78666 0.22333,0.89334 0.22333,1.92067 v 6.7 q 0,0.98267 -0.0893,1.69733 -0.0447,0.67 -0.49134,1.876 -0.44666,1.206 -2.18866,2.32267 -1.65267,1.11667 -3.66267,1.11667 -1.51867,0 -2.90333,-0.71467 -1.38467,-0.75933 -2.144,-1.83133 -0.75934,-1.072 -1.02734,-2.18867 -0.268,-1.11667 -0.268,-2.278 v -0.75933 h 4.37734 v 1.65266 q 0,0.22334 0.134,0.536 0.134,0.31267 0.35733,0.62534 0.22333,0.268 0.62533,0.49133 0.402,0.17867 0.938,0.17867 1.206,0 1.608,-0.67 0.402,-0.67 0.44667,-1.02734 0.0447,-0.402 0.0447,-0.84866 v -6.298 q 0,-0.22334 0,-0.402 0,-0.22334 -0.0447,-0.44667 0,-0.22333 -0.134,-0.536 -0.0893,-0.31267 -0.35733,-0.58067 -0.22334,-0.31266 -0.62534,-0.49133 -0.35733,-0.22333 -0.89333,-0.22333 -1.56333,0 -2.09933,1.608 h -3.84134 V 241.4375 h 12.23867 v 3.97533 h -8.39733 v 8.04 q 1.51866,-1.34 3.484,-1.34 z"
       style="font-style:normal;font-variant:normal;font-weight:normal;font-stretch:normal;font-size:44.6667px;font-family:'Roadgeek 2005 Engschrift';-inkscape-font-specification:'Roadgeek 2005 Engschrift';fill:#ffffff;stroke:none"
       id="path2034" />
  </g>
  <path
     id="rect7038"
     style="opacity:1;fill:#ffffff;fill-opacity:1;fill-rule:evenodd;stroke:none;stroke-width:0.2;stroke-linecap:round;stroke-linejoin:round;stroke-miterlimit:4;stroke-dasharray:none;stroke-dashoffset:0;stroke-opacity:1"
     d="m 62.766664,82.647475 v 5.88281 h 22.38281 v -5.88281 z m 0,9.125 v 6.16016 h 22.38281 v -6.16016 z m 26.47265,-35.25586 v 6.39649 h 7.60938 l -8.10547,8.10742 a 24.142889,24.142889 0 0 0 -14.88867,-5.17383 24.142889,24.142889 0 0 0 -24.14258,24.14258 24.142889,24.142889 0 0 0 20.99805,23.908195 v 7.08399 h -7.60938 v 7.11328 h 7.60938 v 6.94922 h 7.05859 v -6.94922 h 7.55469 v -7.11328 h -7.55469 v -7.19727 a 24.142889,24.142889 0 0 0 20.22852,-23.794915 24.142889,24.142889 0 0 0 -4.42188,-13.875 l 8.017576,-8.01758 v 7.00391 h 6.56055 v -18.58399 z m -15.38476,15.91797 a 17.555672,17.555672 0 0 1 17.55469,17.55469 17.555672,17.555672 0 0 1 -17.55469,17.556635 17.555672,17.555672 0 0 1 -17.55664,-17.556635 17.555672,17.555672 0 0 1 17.55664,-17.55469 z" />
</svg>
