<?xml version="1.0" encoding="UTF-8" standalone="no"?>
<!-- Created with Inkscape (http://www.inkscape.org/) -->

<svg
   version="1.1"
   id="svg2"
   width="148.09274"
   height="148.33459"
   viewBox="0 0 148.09274 148.33459"
   sodipodi:docname="Sustainable_Development_Goals.svg"
   inkscape:version="0.92.3 (2405546, 2018-03-11)"
   inkscape:export-filename="sdg_1.svg"
   inkscape:export-xdpi="96"
   inkscape:export-ydpi="96"
   xmlns:inkscape="http://www.inkscape.org/namespaces/inkscape"
   xmlns:sodipodi="http://sodipodi.sourceforge.net/DTD/sodipodi-0.dtd"
   xmlns="http://www.w3.org/2000/svg"
   xmlns:svg="http://www.w3.org/2000/svg"
   xmlns:rdf="http://www.w3.org/1999/02/22-rdf-syntax-ns#"
   xmlns:cc="http://creativecommons.org/ns#"
   xmlns:dc="http://purl.org/dc/elements/1.1/">
  <metadata
     id="metadata8">
    <rdf:RDF>
      <cc:Work
         rdf:about="">
        <dc:format>image/svg+xml</dc:format>
        <dc:type
           rdf:resource="http://purl.org/dc/dcmitype/StillImage" />
        <dc:title />
      </cc:Work>
    </rdf:RDF>
  </metadata>
  <defs
     id="defs6" />
  <sodipodi:namedview
     pagecolor="#ffffff"
     bordercolor="#666666"
     borderopacity="1"
     objecttolerance="10"
     gridtolerance="10"
     guidetolerance="10"
     inkscape:pageopacity="0"
     inkscape:pageshadow="2"
     inkscape:window-width="1920"
     inkscape:window-height="1061"
     id="namedview4"
     showgrid="false"
     inkscape:zoom="1.0772059"
     inkscape:cx="528"
     inkscape:cy="408"
     inkscape:window-x="1920"
     inkscape:window-y="0"
     inkscape:window-maximized="1"
     inkscape:current-layer="svg2"
     showguides="true"
     inkscape:guide-bbox="true"
     inkscape:snap-global="true"
     inkscape:snap-center="true"
     inkscape:snap-object-midpoints="true"
     inkscape:snap-bbox="true"
     inkscape:snap-bbox-midpoints="true"
     inkscape:showpageshadow="2"
     inkscape:pagecheckerboard="0"
     inkscape:deskcolor="#d1d1d1" />
  <path
     style="opacity:1;fill:#fdb713;fill-opacity:1;fill-rule:evenodd;stroke:none;stroke-width:4;stroke-linecap:round;stroke-linejoin:round;stroke-miterlimit:4;stroke-dasharray:none;stroke-dashoffset:0;stroke-opacity:1"
     d="M 0.82675435,-2.5195312e-6 H 147.266 c 0.45802,0 0.82675,0.3687299995312 0.82675,0.8267599995312 V 147.50783 c 0,0.45802 -0.36873,0.82675 -0.82675,0.82675 H 0.82675435 c -0.458022,0 -0.82675399794922,-0.36873 -0.82675399794922,-0.82675 V 0.82675748 C 3.5205078e-7,0.36872748 0.36873235,-2.5195312e-6 0.82675435,-2.5195312e-6 Z"
     id="rect8528-63-2-4-3-6-0-4-3-6" />
  <style
     id="style970"
     type="text/css">
	.st0{fill:#418FDE;}
</style>
  <g
     aria-label="AFFORDABLE AND CLEAN ENERGY"
     style="font-style:normal;font-variant:normal;font-weight:normal;font-stretch:normal;font-size:18.6667px;line-height:0.92;font-family:'Roadgeek 2005 Series B';-inkscape-font-specification:'Roadgeek 2005 Series B';letter-spacing:0px;word-spacing:0px;fill:#ffffff;fill-opacity:1;stroke:none"
     id="text6065-3-2-9-6-6-5"
     transform="translate(-45.918877,-389.72833)">
    <path
       d="m 87.895025,415.30429 2.8,-12.50667 h 1.549333 l 2.8,12.50667 h -1.922667 l -0.504,-2.688 h -2.314666 l -0.522667,2.688 z m 2.725333,-4.34933 h 1.68 l -0.84,-4.55467 z"
       style="font-style:normal;font-variant:normal;font-weight:normal;font-stretch:normal;line-height:0.92;font-family:'Roadgeek 2005 Engschrift';-inkscape-font-specification:'Roadgeek 2005 Engschrift';fill:#ffffff;stroke:none"
       id="path2087" />
    <path
       d="m 95.841416,415.30429 v -12.50667 h 5.338664 v 1.68 h -3.565331 v 3.752 h 3.117331 v 1.68 h -3.117331 v 5.39467 z"
       style="font-style:normal;font-variant:normal;font-weight:normal;font-stretch:normal;line-height:0.92;font-family:'Roadgeek 2005 Engschrift';-inkscape-font-specification:'Roadgeek 2005 Engschrift';fill:#ffffff;stroke:none"
       id="path2089" />
    <path
       d="m 102.04214,415.30429 v -12.50667 h 5.33867 v 1.68 h -3.56533 v 3.752 h 3.11733 v 1.68 h -3.11733 v 5.39467 z"
       style="font-style:normal;font-variant:normal;font-weight:normal;font-stretch:normal;line-height:0.92;font-family:'Roadgeek 2005 Engschrift';-inkscape-font-specification:'Roadgeek 2005 Engschrift';fill:#ffffff;stroke:none"
       id="path2091" />
    <path
       d="m 108.19361,403.97362 q 0.42933,-0.59733 1.08266,-0.93333 0.672,-0.35467 1.38134,-0.35467 0.69066,0 1.288,0.28 0.616,0.28 1.02666,0.76534 0.41067,0.48533 0.56,1.008 0.14934,0.504 0.14934,1.10133 v 6.36533 q 0,0.56 -0.112,0.98934 -0.0933,0.42933 -0.448,0.952 -0.336,0.52266 -0.98934,0.896 -0.63466,0.37333 -1.41866,0.37333 -0.448,0 -0.85867,-0.112 -0.41067,-0.13067 -0.76533,-0.336 -0.35467,-0.20533 -0.63467,-0.46667 -0.26133,-0.26133 -0.41067,-0.54133 -0.28,-0.57867 -0.336,-0.93333 -0.056,-0.35467 -0.056,-0.82134 v -6.36533 q 0,-0.56 0.112,-0.98933 0.13067,-0.448 0.42934,-0.87734 z m 3.472,0.98934 q -0.35467,-0.52267 -0.97067,-0.52267 -0.31733,0 -0.63467,0.18667 -0.29866,0.168 -0.42933,0.392 -0.112,0.224 -0.14933,0.448 -0.0373,0.224 -0.0373,0.37333 v 6.36533 q 0,0.0933 0,0.20534 0,0.0933 0.0187,0.20533 0.0187,0.18667 0.29867,0.616 0.28,0.392 0.93333,0.392 0.336,0 0.59733,-0.14933 0.28,-0.168 0.392,-0.37334 0.13067,-0.224 0.168,-0.41066 0.0373,-0.18667 0.0373,-0.48534 v -6.36533 q 0,-0.37333 -0.0373,-0.52267 -0.0187,-0.14933 -0.18666,-0.35466 z"
       style="font-style:normal;font-variant:normal;font-weight:normal;font-stretch:normal;line-height:0.92;font-family:'Roadgeek 2005 Engschrift';-inkscape-font-specification:'Roadgeek 2005 Engschrift';fill:#ffffff;stroke:none"
       id="path2093" />
    <path
       d="m 115.22701,415.30429 v -12.50667 h 3.136 q 1.232,0 2.072,0.85867 0.85867,0.85867 0.85867,2.10933 v 1.15734 q 0,1.736 -1.47467,2.65066 l 1.904,5.73067 h -1.904 l -1.68,-5.35733 h -1.12 v 5.35733 z m 3.976,-7.336 q 0.168,-0.20533 0.224,-0.46667 0.0747,-0.26133 0.0747,-0.57866 v -1.15734 q 0,-0.57866 -0.31733,-0.93333 -0.31734,-0.37333 -0.896,-0.37333 h -1.26934 v 3.90133 h 1.25067 q 0.56,0 0.93333,-0.392 z"
       style="font-style:normal;font-variant:normal;font-weight:normal;font-stretch:normal;line-height:0.92;font-family:'Roadgeek 2005 Engschrift';-inkscape-font-specification:'Roadgeek 2005 Engschrift';fill:#ffffff;stroke:none"
       id="path2095" />
    <path
       d="m 125.23727,402.79762 q 1.21333,0 2.072,0.85867 0.87733,0.84 0.87733,2.05333 v 6.496 q 0,1.38134 -0.84,2.24 -0.84,0.85867 -2.16533,0.85867 h -2.78134 v -12.50667 z m 1.176,9.408 v -6.496 q 0,-0.52266 -0.392,-0.87733 -0.37334,-0.35467 -0.91467,-0.35467 h -0.93333 v 9.16534 h 0.87733 q 1.36267,0 1.36267,-1.43734 z"
       style="font-style:normal;font-variant:normal;font-weight:normal;font-stretch:normal;line-height:0.92;font-family:'Roadgeek 2005 Engschrift';-inkscape-font-specification:'Roadgeek 2005 Engschrift';fill:#ffffff;stroke:none"
       id="path2097" />
    <path
       d="m 129.03127,415.30429 2.8,-12.50667 h 1.54933 l 2.8,12.50667 h -1.92267 l -0.504,-2.688 h -2.31466 l -0.52267,2.688 z m 2.72533,-4.34933 h 1.68 l -0.84,-4.55467 z"
       style="font-style:normal;font-variant:normal;font-weight:normal;font-stretch:normal;line-height:0.92;font-family:'Roadgeek 2005 Engschrift';-inkscape-font-specification:'Roadgeek 2005 Engschrift';fill:#ffffff;stroke:none"
       id="path2099" />
    <path
       d="m 140.04197,402.79762 q 0.57867,0 1.08267,0.24267 0.56,0.26133 1.13867,0.84 0.616,0.59733 0.616,1.86667 v 0.952 q 0,1.43733 -1.13867,2.016 1.13867,0.672 1.13867,2.09066 v 1.456 q 0,1.32534 -0.85867,2.184 -0.84,0.85867 -2.16533,0.85867 h -2.76267 v -12.50667 z m 1.064,3.71467 v -0.76533 q 0,-0.57867 -0.336,-0.91467 -0.336,-0.35467 -0.896,-0.35467 h -1.008 v 3.45334 h 1.064 q 0.616,0 0.896,-0.37334 0.28,-0.392 0.28,-1.04533 z m 0,5.74933 v -1.456 q 0,-0.59733 -0.336,-0.93333 -0.31733,-0.35467 -0.896,-0.35467 h -1.008 v 4.01334 h 1.02667 q 0.54133,0 0.87733,-0.35467 0.336,-0.37333 0.336,-0.91467 z"
       style="font-style:normal;font-variant:normal;font-weight:normal;font-stretch:normal;line-height:0.92;font-family:'Roadgeek 2005 Engschrift';-inkscape-font-specification:'Roadgeek 2005 Engschrift';fill:#ffffff;stroke:none"
       id="path2101" />
    <path
       d="m 149.6519,415.30429 h -5.33867 v -12.50667 h 1.792 v 10.71467 h 3.54667 z"
       style="font-style:normal;font-variant:normal;font-weight:normal;font-stretch:normal;line-height:0.92;font-family:'Roadgeek 2005 Engschrift';-inkscape-font-specification:'Roadgeek 2005 Engschrift';fill:#ffffff;stroke:none"
       id="path2103" />
    <path
       d="m 155.55535,413.51229 v 1.792 h -5.35733 v -12.50667 h 5.35733 v 1.64267 h -3.584 v 3.696 h 3.136 v 1.69867 h -3.136 v 3.67733 z"
       style="font-style:normal;font-variant:normal;font-weight:normal;font-stretch:normal;line-height:0.92;font-family:'Roadgeek 2005 Engschrift';-inkscape-font-specification:'Roadgeek 2005 Engschrift';fill:#ffffff;stroke:none"
       id="path2105" />
    <path
       d="m 157.49403,415.30429 2.8,-12.50667 h 1.54933 l 2.8,12.50667 h -1.92266 l -0.504,-2.688 h -2.31467 l -0.52267,2.688 z m 2.72533,-4.34933 h 1.68 l -0.84,-4.55467 z"
       style="font-style:normal;font-variant:normal;font-weight:normal;font-stretch:normal;line-height:0.92;font-family:'Roadgeek 2005 Engschrift';-inkscape-font-specification:'Roadgeek 2005 Engschrift';fill:#ffffff;stroke:none"
       id="path2107" />
    <path
       d="m 170.12874,415.30429 -2.78133,-7.59733 v 7.59733 h -1.792 v -12.50667 h 1.69866 l 2.76267,7.57867 v -7.57867 h 1.792 v 12.50667 z"
       style="font-style:normal;font-variant:normal;font-weight:normal;font-stretch:normal;line-height:0.92;font-family:'Roadgeek 2005 Engschrift';-inkscape-font-specification:'Roadgeek 2005 Engschrift';fill:#ffffff;stroke:none"
       id="path2109" />
    <path
       d="m 175.90597,402.79762 q 1.21333,0 2.072,0.85867 0.87733,0.84 0.87733,2.05333 v 6.496 q 0,1.38134 -0.84,2.24 -0.84,0.85867 -2.16533,0.85867 h -2.78133 v -12.50667 z m 1.176,9.408 v -6.496 q 0,-0.52266 -0.392,-0.87733 -0.37333,-0.35467 -0.91467,-0.35467 h -0.93333 v 9.16534 h 0.87733 q 1.36267,0 1.36267,-1.43734 z"
       style="font-style:normal;font-variant:normal;font-weight:normal;font-stretch:normal;line-height:0.92;font-family:'Roadgeek 2005 Engschrift';-inkscape-font-specification:'Roadgeek 2005 Engschrift';fill:#ffffff;stroke:none"
       id="path2111" />
    <path
       d="m 94.406708,429.3966 q 0,0.59733 -0.07467,1.02667 -0.056,0.42933 -0.373334,0.93333 -0.168,0.26133 -0.429333,0.504 -0.242667,0.224 -0.56,0.41067 -0.298667,0.168 -0.653333,0.28 -0.354667,0.112 -0.690667,0.112 -0.84,0 -1.530667,-0.35467 -0.672,-0.35467 -0.989333,-0.896 -0.317333,-0.54133 -0.410667,-1.008 -0.07467,-0.46667 -0.07467,-1.008 v -6.44 q 0,-0.52267 0.09333,-0.93333 0.112,-0.42934 0.448,-0.91467 0.336,-0.48533 0.952,-0.82133 0.616,-0.35467 1.288,-0.35467 1.288,0 2.146667,0.85867 0.858666,0.84 0.858666,2.16533 v 0.672 h -1.773333 v -0.672 q 0,-0.52267 -0.298667,-0.87733 -0.28,-0.35467 -0.84,-0.35467 -0.522666,0 -0.821333,0.35467 -0.28,0.35466 -0.28,0.87733 v 6.92533 q 0.03733,0.28 0.261333,0.63467 0.261334,0.37333 0.858667,0.37333 0.634667,0 0.84,-0.336 0.205333,-0.336 0.242667,-0.48533 0.03733,-0.168 0.03733,-0.448 v -0.63467 h 1.773333 z"
       style="font-style:normal;font-variant:normal;font-weight:normal;font-stretch:normal;line-height:0.92;font-family:'Roadgeek 2005 Engschrift';-inkscape-font-specification:'Roadgeek 2005 Engschrift';fill:#ffffff;stroke:none"
       id="path2113" />
    <path
       d="M 100.96318,432.55127 H 95.624509 V 420.0446 h 1.792 v 10.71467 h 3.546671 z"
       style="font-style:normal;font-variant:normal;font-weight:normal;font-stretch:normal;line-height:0.92;font-family:'Roadgeek 2005 Engschrift';-inkscape-font-specification:'Roadgeek 2005 Engschrift';fill:#ffffff;stroke:none"
       id="path2115" />
    <path
       d="m 106.75164,430.75927 v 1.792 h -5.35733 V 420.0446 h 5.35733 v 1.64267 h -3.584 v 3.696 h 3.136 v 1.69866 h -3.136 v 3.67734 z"
       style="font-style:normal;font-variant:normal;font-weight:normal;font-stretch:normal;line-height:0.92;font-family:'Roadgeek 2005 Engschrift';-inkscape-font-specification:'Roadgeek 2005 Engschrift';fill:#ffffff;stroke:none"
       id="path2117" />
    <path
       d="m 106.98238,432.55127 2.8,-12.50667 h 1.54933 l 2.8,12.50667 h -1.92266 l -0.504,-2.688 h -2.31467 l -0.52267,2.688 z m 2.72533,-4.34934 h 1.68 l -0.84,-4.55466 z"
       style="font-style:normal;font-variant:normal;font-weight:normal;font-stretch:normal;line-height:0.92;font-family:'Roadgeek 2005 Engschrift';-inkscape-font-specification:'Roadgeek 2005 Engschrift';fill:#ffffff;stroke:none"
       id="path2119" />
    <path
       d="m 119.61709,432.55127 -2.78134,-7.59734 v 7.59734 h -1.792 V 420.0446 h 1.69867 l 2.76267,7.57867 v -7.57867 h 1.792 v 12.50667 z"
       style="font-style:normal;font-variant:normal;font-weight:normal;font-stretch:normal;line-height:0.92;font-family:'Roadgeek 2005 Engschrift';-inkscape-font-specification:'Roadgeek 2005 Engschrift';fill:#ffffff;stroke:none"
       id="path2121" />
    <path
       d="m 129.73724,430.75927 v 1.792 h -5.35733 V 420.0446 h 5.35733 v 1.64267 h -3.584 v 3.696 h 3.136 v 1.69866 h -3.136 v 3.67734 z"
       style="font-style:normal;font-variant:normal;font-weight:normal;font-stretch:normal;line-height:0.92;font-family:'Roadgeek 2005 Engschrift';-inkscape-font-specification:'Roadgeek 2005 Engschrift';fill:#ffffff;stroke:none"
       id="path2123" />
    <path
       d="m 135.03338,432.55127 -2.78133,-7.59734 v 7.59734 h -1.792 V 420.0446 h 1.69867 l 2.76266,7.57867 v -7.57867 h 1.792 v 12.50667 z"
       style="font-style:normal;font-variant:normal;font-weight:normal;font-stretch:normal;line-height:0.92;font-family:'Roadgeek 2005 Engschrift';-inkscape-font-specification:'Roadgeek 2005 Engschrift';fill:#ffffff;stroke:none"
       id="path2125" />
    <path
       d="m 142.98566,430.75927 v 1.792 h -5.35733 V 420.0446 h 5.35733 v 1.64267 h -3.584 v 3.696 h 3.136 v 1.69866 h -3.136 v 3.67734 z"
       style="font-style:normal;font-variant:normal;font-weight:normal;font-stretch:normal;line-height:0.92;font-family:'Roadgeek 2005 Engschrift';-inkscape-font-specification:'Roadgeek 2005 Engschrift';fill:#ffffff;stroke:none"
       id="path2127" />
    <path
       d="M 143.91976,432.55127 V 420.0446 h 3.136 q 1.232,0 2.072,0.85867 0.85867,0.85866 0.85867,2.10933 v 1.15733 q 0,1.736 -1.47467,2.65067 l 1.904,5.73067 h -1.904 l -1.68,-5.35734 h -1.12 v 5.35734 z m 3.976,-7.336 q 0.168,-0.20534 0.224,-0.46667 0.0747,-0.26133 0.0747,-0.57867 v -1.15733 q 0,-0.57867 -0.31733,-0.93333 -0.31734,-0.37334 -0.896,-0.37334 h -1.26934 v 3.90134 h 1.25067 q 0.56,0 0.93333,-0.392 z"
       style="font-style:normal;font-variant:normal;font-weight:normal;font-stretch:normal;line-height:0.92;font-family:'Roadgeek 2005 Engschrift';-inkscape-font-specification:'Roadgeek 2005 Engschrift';fill:#ffffff;stroke:none"
       id="path2129" />
    <path
       d="m 156.65833,431.2446 q -0.42933,0.672 -1.10133,1.04533 -0.672,0.37334 -1.47467,0.37334 -0.70933,0 -1.38133,-0.336 -0.65333,-0.336 -1.02667,-0.82134 -0.35466,-0.504 -0.48533,-1.008 -0.112,-0.504 -0.112,-1.13866 v -6.25334 q 0,-0.46666 0.0933,-0.93333 0.13067,-0.46667 0.69067,-1.32533 0.57867,-0.91467 2.27733,-0.91467 0.74667,0 1.4,0.35467 0.65334,0.35466 0.98934,0.87733 0.35466,0.504 0.448,0.97067 0.112,0.448 0.112,0.97066 v 0.52267 h -1.77334 v -0.52267 q 0,-0.14933 -0.0187,-0.26133 0,-0.13067 -0.0187,-0.224 -0.0187,-0.168 -0.28,-0.54133 -0.26133,-0.37334 -0.87733,-0.37334 -0.728,0 -0.97067,0.392 -0.224,0.392 -0.26133,0.57867 -0.0373,0.18667 -0.0373,0.42933 v 6.25334 q 0,0.18666 0,0.31733 0,0.13067 0.0187,0.224 0.0187,0.14933 0.28,0.57867 0.24267,0.392 0.952,0.392 0.728,0 0.93333,-0.392 0.112,-0.20534 0.168,-0.336 0.056,-0.14934 0.0747,-0.26134 0.0373,-0.112 0.0373,-0.224 0,-0.13066 0,-0.29866 v -2.184 h -1.4373 v -1.568 h 3.21067 v 3.752 q 0,0.392 -0.0187,0.672 -0.0187,0.26133 -0.0747,0.46666 -0.056,0.20534 -0.14933,0.392 -0.0747,0.168 -0.18667,0.35467 z"
       style="font-style:normal;font-variant:normal;font-weight:normal;font-stretch:normal;line-height:0.92;font-family:'Roadgeek 2005 Engschrift';-inkscape-font-specification:'Roadgeek 2005 Engschrift';fill:#ffffff;stroke:none"
       id="path2131" />
    <path
       d="m 159.78532,432.55127 v -5.376 l -2.42667,-7.13067 h 1.86667 l 1.456,4.89067 1.47467,-4.89067 h 1.88533 l -2.48267,7.13067 v 5.376 z"
       style="font-style:normal;font-variant:normal;font-weight:normal;font-stretch:normal;line-height:0.92;font-family:'Roadgeek 2005 Engschrift';-inkscape-font-specification:'Roadgeek 2005 Engschrift';fill:#ffffff;stroke:none"
       id="path2133" />
  </g>
  <g
     aria-label="7"
     style="font-style:normal;font-variant:normal;font-weight:normal;font-stretch:normal;font-size:13.3333px;line-height:1.25;font-family:'Liberation Serif';-inkscape-font-specification:'Liberation Serif';letter-spacing:0px;word-spacing:0px;fill:#ffffff;fill-opacity:1;stroke:none"
     id="text6075-0-6-9-2-5-9"
     transform="translate(-45.918877,-389.72833)">
    <path
       d="m 64.977688,409.55924 h -3.796667 v -7.504 h 12.774667 v 3.886 l -6.968,26.04066 h -4.556 l 7.280667,-25.95133 h -4.734667 z"
       style="font-style:normal;font-variant:normal;font-weight:normal;font-stretch:normal;font-size:44.6667px;font-family:'Roadgeek 2005 Engschrift';-inkscape-font-specification:'Roadgeek 2005 Engschrift';fill:#ffffff;stroke:none"
       id="path2136" />
  </g>
  <path
     id="rect7141-6-0-9-8-6-8-6-9-7"
     style="opacity:1;fill:#ffffff;fill-opacity:1;fill-rule:evenodd;stroke:none;stroke-width:0.1;stroke-linecap:round;stroke-linejoin:round;stroke-miterlimit:4;stroke-dasharray:none;stroke-dashoffset:0;stroke-opacity:1"
     d="m 44.281777,73.658667 8.036292,4.63976 c 0.916255,0.529 1.228017,1.69251 0.699017,2.60877 -0.529,0.91625 -1.692507,1.228 -2.608762,0.699 l -8.036292,-4.63975 c -0.916255,-0.529 -1.228022,-1.6925 -0.699022,-2.60876 0.529,-0.91625 1.692512,-1.22802 2.608767,-0.69902 z m 13.965346,-12.46126 4.63976,8.03629 c 0.529,0.91626 0.21723,2.07977 -0.69902,2.60877 -0.91626,0.529 -2.07977,0.21724 -2.60877,-0.69901 l -4.63976,-8.0363 c -0.52899,-0.91625 -0.21723,-2.07976 0.69902,-2.60876 0.91626,-0.529 2.07977,-0.21724 2.60877,0.69901 z m 18.32499,-3.80908 v 9.27951 c 0,1.058 -0.85175,1.90974 -1.90975,1.90974 -1.058,0 -1.90975,-0.85174 -1.90975,-1.90974 v -9.27951 c 0,-1.05799 0.85175,-1.90975 1.90975,-1.90975 1.058,0 1.90975,0.85175 1.90975,1.90975 z m 17.77444,5.86373 -4.63976,8.03629 c -0.529,0.91626 -1.6925,1.22802 -2.60875,0.69902 -0.91626,-0.529 -1.22802,-1.69251 -0.69902,-2.60876 l 4.63975,-8.0363 c 0.529,-0.91625 1.69252,-1.22801 2.60877,-0.69901 0.91626,0.529 1.22801,1.6925 0.69901,2.60876 z m 12.461257,13.96534 -8.036287,4.63975 c -0.91626,0.529 -2.07975,0.21725 -2.60875,-0.69901 -0.529,-0.91625 -0.21725,-2.07976 0.69901,-2.60876 l 8.036277,-4.63976 c 0.91626,-0.529 2.07977,-0.21723 2.60877,0.69902 0.52901,0.91626 0.21724,2.07976 -0.69902,2.60876 z m 3.8091,18.32499 h -9.27951 c -1.058,0 -1.909737,-0.85175 -1.909737,-1.90975 0,-1.058 0.851737,-1.90974 1.909727,-1.90974 h 9.27952 c 1.058,0 1.90975,0.85174 1.90975,1.90974 0,1.058 -0.85175,1.90976 -1.90975,1.90975 z m -5.86371,17.774463 -8.036297,-4.63976 c -0.91626,-0.529 -1.22801,-1.69249 -0.69901,-2.60875 0.529,-0.91625 1.6925,-1.22802 2.60875,-0.69902 l 8.036297,4.63976 c 0.91626,0.529 1.22801,1.69251 0.69901,2.60876 -0.529,0.91626 -1.6925,1.22801 -2.60875,0.69901 z m -13.965357,12.46125 -4.63975,-8.03629 c -0.529,-0.91625 -0.21725,-2.07976 0.69901,-2.60876 0.91625,-0.529 2.07977,-0.21724 2.60877,0.69901 l 4.63975,8.0363 c 0.529,0.91625 0.21723,2.07976 -0.69902,2.60876 -0.91626,0.529 -2.07975,0.21724 -2.60876,-0.69902 z m -18.32498,3.8091 v -9.27951 c -1e-5,-1.058 0.85174,-1.90974 1.90974,-1.90974 1.058,0 1.90975,0.85174 1.90975,1.90974 l -1e-5,9.27951 c 1e-5,1.058 -0.85174,1.90975 -1.90974,1.90975 -1.058,0 -1.90974,-0.85175 -1.90974,-1.90975 z m -17.77447,-5.8637 4.63976,-8.03629 c 0.529,-0.91626 1.69251,-1.22802 2.60877,-0.69902 0.91625,0.529 1.228,1.69251 0.699,2.60876 l -4.63975,8.03629 c -0.529,0.91626 -1.6925,1.22802 -2.60875,0.69902 -0.91626,-0.529 -1.22803,-1.69251 -0.69903,-2.60876 z m -12.461259,-13.96538 8.036286,-4.63976 c 0.916258,-0.529 2.079775,-0.21723 2.608771,0.69902 0.529005,0.91626 0.217242,2.07977 -0.699016,2.60877 l -8.036295,4.63975 c -0.916252,0.529 -2.079753,0.21724 -2.608757,-0.69902 -0.528996,-0.91625 -0.217242,-2.07976 0.699011,-2.60876 z m -3.809088,-18.324993 9.279515,1e-5 c 1.057996,0 1.909745,0.85175 1.909742,1.90975 3e-6,1.058 -0.851739,1.90974 -1.909744,1.90974 h -9.279511 c -1.058004,0 -1.909745,-0.85174 -1.909747,-1.90974 2e-6,-1.058 0.851749,-1.90975 1.909745,-1.90976 z m 36.098627,-19.85287 a 21.907629,21.907629 0 0 0 -21.906259,21.90821 21.907629,21.907629 0 0 0 21.906259,21.906253 21.907629,21.907629 0 0 0 21.9082,-21.906253 21.907629,21.907629 0 0 0 -21.9082,-21.90821 z m -0.082,7.44336 c 0.71589,0 1.29101,0.57707 1.29101,1.29297 v 7.38281 c 0,0.71591 -0.57512,1.29297 -1.29101,1.29297 -0.7159,0 -1.29297,-0.57706 -1.29297,-1.29297 v -7.38281 c 0,-0.7159 0.57707,-1.29297 1.29297,-1.29297 z m -3.3711,3.78711 v 3.82032 a 7.6784024,7.6784024 0 0 0 -4.22461,6.85742 7.6784024,7.6784024 0 0 0 7.67774,7.677733 7.6784024,7.6784024 0 0 0 7.67968,-7.677733 7.6784024,7.6784024 0 0 0 -4.18554,-6.83008 l -10e-6,-3.82617 a 11.226926,11.226926 0 0 1 7.73438,10.65625 11.226926,11.226926 0 0 1 -11.22851,11.226573 11.226926,11.226926 0 0 1 -11.22657,-11.226573 11.226926,11.226926 0 0 1 7.77344,-10.67774 z" />
</svg>
