<?xml version="1.0" encoding="UTF-8" standalone="no"?>
<!-- Created with Inkscape (http://www.inkscape.org/) -->

<svg
   version="1.1"
   id="svg2"
   width="148.09277"
   height="148.33459"
   viewBox="0 0 148.09277 148.33459"
   sodipodi:docname="Sustainable_Development_Goals.svg"
   inkscape:version="0.92.3 (2405546, 2018-03-11)"
   inkscape:export-filename="sdg_1.svg"
   inkscape:export-xdpi="96"
   inkscape:export-ydpi="96"
   xmlns:inkscape="http://www.inkscape.org/namespaces/inkscape"
   xmlns:sodipodi="http://sodipodi.sourceforge.net/DTD/sodipodi-0.dtd"
   xmlns="http://www.w3.org/2000/svg"
   xmlns:svg="http://www.w3.org/2000/svg"
   xmlns:rdf="http://www.w3.org/1999/02/22-rdf-syntax-ns#"
   xmlns:cc="http://creativecommons.org/ns#"
   xmlns:dc="http://purl.org/dc/elements/1.1/">
  <metadata
     id="metadata8">
    <rdf:RDF>
      <cc:Work
         rdf:about="">
        <dc:format>image/svg+xml</dc:format>
        <dc:type
           rdf:resource="http://purl.org/dc/dcmitype/StillImage" />
        <dc:title />
      </cc:Work>
    </rdf:RDF>
  </metadata>
  <defs
     id="defs6" />
  <sodipodi:namedview
     pagecolor="#ffffff"
     bordercolor="#666666"
     borderopacity="1"
     objecttolerance="10"
     gridtolerance="10"
     guidetolerance="10"
     inkscape:pageopacity="0"
     inkscape:pageshadow="2"
     inkscape:window-width="1920"
     inkscape:window-height="1061"
     id="namedview4"
     showgrid="false"
     inkscape:zoom="1.0772059"
     inkscape:cx="528"
     inkscape:cy="408"
     inkscape:window-x="1920"
     inkscape:window-y="0"
     inkscape:window-maximized="1"
     inkscape:current-layer="svg2"
     showguides="true"
     inkscape:guide-bbox="true"
     inkscape:snap-global="true"
     inkscape:snap-center="true"
     inkscape:snap-object-midpoints="true"
     inkscape:snap-bbox="true"
     inkscape:snap-bbox-midpoints="true"
     inkscape:showpageshadow="2"
     inkscape:pagecheckerboard="0"
     inkscape:deskcolor="#d1d1d1" />
  <path
     style="opacity:1;fill:#02558b;fill-opacity:1;fill-rule:evenodd;stroke:none;stroke-width:4;stroke-linecap:round;stroke-linejoin:round;stroke-miterlimit:4;stroke-dasharray:none;stroke-dashoffset:0;stroke-opacity:1"
     d="M 0.82675729,3.0078126e-6 H 147.26601 c 0.45802,0 0.82675,0.3687300021874 0.82675,0.8267500021874 V 147.50782 c 0,0.45802 -0.36873,0.82676 -0.82675,0.82676 H 0.82675729 c -0.45803,0 -0.8267600048437,-0.36874 -0.8267600048437,-0.82676 V 0.82675301 C -2.7148437e-6,0.36873301 0.36872729,3.0078126e-6 0.82675729,3.0078126e-6 Z"
     id="rect8528-63-2-4-3-6-0-4-3-6-3-7-4-9" />
  <style
     id="style970"
     type="text/css">
	.st0{fill:#418FDE;}
</style>
  <g
     aria-label="PEACE, JUSTICE AND STRONG INSTITUTIONS"
     style="font-style:normal;font-variant:normal;font-weight:normal;font-stretch:normal;font-size:18.6667px;line-height:0.92;font-family:'Roadgeek 2005 Series B';-inkscape-font-specification:'Roadgeek 2005 Series B';letter-spacing:0px;word-spacing:0px;fill:#ffffff;fill-opacity:1;stroke:none"
     id="text6065-3-2-9-6-6-5-5-2-9-7"
     transform="translate(-537.83978,-550.03992)">
    <path
       d="m 584.79977,575.58014 v -12.50667 h 2.93066 0.0373 q 0.56,0 1.064,0.24267 0.504,0.224 0.896,0.59733 0.392,0.37334 0.616,0.85867 0.24266,0.46667 0.26133,0.97067 v 1.81066 0.18667 q 0,0.616 -0.24267,1.15733 -0.224,0.52267 -0.616,0.91467 -0.392,0.392 -0.93333,0.616 -0.52267,0.224 -1.12,0.224 h -0.168 -0.93333 v 4.928 z m 3.78933,-6.98133 q 0.168,-0.168 0.20533,-0.35467 0.056,-0.18667 0.056,-0.46667 v -1.848 q 0,-0.52266 -0.31733,-0.85866 -0.31733,-0.35467 -0.85867,-0.35467 h -1.08266 v 4.23733 h 0.93333 q 0.37333,0 0.59733,-0.056 0.24267,-0.0747 0.46667,-0.29866 z"
       style="font-style:normal;font-variant:normal;font-weight:normal;font-stretch:normal;line-height:0.92;font-family:'Roadgeek 2005 Engschrift';-inkscape-font-specification:'Roadgeek 2005 Engschrift';fill:#ffffff;stroke:none"
       id="path2554" />
    <path
       d="m 597.23002,573.78814 v 1.792 h -5.35734 v -12.50667 h 5.35734 v 1.64267 h -3.584 v 3.696 h 3.136 v 1.69867 h -3.136 v 3.67733 z"
       style="font-style:normal;font-variant:normal;font-weight:normal;font-stretch:normal;line-height:0.92;font-family:'Roadgeek 2005 Engschrift';-inkscape-font-specification:'Roadgeek 2005 Engschrift';fill:#ffffff;stroke:none"
       id="path2556" />
    <path
       d="m 597.74148,575.58014 2.8,-12.50667 h 1.54933 l 2.8,12.50667 h -1.92267 l -0.504,-2.688 h -2.31466 l -0.52267,2.688 z m 2.72533,-4.34933 h 1.68 l -0.84,-4.55467 z"
       style="font-style:normal;font-variant:normal;font-weight:normal;font-stretch:normal;line-height:0.92;font-family:'Roadgeek 2005 Engschrift';-inkscape-font-specification:'Roadgeek 2005 Engschrift';fill:#ffffff;stroke:none"
       id="path2558" />
    <path
       d="m 611.38791,572.42547 q 0,0.59734 -0.0747,1.02667 -0.056,0.42933 -0.37333,0.93333 -0.168,0.26134 -0.42933,0.504 -0.24267,0.224 -0.56,0.41067 -0.29867,0.168 -0.65333,0.28 -0.35467,0.112 -0.69067,0.112 -0.84,0 -1.53067,-0.35467 -0.672,-0.35466 -0.98933,-0.896 -0.31733,-0.54133 -0.41067,-1.008 -0.0747,-0.46666 -0.0747,-1.008 v -6.44 q 0,-0.52266 0.0933,-0.93333 0.112,-0.42933 0.448,-0.91467 0.336,-0.48533 0.952,-0.82133 0.616,-0.35467 1.288,-0.35467 1.288,0 2.14666,0.85867 0.85867,0.84 0.85867,2.16533 v 0.672 h -1.77333 v -0.672 q 0,-0.52266 -0.29867,-0.87733 -0.28,-0.35467 -0.84,-0.35467 -0.52266,0 -0.82133,0.35467 -0.28,0.35467 -0.28,0.87733 v 6.92534 q 0.0373,0.28 0.26133,0.63466 0.26134,0.37334 0.85867,0.37334 0.63467,0 0.84,-0.336 0.20533,-0.336 0.24267,-0.48534 0.0373,-0.168 0.0373,-0.448 v -0.63466 h 1.77333 z"
       style="font-style:normal;font-variant:normal;font-weight:normal;font-stretch:normal;line-height:0.92;font-family:'Roadgeek 2005 Engschrift';-inkscape-font-specification:'Roadgeek 2005 Engschrift';fill:#ffffff;stroke:none"
       id="path2560" />
    <path
       d="m 618.02051,573.78814 v 1.792 h -5.35733 v -12.50667 h 5.35733 v 1.64267 h -3.584 v 3.696 h 3.136 v 1.69867 h -3.136 v 3.67733 z"
       style="font-style:normal;font-variant:normal;font-weight:normal;font-stretch:normal;line-height:0.92;font-family:'Roadgeek 2005 Engschrift';-inkscape-font-specification:'Roadgeek 2005 Engschrift';fill:#ffffff;stroke:none"
       id="path2562" />
    <path
       d="m 618.89034,576.90547 v -3.09866 h 1.792 v 1.77333 z"
       style="font-style:normal;font-variant:normal;font-weight:normal;font-stretch:normal;line-height:0.92;font-family:'Roadgeek 2005 Engschrift';-inkscape-font-specification:'Roadgeek 2005 Engschrift';fill:#ffffff;stroke:none"
       id="path2564" />
    <path
       d="m 628.85719,574.32947 q -0.41066,0.616 -1.064,0.98934 -0.65333,0.37333 -1.38133,0.37333 -0.70933,0 -1.344,-0.29867 -0.616,-0.31733 -1.10133,-0.85866 l 1.38133,-1.12 q 0.448,0.46666 1.02667,0.46666 0.784,0 0.97066,-0.41066 0.20534,-0.42934 0.224,-0.59734 0.0187,-0.168 0.0187,-0.392 v -9.408 h 1.75467 v 9.24 q 0,0.87734 -0.112,1.232 -0.0747,0.336 -0.37334,0.784 z"
       style="font-style:normal;font-variant:normal;font-weight:normal;font-stretch:normal;line-height:0.92;font-family:'Roadgeek 2005 Engschrift';-inkscape-font-specification:'Roadgeek 2005 Engschrift';fill:#ffffff;stroke:none"
       id="path2566" />
    <path
       d="m 636.38965,574.27347 q -0.41067,0.63467 -1.064,1.02667 -0.63467,0.392 -1.41867,0.392 -0.392,0 -0.784,-0.112 -0.37333,-0.112 -0.70933,-0.28 -0.336,-0.18667 -0.59733,-0.41067 -0.26134,-0.24266 -0.392,-0.504 -0.28,-0.52266 -0.37334,-0.91466 -0.0747,-0.392 -0.0747,-0.84 v -9.55734 h 1.792 v 9.55734 q 0,0.13066 0,0.24266 0.0187,0.0933 0.0373,0.18667 0.0187,0.14933 0.28,0.52267 0.24267,0.336 0.84,0.336 0.54133,0 0.80267,-0.392 0.28,-0.41067 0.28,-0.896 v -9.55734 h 1.792 v 9.55734 q 0,0.448 -0.0933,0.85866 -0.0933,0.41067 -0.31733,0.784 z"
       style="font-style:normal;font-variant:normal;font-weight:normal;font-stretch:normal;line-height:0.92;font-family:'Roadgeek 2005 Engschrift';-inkscape-font-specification:'Roadgeek 2005 Engschrift';fill:#ffffff;stroke:none"
       id="path2568" />
    <path
       d="m 639.762,572.46281 q 0,0.18666 0,0.31733 0,0.13067 0.0187,0.224 0.0373,0.18667 0.28,0.54133 0.26133,0.37334 0.93333,0.37334 0.37334,0 0.69067,-0.14934 0.31733,-0.168 0.46667,-0.42933 0.112,-0.20533 0.13066,-0.392 0.0373,-0.18667 0.0373,-0.336 v -0.168 -0.87733 -0.168 q 0,-0.41067 -0.14934,-0.63467 -0.14933,-0.24267 -0.672,-0.54133 -0.35466,-0.18667 -1.26933,-0.52267 -0.91467,-0.336 -1.53067,-1.064 -0.616,-0.728 -0.616,-1.97867 v -0.56 q 0,-1.288 0.85867,-2.20266 0.87733,-0.93334 2.128,-0.93334 1.30667,0 2.16533,0.91467 0.87734,0.91467 0.87734,2.22133 v 0.56 h -1.792 v -0.56 q 0,-0.13066 -0.0187,-0.24266 0,-0.112 -0.0187,-0.20534 -0.0187,-0.0933 -0.0933,-0.224 -0.0747,-0.13066 -0.20533,-0.31733 -0.26134,-0.37333 -0.87734,-0.37333 -0.54133,0 -0.896,0.392 -0.336,0.392 -0.336,0.97066 v 0.56 0.168 q 0,0.37334 0.112,0.59734 0.13067,0.20533 0.59734,0.46666 0.14933,0.0747 0.448,0.20534 0.31733,0.112 0.76533,0.28 0.896,0.29866 1.60533,1.064 0.70934,0.76533 0.70934,2.016 v 1.008 q 0,0.65333 -0.13067,1.10133 -0.112,0.448 -0.76533,1.30667 -0.65334,0.82133 -2.184,0.82133 -1.624,0 -2.352,-1.04533 -0.728,-1.064 -0.728,-2.184 v -0.448 h 1.81066 z"
       style="font-style:normal;font-variant:normal;font-weight:normal;font-stretch:normal;line-height:0.92;font-family:'Roadgeek 2005 Engschrift';-inkscape-font-specification:'Roadgeek 2005 Engschrift';fill:#ffffff;stroke:none"
       id="path2570" />
    <path
       d="m 646.41237,575.58014 v -10.84533 h -2.10933 v -1.66134 h 6.02933 v 1.66134 h -2.14667 v 10.84533 z"
       style="font-style:normal;font-variant:normal;font-weight:normal;font-stretch:normal;line-height:0.92;font-family:'Roadgeek 2005 Engschrift';-inkscape-font-specification:'Roadgeek 2005 Engschrift';fill:#ffffff;stroke:none"
       id="path2572" />
    <path
       d="m 651.30519,575.58014 v -12.50667 h 1.77333 v 12.50667 z"
       style="font-style:normal;font-variant:normal;font-weight:normal;font-stretch:normal;line-height:0.92;font-family:'Roadgeek 2005 Engschrift';-inkscape-font-specification:'Roadgeek 2005 Engschrift';fill:#ffffff;stroke:none"
       id="path2574" />
    <path
       d="m 660.34018,572.42547 q 0,0.59734 -0.0747,1.02667 -0.056,0.42933 -0.37333,0.93333 -0.168,0.26134 -0.42933,0.504 -0.24267,0.224 -0.56,0.41067 -0.29867,0.168 -0.65334,0.28 -0.35466,0.112 -0.69066,0.112 -0.84,0 -1.53067,-0.35467 -0.672,-0.35466 -0.98933,-0.896 -0.31734,-0.54133 -0.41067,-1.008 -0.0747,-0.46666 -0.0747,-1.008 v -6.44 q 0,-0.52266 0.0933,-0.93333 0.112,-0.42933 0.448,-0.91467 0.336,-0.48533 0.952,-0.82133 0.616,-0.35467 1.288,-0.35467 1.288,0 2.14666,0.85867 0.85867,0.84 0.85867,2.16533 v 0.672 h -1.77333 v -0.672 q 0,-0.52266 -0.29867,-0.87733 -0.28,-0.35467 -0.84,-0.35467 -0.52267,0 -0.82133,0.35467 -0.28,0.35467 -0.28,0.87733 v 6.92534 q 0.0373,0.28 0.26133,0.63466 0.26133,0.37334 0.85867,0.37334 0.63466,0 0.84,-0.336 0.20533,-0.336 0.24266,-0.48534 0.0373,-0.168 0.0373,-0.448 v -0.63466 h 1.77333 z"
       style="font-style:normal;font-variant:normal;font-weight:normal;font-stretch:normal;line-height:0.92;font-family:'Roadgeek 2005 Engschrift';-inkscape-font-specification:'Roadgeek 2005 Engschrift';fill:#ffffff;stroke:none"
       id="path2576" />
    <path
       d="m 667.06239,573.78814 v 1.792 h -5.35733 v -12.50667 h 5.35733 v 1.64267 h -3.584 v 3.696 h 3.136 v 1.69867 h -3.136 v 3.67733 z"
       style="font-style:normal;font-variant:normal;font-weight:normal;font-stretch:normal;line-height:0.92;font-family:'Roadgeek 2005 Engschrift';-inkscape-font-specification:'Roadgeek 2005 Engschrift';fill:#ffffff;stroke:none"
       id="path2578" />
    <path
       d="m 584.20619,592.82712 2.8,-12.50667 h 1.54933 l 2.8,12.50667 h -1.92267 l -0.504,-2.688 h -2.31466 l -0.52267,2.688 z m 2.72533,-4.34934 h 1.68 l -0.84,-4.55466 z"
       style="font-style:normal;font-variant:normal;font-weight:normal;font-stretch:normal;line-height:0.92;font-family:'Roadgeek 2005 Engschrift';-inkscape-font-specification:'Roadgeek 2005 Engschrift';fill:#ffffff;stroke:none"
       id="path2580" />
    <path
       d="m 596.84089,592.82712 -2.78133,-7.59734 v 7.59734 h -1.792 v -12.50667 h 1.69867 l 2.76266,7.57867 v -7.57867 h 1.792 v 12.50667 z"
       style="font-style:normal;font-variant:normal;font-weight:normal;font-stretch:normal;line-height:0.92;font-family:'Roadgeek 2005 Engschrift';-inkscape-font-specification:'Roadgeek 2005 Engschrift';fill:#ffffff;stroke:none"
       id="path2582" />
    <path
       d="m 602.68079,580.32045 q 1.21333,0 2.072,0.85867 0.87733,0.84 0.87733,2.05333 v 6.496 q 0,1.38133 -0.84,2.24 -0.84,0.85867 -2.16533,0.85867 h -2.78134 v -12.50667 z m 1.176,9.408 v -6.496 q 0,-0.52267 -0.392,-0.87733 -0.37334,-0.35467 -0.91467,-0.35467 h -0.93333 v 9.16533 h 0.87733 q 1.36267,0 1.36267,-1.43733 z"
       style="font-style:normal;font-variant:normal;font-weight:normal;font-stretch:normal;line-height:0.92;font-family:'Roadgeek 2005 Engschrift';-inkscape-font-specification:'Roadgeek 2005 Engschrift';fill:#ffffff;stroke:none"
       id="path2584" />
    <path
       d="m 610.54655,589.70978 q 0,0.18667 0,0.31734 0,0.13066 0.0187,0.224 0.0373,0.18666 0.28,0.54133 0.26133,0.37333 0.93333,0.37333 0.37333,0 0.69067,-0.14933 0.31733,-0.168 0.46666,-0.42933 0.112,-0.20534 0.13067,-0.392 0.0373,-0.18667 0.0373,-0.336 v -0.168 -0.87734 -0.168 q 0,-0.41066 -0.14933,-0.63466 -0.14933,-0.24267 -0.672,-0.54134 -0.35467,-0.18666 -1.26933,-0.52266 -0.91467,-0.336 -1.53067,-1.064 -0.616,-0.728 -0.616,-1.97867 v -0.56 q 0,-1.288 0.85867,-2.20267 0.87733,-0.93333 2.128,-0.93333 1.30666,0 2.16533,0.91467 0.87733,0.91466 0.87733,2.22133 v 0.56 h -1.792 v -0.56 q 0,-0.13067 -0.0187,-0.24267 0,-0.112 -0.0187,-0.20533 -0.0187,-0.0933 -0.0933,-0.224 -0.0747,-0.13067 -0.20534,-0.31733 -0.26133,-0.37334 -0.87733,-0.37334 -0.54133,0 -0.896,0.392 -0.336,0.392 -0.336,0.97067 v 0.56 0.168 q 0,0.37333 0.112,0.59733 0.13067,0.20534 0.59733,0.46667 0.14934,0.0747 0.448,0.20533 0.31734,0.112 0.76534,0.28 0.896,0.29867 1.60533,1.064 0.70933,0.76534 0.70933,2.016 v 1.008 q 0,0.65334 -0.13066,1.10134 -0.112,0.448 -0.76534,1.30666 -0.65333,0.82134 -2.184,0.82134 -1.624,0 -2.352,-1.04534 -0.728,-1.064 -0.728,-2.184 v -0.448 h 1.81067 z"
       style="font-style:normal;font-variant:normal;font-weight:normal;font-stretch:normal;line-height:0.92;font-family:'Roadgeek 2005 Engschrift';-inkscape-font-specification:'Roadgeek 2005 Engschrift';fill:#ffffff;stroke:none"
       id="path2586" />
    <path
       d="m 617.46573,592.82712 v -10.84534 h -2.10933 v -1.66133 h 6.02933 v 1.66133 h -2.14666 v 10.84534 z"
       style="font-style:normal;font-variant:normal;font-weight:normal;font-stretch:normal;line-height:0.92;font-family:'Roadgeek 2005 Engschrift';-inkscape-font-specification:'Roadgeek 2005 Engschrift';fill:#ffffff;stroke:none"
       id="path2588" />
    <path
       d="m 622.16067,592.82712 v -12.50667 h 3.136 q 1.232,0 2.072,0.85867 0.85866,0.85866 0.85866,2.10933 v 1.15733 q 0,1.736 -1.47466,2.65067 l 1.904,5.73067 h -1.904 l -1.68,-5.35734 h -1.12 v 5.35734 z m 3.976,-7.336 q 0.168,-0.20534 0.224,-0.46667 0.0747,-0.26133 0.0747,-0.57867 v -1.15733 q 0,-0.57867 -0.31733,-0.93333 -0.31733,-0.37334 -0.896,-0.37334 h -1.26933 v 3.90134 h 1.25066 q 0.56,0 0.93334,-0.392 z"
       style="font-style:normal;font-variant:normal;font-weight:normal;font-stretch:normal;line-height:0.92;font-family:'Roadgeek 2005 Engschrift';-inkscape-font-specification:'Roadgeek 2005 Engschrift';fill:#ffffff;stroke:none"
       id="path2590" />
    <path
       d="m 629.78154,581.49645 q 0.42933,-0.59733 1.08267,-0.93333 0.672,-0.35467 1.38133,-0.35467 0.69067,0 1.288,0.28 0.616,0.28 1.02667,0.76533 0.41066,0.48534 0.56,1.008 0.14933,0.504 0.14933,1.10134 v 6.36533 q 0,0.56 -0.112,0.98933 -0.0933,0.42934 -0.448,0.952 -0.336,0.52267 -0.98933,0.896 -0.63467,0.37334 -1.41867,0.37334 -0.448,0 -0.85867,-0.112 -0.41066,-0.13067 -0.76533,-0.336 -0.35467,-0.20534 -0.63467,-0.46667 -0.26133,-0.26133 -0.41066,-0.54133 -0.28,-0.57867 -0.336,-0.93334 -0.056,-0.35466 -0.056,-0.82133 v -6.36533 q 0,-0.56 0.112,-0.98934 0.13066,-0.448 0.42933,-0.87733 z m 3.472,0.98933 q -0.35467,-0.52266 -0.97067,-0.52266 -0.31733,0 -0.63466,0.18666 -0.29867,0.168 -0.42934,0.392 -0.112,0.224 -0.14933,0.448 -0.0373,0.224 -0.0373,0.37334 v 6.36533 q 0,0.0933 0,0.20533 0,0.0933 0.0187,0.20534 0.0187,0.18666 0.29867,0.616 0.28,0.392 0.93333,0.392 0.336,0 0.59734,-0.14934 0.28,-0.168 0.392,-0.37333 0.13066,-0.224 0.168,-0.41067 0.0373,-0.18666 0.0373,-0.48533 v -6.36533 q 0,-0.37334 -0.0373,-0.52267 -0.0187,-0.14933 -0.18667,-0.35467 z"
       style="font-style:normal;font-variant:normal;font-weight:normal;font-stretch:normal;line-height:0.92;font-family:'Roadgeek 2005 Engschrift';-inkscape-font-specification:'Roadgeek 2005 Engschrift';fill:#ffffff;stroke:none"
       id="path2592" />
    <path
       d="m 641.3681,592.82712 -2.78133,-7.59734 v 7.59734 h -1.792 v -12.50667 h 1.69866 l 2.76267,7.57867 v -7.57867 h 1.792 v 12.50667 z"
       style="font-style:normal;font-variant:normal;font-weight:normal;font-stretch:normal;line-height:0.92;font-family:'Roadgeek 2005 Engschrift';-inkscape-font-specification:'Roadgeek 2005 Engschrift';fill:#ffffff;stroke:none"
       id="path2594" />
    <path
       d="m 649.73172,591.52045 q -0.42933,0.672 -1.10133,1.04533 -0.672,0.37334 -1.47467,0.37334 -0.70933,0 -1.38133,-0.336 -0.65334,-0.336 -1.02667,-0.82134 -0.35467,-0.504 -0.48533,-1.008 -0.112,-0.504 -0.112,-1.13866 v -6.25334 q 0,-0.46666 0.0933,-0.93333 0.13067,-0.46667 0.69067,-1.32533 0.57866,-0.91467 2.27733,-0.91467 0.74667,0 1.4,0.35467 0.65333,0.35466 0.98933,0.87733 0.35467,0.504 0.448,0.97067 0.112,0.448 0.112,0.97066 v 0.52267 h -1.77333 v -0.52267 q 0,-0.14933 -0.0187,-0.26133 0,-0.13067 -0.0187,-0.224 -0.0187,-0.168 -0.28,-0.54133 -0.26134,-0.37334 -0.87734,-0.37334 -0.728,0 -0.97066,0.392 -0.224,0.392 -0.26134,0.57867 -0.0373,0.18667 -0.0373,0.42933 v 6.25334 q 0,0.18666 0,0.31733 0,0.13067 0.0187,0.224 0.0187,0.14933 0.28,0.57867 0.24266,0.392 0.952,0.392 0.728,0 0.93333,-0.392 0.112,-0.20534 0.168,-0.336 0.056,-0.14934 0.0747,-0.26134 0.0373,-0.112 0.0373,-0.224 0,-0.13066 0,-0.29866 v -2.184 h -1.43733 v -1.568 h 3.21066 v 3.752 q 0,0.392 -0.0187,0.672 -0.0187,0.26133 -0.0747,0.46666 -0.056,0.20534 -0.14933,0.392 -0.0747,0.168 -0.18667,0.35467 z"
       style="font-style:normal;font-variant:normal;font-weight:normal;font-stretch:normal;line-height:0.92;font-family:'Roadgeek 2005 Engschrift';-inkscape-font-specification:'Roadgeek 2005 Engschrift';fill:#ffffff;stroke:none"
       id="path2596" />
    <path
       d="m 584.79977,610.07409 v -12.50666 h 1.77333 v 12.50666 z"
       style="font-style:normal;font-variant:normal;font-weight:normal;font-stretch:normal;line-height:0.92;font-family:'Roadgeek 2005 Engschrift';-inkscape-font-specification:'Roadgeek 2005 Engschrift';fill:#ffffff;stroke:none"
       id="path2598" />
    <path
       d="m 592.64383,610.07409 -2.78134,-7.59733 v 7.59733 h -1.792 v -12.50666 h 1.69867 l 2.76267,7.57866 v -7.57866 h 1.792 v 12.50666 z"
       style="font-style:normal;font-variant:normal;font-weight:normal;font-stretch:normal;line-height:0.92;font-family:'Roadgeek 2005 Engschrift';-inkscape-font-specification:'Roadgeek 2005 Engschrift';fill:#ffffff;stroke:none"
       id="path2600" />
    <path
       d="m 596.88212,606.95676 q 0,0.18666 0,0.31733 0,0.13067 0.0187,0.224 0.0373,0.18667 0.28,0.54133 0.26134,0.37334 0.93334,0.37334 0.37333,0 0.69066,-0.14934 0.31734,-0.168 0.46667,-0.42933 0.112,-0.20533 0.13067,-0.392 0.0373,-0.18667 0.0373,-0.336 v -0.168 -0.87733 -0.168 q 0,-0.41067 -0.14933,-0.63467 -0.14934,-0.24266 -0.672,-0.54133 -0.35467,-0.18667 -1.26934,-0.52267 -0.91466,-0.336 -1.53066,-1.064 -0.616,-0.728 -0.616,-1.97866 v -0.56 q 0,-1.288 0.85866,-2.20267 0.87734,-0.93333 2.128,-0.93333 1.30667,0 2.16534,0.91466 0.87733,0.91467 0.87733,2.22134 v 0.56 h -1.792 v -0.56 q 0,-0.13067 -0.0187,-0.24267 0,-0.112 -0.0187,-0.20533 -0.0187,-0.0933 -0.0933,-0.224 -0.0747,-0.13067 -0.20533,-0.31734 -0.26133,-0.37333 -0.87733,-0.37333 -0.54134,0 -0.896,0.392 -0.336,0.392 -0.336,0.97067 v 0.56 0.168 q 0,0.37333 0.112,0.59733 0.13066,0.20533 0.59733,0.46667 0.14933,0.0747 0.448,0.20533 0.31733,0.112 0.76533,0.28 0.896,0.29867 1.60534,1.064 0.70933,0.76533 0.70933,2.016 v 1.008 q 0,0.65333 -0.13067,1.10133 -0.112,0.448 -0.76533,1.30667 -0.65333,0.82133 -2.184,0.82133 -1.624,0 -2.352,-1.04533 -0.728,-1.064 -0.728,-2.184 v -0.448 h 1.81067 z"
       style="font-style:normal;font-variant:normal;font-weight:normal;font-stretch:normal;line-height:0.92;font-family:'Roadgeek 2005 Engschrift';-inkscape-font-specification:'Roadgeek 2005 Engschrift';fill:#ffffff;stroke:none"
       id="path2602" />
    <path
       d="m 603.7117,610.07409 v -10.84533 h -2.10934 v -1.66133 h 6.02934 v 1.66133 h -2.14667 v 10.84533 z"
       style="font-style:normal;font-variant:normal;font-weight:normal;font-stretch:normal;line-height:0.92;font-family:'Roadgeek 2005 Engschrift';-inkscape-font-specification:'Roadgeek 2005 Engschrift';fill:#ffffff;stroke:none"
       id="path2604" />
    <path
       d="m 608.5149,610.07409 v -12.50666 h 1.77334 v 12.50666 z"
       style="font-style:normal;font-variant:normal;font-weight:normal;font-stretch:normal;line-height:0.92;font-family:'Roadgeek 2005 Engschrift';-inkscape-font-specification:'Roadgeek 2005 Engschrift';fill:#ffffff;stroke:none"
       id="path2606" />
    <path
       d="m 613.31257,610.07409 v -10.84533 h -2.10934 v -1.66133 h 6.02934 v 1.66133 h -2.14667 v 10.84533 z"
       style="font-style:normal;font-variant:normal;font-weight:normal;font-stretch:normal;line-height:0.92;font-family:'Roadgeek 2005 Engschrift';-inkscape-font-specification:'Roadgeek 2005 Engschrift';fill:#ffffff;stroke:none"
       id="path2608" />
    <path
       d="m 623.61871,608.76742 q -0.41067,0.63467 -1.064,1.02667 -0.63467,0.392 -1.41867,0.392 -0.392,0 -0.784,-0.112 -0.37333,-0.112 -0.70933,-0.28 -0.336,-0.18667 -0.59733,-0.41067 -0.26134,-0.24266 -0.392,-0.504 -0.28,-0.52266 -0.37334,-0.91466 -0.0747,-0.392 -0.0747,-0.84 v -9.55733 h 1.792 v 9.55733 q 0,0.13066 0,0.24266 0.0187,0.0933 0.0373,0.18667 0.0187,0.14933 0.28,0.52267 0.24267,0.336 0.84,0.336 0.54133,0 0.80267,-0.392 0.28,-0.41067 0.28,-0.896 v -9.55733 h 1.792 v 9.55733 q 0,0.448 -0.0933,0.85866 -0.0933,0.41067 -0.31733,0.784 z"
       style="font-style:normal;font-variant:normal;font-weight:normal;font-stretch:normal;line-height:0.92;font-family:'Roadgeek 2005 Engschrift';-inkscape-font-specification:'Roadgeek 2005 Engschrift';fill:#ffffff;stroke:none"
       id="path2610" />
    <path
       d="m 626.92385,610.07409 v -10.84533 h -2.10933 v -1.66133 h 6.02933 v 1.66133 h -2.14666 v 10.84533 z"
       style="font-style:normal;font-variant:normal;font-weight:normal;font-stretch:normal;line-height:0.92;font-family:'Roadgeek 2005 Engschrift';-inkscape-font-specification:'Roadgeek 2005 Engschrift';fill:#ffffff;stroke:none"
       id="path2612" />
    <path
       d="m 631.72706,610.07409 v -12.50666 h 1.77333 v 12.50666 z"
       style="font-style:normal;font-variant:normal;font-weight:normal;font-stretch:normal;line-height:0.92;font-family:'Roadgeek 2005 Engschrift';-inkscape-font-specification:'Roadgeek 2005 Engschrift';fill:#ffffff;stroke:none"
       id="path2614" />
    <path
       d="m 635.58766,598.74343 q 0.42934,-0.59734 1.08267,-0.93334 0.672,-0.35466 1.38133,-0.35466 0.69067,0 1.288,0.28 0.616,0.28 1.02667,0.76533 0.41067,0.48533 0.56,1.008 0.14933,0.504 0.14933,1.10133 v 6.36533 q 0,0.56 -0.112,0.98934 -0.0933,0.42933 -0.448,0.952 -0.336,0.52266 -0.98933,0.896 -0.63467,0.37333 -1.41867,0.37333 -0.448,0 -0.85866,-0.112 -0.41067,-0.13067 -0.76534,-0.336 -0.35466,-0.20533 -0.63466,-0.46667 -0.26134,-0.26133 -0.41067,-0.54133 -0.28,-0.57867 -0.336,-0.93333 -0.056,-0.35467 -0.056,-0.82134 v -6.36533 q 0,-0.56 0.112,-0.98933 0.13067,-0.448 0.42933,-0.87733 z m 3.472,0.98933 q -0.35466,-0.52267 -0.97066,-0.52267 -0.31734,0 -0.63467,0.18667 -0.29867,0.168 -0.42933,0.392 -0.112,0.224 -0.14934,0.448 -0.0373,0.224 -0.0373,0.37333 v 6.36533 q 0,0.0933 0,0.20534 0,0.0933 0.0187,0.20533 0.0187,0.18667 0.29866,0.616 0.28,0.392 0.93334,0.392 0.336,0 0.59733,-0.14933 0.28,-0.168 0.392,-0.37334 0.13067,-0.224 0.168,-0.41066 0.0373,-0.18667 0.0373,-0.48534 v -6.36533 q 0,-0.37333 -0.0373,-0.52266 -0.0187,-0.14934 -0.18667,-0.35467 z"
       style="font-style:normal;font-variant:normal;font-weight:normal;font-stretch:normal;line-height:0.92;font-family:'Roadgeek 2005 Engschrift';-inkscape-font-specification:'Roadgeek 2005 Engschrift';fill:#ffffff;stroke:none"
       id="path2616" />
    <path
       d="m 646.99501,610.07409 -2.78133,-7.59733 v 7.59733 h -1.792 v -12.50666 h 1.69866 l 2.76267,7.57866 v -7.57866 h 1.792 v 12.50666 z"
       style="font-style:normal;font-variant:normal;font-weight:normal;font-stretch:normal;line-height:0.92;font-family:'Roadgeek 2005 Engschrift';-inkscape-font-specification:'Roadgeek 2005 Engschrift';fill:#ffffff;stroke:none"
       id="path2618" />
    <path
       d="m 651.3229,606.95676 q 0,0.18666 0,0.31733 0,0.13067 0.0187,0.224 0.0373,0.18667 0.28,0.54133 0.26133,0.37334 0.93333,0.37334 0.37333,0 0.69067,-0.14934 0.31733,-0.168 0.46666,-0.42933 0.112,-0.20533 0.13067,-0.392 0.0373,-0.18667 0.0373,-0.336 v -0.168 -0.87733 -0.168 q 0,-0.41067 -0.14933,-0.63467 -0.14933,-0.24266 -0.672,-0.54133 -0.35467,-0.18667 -1.26933,-0.52267 -0.91467,-0.336 -1.53067,-1.064 -0.616,-0.728 -0.616,-1.97866 v -0.56 q 0,-1.288 0.85867,-2.20267 0.87733,-0.93333 2.128,-0.93333 1.30666,0 2.16533,0.91466 0.87733,0.91467 0.87733,2.22134 v 0.56 h -1.792 v -0.56 q 0,-0.13067 -0.0187,-0.24267 0,-0.112 -0.0187,-0.20533 -0.0187,-0.0933 -0.0933,-0.224 -0.0747,-0.13067 -0.20534,-0.31734 -0.26133,-0.37333 -0.87733,-0.37333 -0.54133,0 -0.896,0.392 -0.336,0.392 -0.336,0.97067 v 0.56 0.168 q 0,0.37333 0.112,0.59733 0.13067,0.20533 0.59733,0.46667 0.14934,0.0747 0.448,0.20533 0.31734,0.112 0.76534,0.28 0.896,0.29867 1.60533,1.064 0.70933,0.76533 0.70933,2.016 v 1.008 q 0,0.65333 -0.13066,1.10133 -0.112,0.448 -0.76534,1.30667 -0.65333,0.82133 -2.184,0.82133 -1.624,0 -2.352,-1.04533 -0.728,-1.064 -0.728,-2.184 v -0.448 h 1.81067 z"
       style="font-style:normal;font-variant:normal;font-weight:normal;font-stretch:normal;line-height:0.92;font-family:'Roadgeek 2005 Engschrift';-inkscape-font-specification:'Roadgeek 2005 Engschrift';fill:#ffffff;stroke:none"
       id="path2620" />
  </g>
  <g
     aria-label="16"
     style="font-style:normal;font-variant:normal;font-weight:normal;font-stretch:normal;font-size:13.3333px;line-height:1.25;font-family:'Liberation Serif';-inkscape-font-specification:'Liberation Serif';letter-spacing:0px;word-spacing:0px;fill:#ffffff;fill-opacity:1;stroke:none"
     id="text6075-0-6-9-2-5-9-1-4-7-6"
     transform="translate(-537.83978,-550.03992)">
    <path
       d="m 553.84778,592.98285 v -25.46 l -4.288,3.216 v -4.556 l 4.288,-3.12667 h 4.24334 v 29.92667 z"
       style="font-style:normal;font-variant:normal;font-weight:normal;font-stretch:normal;font-size:44.6667px;font-family:'Roadgeek 2005 Engschrift';-inkscape-font-specification:'Roadgeek 2005 Engschrift';fill:#ffffff;stroke:none"
       id="path2623" />
    <path
       d="m 573.87353,577.66218 q 0.35734,0.62534 0.44667,1.29534 0.134,0.67 0.134,1.65266 v 5.71734 q 0,1.02733 -0.22333,2.05466 -0.22334,0.98267 -1.34,2.76934 -1.16134,1.83133 -4.37734,2.09933 -2.01,0 -3.66267,-0.84867 -1.608,-0.89333 -2.278,-2.09933 -0.62533,-1.25067 -0.804,-2.09933 -0.134,-0.84867 -0.134,-1.876 v -4.69 q 0,-0.98267 0.0447,-1.38467 0.0447,-0.44667 0.31267,-1.16133 l 5.94066,-16.03534 h 4.82401 l -4.82401,12.55134 q 0.804,-0.31267 1.92067,-0.31267 h 0.402 q 2.45667,0.35733 3.618,2.36733 z m -4.06467,2.278 q -0.67,-0.89333 -1.78666,-0.89333 -0.98267,0 -1.51867,0.71467 -0.536,0.71466 -0.536,1.876 v 4.69 q 0,0.938 0.44667,1.78666 0.49133,0.804 1.65266,0.804 h 0.268 q 1.16134,0 1.51867,-0.804 0.35733,-0.804 0.35733,-1.78666 v -4.69 q 0,-0.58067 -0.0893,-0.938 -0.0447,-0.402 -0.31267,-0.75934 z"
       style="font-style:normal;font-variant:normal;font-weight:normal;font-stretch:normal;font-size:44.6667px;font-family:'Roadgeek 2005 Engschrift';-inkscape-font-specification:'Roadgeek 2005 Engschrift';fill:#ffffff;stroke:none"
       id="path2625" />
  </g>
  <path
     style="opacity:1;fill:#ffffff;fill-opacity:1;fill-rule:evenodd;stroke:none;stroke-width:0.2;stroke-linecap:round;stroke-linejoin:round;stroke-miterlimit:4;stroke-dasharray:none;stroke-dashoffset:0;stroke-opacity:1"
     d="m 107.76764,66.454223 c -3.38889,-0.031 -3.90207,1.92234 -3.97265,4.18164 3.38889,0.031 3.90207,-1.92234 3.97265,-4.18164 z m -9.109373,0.5332 c -1.96317,2.76252 -0.653,4.30062 1.16015,5.65039 1.963173,-2.76252 0.653003,-4.30062 -1.16015,-5.65039 z m -3.95117,4.13672 c -1.95075,2.7713 -0.63366,4.30292 1.18554,5.64453 1.95075,-2.7713 0.63366,-4.30292 -1.18554,-5.64453 z m 7.826173,0.54297 a 0.45004499,0.45004499 0 0 0 -0.31446,0.12305 c -2.650313,2.43473 -4.944073,5.00647 -6.203123,7.94531 -0.29616,0.69128 -0.5278,1.40513 -0.69727,2.13867 -1.76374,-1.7604 -2.40506,-3.63948 -4.68164,-3.59961 -5.45212,0.0955 -8.28852,8.57568 -15.86718,8.62891 -10.71026,0.0752 -9.86133,-12.92206 -30.00977,-13.02734 12.06865,9.65877 -0.17141,18.53377 17.70508,25.38867 -7.58621,1.417427 -7.75371,7.905267 -17.75781,4.691397 4.6626,1.80935 9.69174,7.69814 19.08007,8.03907 v 7.04101 c -10.68537,-0.31824 -21.04883,-0.75 -21.04883,-0.75 v 4.4668 c 0,0 24.93522,-1.07813 37.45899,-1.07813 4.14365,0 7.58875,0.83726 9.07031,1.26172 v 2.82617 c 0,1.03602 0.83508,1.86915 1.8711,1.86915 h 10.548823 c 1.03602,0 1.8711,-0.83313 1.8711,-1.86915 v -10.43164 c 0,-1.03601 -0.83508,-1.86914 -1.8711,-1.86914 H 91.138737 c -1.03602,0 -1.8711,0.83313 -1.8711,1.86914 v 2.76953 c -1.48156,0.42448 -4.92666,1.26368 -9.07031,1.26368 -2.81444,0 -6.2933,-0.0582 -9.9375,-0.14258 v -7.52539 c 18.28155,-2.11021 17.65906,-13.776437 17.59375,-16.441407 -0.2173,-8.86637 3.90916,-10.76938 7.18359,-11.26953 -0.0837,1.79651 0.22336,3.7103 1.05664,5.76172 a 0.45028617,0.45028617 0 1 0 0.83399,-0.33984 c -0.81313,-2.00176 -1.09649,-3.81982 -0.99414,-5.51954 0.79716,-0.0728 1.53223,-0.10353 2.05273,-0.15625 -0.75411,-0.33888 -1.3688,-0.73578 -1.89453,-1.15429 0.1587,-0.85509 0.40556,-1.68433 0.75,-2.48828 1.17738,-2.74819 3.378503,-5.23906 5.986333,-7.63477 a 0.45004499,0.45004499 0 0 0 -0.29492,-0.78711 z m 2.5664,1.80274 c -1.08152,0.0575 -2.01353,0.79381 -2.9082,1.69726 2.46017,2.3309 4.16729,1.25066 5.75781,-0.35547 -1.07632,-1.01977 -2.00842,-1.38652 -2.84961,-1.34179 z m -3.58398,4.30273 c -0.9501,2.3e-4 -1.887613,0.50428 -2.820313,1.14258 1.975323,2.75385 3.855303,2.01487 5.720703,0.73828 -0.98766,-1.37693 -1.95029,-1.88109 -2.90039,-1.88086 z M 89.884827,108.32141 c -1.03602,0 -1.87109,0.83507 -1.87109,1.87109 v 0.38086 c 0,1.03602 0.83507,1.86914 1.87109,1.86914 h 12.970703 c 1.03602,0 1.86914,-0.83312 1.86914,-1.86914 v -0.38086 c 0,-1.03602 -0.83312,-1.87109 -1.86914,-1.87109 z m -21.6875,3.56445 v 7.28516 c -0.78765,-0.0202 -1.55304,-0.05 -2.34766,-0.0723 v -7.09961 c 0.81149,-0.0223 1.59473,-0.06 2.34766,-0.11328 z m -29.17969,5.07422 c -1.03602,0 -1.87109,0.83312 -1.87109,1.86914 v 3.16602 c 0,1.03601 0.83507,1.86914 1.87109,1.86914 h 0.52735 c 1.03601,0 1.86914,-0.83313 1.86914,-1.86914 v -3.16602 c 0,-1.03602 -0.83313,-1.86914 -1.86914,-1.86914 z m 50.86719,11.4043 c -1.03602,0 -1.87109,0.83507 -1.87109,1.87109 v 0.38086 c 0,1.03602 0.83507,1.87109 1.87109,1.87109 h 12.970703 c 1.03602,0 1.86914,-0.83507 1.86914,-1.87109 v -0.38086 c 0,-1.03602 -0.83312,-1.87109 -1.86914,-1.87109 z"
     id="rect8292-7-8" />
</svg>
