<?xml version="1.0" encoding="UTF-8" standalone="no"?>
<!-- Created with Inkscape (http://www.inkscape.org/) -->

<svg
   version="1.1"
   id="svg2"
   width="148.09277"
   height="148.33459"
   viewBox="0 0 148.09277 148.33459"
   sodipodi:docname="Sustainable_Development_Goals.svg"
   inkscape:version="0.92.3 (2405546, 2018-03-11)"
   inkscape:export-filename="sdg_1.svg"
   inkscape:export-xdpi="96"
   inkscape:export-ydpi="96"
   xmlns:inkscape="http://www.inkscape.org/namespaces/inkscape"
   xmlns:sodipodi="http://sodipodi.sourceforge.net/DTD/sodipodi-0.dtd"
   xmlns="http://www.w3.org/2000/svg"
   xmlns:svg="http://www.w3.org/2000/svg"
   xmlns:rdf="http://www.w3.org/1999/02/22-rdf-syntax-ns#"
   xmlns:cc="http://creativecommons.org/ns#"
   xmlns:dc="http://purl.org/dc/elements/1.1/">
  <metadata
     id="metadata8">
    <rdf:RDF>
      <cc:Work
         rdf:about="">
        <dc:format>image/svg+xml</dc:format>
        <dc:type
           rdf:resource="http://purl.org/dc/dcmitype/StillImage" />
        <dc:title />
      </cc:Work>
    </rdf:RDF>
  </metadata>
  <defs
     id="defs6" />
  <sodipodi:namedview
     pagecolor="#ffffff"
     bordercolor="#666666"
     borderopacity="1"
     objecttolerance="10"
     gridtolerance="10"
     guidetolerance="10"
     inkscape:pageopacity="0"
     inkscape:pageshadow="2"
     inkscape:window-width="1920"
     inkscape:window-height="1061"
     id="namedview4"
     showgrid="false"
     inkscape:zoom="1.0772059"
     inkscape:cx="528"
     inkscape:cy="408"
     inkscape:window-x="1920"
     inkscape:window-y="0"
     inkscape:window-maximized="1"
     inkscape:current-layer="svg2"
     showguides="true"
     inkscape:guide-bbox="true"
     inkscape:snap-global="true"
     inkscape:snap-center="true"
     inkscape:snap-object-midpoints="true"
     inkscape:snap-bbox="true"
     inkscape:snap-bbox-midpoints="true"
     inkscape:showpageshadow="2"
     inkscape:pagecheckerboard="0"
     inkscape:deskcolor="#d1d1d1" />
  <path
     style="opacity:1;fill:#e11484;fill-opacity:1;fill-rule:evenodd;stroke:none;stroke-width:4;stroke-linecap:round;stroke-linejoin:round;stroke-miterlimit:4;stroke-dasharray:none;stroke-dashoffset:0;stroke-opacity:1"
     d="M 0.82675729,-2.5195312e-6 H 147.26601 c 0.45802,0 0.82675,0.3687299995312 0.82675,0.8267599995312 V 147.50783 c 0,0.45802 -0.36873,0.82675 -0.82675,0.82675 H 0.82675729 c -0.45803,0 -0.8267600048437,-0.36873 -0.8267600048437,-0.82675 V 0.82675748 C -2.7148437e-6,0.36872748 0.36872729,-2.5195312e-6 0.82675729,-2.5195312e-6 Z"
     id="rect8528-63-2-4-3-6-0" />
  <style
     id="style970"
     type="text/css">
	.st0{fill:#418FDE;}
</style>
  <g
     aria-label="REDUCED INEQUALITIES"
     style="font-style:normal;font-variant:normal;font-weight:normal;font-stretch:normal;font-size:18.6667px;line-height:0.92;font-family:'Roadgeek 2005 Series B';-inkscape-font-specification:'Roadgeek 2005 Series B';letter-spacing:0px;word-spacing:0px;fill:#ffffff;fill-opacity:1;stroke:none"
     id="text6065-3-2-9-6-6-5-0-0-8"
     transform="translate(-537.83978,-389.72833)">
    <path
       d="M 585.64646,414.96246 V 402.4558 h 3.136 q 1.232,0 2.072,0.85866 0.85866,0.85867 0.85866,2.10934 v 1.15733 q 0,1.736 -1.47466,2.65067 l 1.904,5.73066 h -1.904 l -1.68,-5.35733 h -1.12 v 5.35733 z m 3.976,-7.336 q 0.168,-0.20533 0.224,-0.46666 0.0747,-0.26134 0.0747,-0.57867 v -1.15733 q 0,-0.57867 -0.31733,-0.93334 -0.31733,-0.37333 -0.896,-0.37333 h -1.26933 v 3.90133 h 1.25066 q 0.56,0 0.93334,-0.392 z"
       style="font-style:normal;font-variant:normal;font-weight:normal;font-stretch:normal;line-height:0.92;font-family:'Roadgeek 2005 Engschrift';-inkscape-font-specification:'Roadgeek 2005 Engschrift';fill:#ffffff;stroke:none"
       id="path2273" />
    <path
       d="m 598.26821,413.17046 v 1.792 h -5.35734 V 402.4558 h 5.35734 v 1.64266 h -3.584 v 3.696 h 3.136 v 1.69867 h -3.136 v 3.67733 z"
       style="font-style:normal;font-variant:normal;font-weight:normal;font-stretch:normal;line-height:0.92;font-family:'Roadgeek 2005 Engschrift';-inkscape-font-specification:'Roadgeek 2005 Engschrift';fill:#ffffff;stroke:none"
       id="path2275" />
    <path
       d="m 601.96265,402.4558 q 1.21334,0 2.072,0.85866 0.87734,0.84 0.87734,2.05334 v 6.496 q 0,1.38133 -0.84,2.24 -0.84,0.85866 -2.16534,0.85866 h -2.78133 V 402.4558 Z m 1.176,9.408 v -6.496 q 0,-0.52267 -0.392,-0.87734 -0.37333,-0.35466 -0.91466,-0.35466 h -0.93334 v 9.16533 h 0.87734 q 1.36266,0 1.36266,-1.43733 z"
       style="font-style:normal;font-variant:normal;font-weight:normal;font-stretch:normal;line-height:0.92;font-family:'Roadgeek 2005 Engschrift';-inkscape-font-specification:'Roadgeek 2005 Engschrift';fill:#ffffff;stroke:none"
       id="path2277" />
    <path
       d="m 612.12199,413.6558 q -0.41067,0.63466 -1.064,1.02666 -0.63467,0.392 -1.41867,0.392 -0.392,0 -0.784,-0.112 -0.37333,-0.112 -0.70933,-0.28 -0.336,-0.18666 -0.59734,-0.41066 -0.26133,-0.24267 -0.392,-0.504 -0.28,-0.52267 -0.37333,-0.91467 -0.0747,-0.392 -0.0747,-0.84 v -9.55733 h 1.792 v 9.55733 q 0,0.13067 0,0.24267 0.0187,0.0933 0.0373,0.18666 0.0187,0.14934 0.28,0.52267 0.24266,0.336 0.84,0.336 0.54133,0 0.80266,-0.392 0.28,-0.41067 0.28,-0.896 v -9.55733 h 1.792 v 9.55733 q 0,0.448 -0.0933,0.85867 -0.0933,0.41066 -0.31733,0.784 z"
       style="font-style:normal;font-variant:normal;font-weight:normal;font-stretch:normal;line-height:0.92;font-family:'Roadgeek 2005 Engschrift';-inkscape-font-specification:'Roadgeek 2005 Engschrift';fill:#ffffff;stroke:none"
       id="path2279" />
    <path
       d="m 619.74992,411.8078 q 0,0.59733 -0.0747,1.02666 -0.056,0.42934 -0.37334,0.93334 -0.168,0.26133 -0.42933,0.504 -0.24267,0.224 -0.56,0.41066 -0.29867,0.168 -0.65333,0.28 -0.35467,0.112 -0.69067,0.112 -0.84,0 -1.53067,-0.35466 -0.672,-0.35467 -0.98933,-0.896 -0.31733,-0.54134 -0.41067,-1.008 -0.0747,-0.46667 -0.0747,-1.008 v -6.44 q 0,-0.52267 0.0933,-0.93334 0.112,-0.42933 0.448,-0.91466 0.336,-0.48534 0.952,-0.82134 0.616,-0.35466 1.288,-0.35466 1.288,0 2.14667,0.85866 0.85866,0.84 0.85866,2.16534 v 0.672 h -1.77333 v -0.672 q 0,-0.52267 -0.29867,-0.87734 -0.28,-0.35466 -0.84,-0.35466 -0.52266,0 -0.82133,0.35466 -0.28,0.35467 -0.28,0.87734 v 6.92533 q 0.0373,0.28 0.26133,0.63467 0.26134,0.37333 0.85867,0.37333 0.63467,0 0.84,-0.336 0.20533,-0.336 0.24267,-0.48533 0.0373,-0.168 0.0373,-0.448 v -0.63467 h 1.77333 z"
       style="font-style:normal;font-variant:normal;font-weight:normal;font-stretch:normal;line-height:0.92;font-family:'Roadgeek 2005 Engschrift';-inkscape-font-specification:'Roadgeek 2005 Engschrift';fill:#ffffff;stroke:none"
       id="path2281" />
    <path
       d="m 626.47006,413.17046 v 1.792 h -5.35734 V 402.4558 h 5.35734 v 1.64266 h -3.584 v 3.696 h 3.136 v 1.69867 h -3.136 v 3.67733 z"
       style="font-style:normal;font-variant:normal;font-weight:normal;font-stretch:normal;line-height:0.92;font-family:'Roadgeek 2005 Engschrift';-inkscape-font-specification:'Roadgeek 2005 Engschrift';fill:#ffffff;stroke:none"
       id="path2283" />
    <path
       d="m 630.1645,402.4558 q 1.21334,0 2.072,0.85866 0.87734,0.84 0.87734,2.05334 v 6.496 q 0,1.38133 -0.84,2.24 -0.84,0.85866 -2.16534,0.85866 h -2.78133 V 402.4558 Z m 1.176,9.408 v -6.496 q 0,-0.52267 -0.392,-0.87734 -0.37333,-0.35466 -0.91466,-0.35466 h -0.93334 v 9.16533 h 0.87734 q 1.36266,0 1.36266,-1.43733 z"
       style="font-style:normal;font-variant:normal;font-weight:normal;font-stretch:normal;line-height:0.92;font-family:'Roadgeek 2005 Engschrift';-inkscape-font-specification:'Roadgeek 2005 Engschrift';fill:#ffffff;stroke:none"
       id="path2285" />
    <path
       d="m 585.90683,432.20944 v -12.50667 h 1.77334 v 12.50667 z"
       style="font-style:normal;font-variant:normal;font-weight:normal;font-stretch:normal;line-height:0.92;font-family:'Roadgeek 2005 Engschrift';-inkscape-font-specification:'Roadgeek 2005 Engschrift';fill:#ffffff;stroke:none"
       id="path2287" />
    <path
       d="m 593.7155,432.20944 -2.78133,-7.59733 v 7.59733 h -1.792 v -12.50667 h 1.69866 l 2.76267,7.57867 v -7.57867 h 1.792 v 12.50667 z"
       style="font-style:normal;font-variant:normal;font-weight:normal;font-stretch:normal;line-height:0.92;font-family:'Roadgeek 2005 Engschrift';-inkscape-font-specification:'Roadgeek 2005 Engschrift';fill:#ffffff;stroke:none"
       id="path2289" />
    <path
       d="m 601.85664,430.41744 v 1.792 h -5.35733 v -12.50667 h 5.35733 v 1.64267 h -3.584 v 3.696 h 3.136 v 1.69867 h -3.136 v 3.67733 z"
       style="font-style:normal;font-variant:normal;font-weight:normal;font-stretch:normal;line-height:0.92;font-family:'Roadgeek 2005 Engschrift';-inkscape-font-specification:'Roadgeek 2005 Engschrift';fill:#ffffff;stroke:none"
       id="path2291" />
    <path
       d="m 603.17157,431.23877 q -0.42934,-0.46666 -0.57867,-0.98933 -0.13067,-0.52267 -0.13067,-1.232 v -6.216 q 0,-1.36267 0.85867,-2.27733 0.87733,-0.93334 2.20267,-0.93334 1.19466,0 2.10933,0.87734 0.896,0.87733 0.896,2.09066 v 6.45867 q 0,0.54133 -0.056,0.80267 -0.0373,0.26133 -0.14933,0.52266 l 1.176,0.98934 -0.98934,1.19466 -1.12,-0.896 q -0.82133,0.672 -1.97866,0.672 -0.616,0 -1.232,-0.29866 -0.59734,-0.29867 -1.008,-0.76534 z m 2.968,-2.688 0.59733,0.46667 v -6.216 q 0,-0.59733 -0.336,-1.008 -0.336,-0.42933 -0.93333,-0.42933 -0.37334,0 -0.65334,0.18666 -0.28,0.18667 -0.41066,0.448 -0.112,0.26134 -0.13067,0.41067 -0.0187,0.13067 -0.0187,0.392 v 6.216 0.13067 q 0,0.54133 0.29867,0.97066 0.31733,0.41067 0.97067,0.42934 0.18666,0 0.448,-0.112 l -0.82134,-0.69067 z"
       style="font-style:normal;font-variant:normal;font-weight:normal;font-stretch:normal;line-height:0.92;font-family:'Roadgeek 2005 Engschrift';-inkscape-font-specification:'Roadgeek 2005 Engschrift';fill:#ffffff;stroke:none"
       id="path2293" />
    <path
       d="m 615.36035,430.90277 q -0.41067,0.63467 -1.064,1.02667 -0.63467,0.392 -1.41867,0.392 -0.392,0 -0.784,-0.112 -0.37333,-0.112 -0.70933,-0.28 -0.336,-0.18667 -0.59733,-0.41067 -0.26134,-0.24266 -0.392,-0.504 -0.28,-0.52266 -0.37334,-0.91466 -0.0747,-0.392 -0.0747,-0.84 v -9.55734 h 1.792 v 9.55734 q 0,0.13066 0,0.24266 0.0187,0.0933 0.0373,0.18667 0.0187,0.14933 0.28,0.52267 0.24267,0.336 0.84,0.336 0.54133,0 0.80267,-0.392 0.28,-0.41067 0.28,-0.896 v -9.55734 h 1.792 v 9.55734 q 0,0.448 -0.0933,0.85866 -0.0933,0.41067 -0.31733,0.784 z"
       style="font-style:normal;font-variant:normal;font-weight:normal;font-stretch:normal;line-height:0.92;font-family:'Roadgeek 2005 Engschrift';-inkscape-font-specification:'Roadgeek 2005 Engschrift';fill:#ffffff;stroke:none"
       id="path2295" />
    <path
       d="m 616.48247,432.20944 2.8,-12.50667 h 1.54934 l 2.8,12.50667 h -1.92267 l -0.504,-2.688 h -2.31467 l -0.52266,2.688 z m 2.72534,-4.34933 h 1.68 l -0.84,-4.55467 z"
       style="font-style:normal;font-variant:normal;font-weight:normal;font-stretch:normal;line-height:0.92;font-family:'Roadgeek 2005 Engschrift';-inkscape-font-specification:'Roadgeek 2005 Engschrift';fill:#ffffff;stroke:none"
       id="path2297" />
    <path
       d="m 629.90118,432.20944 h -5.33867 v -12.50667 h 1.792 v 10.71467 h 3.54667 z"
       style="font-style:normal;font-variant:normal;font-weight:normal;font-stretch:normal;line-height:0.92;font-family:'Roadgeek 2005 Engschrift';-inkscape-font-specification:'Roadgeek 2005 Engschrift';fill:#ffffff;stroke:none"
       id="path2299" />
    <path
       d="m 630.28534,432.20944 v -12.50667 h 1.77334 v 12.50667 z"
       style="font-style:normal;font-variant:normal;font-weight:normal;font-stretch:normal;line-height:0.92;font-family:'Roadgeek 2005 Engschrift';-inkscape-font-specification:'Roadgeek 2005 Engschrift';fill:#ffffff;stroke:none"
       id="path2301" />
    <path
       d="m 635.32057,432.20944 v -10.84533 h -2.10933 v -1.66134 h 6.02933 v 1.66134 h -2.14666 v 10.84533 z"
       style="font-style:normal;font-variant:normal;font-weight:normal;font-stretch:normal;line-height:0.92;font-family:'Roadgeek 2005 Engschrift';-inkscape-font-specification:'Roadgeek 2005 Engschrift';fill:#ffffff;stroke:none"
       id="path2303" />
    <path
       d="m 639.8175,432.20944 v -12.50667 h 1.77333 v 12.50667 z"
       style="font-style:normal;font-variant:normal;font-weight:normal;font-stretch:normal;line-height:0.92;font-family:'Roadgeek 2005 Engschrift';-inkscape-font-specification:'Roadgeek 2005 Engschrift';fill:#ffffff;stroke:none"
       id="path2305" />
    <path
       d="m 648.47059,430.41744 v 1.792 h -5.35733 v -12.50667 h 5.35733 v 1.64267 h -3.584 v 3.696 h 3.136 v 1.69867 h -3.136 v 3.67733 z"
       style="font-style:normal;font-variant:normal;font-weight:normal;font-stretch:normal;line-height:0.92;font-family:'Roadgeek 2005 Engschrift';-inkscape-font-specification:'Roadgeek 2005 Engschrift';fill:#ffffff;stroke:none"
       id="path2307" />
    <path
       d="m 650.71347,429.09211 q 0,0.18666 0,0.31733 0,0.13067 0.0187,0.224 0.0373,0.18667 0.28,0.54133 0.26134,0.37334 0.93334,0.37334 0.37333,0 0.69066,-0.14934 0.31734,-0.168 0.46667,-0.42933 0.112,-0.20533 0.13067,-0.392 0.0373,-0.18667 0.0373,-0.336 v -0.168 -0.87733 -0.168 q 0,-0.41067 -0.14933,-0.63467 -0.14934,-0.24267 -0.672,-0.54133 -0.35467,-0.18667 -1.26934,-0.52267 -0.91466,-0.336 -1.53066,-1.064 -0.616,-0.728 -0.616,-1.97867 v -0.56 q 0,-1.288 0.85866,-2.20266 0.87734,-0.93334 2.128,-0.93334 1.30667,0 2.16534,0.91467 0.87733,0.91467 0.87733,2.22133 v 0.56 h -1.792 v -0.56 q 0,-0.13066 -0.0187,-0.24266 0,-0.112 -0.0187,-0.20534 -0.0187,-0.0933 -0.0933,-0.224 -0.0747,-0.13066 -0.20533,-0.31733 -0.26133,-0.37333 -0.87733,-0.37333 -0.54134,0 -0.896,0.392 -0.336,0.392 -0.336,0.97066 v 0.56 0.168 q 0,0.37334 0.112,0.59734 0.13066,0.20533 0.59733,0.46666 0.14933,0.0747 0.448,0.20534 0.31733,0.112 0.76533,0.28 0.896,0.29866 1.60534,1.064 0.70933,0.76533 0.70933,2.016 v 1.008 q 0,0.65333 -0.13067,1.10133 -0.112,0.448 -0.76533,1.30667 -0.65333,0.82133 -2.184,0.82133 -1.624,0 -2.352,-1.04533 -0.728,-1.064 -0.728,-2.184 v -0.448 h 1.81067 z"
       style="font-style:normal;font-variant:normal;font-weight:normal;font-stretch:normal;line-height:0.92;font-family:'Roadgeek 2005 Engschrift';-inkscape-font-specification:'Roadgeek 2005 Engschrift';fill:#ffffff;stroke:none"
       id="path2309" />
  </g>
  <g
     aria-label="10"
     style="font-style:normal;font-variant:normal;font-weight:normal;font-stretch:normal;font-size:13.3333px;line-height:1.25;font-family:'Liberation Serif';-inkscape-font-specification:'Liberation Serif';letter-spacing:0px;word-spacing:0px;fill:#ffffff;fill-opacity:1;stroke:none"
     id="text6075-0-6-9-2-5-9-0-9-4"
     transform="translate(-537.83978,-389.72833)">
    <path
       d="m 552.4148,431.9819 v -25.46 l -4.288,3.216 v -4.556 l 4.288,-3.12666 h 4.24333 v 29.92666 z"
       style="font-style:normal;font-variant:normal;font-weight:normal;font-stretch:normal;font-size:44.6667px;font-family:'Roadgeek 2005 Engschrift';-inkscape-font-specification:'Roadgeek 2005 Engschrift';fill:#ffffff;stroke:none"
       id="path2312" />
    <path
       d="m 567.03405,432.07124 q -4.73466,-0.84867 -5.494,-5.53867 v -19.25133 q 0.58067,-3.52867 3.082,-4.73467 1.65267,-0.75933 3.43934,-0.75933 1.11666,0 2.32266,0.268 1.608,0.98266 2.59067,2.09933 0.98267,1.072 1.34,3.12667 v 19.162 q -0.62533,4.37733 -4.64533,5.58333 h -0.84867 q -0.22333,0.0447 -1.78667,0.0447 z m 0.44667,-4.288 q 1.96533,0 2.50133,-1.78667 v -18.04533 q -0.268,-0.84867 -0.58066,-1.38467 -0.75934,-0.58067 -1.474,-0.58067 -0.75934,0 -1.25067,0.58067 -0.49133,0.536 -0.75933,1.38467 v 17.956 q 0.268,1.38466 1.56333,1.876 z"
       style="font-style:normal;font-variant:normal;font-weight:normal;font-stretch:normal;font-size:44.6667px;font-family:'Roadgeek 2005 Engschrift';-inkscape-font-specification:'Roadgeek 2005 Engschrift';fill:#ffffff;stroke:none"
       id="path2314" />
  </g>
  <path
     id="rect7477-8-0"
     style="opacity:1;fill:#ffffff;fill-opacity:1;fill-rule:evenodd;stroke:none;stroke-width:0.113539;stroke-linecap:round;stroke-linejoin:round;stroke-miterlimit:4;stroke-dasharray:none;stroke-dashoffset:0;stroke-opacity:1"
     d="m 60.488337,79.820497 v 9.41211 h 28.20704 v -9.41211 z m 0,17.41992 v 9.562503 h 28.20704 v -9.562503 z m 14.07422,-42.94141 -14.01172,14.01172 h 28.02344 z m -24.8125,24.8125 -13.98242,13.98243 13.98242,13.982423 z m 49.6836,0.0586 V 106.93573 L 113.31647,93.052917 Z m -38.62305,38.966793 13.71094,13.71094 13.71094,-13.71094 z" />
</svg>
