<?xml version="1.0" encoding="UTF-8" standalone="no"?>
<!-- Created with Inkscape (http://www.inkscape.org/) -->

<svg
   version="1.1"
   id="svg2"
   width="108.76562"
   height="56.483475"
   viewBox="0 0 108.76562 56.483473"
   sodipodi:docname="sdg_13.svg"
   inkscape:version="0.92.3 (2405546, 2018-03-11)"
   inkscape:export-filename="sdg_1.svg"
   inkscape:export-xdpi="96"
   inkscape:export-ydpi="96"
   xmlns:inkscape="http://www.inkscape.org/namespaces/inkscape"
   xmlns:sodipodi="http://sodipodi.sourceforge.net/DTD/sodipodi-0.dtd"
   xmlns="http://www.w3.org/2000/svg"
   xmlns:svg="http://www.w3.org/2000/svg"
   xmlns:rdf="http://www.w3.org/1999/02/22-rdf-syntax-ns#"
   xmlns:cc="http://creativecommons.org/ns#"
   xmlns:dc="http://purl.org/dc/elements/1.1/">
  <metadata
     id="metadata8">
    <rdf:RDF>
      <cc:Work
         rdf:about="">
        <dc:format>image/svg+xml</dc:format>
        <dc:type
           rdf:resource="http://purl.org/dc/dcmitype/StillImage" />
        <dc:title />
      </cc:Work>
    </rdf:RDF>
  </metadata>
  <defs
     id="defs6" />
  <sodipodi:namedview
     pagecolor="#ffffff"
     bordercolor="#666666"
     borderopacity="1"
     objecttolerance="10"
     gridtolerance="10"
     guidetolerance="10"
     inkscape:pageopacity="0"
     inkscape:pageshadow="2"
     inkscape:window-width="1920"
     inkscape:window-height="1061"
     id="namedview4"
     showgrid="false"
     inkscape:zoom="1.0772059"
     inkscape:cx="528"
     inkscape:cy="408"
     inkscape:window-x="1920"
     inkscape:window-y="0"
     inkscape:window-maximized="1"
     inkscape:current-layer="svg2"
     showguides="true"
     inkscape:guide-bbox="true"
     inkscape:snap-global="true"
     inkscape:snap-center="true"
     inkscape:snap-object-midpoints="true"
     inkscape:snap-bbox="true"
     inkscape:snap-bbox-midpoints="true"
     inkscape:showpageshadow="2"
     inkscape:pagecheckerboard="0"
     inkscape:deskcolor="#d1d1d1" />
  <style
     id="style970"
     type="text/css">
	.st0{fill:#418FDE;}
</style>
  <path
     style="fill:#ffffff;stroke:none;stroke-width:1px;stroke-linecap:butt;stroke-linejoin:miter;stroke-opacity:1"
     d="M 55.960937,0.00302863 C 34.376967,-0.19834137 12.649463,9.6459486 -6.3742826e-7,28.241309 24.532294,64.305026 83.209964,67.457066 108.76562,28.241309 96.387094,9.2461786 76.236787,0.19219863 55.960937,0.00302863 Z m -1.24219,5.39647997 c 1.14682,3.6e-4 2.27159,0.0661 2.77539,0.19922 0.43867,0.11562 1.24659,0.28418 1.79492,0.37305 1.2148,0.19688 3.00209,0.73313 3.71875,1.11719 0.29108,0.15601 0.68046,0.28515 0.86329,0.28515 0.18283,0 0.46636,0.13433 0.63086,0.29883 0.1645,0.1645 0.47209,0.29883 0.68359,0.29883 0.2115,0 0.38476,0.0907 0.38476,0.20312 0,0.11239 0.22684,0.29115 0.50391,0.39649 0.27706,0.10534 0.61389,0.28582 0.74805,0.40039 0.13419,0.11455 0.72049,0.55747 1.30469,0.98437 1.05224,0.7689304 3.82421,3.3099804 3.82421,3.5058604 0,0.056 0.44777,0.67141 0.9961,1.36914 0.54833,0.69773 0.99804,1.36201 0.99804,1.47657 0,0.11458 0.11097,0.32997 0.24805,0.47656 0.76105,0.81383 2.34375,4.9689 2.34375,6.1543 0,1.37476 -1.18837,1.82632 -2.06445,0.78515 -1.28582,-1.52811 -2.52558,0.14239 -1.40625,1.89453 0.19754,0.30923 0.20094,0.46645 0.0176,0.70508 -0.30189,0.39294 -1.83469,1.18945 -2.29102,1.18945 -0.54164,0 -1.36666,1.08701 -1.51172,1.99414 -0.14974,0.93643 0.13683,2.22718 0.57617,2.5918 0.27693,0.22983 0.43182,1.19531 0.19141,1.19531 -0.15976,0 -1.27691,-0.81379 -2.03125,-1.48046 -0.59427,-0.52519 -0.90392,-1.0573 -1.75391,-3.00586 -0.14352,-0.329 -0.3117,-0.82862 -0.37304,-1.11133 -0.19481,-0.89784 -1.00218,-1.58008 -1.86914,-1.58008 -1.20915,0 -1.52402,0.35303 -1.55469,1.74414 -0.0182,0.82173 -0.14398,1.35131 -0.40625,1.71094 -0.45426,0.6229 -0.49953,0.63049 -1.03711,0.18359 -0.95559,-0.79437 -1.3289,-1.04687 -1.55078,-1.04687 -0.12877,0 -0.3459,-0.13434 -0.48242,-0.29883 -0.13652,-0.16451 -0.48334,-0.30408 -0.77149,-0.31055 -1.03964,-0.0234 -2.28431,-0.82751 -2.76367,-1.78515 -0.2465,-0.49244 -0.45004,-0.98624 -0.45117,-1.09766 -0.002,-0.17821 -1.82147,-1.49219 -2.06641,-1.49219 -0.0518,0 -0.56052,-0.30798 -1.13086,-0.68359 -1.17932,-0.77668 -1.58984,-0.73979 -1.58984,0.14258 0,0.50538 0.27834,0.8809 1.58203,2.13476 1.73963,1.67315 2.07879,2.36097 1.48633,3.01563 -0.34446,0.38063 -1.49967,0.97265 -1.89844,0.97265 -0.0976,0 -0.8468,-0.67914 -1.66406,-1.50976 -1.12812,-1.14658 -1.59545,-1.49438 -1.94141,-1.44532 -0.33423,0.0474 -0.47348,0.2167 -0.52148,0.63672 -0.036,0.31494 0.0321,0.66888 0.15039,0.78711 0.11824,0.11825 0.21484,0.37387 0.21484,0.56641 0,0.63096 1.71307,2.75976 2.2207,2.75976 0.0928,0 0.39901,0.19931 0.67969,0.44336 0.67285,0.58504 0.5253,1.15207 -0.59179,2.28516 -0.83597,0.847947 -0.85997,0.908237 -0.9668,2.466797 -0.0602,0.87901 -0.19759,1.70678 -0.30469,1.83984 -0.10709,0.13307 -0.25127,0.5128 -0.32226,0.8418 -0.071,0.329 -0.39521,0.90217 -0.72071,1.27344 -0.34025,0.3881 -0.59179,0.90057 -0.59179,1.20703 0,0.29319 -0.13196,0.70705 -0.29297,0.91992 -0.161,0.21288 -0.29728,0.49553 -0.30078,0.62695 -0.008,0.30696 -0.88319,1.25586 -1.15821,1.25586 -0.11536,0 -0.24397,0.10109 -0.28515,0.22461 -0.0413,0.12359 -0.52554,0.26739 -1.07618,0.32031 -0.9074,0.0872 -1.03113,0.0492 -1.33593,-0.41601 v -0.002 c -0.2267,-0.34597 -0.33789,-0.92768 -0.33789,-1.78515 0,-1.07449 -0.0765,-1.36219 -0.50196,-1.85156 -0.277,-0.31864 -0.54761,-0.78061 -0.59961,-1.02735 -0.052,-0.24675 -0.14244,-0.67955 -0.20117,-0.96094 -0.0721,-0.34531 -0.33065,-0.60402 -0.79687,-0.79882 -0.37993,-0.15874 -0.69141,-0.3695 -0.69141,-0.46875 0,-0.0992 -0.36291,-0.55966 -0.80664,-1.02149 -0.77706,-0.80877 -0.84112,-0.83479 -1.73047,-0.71289 -0.50783,0.0696 -1.0708,0.26184 -1.25195,0.42578 -0.18115,0.16393 -0.63653,0.29567 -1.01172,0.29297 -0.57905,-0.004 -0.73507,-0.11188 -1.03125,-0.70703 -0.19194,-0.3856 -0.34963,-0.87283 -0.34963,-1.08394 0,-0.2111 -0.126603,-0.67894 -0.28125,-1.039067 -0.367498,-0.8558 -0.725592,-3.18324 -0.845703,-5.49023 -0.09377,-1.80101 -0.08165,-1.86696 0.515625,-2.75196 0.336531,-0.49864 0.611328,-0.9844 0.611328,-1.08007 0,-0.19948 1.39511,-0.71545 1.69531,-0.62696 0.10967,0.0324 0.70708,0.13988 1.32617,0.24024 0.61909,0.10033 1.38029,0.3172 1.69336,0.48047 0.31306,0.16329 0.70465,0.30052 0.86914,0.30468 0.1645,0.004 0.47268,0.13781 0.68555,0.29883 0.21288,0.161 0.5892,0.29297 0.83594,0.29297 0.24673,0 0.49604,0.079 0.55469,0.17383 0.0586,0.0949 0.43834,0.22523 0.84375,0.29101 1.29028,0.20939 3.05211,-0.88609 3.05859,-1.90234 0.004,-0.75787 -0.70211,-1.35351 -1.60547,-1.35351 -0.41058,0 -0.84582,-0.13189 -0.98437,-0.29883 -0.13653,-0.16451 -0.56628,-0.29883 -0.95704,-0.29883 -0.44427,0 -0.87536,-0.15568 -1.15039,-0.41406 -0.58257,-0.54729 -2.08198,-0.62445 -2.62304,-0.13477 -0.21166,0.19154 -0.58457,0.34961 -0.82813,0.34961 -0.24356,0 -0.68433,0.12319 -0.98047,0.27344 -0.29613,0.15027 -0.97104,0.33511 -1.5,0.41211 l -0.962887,0.14062 0.06446,-0.5625 c 0.0575,-0.50203 0.16243,-0.57618 0.96289,-0.6875 1.74868,-0.24321 2.68543,-0.64434 2.75781,-1.17968 0.0576,-0.42597 0.26708,-0.66924 1.33008,-1.54493 0.10966,-0.0904 0.67984,-0.32154 1.26758,-0.51367 0.99911,-0.32661 1.15303,-0.3274 2.35742,-0.0254 1.56479,0.39244 2.27536,0.26272 3.14453,-0.57031 0.3607,-0.34572 0.89142,-0.83014 1.17969,-1.07617 0.60265,-0.51434 0.64183,-0.70095 0.22265,-1.04883 -0.50336,-0.41775 -1.68466,-0.0959 -2.35937,0.64258 -0.51535,0.56402 -0.72574,0.65226 -1.51172,0.64062 -1.09601,-0.0162 -2.5596,-0.61964 -2.71875,-1.12109 -0.28273,-0.89079 1.3124,-1.65574 3.82031,-1.83203 1.07235,-0.0754 2.04561,-0.21338 2.16211,-0.3086 0.29401,-0.24032 2.90597,-0.49957 2.89453,-0.28711 -0.005,0.0951 -0.38668,0.35925 -0.84765,0.58594 -0.74078,0.36429 -0.83789,0.49115 -0.83789,1.09375 0,0.49876 0.096,0.70124 0.35937,0.75195 0.42189,0.0813 1.97088,-0.60616 2.83594,-1.25781 0.33252,-0.2505 0.77375,-0.48924 0.98047,-0.5293 0.20673,-0.0401 0.46333,-0.33516 0.57031,-0.65625 0.17521,-0.52591 0.12891,-0.64364 -0.48047,-1.18164 -0.94921,-0.83804 -1.37152,-1.52501 -1.37305,-2.2343704 -0.003,-1.24956 -0.27413,-1.37061 -3.32617,-1.49805 -1.51681,-0.0633 -2.56731,-0.13137 -2.33398,-0.15039 0.23332,-0.0189 0.5373,-0.16949 0.67382,-0.33398 0.13653,-0.1645 0.39904,-0.29883 0.58399,-0.29883 0.18494,0 0.50978,-0.13196 0.72266,-0.29297 0.21288,-0.16101 0.55309,-0.29533 0.75585,-0.29883 0.20276,-0.004 0.65249,-0.13774 0.99805,-0.29883 0.34558,-0.1611 1.12145,-0.38087 1.72461,-0.48828 0.60316,-0.10741 1.50065,-0.28592 1.99414,-0.39648 0.59161,-0.13253 1.75943,-0.19762 2.90625,-0.19727 z m -15.92383,6.5586004 c 0.72564,0 0.60347,0.86515 -0.21093,1.48632 -0.75708,0.57746 -1.52735,0.67346 -1.52735,0.19141 0,-0.49315 1.22718,-1.67773 1.73828,-1.67773 z m -1.84179,3.8125 c 0.10993,-0.009 0.21863,-0.007 0.32422,0.008 0.43443,0.0614 0.3428,0.19662 -0.98633,1.46484 -1.57309,1.50098 -1.82477,1.67386 -1.83008,1.26172 -0.001,-0.14622 0.2006,-0.67617 0.44922,-1.17773 0.43139,-0.87026 1.27341,-1.49418 2.04297,-1.55664 z m 39.42968,9.97461 c 0.10347,0.025 0.24227,0.13747 0.42188,0.33593 0.45811,0.50621 0.49717,5.41797 0.043,5.41797 -0.15803,0 -0.35739,-0.11292 -0.44336,-0.25 -0.89464,-1.42656 -1.14316,-3.09485 -0.57227,-3.84961 0.16101,-0.21288 0.29535,-0.67872 0.29883,-1.03515 0.004,-0.45865 0.0795,-0.66078 0.25195,-0.61914 z m -16.49609,4.75781 c 0.1645,0 0.29883,0.035 0.29883,0.0781 0,0.0431 -0.13433,0.13023 -0.29883,0.19336 -0.1645,0.0632 -0.29883,0.0262 -0.29883,-0.0801 0,-0.10621 0.13433,-0.1914 0.29883,-0.1914 z m 12.54883,2.29492 c 0.0654,-0.01 0.14086,-0.003 0.21875,0.0273 0.16036,0.0615 0.24036,0.1909 0.17969,0.28907 -0.12925,0.20914 -0.36468,0.23299 -0.54493,0.0527 -0.15923,-0.15924 -0.0498,-0.3397 0.14649,-0.36914 z m -20.92383,1.492187 c 0.21816,0 0.0798,0.93221 -0.22266,1.49609 -0.17647,0.329 -0.39286,0.82153 -0.48046,1.0957 -0.12101,0.37882 -0.16276,0.2248 -0.17579,-0.64648 -0.0134,-0.89582 0.0693,-1.23528 0.38086,-1.54687 0.21932,-0.21934 0.44322,-0.39844 0.49805,-0.39844 z m 23.3418,0.0351 c 0.22748,0.0307 0.40893,0.30847 0.60351,0.86914 0.23924,0.68935 0.23363,0.87978 -0.041,1.48829 -0.5703,1.26331 -1.09383,2.2853 -1.48242,2.89257 -0.21052,0.329 -0.46807,0.79014 -0.57227,1.02539 -0.1042,0.23523 -0.26222,0.45913 -0.35156,0.49805 -0.0894,0.0389 -0.42178,0.45189 -0.73828,0.91797 -0.3165,0.46608 -0.65135,0.84766 -0.7461,0.84766 -0.0947,0 -0.17383,0.13432 -0.17383,0.29882 0,0.16449 -0.15573,0.30794 -0.34765,0.31836 -2.04889,0.11124 -2.42468,0.0718 -2.51367,-0.26757 -0.1121,-0.42761 -0.79124,-0.45686 -1.19727,-0.0508 -0.1645,0.16449 -0.5305,0.29883 -0.8125,0.29883 -0.42901,0 -0.51172,-0.0899 -0.51172,-0.55859 0,-0.30803 -0.13196,-0.73439 -0.29297,-0.94727 -0.17656,-0.23343 -0.295,-0.84518 -0.29882,-1.53906 -0.007,-1.23023 0.45793,-2.23 1.41406,-3.03711 0.45186,-0.38142 2.96675,-1.30292 3.53711,-1.29687 0.69529,0.007 3.43809,-1.04538 4.05273,-1.55469 0.18249,-0.15122 0.33617,-0.22156 0.47266,-0.20313 z m -7.97461,11.55274 c 0.29134,0.0211 0.49682,0.11827 0.56836,0.30469 0.0692,0.18019 0.10222,0.33788 0.0723,0.3496 -0.03,0.0118 -0.23575,0.1363 -0.45507,0.27735 -0.21934,0.14108 -0.64375,0.36246 -0.94532,0.49219 -0.30159,0.12973 -0.54883,0.29809 -0.54883,0.375 0,0.0768 -0.26256,0.19893 -0.58398,0.26953 -0.32142,0.0706 -0.6916,0.25662 -0.82227,0.41406 -0.13068,0.15745 -0.3671,0.28711 -0.52539,0.28711 -0.15828,0 -0.48508,0.10816 -0.72461,0.24219 -0.52924,0.29615 -1.76242,0.66912 -3.625,1.09375 -1.54216,0.35157 -7.12011,0.54889 -7.77539,0.27539 h -0.002 c -0.21932,-0.0915 -0.89098,-0.23248 -1.49414,-0.31446 -1.18365,-0.16088 -1.38787,-0.32441 -1.39258,-1.10937 -0.003,-0.55555 1.10358,-1.7832 1.60742,-1.7832 0.16229,0 0.49535,-0.14097 0.74024,-0.3125 0.84812,-0.59402 5.22667,-0.19262 6.88672,0.63086 0.31048,0.154 0.74113,0.27929 0.95703,0.27929 0.21588,0 0.6355,0.12361 0.93164,0.27344 0.69168,0.34999 1.84354,0.53473 2.25391,0.36133 0.17586,-0.0743 0.73684,-0.48808 1.24804,-0.91797 1.10899,-0.93258 2.75488,-1.55163 3.62891,-1.48828 z"
     id="path8205-2" />
</svg>
