<?xml version="1.0" encoding="UTF-8" standalone="no"?>
<!-- Created with Inkscape (http://www.inkscape.org/) -->

<svg
   version="1.1"
   id="svg2"
   width="92.681908"
   height="47.119141"
   viewBox="0 0 92.681906 47.119139"
   sodipodi:docname="sdg_12.svg"
   inkscape:version="0.92.3 (2405546, 2018-03-11)"
   inkscape:export-filename="sdg_1.svg"
   inkscape:export-xdpi="96"
   inkscape:export-ydpi="96"
   xmlns:inkscape="http://www.inkscape.org/namespaces/inkscape"
   xmlns:sodipodi="http://sodipodi.sourceforge.net/DTD/sodipodi-0.dtd"
   xmlns="http://www.w3.org/2000/svg"
   xmlns:svg="http://www.w3.org/2000/svg"
   xmlns:rdf="http://www.w3.org/1999/02/22-rdf-syntax-ns#"
   xmlns:cc="http://creativecommons.org/ns#"
   xmlns:dc="http://purl.org/dc/elements/1.1/">
  <metadata
     id="metadata8">
    <rdf:RDF>
      <cc:Work
         rdf:about="">
        <dc:format>image/svg+xml</dc:format>
        <dc:type
           rdf:resource="http://purl.org/dc/dcmitype/StillImage" />
        <dc:title />
      </cc:Work>
    </rdf:RDF>
  </metadata>
  <defs
     id="defs6" />
  <sodipodi:namedview
     pagecolor="#ffffff"
     bordercolor="#666666"
     borderopacity="1"
     objecttolerance="10"
     gridtolerance="10"
     guidetolerance="10"
     inkscape:pageopacity="0"
     inkscape:pageshadow="2"
     inkscape:window-width="1920"
     inkscape:window-height="1061"
     id="namedview4"
     showgrid="false"
     inkscape:zoom="1.0772059"
     inkscape:cx="528"
     inkscape:cy="408"
     inkscape:window-x="1920"
     inkscape:window-y="0"
     inkscape:window-maximized="1"
     inkscape:current-layer="svg2"
     showguides="true"
     inkscape:guide-bbox="true"
     inkscape:snap-global="true"
     inkscape:snap-center="true"
     inkscape:snap-object-midpoints="true"
     inkscape:snap-bbox="true"
     inkscape:snap-bbox-midpoints="true"
     inkscape:showpageshadow="2"
     inkscape:pagecheckerboard="0"
     inkscape:deskcolor="#d1d1d1" />
  <style
     id="style970"
     type="text/css">
	.st0{fill:#418FDE;}
</style>
  <path
     id="path8194"
     style="color:#000000;font-style:normal;font-variant:normal;font-weight:normal;font-stretch:normal;font-size:medium;line-height:normal;font-family:sans-serif;font-variant-ligatures:normal;font-variant-position:normal;font-variant-caps:normal;font-variant-numeric:normal;font-variant-alternates:normal;font-feature-settings:normal;text-indent:0;text-align:start;text-decoration:none;text-decoration-line:none;text-decoration-style:solid;text-decoration-color:#000000;letter-spacing:normal;word-spacing:normal;text-transform:none;writing-mode:lr-tb;direction:ltr;text-orientation:mixed;dominant-baseline:auto;baseline-shift:baseline;text-anchor:start;white-space:normal;shape-padding:0;clip-rule:nonzero;display:inline;overflow:visible;visibility:visible;opacity:1;isolation:auto;mix-blend-mode:normal;color-interpolation:sRGB;color-interpolation-filters:linearRGB;solid-color:#000000;solid-opacity:1;vector-effect:none;fill:#ffffff;fill-opacity:1;fill-rule:evenodd;stroke:none;stroke-width:1.6;stroke-linecap:round;stroke-linejoin:round;stroke-miterlimit:4;stroke-dasharray:none;stroke-dashoffset:0;stroke-opacity:1;color-rendering:auto;image-rendering:auto;shape-rendering:auto;text-rendering:auto;enable-background:accumulate"
     d="m 41.472188,29.450527 -13.21631,4.39055 c -0.58404,0.19423 -0.73921,0.94763 -0.27945,1.35684 l 10.40893,9.25007 c 0.45986,0.40885 1.18985,0.16722 1.31497,-0.43525 l 2.80739,-13.64062 c 0.12499,-0.6035 -0.45061,-1.11577 -1.03553,-0.92159 z M 70.074488,-6.0251085e-6 c -10.72611,0 -17.68448,7.7157800251085 -21.1113,11.7288500251085 0,0 2.62262,5.43343 4.08982,6.24185 0,0 6.81999,-11.07031 17.02148,-11.07031 3.597578,0 7.567298,1.17898 10.529298,3.83398 2.962,2.655 5.17773,6.78112 5.17773,13.70313 0,4.164303 -1.37211,8.224333 -3.73828,11.103513 -2.36616,2.87918 -5.57748,4.67774 -10.037108,4.67774 -4.80738,0 -8.61675,-1.37713 -12.28125,-4.3086 -3.66449,-2.93147 -7.1286,-7.54789 -10.46289,-13.931643 -1.71102,-3.27588 -4.47155,-8.58205 -8.79297,-13.19922 -4.32141,-4.61717 -10.48182,-8.63867003 -18.42578,-8.63867003 -5.32164,0 -10.85706,1.65562003 -15.0917899,5.63086003 -4.23474,3.97524 -6.91486001,10.17671 -6.95118001355,18.29883 C -0.06073191,37.700497 10.288818,46.904287 22.113558,46.904287 c 8.51054,0 14.23632,-5.25 14.23632,-5.25 l -4.625,-5.12109 c 0,0 -3.92609,3.4707 -9.61132,3.4707 -8.47629,0 -15.2610599,-5.57438 -15.2148499,-15.902343 0.0299,-6.68065 2.03609,-10.72739 4.7753899,-13.29883 2.73931,-2.57144 6.46679,-3.76172 10.36914,-3.76172 5.66999,0 9.88453,2.70916 13.38867,6.45313 3.50415,3.74396 6.01792,8.43079 7.71485,11.67968 3.60336,6.898913 7.52453,12.328783 12.26758,16.123053 4.74304,3.79427 10.36489,5.82227 16.59179,5.82227 6.446318,0 11.846908,-2.91374 15.367188,-7.19727 3.52028,-4.28353 5.3086,-9.83838 5.30859,-15.484373 0,-8.48665 -3.02496,-14.85314 -7.47265,-18.83985 C 80.761566,1.610934 75.151346,-6.0251085e-6 70.074488,-6.0251085e-6 Z" />
</svg>
