<?xml version="1.0" encoding="UTF-8" standalone="no"?>
<!-- Created with Inkscape (http://www.inkscape.org/) -->

<svg
   version="1.1"
   id="svg2"
   width="58.441406"
   height="78.527344"
   viewBox="0 0 58.441405 78.527344"
   sodipodi:docname="sdg_5.svg"
   inkscape:version="0.92.3 (2405546, 2018-03-11)"
   inkscape:export-filename="sdg_1.svg"
   inkscape:export-xdpi="96"
   inkscape:export-ydpi="96"
   xmlns:inkscape="http://www.inkscape.org/namespaces/inkscape"
   xmlns:sodipodi="http://sodipodi.sourceforge.net/DTD/sodipodi-0.dtd"
   xmlns="http://www.w3.org/2000/svg"
   xmlns:svg="http://www.w3.org/2000/svg"
   xmlns:rdf="http://www.w3.org/1999/02/22-rdf-syntax-ns#"
   xmlns:cc="http://creativecommons.org/ns#"
   xmlns:dc="http://purl.org/dc/elements/1.1/">
  <metadata
     id="metadata8">
    <rdf:RDF>
      <cc:Work
         rdf:about="">
        <dc:format>image/svg+xml</dc:format>
        <dc:type
           rdf:resource="http://purl.org/dc/dcmitype/StillImage" />
        <dc:title />
      </cc:Work>
    </rdf:RDF>
  </metadata>
  <defs
     id="defs6" />
  <sodipodi:namedview
     pagecolor="#ffffff"
     bordercolor="#666666"
     borderopacity="1"
     objecttolerance="10"
     gridtolerance="10"
     guidetolerance="10"
     inkscape:pageopacity="0"
     inkscape:pageshadow="2"
     inkscape:window-width="1920"
     inkscape:window-height="1061"
     id="namedview4"
     showgrid="false"
     inkscape:zoom="1.0772059"
     inkscape:cx="528"
     inkscape:cy="408"
     inkscape:window-x="1920"
     inkscape:window-y="0"
     inkscape:window-maximized="1"
     inkscape:current-layer="svg2"
     showguides="true"
     inkscape:guide-bbox="true"
     inkscape:snap-global="true"
     inkscape:snap-center="true"
     inkscape:snap-object-midpoints="true"
     inkscape:snap-bbox="true"
     inkscape:snap-bbox-midpoints="true"
     inkscape:showpageshadow="2"
     inkscape:pagecheckerboard="0"
     inkscape:deskcolor="#d1d1d1" />
  <style
     id="style970"
     type="text/css">
	.st0{fill:#418FDE;}
</style>
  <path
     id="rect7038"
     style="opacity:1;fill:#ffffff;fill-opacity:1;fill-rule:evenodd;stroke:none;stroke-width:0.2;stroke-linecap:round;stroke-linejoin:round;stroke-miterlimit:4;stroke-dasharray:none;stroke-dashoffset:0;stroke-opacity:1"
     d="m 13.054688,26.130858 v 5.88281 h 22.38281 v -5.88281 z m 0,9.125 v 6.16016 h 22.38281 v -6.16016 z M 39.527338,-1.6185067e-6 V 6.3964884 h 7.60938 l -8.10547,8.1074196 A 24.142889,24.142889 0 0 0 24.142578,9.3300784 24.142889,24.142889 0 0 0 -2.2515607e-6,33.472658 24.142889,24.142889 0 0 0 20.998048,57.380853 v 7.08399 h -7.60938 v 7.11328 h 7.60938 v 6.94922 h 7.05859 v -6.94922 h 7.55469 v -7.11328 h -7.55469 v -7.19727 a 24.142889,24.142889 0 0 0 20.22852,-23.794915 24.142889,24.142889 0 0 0 -4.42188,-13.875 l 8.017576,-8.01758 v 7.00391 h 6.56055 V -1.6185067e-6 Z M 24.142578,15.917968 A 17.555672,17.555672 0 0 1 41.697268,33.472658 17.555672,17.555672 0 0 1 24.142578,51.029293 17.555672,17.555672 0 0 1 6.5859377,33.472658 17.555672,17.555672 0 0 1 24.142578,15.917968 Z" />
</svg>
