<?xml version="1.0" encoding="UTF-8" standalone="no"?>
<!-- Created with Inkscape (http://www.inkscape.org/) -->

<svg
   version="1.1"
   id="svg2"
   width="80.197014"
   height="68.240456"
   viewBox="0 0 80.197015 68.240456"
   sodipodi:docname="sdg_2.svg"
   inkscape:version="0.92.3 (2405546, 2018-03-11)"
   inkscape:export-filename="sdg_1.svg"
   inkscape:export-xdpi="96"
   inkscape:export-ydpi="96"
   xmlns:inkscape="http://www.inkscape.org/namespaces/inkscape"
   xmlns:sodipodi="http://sodipodi.sourceforge.net/DTD/sodipodi-0.dtd"
   xmlns="http://www.w3.org/2000/svg"
   xmlns:svg="http://www.w3.org/2000/svg"
   xmlns:rdf="http://www.w3.org/1999/02/22-rdf-syntax-ns#"
   xmlns:cc="http://creativecommons.org/ns#"
   xmlns:dc="http://purl.org/dc/elements/1.1/">
  <metadata
     id="metadata8">
    <rdf:RDF>
      <cc:Work
         rdf:about="">
        <dc:format>image/svg+xml</dc:format>
        <dc:type
           rdf:resource="http://purl.org/dc/dcmitype/StillImage" />
        <dc:title />
      </cc:Work>
    </rdf:RDF>
  </metadata>
  <defs
     id="defs6" />
  <sodipodi:namedview
     pagecolor="#ffffff"
     bordercolor="#666666"
     borderopacity="1"
     objecttolerance="10"
     gridtolerance="10"
     guidetolerance="10"
     inkscape:pageopacity="0"
     inkscape:pageshadow="2"
     inkscape:window-width="1920"
     inkscape:window-height="1061"
     id="namedview4"
     showgrid="false"
     inkscape:zoom="1.0772059"
     inkscape:cx="528"
     inkscape:cy="408"
     inkscape:window-x="1920"
     inkscape:window-y="0"
     inkscape:window-maximized="1"
     inkscape:current-layer="svg2"
     showguides="true"
     inkscape:guide-bbox="true"
     inkscape:snap-global="true"
     inkscape:snap-center="true"
     inkscape:snap-object-midpoints="true"
     inkscape:snap-bbox="true"
     inkscape:snap-bbox-midpoints="true"
     inkscape:showpageshadow="2"
     inkscape:pagecheckerboard="0"
     inkscape:deskcolor="#d1d1d1" />
  <style
     id="style970"
     type="text/css">
	.st0{fill:#418FDE;}
</style>
  <path
     id="path6925"
     style="opacity:1;fill:#ffffff;fill-opacity:1;fill-rule:evenodd;stroke:none;stroke-width:0.1;stroke-linecap:round;stroke-linejoin:round;stroke-miterlimit:4;stroke-dasharray:none;stroke-dashoffset:0;stroke-opacity:1"
     d="m 51.549885,68.240464 c 1.17407,0 1.38347,-1.27824 1.32577,-2.10564 -0.0702,-1.00557 0.89693,-1.1651 1.40376,-1.32577 5.71569,-1.81193 11.7114,-5.28829 16.455182,-10.29423 4.54768,-4.79901 8.13645,-9.77911 9.43638,-18.092885 0.15746,-1.00707 -0.4101,-1.79369 -1.40376,-1.79369 H 1.429805 c -0.99366003,0 -1.56122003,0.78662 -1.40376003,1.79369 C 1.325975,44.735714 4.914745,49.715814 9.462425,54.514824 c 4.74377,5.00594 10.73948,8.4823 16.45517,10.29423 0.50683,0.16067 1.47395,0.3202 1.40376,1.32577 -0.0577,0.8274 0.1517,2.10564 1.32577,2.10564 z M 25.178135,31.229879 h 5.12847 c 0,0 2.35052,-6.56859 -3.25354,-12.18701 -1.79293,-1.79752 -2.92916,-4.4919 -2.92916,-7.03074 0,-4.8289301 2.16703,-7.6252301 2.80751,-8.6565101 1.65102,-2.65840996 -2.28383,-4.52833 -3.97731,-2.49556996 -2.61573,3.13977996 -4.13329,7.45542996 -4.13329,11.54202006 0,4.60542 2.23604,6.94404 4.52322,9.67033 4.24759,5.06307 1.8341,9.15748 1.8341,9.15748 z m 30.88269,0 h 5.12847 c 0,0 2.35052,-6.56859 -3.25354,-12.18701 -1.79293,-1.79752 -2.92916,-4.4919 -2.92916,-7.03074 0,-4.8289301 2.16703,-7.6252301 2.80751,-8.6565101 1.65102,-2.65840996 -2.28383,-4.52833 -3.97731,-2.49556996 -2.61573,3.13977996 -4.13329,7.45542996 -4.13329,11.54202006 0,4.60542 2.23604,6.94404 4.52322,9.67033 4.24759,5.06307 1.8341,9.15748 1.8341,9.15748 z m -15.36336,0 h 5.12847 c 0,0 2.35052,-6.56859 -3.25354,-12.18701 -1.79293,-1.79752 -2.92916,-4.4919 -2.92916,-7.03074 0,-4.8289301 2.16703,-7.6252301 2.80751,-8.6565101 1.65102,-2.65840996 -2.28383,-4.52833 -3.97731,-2.49556996 -2.61573,3.13977996 -4.13329,7.45542996 -4.13329,11.54202006 0,4.60542 2.23604,6.94404 4.52322,9.67033 4.24759,5.06307 1.8341,9.15748 1.8341,9.15748 z" />
</svg>
