<?xml version="1.0" encoding="UTF-8" standalone="no"?>
<!-- Created with Inkscape (http://www.inkscape.org/) -->

<svg
   version="1.1"
   id="svg2"
   width="71.727509"
   height="76.314499"
   viewBox="0 0 71.727509 76.314496"
   sodipodi:docname="sdg_8.svg"
   inkscape:version="1.2.2 (b0a8486, 2022-12-01)"
   inkscape:export-filename="sdg_1.svg"
   inkscape:export-xdpi="96"
   inkscape:export-ydpi="96"
   xmlns:inkscape="http://www.inkscape.org/namespaces/inkscape"
   xmlns:sodipodi="http://sodipodi.sourceforge.net/DTD/sodipodi-0.dtd"
   xmlns="http://www.w3.org/2000/svg"
   xmlns:svg="http://www.w3.org/2000/svg"
   xmlns:rdf="http://www.w3.org/1999/02/22-rdf-syntax-ns#"
   xmlns:cc="http://creativecommons.org/ns#"
   xmlns:dc="http://purl.org/dc/elements/1.1/">
  <metadata
     id="metadata8">
    <rdf:RDF>
      <cc:Work
         rdf:about="">
        <dc:format>image/svg+xml</dc:format>
        <dc:type
           rdf:resource="http://purl.org/dc/dcmitype/StillImage" />
        <dc:title />
      </cc:Work>
    </rdf:RDF>
  </metadata>
  <defs
     id="defs6" />
  <sodipodi:namedview
     pagecolor="#ffffff"
     bordercolor="#666666"
     borderopacity="1"
     objecttolerance="10"
     gridtolerance="10"
     guidetolerance="10"
     inkscape:pageopacity="0"
     inkscape:pageshadow="2"
     inkscape:window-width="1344"
     inkscape:window-height="456"
     id="namedview4"
     showgrid="false"
     inkscape:zoom="1.0772059"
     inkscape:cx="233.4744"
     inkscape:cy="72.409555"
     inkscape:window-x="0"
     inkscape:window-y="25"
     inkscape:window-maximized="0"
     inkscape:current-layer="svg2"
     showguides="true"
     inkscape:guide-bbox="true"
     inkscape:snap-global="true"
     inkscape:snap-center="true"
     inkscape:snap-object-midpoints="true"
     inkscape:snap-bbox="true"
     inkscape:snap-bbox-midpoints="true"
     inkscape:showpageshadow="2"
     inkscape:pagecheckerboard="0"
     inkscape:deskcolor="#d1d1d1" />
  <style
     id="style970"
     type="text/css">
	.st0{fill:#418FDE;}
</style>
  <path
     id="path7328"
     style="color:#000000;font-style:normal;font-variant:normal;font-weight:normal;font-stretch:normal;font-size:medium;line-height:normal;font-family:sans-serif;font-variant-ligatures:normal;font-variant-position:normal;font-variant-caps:normal;font-variant-numeric:normal;font-variant-alternates:normal;font-feature-settings:normal;text-indent:0;text-align:start;text-decoration:none;text-decoration-line:none;text-decoration-style:solid;text-decoration-color:#000000;letter-spacing:normal;word-spacing:normal;text-transform:none;writing-mode:lr-tb;direction:ltr;text-orientation:mixed;dominant-baseline:auto;baseline-shift:baseline;text-anchor:start;white-space:normal;shape-padding:0;clip-rule:nonzero;display:inline;overflow:visible;visibility:visible;opacity:1;isolation:auto;mix-blend-mode:normal;color-interpolation:sRGB;color-interpolation-filters:linearRGB;solid-color:#000000;solid-opacity:1;vector-effect:none;fill:#ffffff;fill-opacity:1;fill-rule:nonzero;stroke:none;stroke-width:5;stroke-linecap:butt;stroke-linejoin:round;stroke-miterlimit:4;stroke-dasharray:none;stroke-dashoffset:0;stroke-opacity:1;color-rendering:auto;image-rendering:auto;shape-rendering:auto;text-rendering:auto;enable-background:accumulate"
     d="m 71.050783,4.287495e-5 c -0.0615,-6.3e-4 -0.12555,0.005999995 -0.18945,0.02339999505 L 58.642581,3.2968829 c -0.51147,0.13708 -0.68202,0.77692 -0.30664,1.15039 l 2.64062,2.64063 -26.08984,26.1074201 -10.38477,-10.38281 c -0.97632,-0.97592 -2.55883,-0.97592 -3.53515,0 L 1.4438992e-6,43.779303 3.5371114,47.314466 22.734371,28.115243 l 10.38282,10.38477 c 0.97655,0.97722 2.56056,0.97722 3.53711,0 l 27.857422,-27.87696 2.76758,2.76758 c 0.13135,0.13139 0.31033,0.20396 0.49609,0.20117 0.3071,-0.004 0.57426,-0.2113 0.6543,-0.50781 l 3.27343,-12.21875013 c 0.12041,-0.44734 -0.22212,-0.86082 -0.65234,-0.86522999505 z M 64.511723,17.695353 48.050781,34.168013 v 40.238283 c 0,1.058 0.85215,1.9082 1.91016,1.9082 h 14.000002 c 1.058,0 1.91015,-0.8502 1.91015,-1.9082 V 19.054723 Z M 22.244141,35.677773 4.4257814,53.498086 v 20.90821 c 0,1.058 0.85216,1.9082 1.91016,1.9082 H 20.335941 c 1.058,0 1.9082,-0.8502 1.9082,-1.9082 z m 21.8125,2.48633 -7.40234,7.4082 c -0.97655,0.977223 -2.56056,0.977223 -3.53711,0 l -6.87891,-6.88086 v 35.714853 c 0,1.058 0.85216,1.9082 1.91016,1.9082 h 14 c 1.058,0 1.9082,-0.8502 1.9082,-1.9082 z" />
  <path
     inkscape:connector-curvature="0"
     style="color:#000000;font-style:normal;font-variant:normal;font-weight:normal;font-stretch:normal;font-size:medium;line-height:normal;font-family:sans-serif;font-variant-ligatures:normal;font-variant-position:normal;font-variant-caps:normal;font-variant-numeric:normal;font-variant-alternates:normal;font-feature-settings:normal;text-indent:0;text-align:start;text-decoration:none;text-decoration-line:none;text-decoration-style:solid;text-decoration-color:#000000;letter-spacing:normal;word-spacing:normal;text-transform:none;writing-mode:lr-tb;direction:ltr;text-orientation:mixed;dominant-baseline:auto;baseline-shift:baseline;text-anchor:start;white-space:normal;shape-padding:0;clip-rule:nonzero;display:inline;overflow:visible;visibility:visible;opacity:1;isolation:auto;mix-blend-mode:normal;color-interpolation:sRGB;color-interpolation-filters:linearRGB;solid-color:#000000;solid-opacity:1;vector-effect:none;fill:#ffffff;fill-opacity:1;fill-rule:nonzero;stroke:none;stroke-width:5;stroke-linecap:butt;stroke-linejoin:round;stroke-miterlimit:4;stroke-dasharray:none;stroke-dashoffset:0;stroke-opacity:1;color-rendering:auto;image-rendering:auto;shape-rendering:auto;text-rendering:auto;enable-background:accumulate"
     d="m 71.050783,4.287495e-5 c -0.0615,-6.3e-4 -0.12555,0.005999995 -0.18945,0.02339999505 L 58.642581,3.2968829 c -0.51147,0.13708 -0.68202,0.77692 -0.30664,1.15039 l 2.64062,2.64063 -26.08984,26.1074201 -10.38477,-10.38281 c -0.97632,-0.97592 -2.55883,-0.97592 -3.53515,0 L 1.4438992e-6,43.779303 3.5371114,47.314466 22.734371,28.115243 l 10.38282,10.38477 c 0.97655,0.97722 2.56056,0.97722 3.53711,0 l 27.857422,-27.87696 2.76758,2.76758 c 0.13135,0.13139 0.31033,0.20396 0.49609,0.20117 0.3071,-0.004 0.57426,-0.2113 0.6543,-0.50781 l 3.27343,-12.21875013 c 0.12041,-0.44734 -0.22212,-0.86082 -0.65234,-0.86522999505 z"
     id="path7328-8" />
</svg>
