<?xml version="1.0" encoding="UTF-8" standalone="no"?>
<!-- Created with Inkscape (http://www.inkscape.org/) -->

<svg
   version="1.1"
   id="svg2"
   width="79.978523"
   height="67.049332"
   viewBox="0 0 79.978524 67.04933"
   sodipodi:docname="sdg_14.svg"
   inkscape:version="0.92.3 (2405546, 2018-03-11)"
   inkscape:export-filename="sdg_1.svg"
   inkscape:export-xdpi="96"
   inkscape:export-ydpi="96"
   xmlns:inkscape="http://www.inkscape.org/namespaces/inkscape"
   xmlns:sodipodi="http://sodipodi.sourceforge.net/DTD/sodipodi-0.dtd"
   xmlns="http://www.w3.org/2000/svg"
   xmlns:svg="http://www.w3.org/2000/svg"
   xmlns:rdf="http://www.w3.org/1999/02/22-rdf-syntax-ns#"
   xmlns:cc="http://creativecommons.org/ns#"
   xmlns:dc="http://purl.org/dc/elements/1.1/">
  <metadata
     id="metadata8">
    <rdf:RDF>
      <cc:Work
         rdf:about="">
        <dc:format>image/svg+xml</dc:format>
        <dc:type
           rdf:resource="http://purl.org/dc/dcmitype/StillImage" />
        <dc:title />
      </cc:Work>
    </rdf:RDF>
  </metadata>
  <defs
     id="defs6" />
  <sodipodi:namedview
     pagecolor="#ffffff"
     bordercolor="#666666"
     borderopacity="1"
     objecttolerance="10"
     gridtolerance="10"
     guidetolerance="10"
     inkscape:pageopacity="0"
     inkscape:pageshadow="2"
     inkscape:window-width="1920"
     inkscape:window-height="1061"
     id="namedview4"
     showgrid="false"
     inkscape:zoom="1.0772059"
     inkscape:cx="528"
     inkscape:cy="408"
     inkscape:window-x="1920"
     inkscape:window-y="0"
     inkscape:window-maximized="1"
     inkscape:current-layer="svg2"
     showguides="true"
     inkscape:guide-bbox="true"
     inkscape:snap-global="true"
     inkscape:snap-center="true"
     inkscape:snap-object-midpoints="true"
     inkscape:snap-bbox="true"
     inkscape:snap-bbox-midpoints="true"
     inkscape:showpageshadow="2"
     inkscape:pagecheckerboard="0"
     inkscape:deskcolor="#d1d1d1" />
  <style
     id="style970"
     type="text/css">
	.st0{fill:#418FDE;}
</style>
  <path
     id="path8226-6-0"
     style="opacity:1;fill:#ffffff;stroke:none;stroke-width:1px;stroke-linecap:butt;stroke-linejoin:miter;stroke-opacity:1"
     d="m 48.958981,31.563101 c -10.10214,0.2348 -20.00686,5.57025 -29.83593,12.859377 C 14.795341,36.988971 9.0886608,31.700081 7.6348478e-7,31.672481 8.6866208,44.603268 6.9428808,56.120708 7.6348478e-7,66.932238 9.0886608,66.904638 14.795341,61.615748 19.123051,54.182238 c 19.65815,14.57826 39.61813,21.33868 60.855472,-4.8789 C 69.359853,36.194551 59.061131,31.328301 48.958981,31.563101 Z m 9.78125,10.199217 a 4.8447647,4.8447647 0 0 1 4.84571,4.84571 4.8447647,4.8447647 0 0 1 -4.84571,4.84375 4.8447647,4.8447647 0 0 1 -4.84375,-4.84375 4.8447647,4.8447647 0 0 1 4.84375,-4.84571 z m 20.492012,-27.071137 0.34861,3.98405 c -7.54085,5.18856 -13.14156,3.12714 -18.177222,-1.04581 -6.22279,4.59131 -13.07486,5.95752 -21.41426,-0.29881 -6.15403,3.76753 -12.45429,7.05546 -21.86246,0.14941 -4.90965,3.8293 -9.8364202,7.60128 -17.72901024,1.44421 l -0.1992,-4.18325 c 7.25245004,4.24711 12.95871024,1.82536 18.37642024,-2.49003 7.18789,4.86393 14.29193,6.29026 21.21505,0.29881 8.02938,7.36181 14.77437,4.21498 21.36446,-0.19921 4.82869,3.09212 9.276822,7.05546 18.077612,2.34063 z m 0,-12.2509501 0.34861,3.98405 c -7.54085,5.1885601 -13.14156,3.12714 -18.177222,-1.04581 -6.22279,4.59131 -13.07486,5.9575201 -21.41426,-0.29881 -6.15403,3.76753 -12.45429,7.0554601 -21.86246,0.14941 -4.90965,3.8293 -9.8364202,7.6012801 -17.72901024,1.44421 l -0.1992,-4.18325 C 7.4511508,6.7371409 13.157411,4.3153909 18.575121,8.8355302e-7 25.763011,4.8639309 32.867051,6.2902609 39.790171,0.29881088 c 8.02938,7.36181002 14.77437,4.21498002 21.36446,-0.19921 4.82869,3.09212002 9.276822,7.05546002 18.077612,2.34063002 z" />
</svg>
