<?xml version="1.0" encoding="UTF-8" standalone="no"?>
<!-- Created with Inkscape (http://www.inkscape.org/) -->

<svg
   version="1.1"
   id="svg2"
   width="76.018356"
   height="76.018372"
   viewBox="0 0 76.018355 76.018369"
   sodipodi:docname="sdg_7.svg"
   inkscape:version="0.92.3 (2405546, 2018-03-11)"
   inkscape:export-filename="sdg_1.svg"
   inkscape:export-xdpi="96"
   inkscape:export-ydpi="96"
   xmlns:inkscape="http://www.inkscape.org/namespaces/inkscape"
   xmlns:sodipodi="http://sodipodi.sourceforge.net/DTD/sodipodi-0.dtd"
   xmlns="http://www.w3.org/2000/svg"
   xmlns:svg="http://www.w3.org/2000/svg"
   xmlns:rdf="http://www.w3.org/1999/02/22-rdf-syntax-ns#"
   xmlns:cc="http://creativecommons.org/ns#"
   xmlns:dc="http://purl.org/dc/elements/1.1/">
  <metadata
     id="metadata8">
    <rdf:RDF>
      <cc:Work
         rdf:about="">
        <dc:format>image/svg+xml</dc:format>
        <dc:type
           rdf:resource="http://purl.org/dc/dcmitype/StillImage" />
        <dc:title />
      </cc:Work>
    </rdf:RDF>
  </metadata>
  <defs
     id="defs6" />
  <sodipodi:namedview
     pagecolor="#ffffff"
     bordercolor="#666666"
     borderopacity="1"
     objecttolerance="10"
     gridtolerance="10"
     guidetolerance="10"
     inkscape:pageopacity="0"
     inkscape:pageshadow="2"
     inkscape:window-width="1920"
     inkscape:window-height="1061"
     id="namedview4"
     showgrid="false"
     inkscape:zoom="1.0772059"
     inkscape:cx="528"
     inkscape:cy="408"
     inkscape:window-x="1920"
     inkscape:window-y="0"
     inkscape:window-maximized="1"
     inkscape:current-layer="svg2"
     showguides="true"
     inkscape:guide-bbox="true"
     inkscape:snap-global="true"
     inkscape:snap-center="true"
     inkscape:snap-object-midpoints="true"
     inkscape:snap-bbox="true"
     inkscape:snap-bbox-midpoints="true"
     inkscape:showpageshadow="2"
     inkscape:pagecheckerboard="0"
     inkscape:deskcolor="#d1d1d1" />
  <style
     id="style970"
     type="text/css">
	.st0{fill:#418FDE;}
</style>
  <path
     id="rect7141-6-0-9-8-6-8-6-9-7"
     style="opacity:1;fill:#ffffff;fill-opacity:1;fill-rule:evenodd;stroke:none;stroke-width:0.1;stroke-linecap:round;stroke-linejoin:round;stroke-miterlimit:4;stroke-dasharray:none;stroke-dashoffset:0;stroke-opacity:1"
     d="m 7.7734755,18.180089 8.0362915,4.63976 c 0.916255,0.529 1.228017,1.69251 0.699017,2.60877 -0.529,0.91625 -1.692507,1.228 -2.608762,0.699 l -8.0362915,-4.63975 c -0.916255,-0.529 -1.228022,-1.6925 -0.699022,-2.60876 0.529,-0.91625 1.692512,-1.22802 2.608767,-0.69902 z M 21.738821,5.7188286 l 4.63976,8.0362904 c 0.529,0.91626 0.21723,2.07977 -0.69902,2.60877 -0.91626,0.529 -2.07977,0.21724 -2.60877,-0.69901 l -4.63976,-8.0363004 c -0.52899,-0.91625 -0.21723,-2.07976 0.69902,-2.60876 0.91626,-0.529 2.07977,-0.21724 2.60877,0.69901 z m 18.32499,-3.80908 v 9.2795104 c 0,1.058 -0.85175,1.90974 -1.90975,1.90974 -1.058,0 -1.90975,-0.85174 -1.90975,-1.90974 V 1.9097486 c 0,-1.05799003 0.85175,-1.9097500279365 1.90975,-1.9097500279365 1.058,0 1.90975,0.8517499979365 1.90975,1.9097500279365 z m 17.77444,5.86373 -4.63976,8.0362904 c -0.529,0.91626 -1.6925,1.22802 -2.60875,0.69902 -0.91626,-0.529 -1.22802,-1.69251 -0.69902,-2.60876 l 4.63975,-8.0363004 c 0.529,-0.91625 1.69252,-1.22801 2.60877,-0.69901 0.91626,0.529 1.22801,1.6925 0.69901,2.60876 z m 12.461257,13.9653404 -8.036287,4.63975 c -0.91626,0.529 -2.07975,0.21725 -2.60875,-0.69901 -0.529,-0.91625 -0.21725,-2.07976 0.69901,-2.60876 l 8.036277,-4.63976 c 0.91626,-0.529 2.07977,-0.21723 2.60877,0.69902 0.52901,0.91626 0.21724,2.07976 -0.69902,2.60876 z m 3.8091,18.32499 h -9.27951 c -1.058,0 -1.909737,-0.85175 -1.909737,-1.90975 0,-1.058 0.851737,-1.90974 1.909727,-1.90974 h 9.27952 c 1.058,0 1.90975,0.85174 1.90975,1.90974 0,1.058 -0.85175,1.90976 -1.90975,1.90975 z m -5.86371,17.774463 -8.036297,-4.63976 c -0.91626,-0.529 -1.22801,-1.69249 -0.69901,-2.60875 0.529,-0.91625 1.6925,-1.22802 2.60875,-0.69902 l 8.036297,4.63976 c 0.91626,0.529 1.22801,1.69251 0.69901,2.60876 -0.529,0.91626 -1.6925,1.22801 -2.60875,0.69901 z m -13.965357,12.46125 -4.63975,-8.03629 c -0.529,-0.91625 -0.21725,-2.07976 0.69901,-2.60876 0.91625,-0.529 2.07977,-0.21724 2.60877,0.69901 l 4.63975,8.0363 c 0.529,0.91625 0.21723,2.07976 -0.69902,2.60876 -0.91626,0.529 -2.07975,0.21724 -2.60876,-0.69902 z m -18.32498,3.8091 v -9.27951 c -10e-6,-1.058 0.85174,-1.90974 1.90974,-1.90974 1.058,0 1.90975,0.85174 1.90975,1.90974 l -1e-5,9.27951 c 1e-5,1.058 -0.85174,1.90975 -1.90974,1.90975 -1.058,0 -1.90974,-0.85175 -1.90974,-1.90975 z m -17.77447,-5.8637 4.63976,-8.03629 c 0.529,-0.91626 1.69251,-1.22802 2.60877,-0.69902 0.91625,0.529 1.228,1.69251 0.699,2.60876 l -4.63975,8.03629 c -0.529,0.91626 -1.6925,1.22802 -2.60875,0.69902 -0.91626,-0.529 -1.22803,-1.69251 -0.69903,-2.60876 z M 5.7188325,54.279542 13.755118,49.639782 c 0.916258,-0.529 2.079775,-0.21723 2.608771,0.69902 0.529005,0.91626 0.217242,2.07977 -0.699016,2.60877 l -8.0362945,4.63975 c -0.916252,0.529 -2.079753,0.21724 -2.608757,-0.69902 -0.528996,-0.91625 -0.217242,-2.07976 0.699011,-2.60876 z m -3.809088,-18.324993 9.2795145,1e-5 c 1.057996,0 1.909745,0.85175 1.909742,1.90975 3e-6,1.058 -0.851739,1.90974 -1.909744,1.90974 H 1.9097465 C 0.8517425,39.774049 1.4989214e-6,38.922309 -5.0107857e-7,37.864309 1.4989214e-6,36.806309 0.8517485,35.954559 1.9097445,35.954549 Z M 38.008371,16.101679 a 21.907629,21.907629 0 0 0 -21.906259,21.90821 21.907629,21.907629 0 0 0 21.906259,21.906253 21.907629,21.907629 0 0 0 21.9082,-21.906253 21.907629,21.907629 0 0 0 -21.9082,-21.90821 z m -0.082,7.44336 c 0.71589,0 1.29101,0.57707 1.29101,1.29297 v 7.38281 c 0,0.71591 -0.57512,1.29297 -1.29101,1.29297 -0.7159,0 -1.29297,-0.57706 -1.29297,-1.29297 v -7.38281 c 0,-0.7159 0.57707,-1.29297 1.29297,-1.29297 z m -3.3711,3.78711 v 3.82032 a 7.6784024,7.6784024 0 0 0 -4.22461,6.85742 7.6784024,7.6784024 0 0 0 7.67774,7.677733 7.6784024,7.6784024 0 0 0 7.67968,-7.677733 7.6784024,7.6784024 0 0 0 -4.18554,-6.83008 l -1e-5,-3.82617 a 11.226926,11.226926 0 0 1 7.73438,10.65625 11.226926,11.226926 0 0 1 -11.22851,11.226573 11.226926,11.226926 0 0 1 -11.22657,-11.226573 11.226926,11.226926 0 0 1 7.77344,-10.67774 z" />
</svg>
