<?xml version="1.0" encoding="UTF-8" standalone="no"?>
<!-- Created with Inkscape (http://www.inkscape.org/) -->

<svg
   version="1.1"
   id="svg2"
   width="70.802734"
   height="66.033569"
   viewBox="0 0 70.802733 66.033567"
   sodipodi:docname="sdg_16.svg"
   inkscape:version="0.92.3 (2405546, 2018-03-11)"
   inkscape:export-filename="sdg_1.svg"
   inkscape:export-xdpi="96"
   inkscape:export-ydpi="96"
   xmlns:inkscape="http://www.inkscape.org/namespaces/inkscape"
   xmlns:sodipodi="http://sodipodi.sourceforge.net/DTD/sodipodi-0.dtd"
   xmlns="http://www.w3.org/2000/svg"
   xmlns:svg="http://www.w3.org/2000/svg"
   xmlns:rdf="http://www.w3.org/1999/02/22-rdf-syntax-ns#"
   xmlns:cc="http://creativecommons.org/ns#"
   xmlns:dc="http://purl.org/dc/elements/1.1/">
  <metadata
     id="metadata8">
    <rdf:RDF>
      <cc:Work
         rdf:about="">
        <dc:format>image/svg+xml</dc:format>
        <dc:type
           rdf:resource="http://purl.org/dc/dcmitype/StillImage" />
        <dc:title />
      </cc:Work>
    </rdf:RDF>
  </metadata>
  <defs
     id="defs6" />
  <sodipodi:namedview
     pagecolor="#ffffff"
     bordercolor="#666666"
     borderopacity="1"
     objecttolerance="10"
     gridtolerance="10"
     guidetolerance="10"
     inkscape:pageopacity="0"
     inkscape:pageshadow="2"
     inkscape:window-width="1920"
     inkscape:window-height="1061"
     id="namedview4"
     showgrid="false"
     inkscape:zoom="1.0772059"
     inkscape:cx="528"
     inkscape:cy="408"
     inkscape:window-x="1920"
     inkscape:window-y="0"
     inkscape:window-maximized="1"
     inkscape:current-layer="svg2"
     showguides="true"
     inkscape:guide-bbox="true"
     inkscape:snap-global="true"
     inkscape:snap-center="true"
     inkscape:snap-object-midpoints="true"
     inkscape:snap-bbox="true"
     inkscape:snap-bbox-midpoints="true"
     inkscape:showpageshadow="2"
     inkscape:pagecheckerboard="0"
     inkscape:deskcolor="#d1d1d1" />
  <style
     id="style970"
     type="text/css">
	.st0{fill:#418FDE;}
</style>
  <path
     style="opacity:1;fill:#ffffff;fill-opacity:1;fill-rule:evenodd;stroke:none;stroke-width:0.2;stroke-linecap:round;stroke-linejoin:round;stroke-miterlimit:4;stroke-dasharray:none;stroke-dashoffset:0;stroke-opacity:1"
     d="M 70.621094,3.6346063e-4 C 67.232204,-0.03063654 66.719024,1.9227035 66.648444,4.1820035 c 3.38889,0.031 3.90207,-1.92234 3.97265,-4.18164003937 z M 61.511721,0.53356346 c -1.96317,2.76252004 -0.653,4.30062004 1.16015,5.65039004 1.963173,-2.76252 0.653003,-4.30062 -1.16015,-5.65039004 z m -3.95117,4.13672004 c -1.95075,2.7713 -0.63366,4.30292 1.18554,5.6445295 1.95075,-2.7712995 0.63366,-4.3029195 -1.18554,-5.6445295 z m 7.826173,0.54297 a 0.45004499,0.45004499 0 0 0 -0.31446,0.12305 c -2.650313,2.43473 -4.944073,5.0064695 -6.203123,7.9453095 -0.29616,0.69128 -0.5278,1.40513 -0.69727,2.13867 -1.76374,-1.7604 -2.40506,-3.63948 -4.68164,-3.59961 -5.45212,0.0955 -8.28852,8.57568 -15.86718,8.62891 C 26.912791,20.524783 27.761721,7.5275235 7.6132807,7.4222435 19.681931,17.081013 7.4418707,25.956013 25.318361,32.810913 c -7.58621,1.417427 -7.75371,7.905267 -17.7578103,4.691397 4.6626003,1.80935 9.6917403,7.69814 19.0800703,8.03907 v 7.04101 c -10.68537,-0.31824 -21.0488303,-0.75 -21.0488303,-0.75 v 4.4668 c 0,0 24.9352203,-1.07813 37.4589903,-1.07813 4.14365,0 7.58875,0.83726 9.07031,1.26172 v 2.82617 c 0,1.03602 0.83508,1.86915 1.8711,1.86915 h 10.548823 c 1.03602,0 1.8711,-0.83313 1.8711,-1.86915 V 48.87731 c 0,-1.03601 -0.83508,-1.86914 -1.8711,-1.86914 H 53.992191 c -1.03602,0 -1.8711,0.83313 -1.8711,1.86914 v 2.76953 c -1.48156,0.42448 -4.92666,1.26368 -9.07031,1.26368 -2.81444,0 -6.2933,-0.0582 -9.9375,-0.14258 v -7.52539 c 18.28155,-2.11021 17.65906,-13.776437 17.59375,-16.441407 -0.2173,-8.86637 3.90916,-10.76938 7.18359,-11.26953 -0.0837,1.79651 0.22336,3.7103 1.05664,5.76172 a 0.45028617,0.45028617 0 1 0 0.83399,-0.33984 c -0.81313,-2.00176 -1.09649,-3.81982 -0.99414,-5.51954 0.79716,-0.0728 1.53223,-0.10353 2.05273,-0.15625 -0.75411,-0.33888 -1.3688,-0.73578 -1.89453,-1.15429 0.1587,-0.85509 0.40556,-1.68433 0.75,-2.48828 1.17738,-2.74819 3.378503,-5.2390595 5.986333,-7.6347695 a 0.45004499,0.45004499 0 0 0 -0.29492,-0.78711 z m 2.5664,1.80274 c -1.08152,0.0575 -2.01353,0.79381 -2.9082,1.69726 2.46017,2.3308995 4.16729,1.25066 5.75781,-0.35547 -1.07632,-1.01977 -2.00842,-1.38652 -2.84961,-1.34179 z m -3.58398,4.3027295 c -0.9501,2.3e-4 -1.887613,0.50428 -2.820313,1.14258 1.975323,2.75385 3.855303,2.01487 5.720703,0.73828 -0.98766,-1.37693 -1.95029,-1.88109 -2.90039,-1.88086 z M 52.738281,41.86755 c -1.03602,0 -1.87109,0.83507 -1.87109,1.87109 v 0.38086 c 0,1.03602 0.83507,1.86914 1.87109,1.86914 h 12.970703 c 1.03602,0 1.86914,-0.83312 1.86914,-1.86914 v -0.38086 c 0,-1.03602 -0.83312,-1.87109 -1.86914,-1.87109 z m -21.6875,3.56445 v 7.28516 c -0.78765,-0.0202 -1.55304,-0.05 -2.34766,-0.0723 v -7.09961 c 0.81149,-0.0223 1.59473,-0.06 2.34766,-0.11328 z M 1.8710907,50.50622 C 0.83507073,50.50622 7.276055e-7,51.33934 7.276055e-7,52.37536 v 3.16602 c 0,1.03601 0.8350700023945,1.86914 1.8710899723945,1.86914 h 0.52735 c 1.03601,0 1.86914,-0.83313 1.86914,-1.86914 v -3.16602 c 0,-1.03602 -0.83313,-1.86914 -1.86914,-1.86914 z m 50.8671903,11.4043 c -1.03602,0 -1.87109,0.83507 -1.87109,1.87109 v 0.38086 c 0,1.03602 0.83507,1.87109 1.87109,1.87109 h 12.970703 c 1.03602,0 1.86914,-0.83507 1.86914,-1.87109 v -0.38086 c 0,-1.03602 -0.83312,-1.87109 -1.86914,-1.87109 z"
     id="rect8292-7-8" />
</svg>
