<?xml version="1.0" encoding="UTF-8" standalone="no"?>
<!-- Created with Inkscape (http://www.inkscape.org/) -->

<svg
   version="1.1"
   id="svg2"
   width="112.6541"
   height="48.53302"
   viewBox="0 0 112.6541 48.53302"
   sodipodi:docname="sdg_1.svg"
   inkscape:version="0.92.3 (2405546, 2018-03-11)"
   inkscape:export-filename="sdg_1.svg"
   inkscape:export-xdpi="96"
   inkscape:export-ydpi="96"
   xmlns:inkscape="http://www.inkscape.org/namespaces/inkscape"
   xmlns:sodipodi="http://sodipodi.sourceforge.net/DTD/sodipodi-0.dtd"
   xmlns="http://www.w3.org/2000/svg"
   xmlns:svg="http://www.w3.org/2000/svg"
   xmlns:rdf="http://www.w3.org/1999/02/22-rdf-syntax-ns#"
   xmlns:cc="http://creativecommons.org/ns#"
   xmlns:dc="http://purl.org/dc/elements/1.1/">
  <metadata
     id="metadata8">
    <rdf:RDF>
      <cc:Work
         rdf:about="">
        <dc:format>image/svg+xml</dc:format>
        <dc:type
           rdf:resource="http://purl.org/dc/dcmitype/StillImage" />
        <dc:title />
      </cc:Work>
    </rdf:RDF>
  </metadata>
  <defs
     id="defs6" />
  <sodipodi:namedview
     pagecolor="#ffffff"
     bordercolor="#666666"
     borderopacity="1"
     objecttolerance="10"
     gridtolerance="10"
     guidetolerance="10"
     inkscape:pageopacity="0"
     inkscape:pageshadow="2"
     inkscape:window-width="1920"
     inkscape:window-height="1061"
     id="namedview4"
     showgrid="false"
     inkscape:zoom="1.0772059"
     inkscape:cx="528"
     inkscape:cy="408"
     inkscape:window-x="1920"
     inkscape:window-y="0"
     inkscape:window-maximized="1"
     inkscape:current-layer="svg2"
     showguides="true"
     inkscape:guide-bbox="true"
     inkscape:snap-global="true"
     inkscape:snap-center="true"
     inkscape:snap-object-midpoints="true"
     inkscape:snap-bbox="true"
     inkscape:snap-bbox-midpoints="true"
     inkscape:showpageshadow="2"
     inkscape:pagecheckerboard="0"
     inkscape:deskcolor="#d1d1d1" />
  <style
     id="style970"
     type="text/css">
	.st0{fill:#418FDE;}
</style>
  <path
     style="opacity:1;fill:#ffffff;fill-opacity:1;fill-rule:evenodd;stroke:none;stroke-width:0.1;stroke-linecap:round;stroke-linejoin:round;stroke-miterlimit:4;stroke-dasharray:none;stroke-dashoffset:0;stroke-opacity:1"
     d="m 16.82198,4.1184113 a 4.1184053,4.1184053 0 0 1 -4.118405,4.1184 4.1184053,4.1184053 0 0 1 -4.1184062,-4.1184 A 4.1184053,4.1184053 0 0 1 12.703575,1.3284896e-6 4.1184053,4.1184053 0 0 1 16.82198,4.1184113 Z"
     id="path6660" />
  <path
     style="opacity:1;fill:#ffffff;fill-opacity:1;fill-rule:evenodd;stroke:none;stroke-width:0.1;stroke-linecap:round;stroke-linejoin:round;stroke-miterlimit:4;stroke-dasharray:none;stroke-dashoffset:0;stroke-opacity:1"
     d="m 51.697973,6.3984413 a 4.1184053,4.1184053 0 0 1 -4.11841,4.1183997 4.1184053,4.1184053 0 0 1 -4.1184,-4.1183997 4.1184053,4.1184053 0 0 1 4.1184,-4.11841 4.1184053,4.1184053 0 0 1 4.11841,4.11841 z"
     id="path6660-6" />
  <path
     style="opacity:1;fill:#ffffff;fill-opacity:1;fill-rule:evenodd;stroke:none;stroke-width:0.1;stroke-linecap:round;stroke-linejoin:round;stroke-miterlimit:4;stroke-dasharray:none;stroke-dashoffset:0;stroke-opacity:1"
     d="m 74.794243,6.3984413 a 4.1184053,4.1184053 0 0 1 -4.11841,4.1183997 4.1184053,4.1184053 0 0 1 -4.1184,-4.1183997 4.1184053,4.1184053 0 0 1 4.1184,-4.11841 4.1184053,4.1184053 0 0 1 4.11841,4.11841 z"
     id="path6660-1" />
  <path
     style="opacity:1;fill:#ffffff;fill-opacity:1;fill-rule:evenodd;stroke:none;stroke-width:0.1;stroke-linecap:round;stroke-linejoin:round;stroke-miterlimit:4;stroke-dasharray:none;stroke-dashoffset:0;stroke-opacity:1"
     d="m 107.14177,4.2134413 a 4.1184053,4.1184053 0 0 1 -4.1184,4.1184 4.1184053,4.1184053 0 0 1 -4.11841,-4.1184 4.1184053,4.1184053 0 0 1 4.11841,-4.11840997 4.1184053,4.1184053 0 0 1 4.1184,4.11840997 z"
     id="path6660-7" />
  <path
     style="opacity:1;fill:#ffffff;fill-opacity:1;fill-rule:evenodd;stroke:none;stroke-width:0.1;stroke-linecap:round;stroke-linejoin:round;stroke-miterlimit:4;stroke-dasharray:none;stroke-dashoffset:0;stroke-opacity:1"
     d="m 32.535279,24.837161 a 3.2947245,3.2947245 0 0 1 -3.294725,3.29472 3.2947245,3.2947245 0 0 1 -3.294724,-3.29472 3.2947245,3.2947245 0 0 1 3.294724,-3.29473 3.2947245,3.2947245 0 0 1 3.294725,3.29473 z"
     id="path6660-2" />
  <path
     style="opacity:1;fill:#ffffff;fill-opacity:1;fill-rule:evenodd;stroke:none;stroke-width:0.1;stroke-linecap:round;stroke-linejoin:round;stroke-miterlimit:4;stroke-dasharray:none;stroke-dashoffset:0;stroke-opacity:1"
     d="m 90.86793,24.837161 a 3.2947245,3.2947245 0 0 1 -3.29473,3.29472 3.2947245,3.2947245 0 0 1 -3.294717,-3.29472 3.2947245,3.2947245 0 0 1 3.294717,-3.29473 3.2947245,3.2947245 0 0 1 3.29473,3.29473 z"
     id="path6660-2-9" />
  <path
     style="opacity:1;fill:#ffffff;fill-opacity:1;fill-rule:evenodd;stroke:none;stroke-width:0.1;stroke-linecap:round;stroke-linejoin:round;stroke-miterlimit:4;stroke-dasharray:none;stroke-dashoffset:0;stroke-opacity:1"
     d="m 102.19968,29.367391 v 16.853785 c 0,2.88369 -4.24512,2.89661 -4.24512,0 V 16.695381 c 0,-1.06759 -1.45729,-1.15565 -1.45729,0 v 9.94753 c 0,2.35313 -3.10464,2.45191 -3.10464,0 v -12.10178 c 0,-2.47724 1.87488,-4.6252797 4.62529,-4.6252797 h 10.01089 c 2.75041,0 4.62529,2.1480397 4.62529,4.6252797 v 12.10178 c 0,2.45191 -3.10464,2.35313 -3.10464,0 v -9.94753 c 0,-1.15565 -1.45729,-1.06759 -1.45729,0 v 29.525795 c 0,2.89661 -4.24512,2.88369 -4.24512,0 V 29.367391 c 0,-0.93298 -1.64737,-0.96453 -1.64737,0 z"
     id="path6858" />
  <path
     style="opacity:1;fill:#ffffff;fill-opacity:1;fill-rule:evenodd;stroke:none;stroke-width:0.1;stroke-linecap:round;stroke-linejoin:round;stroke-miterlimit:4;stroke-dasharray:none;stroke-dashoffset:0;stroke-opacity:1"
     d="m 7.5613778,9.9160813 c -2.75041,0 -4.625,2.1477597 -4.625,4.6249997 v 12.10156 c 0,0.83151 0.358138,1.36277 0.830078,1.61914 L 0.02231483,46.980526 c -0.2196,1.09801 1.24923297,1.33794 1.44335997,0.27344 l 3.443359,-18.882815 c 0.612351,-0.18908 1.13086,-0.7679 1.13086,-1.72851 v -9.94727 c 0,-1.15565 1.457031,-1.06759 1.457031,0 v 29.525385 c 0,2.89661 4.2460942,2.88369 4.2460942,0 V 29.367251 c 0,-0.96453 1.646484,-0.93298 1.646484,0 v 16.853505 c 0,2.88369 4.246094,2.89661 4.246094,0 V 16.695371 c 0,-1.06759 1.457031,-1.15565 1.457031,0 v 9.94727 c 0,2.35313 3.103516,2.45191 3.103516,0 v -12.10156 c 0,-2.47724 -1.87459,-4.6249997 -4.625,-4.6249997 z"
     id="path6853" />
  <path
     id="path6660-7-6-5-9-4"
     style="opacity:1;fill:#ffffff;fill-opacity:1;fill-rule:evenodd;stroke:none;stroke-width:0.1;stroke-linecap:round;stroke-linejoin:round;stroke-miterlimit:4;stroke-dasharray:none;stroke-dashoffset:0;stroke-opacity:1"
     d="m 46.850323,34.403446 v 11.93165 c 0,2.95484 -4.1234,2.90619 -4.1234,0 v -11.93165 h -3.952012 l 4.478942,-15.895865 c 0.20244,-0.71847 -0.97798,-1.25089 -1.27342,-0.30738 l -2.7225,8.69443 c -0.643776,2.05593 -3.403831,1.32643 -2.678584,-1.05387 l 3.425074,-11.24128 c 0.39114,-1.28373 1.70041,-2.28338 3.1177,-2.28338 h 8.74084 c 1.41729,0 2.72656,0.99965 3.1177,2.28338 l 3.42507,11.24128 c 0.72525,2.3803 -2.03481,3.1098 -2.67858,1.05387 l -2.7225,-8.69443 c -0.29544,-0.94351 -1.47586,-0.41109 -1.27342,0.30738 l 4.47894,15.895865 h -3.95201 v 11.93165 c 0,2.90619 -4.12341,2.95484 -4.12341,0 v -11.93165 z"
     inkscape:connector-curvature="0"
     sodipodi:nodetypes="cssccccssccccccccccsscc" />
  <path
     style="opacity:1;fill:#ffffff;fill-opacity:1;fill-rule:evenodd;stroke:none;stroke-width:0.1;stroke-linecap:round;stroke-linejoin:round;stroke-miterlimit:4;stroke-dasharray:none;stroke-dashoffset:0;stroke-opacity:1"
     d="m 70.075673,34.403446 v 11.93165 c 0,2.95484 -4.1234,2.90619 -4.1234,0 v -11.93165 h -3.95201 l 4.47894,-15.895865 c 0.20244,-0.71847 -0.97798,-1.25089 -1.27342,-0.30738 l -2.7225,8.69443 c -0.64377,2.05593 -3.40383,1.32643 -2.67858,-1.05387 l 3.42507,-11.24128 c 0.39114,-1.28373 1.70041,-2.28338 3.1177,-2.28338 h 8.74084 c 1.41729,0 2.72656,0.99965 3.1177,2.28338 l 3.42507,11.24128 c 0.72525,2.3803 -2.03481,3.1098 -2.67858,1.05387 l -2.7225,-8.69443 c -0.29544,-0.94351 -1.47586,-0.41109 -1.27342,0.30738 l 4.47894,15.895865 h -3.95201 v 11.93165 c 0,2.90619 -4.12341,2.95484 -4.12341,0 v -11.93165 z"
     id="path6813" />
  <path
     style="opacity:1;fill:#ffffff;fill-opacity:1;fill-rule:evenodd;stroke:none;stroke-width:0.1;stroke-linecap:round;stroke-linejoin:round;stroke-miterlimit:4;stroke-dasharray:none;stroke-dashoffset:0;stroke-opacity:1"
     d="m 88.36547,41.648786 v 4.96197 c 0,2.10709 2.89815,2.37078 2.89815,0 v -11.83408 c 0,-0.62722 0.67204,-0.64583 0.90018,-0.0439 l 1.518,4.00512 c 0.51698,1.36401 2.10676,0.7832 1.53689,-0.61476 l -3.01098,-7.386275 c -0.26121,-0.64079 -0.89914,-1.16365 -1.75645,-1.16365 h -5.635417 c -0.85731,0 -1.49524,0.52286 -1.75645,1.16365 l -3.01098,7.386275 c -0.56987,1.39796 1.01991,1.97877 1.53689,0.61476 l 1.518,-4.00512 c 0.22814,-0.60193 0.90018,-0.58332 0.90018,0.0439 v 11.83408 c 0,2.37078 2.898147,2.10709 2.898147,0 v -4.96197 c 0,-0.88013 1.46384,-0.94265 1.46384,0 z"
     id="path6833" />
  <path
     id="path6660-7-6-5-9-4-3-7-8"
     style="opacity:1;fill:#ffffff;fill-opacity:1;fill-rule:evenodd;stroke:none;stroke-width:0.1;stroke-linecap:round;stroke-linejoin:round;stroke-miterlimit:4;stroke-dasharray:none;stroke-dashoffset:0;stroke-opacity:1"
     d="m 28.644334,41.950506 v 5.06913 c 0,1.82095 -2.651544,2.12845 -2.651544,0 v -5.57604 h -1.832685 l 1.598725,-5.81001 c 0.274838,-0.9988 0.06362,-2.01834 -0.428926,-2.885495 l -2.768524,-4.87416 c -0.829815,-1.46094 1.189593,-2.27427 1.832685,-1.24779 l 2.027651,3.23645 c 0.299693,0.47832 0.671558,0.42892 1.130806,0.42892 h 3.780504 c 0.459248,0 0.831113,0.0494 1.130806,-0.42892 l 2.027651,-3.23645 c 0.643092,-1.02648 2.6625,-0.21315 1.832685,1.24779 l -2.768524,4.87416 c -0.492549,0.867155 -0.703764,1.886695 -0.428926,2.885495 l 1.598725,5.81001 h -1.832685 v 5.57604 c 0,2.12845 -2.651544,1.82095 -2.651544,0 v -5.06913 c 0,-1.1454 -1.59688,-1.11387 -1.59688,0 z"
     inkscape:connector-curvature="0"
     sodipodi:nodetypes="sssccscsccccccscsccssss" />
</svg>
