<?xml version="1.0" encoding="UTF-8" standalone="no"?>
<!-- Created with Inkscape (http://www.inkscape.org/) -->

<svg
   version="1.1"
   id="svg2"
   width="72.527008"
   height="70.963272"
   viewBox="0 0 72.527006 70.96327"
   sodipodi:docname="sdg_15.svg"
   inkscape:version="0.92.3 (2405546, 2018-03-11)"
   inkscape:export-filename="sdg_1.svg"
   inkscape:export-xdpi="96"
   inkscape:export-ydpi="96"
   xmlns:inkscape="http://www.inkscape.org/namespaces/inkscape"
   xmlns:sodipodi="http://sodipodi.sourceforge.net/DTD/sodipodi-0.dtd"
   xmlns="http://www.w3.org/2000/svg"
   xmlns:svg="http://www.w3.org/2000/svg"
   xmlns:rdf="http://www.w3.org/1999/02/22-rdf-syntax-ns#"
   xmlns:cc="http://creativecommons.org/ns#"
   xmlns:dc="http://purl.org/dc/elements/1.1/">
  <metadata
     id="metadata8">
    <rdf:RDF>
      <cc:Work
         rdf:about="">
        <dc:format>image/svg+xml</dc:format>
        <dc:type
           rdf:resource="http://purl.org/dc/dcmitype/StillImage" />
        <dc:title />
      </cc:Work>
    </rdf:RDF>
  </metadata>
  <defs
     id="defs6" />
  <sodipodi:namedview
     pagecolor="#ffffff"
     bordercolor="#666666"
     borderopacity="1"
     objecttolerance="10"
     gridtolerance="10"
     guidetolerance="10"
     inkscape:pageopacity="0"
     inkscape:pageshadow="2"
     inkscape:window-width="1920"
     inkscape:window-height="1061"
     id="namedview4"
     showgrid="false"
     inkscape:zoom="1.0772059"
     inkscape:cx="528"
     inkscape:cy="408"
     inkscape:window-x="1920"
     inkscape:window-y="0"
     inkscape:window-maximized="1"
     inkscape:current-layer="svg2"
     showguides="true"
     inkscape:guide-bbox="true"
     inkscape:snap-global="true"
     inkscape:snap-center="true"
     inkscape:snap-object-midpoints="true"
     inkscape:snap-bbox="true"
     inkscape:snap-bbox-midpoints="true"
     inkscape:showpageshadow="2"
     inkscape:pagecheckerboard="0"
     inkscape:deskcolor="#d1d1d1" />
  <style
     id="style970"
     type="text/css">
	.st0{fill:#418FDE;}
</style>
  <path
     style="fill:#ffffff;stroke:none;stroke-width:1px;stroke-linecap:butt;stroke-linejoin:miter;stroke-opacity:1"
     d="M 10.759739,9.7251269 C -0.39592099,10.498677 0.76586901,21.337777 6.194259,24.423727 c -4.58714,7.2031 -0.0344,14.03049 5.4563,14.03049 h 17.92784 c 9.86825,0 16.8023,-16.75104 1.39191,-23.66252 5.6227,-19.4825501 -20.37156,-18.1647001 -20.21057,-5.0665701 z"
     id="path8267"
     inkscape:connector-curvature="0"
     sodipodi:nodetypes="ccsscc" />
  <path
     style="fill:#ffffff;stroke:none;stroke-width:0.2;stroke-linecap:butt;stroke-linejoin:miter;stroke-miterlimit:4;stroke-dasharray:none;stroke-opacity:1"
     d="m 47.470069,30.607227 c 5.00251,-2.32028 11.10213,2.83459 11.10213,2.83459 0,0 5.22925,-4.86692 10.94465,-2.75585 1.46989,0.54293 1.35731,-0.9857 0.86612,-1.33856 -2.91685,-2.09539 -6.57027,-4.11439 -11.6533,-0.0787 -6.14183,-3.92985 -9.54357,-2.14729 -11.96825,0 -0.63599,0.56323 -0.41367,1.85908 0.70865,1.33852 z"
     id="path8269"
     inkscape:connector-curvature="0"
     sodipodi:nodetypes="scsscss" />
  <path
     style="fill:#ffffff;stroke:none;stroke-width:0.165465;stroke-linecap:butt;stroke-linejoin:miter;stroke-miterlimit:4;stroke-dasharray:none;stroke-opacity:1"
     d="m 39.869799,12.583657 c 3.95448,-2.27507 9.35531,1.53087 9.35531,1.53087 0,0 3.95665,-4.3903101 8.82006,-3.06502 1.25078,0.34083 1.04712,-0.91081 0.61671,-1.1659901 -2.55586,-1.51534 -5.71324,-2.91429 -9.60966,0.7803601 -5.34677,-2.7932801 -8.021,-1.0774701 -9.86353,0.86806 -0.4833,0.51032 -0.20608,1.56215 0.68111,1.05173 z"
     id="path8269-7"
     inkscape:connector-curvature="0"
     sodipodi:nodetypes="scsscss" />
  <path
     style="fill:#ffffff;stroke:none;stroke-width:0.133118;stroke-linecap:butt;stroke-linejoin:miter;stroke-miterlimit:4;stroke-dasharray:none;stroke-opacity:1"
     d="m 54.211009,1.7307769 c 3.63094,-0.53623 6.55055,3.90562 6.55055,3.90562 0,0 4.25655,-2.11879 7.50569,0.30784 0.83563,0.6241 1.05244,-0.37281 0.80558,-0.69076 -1.46598,-1.88817 -3.41647,-3.86667 -7.42274,-2.25079 -3.17786,-3.66797003 -5.6856,-3.17264003 -7.63861,-2.26002003 -0.51228,0.23938 -0.61508,1.10842003 0.19953,0.98810003 z"
     id="path8269-3"
     inkscape:connector-curvature="0"
     sodipodi:nodetypes="scsscss" />
  <path
     style="opacity:1;fill:#ffffff;fill-opacity:1;fill-rule:evenodd;stroke:none;stroke-width:0.2;stroke-linecap:round;stroke-linejoin:round;stroke-miterlimit:4;stroke-dasharray:none;stroke-dashoffset:0;stroke-opacity:1"
     d="m 20.423399,41.255164 h 3.71982 c 0.45802,0 0.82675,0.36873 0.82675,0.82675 v 9.91232 c 0,0.45803 -0.36873,0.82676 -0.82675,0.82676 h -3.71982 c -0.45802,0 -0.82675,-0.36873 -0.82675,-0.82676 v -9.91232 c 0,-0.45802 0.36873,-0.82675 0.82675,-0.82675 z"
     id="rect8292" />
  <path
     style="opacity:1;fill:#ffffff;fill-opacity:1;fill-rule:evenodd;stroke:none;stroke-width:0.2;stroke-linecap:round;stroke-linejoin:round;stroke-miterlimit:4;stroke-dasharray:none;stroke-dashoffset:0;stroke-opacity:1"
     d="M 0.82674901,57.280314 H 71.700249 c 0.45803,0 0.82676,0.36873 0.82676,0.82675 v 3.52566 c 0,0.45802 -0.36873,0.82675 -0.82676,0.82675 H 0.82674901 c -0.45802,0 -0.82675000368582,-0.36873 -0.82675000368582,-0.82675 v -3.52566 c 0,-0.45802 0.36873000368582,-0.82675 0.82675000368582,-0.82675 z"
     id="rect8292-7" />
  <path
     style="opacity:1;fill:#ffffff;fill-opacity:1;fill-rule:evenodd;stroke:none;stroke-width:0.2;stroke-linecap:round;stroke-linejoin:round;stroke-miterlimit:4;stroke-dasharray:none;stroke-dashoffset:0;stroke-opacity:1"
     d="M 0.82674901,65.784094 H 71.700249 c 0.45803,0 0.82676,0.36873 0.82676,0.82675 v 3.52566 c 0,0.45802 -0.36873,0.82676 -0.82676,0.82676 H 0.82674901 c -0.45802,0 -0.82675000368582,-0.36874 -0.82675000368582,-0.82676 v -3.52566 c 0,-0.45802 0.36873000368582,-0.82675 0.82675000368582,-0.82675 z"
     id="rect8292-7-1" />
</svg>
