<?xml version="1.0" encoding="UTF-8" standalone="no"?>
<!-- Created with Inkscape (http://www.inkscape.org/) -->

<svg
   version="1.1"
   id="svg2"
   width="100.3867"
   height="75.070312"
   viewBox="0 0 100.3867 75.07031"
   sodipodi:docname="sdg_11.svg"
   inkscape:version="0.92.3 (2405546, 2018-03-11)"
   inkscape:export-filename="sdg_1.svg"
   inkscape:export-xdpi="96"
   inkscape:export-ydpi="96"
   xmlns:inkscape="http://www.inkscape.org/namespaces/inkscape"
   xmlns:sodipodi="http://sodipodi.sourceforge.net/DTD/sodipodi-0.dtd"
   xmlns="http://www.w3.org/2000/svg"
   xmlns:svg="http://www.w3.org/2000/svg"
   xmlns:rdf="http://www.w3.org/1999/02/22-rdf-syntax-ns#"
   xmlns:cc="http://creativecommons.org/ns#"
   xmlns:dc="http://purl.org/dc/elements/1.1/">
  <metadata
     id="metadata8">
    <rdf:RDF>
      <cc:Work
         rdf:about="">
        <dc:format>image/svg+xml</dc:format>
        <dc:type
           rdf:resource="http://purl.org/dc/dcmitype/StillImage" />
        <dc:title />
      </cc:Work>
    </rdf:RDF>
  </metadata>
  <defs
     id="defs6" />
  <sodipodi:namedview
     pagecolor="#ffffff"
     bordercolor="#666666"
     borderopacity="1"
     objecttolerance="10"
     gridtolerance="10"
     guidetolerance="10"
     inkscape:pageopacity="0"
     inkscape:pageshadow="2"
     inkscape:window-width="1920"
     inkscape:window-height="1061"
     id="namedview4"
     showgrid="false"
     inkscape:zoom="1.0772059"
     inkscape:cx="528"
     inkscape:cy="408"
     inkscape:window-x="1920"
     inkscape:window-y="0"
     inkscape:window-maximized="1"
     inkscape:current-layer="svg2"
     showguides="true"
     inkscape:guide-bbox="true"
     inkscape:snap-global="true"
     inkscape:snap-center="true"
     inkscape:snap-object-midpoints="true"
     inkscape:snap-bbox="true"
     inkscape:snap-bbox-midpoints="true"
     inkscape:showpageshadow="2"
     inkscape:pagecheckerboard="0"
     inkscape:deskcolor="#d1d1d1" />
  <style
     id="style970"
     type="text/css">
	.st0{fill:#418FDE;}
</style>
  <path
     id="path7902-0"
     style="fill:#ffffff;stroke:none;stroke-width:0.1;stroke-linecap:butt;stroke-linejoin:miter;stroke-miterlimit:4;stroke-dasharray:none;stroke-opacity:1"
     d="m 12.62798,39.448878 10.48716,13.772293 c 0.38996,0.51212 0.28363,1.11809 -0.5497,1.11809 H 1.1795995 c -0.83332999,0 -0.93965999,-0.60597 -0.54969999,-1.11809 L 11.11706,39.448878 c 0.50796,-0.66709 1.00991,-0.65796 1.51092,0 z m 65.658256,5.172423 h 21.20321 c 0.49661,0 0.896414,0.3998 0.896414,0.89641 v 3.75614 c 0,0.49661 -0.399804,0.89641 -0.896414,0.89641 h -21.20321 c -0.49661,0 -0.89641,-0.3998 -0.89641,-0.89641 v -3.75614 c 0,-0.49661 0.3998,-0.89641 0.89641,-0.89641 z m 8.6e-4,7.07206 c -0.49661,0 -0.89648,0.39987 -0.89648,0.89648 v 21.58398 c 0,0.49662 0.39987,0.89649 0.89648,0.89649 h 21.20313 c 0.49661,0 0.896484,-0.39987 0.896484,-0.89649 v -21.58398 c 0,-0.49661 -0.399874,-0.89648 -0.896484,-0.89648 z m 3.10352,3.25781 h 5.41797 c 0.49661,0 0.89648,0.39987 0.89648,0.89648 v 2.51172 c 0,0.49661 -0.39987,0.89649 -0.89648,0.89649 h -5.41797 c -0.49661,0 -0.89453,-0.39988 -0.89453,-0.89649 v -2.51172 c 0,-0.49661 0.39792,-0.89648 0.89453,-0.89648 z m 9.96094,0 h 5.41601 c 0.49661,0 0.89649,0.39987 0.89649,0.89648 v 2.51172 c 0,0.49661 -0.39988,0.89649 -0.89649,0.89649 h -5.41601 c -0.49661,0 -0.89649,-0.39988 -0.89649,-0.89649 v -2.51172 c 0,-0.49661 0.39988,-0.89648 0.89649,-0.89648 z m -9.96094,7.37109 h 5.41797 c 0.49661,0 0.89648,0.39988 0.89648,0.89649 v 2.50976 c 0,0.49661 -0.39987,0.89649 -0.89648,0.89649 h -5.41797 c -0.49661,0 -0.89453,-0.39988 -0.89453,-0.89649 v -2.50976 c 0,-0.49661 0.39792,-0.89649 0.89453,-0.89649 z m 9.96094,0 h 5.41601 c 0.49661,0 0.89649,0.39988 0.89649,0.89649 v 2.50976 c 0,0.49661 -0.39988,0.89649 -0.89649,0.89649 h -5.41601 c -0.49661,0 -0.89649,-0.39988 -0.89649,-0.89649 v -2.50976 c 0,-0.49661 0.39988,-0.89649 0.89649,-0.89649 z M 27.32421,-2.404062e-6 C 26.8276,-2.404062e-6 26.42773,0.3998676 26.42773,0.8964776 V 74.173821 c 0,0.49662 0.39987,0.89649 0.89648,0.89649 h 20.70508 c 0.49661,0 0.89649,-0.39987 0.89649,-0.89649 V 0.8964776 c 0,-0.49661 -0.39988,-0.896480004062 -0.89649,-0.896480004062 z M 31.36914,10.251948 h 3.16211 c 0.49661,0 0.89648,0.39986 0.89648,0.89648 v 3.8125 c 0,0.49661 -0.39987,0.89649 -0.89648,0.89649 h -3.16211 c -0.49661,0 -0.89649,-0.39988 -0.89649,-0.89649 v -3.8125 c 0,-0.49662 0.39988,-0.89648 0.89649,-0.89648 z m 9.66211,0 h 3.16211 c 0.49661,0 0.89648,0.39986 0.89648,0.89648 v 3.8125 c 0,0.49661 -0.39987,0.89649 -0.89648,0.89649 h -3.16211 c -0.49661,0 -0.89649,-0.39988 -0.89649,-0.89649 v -3.8125 c 0,-0.49662 0.39988,-0.89648 0.89649,-0.89648 z m -9.66211,12.6875 h 3.16211 c 0.49661,0 0.89648,0.39987 0.89648,0.89648 v 3.8125 c 0,0.49661 -0.39987,0.89649 -0.89648,0.89649 h -3.16211 c -0.49661,0 -0.89649,-0.39988 -0.89649,-0.89649 v -3.8125 c 0,-0.49661 0.39988,-0.89648 0.89649,-0.89648 z m 9.66211,0 h 3.16211 c 0.49661,0 0.89648,0.39987 0.89648,0.89648 v 3.8125 c 0,0.49661 -0.39987,0.89649 -0.89648,0.89649 h -3.16211 c -0.49661,0 -0.89649,-0.39988 -0.89649,-0.89649 v -3.8125 c 0,-0.49661 0.39988,-0.89648 0.89649,-0.89648 z m -9.66211,12.6875 h 3.16211 c 0.49661,0 0.89648,0.39987 0.89648,0.89648 v 3.8125 c 0,0.49661 -0.39987,0.89649 -0.89648,0.89649 h -3.16211 c -0.49661,0 -0.89649,-0.39988 -0.89649,-0.89649 v -3.8125 c 0,-0.49661 0.39988,-0.89648 0.89649,-0.89648 z m 9.66211,0 h 3.16211 c 0.49661,0 0.89648,0.39987 0.89648,0.89648 v 3.8125 c 0,0.49661 -0.39987,0.89649 -0.89648,0.89649 h -3.16211 c -0.49661,0 -0.89649,-0.39988 -0.89649,-0.89649 v -3.8125 c 0,-0.49661 0.39988,-0.89648 0.89649,-0.89648 z m -9.66211,12.687503 h 3.16211 c 0.49661,0 0.89648,0.39987 0.89648,0.89648 v 3.8125 c 0,0.49661 -0.39987,0.89649 -0.89648,0.89649 h -3.16211 c -0.49661,0 -0.89649,-0.39988 -0.89649,-0.89649 v -3.8125 c 0,-0.49661 0.39988,-0.89648 0.89649,-0.89648 z m 9.66211,0 h 3.16211 c 0.49661,0 0.89648,0.39987 0.89648,0.89648 v 3.8125 c 0,0.49661 -0.39987,0.89649 -0.89648,0.89649 h -3.16211 c -0.49661,0 -0.89649,-0.39988 -0.89649,-0.89649 v -3.8125 c 0,-0.49661 0.39988,-0.89648 0.89649,-0.89648 z m -9.66211,12.6875 h 3.16211 c 0.49661,0 0.89648,0.39987 0.89648,0.89648 v 3.81446 c 0,0.49661 -0.39987,0.89648 -0.89648,0.89648 h -3.16211 c -0.49661,0 -0.89649,-0.39987 -0.89649,-0.89648 v -3.81446 c 0,-0.49661 0.39988,-0.89648 0.89649,-0.89648 z m 9.66211,0 h 3.16211 c 0.49661,0 0.89648,0.39987 0.89648,0.89648 v 3.81446 c 0,0.49661 -0.39987,0.89648 -0.89648,0.89648 h -3.16211 c -0.49661,0 -0.89649,-0.39987 -0.89649,-0.89648 v -3.81446 c 0,-0.49661 0.39988,-0.89648 0.89649,-0.89648 z m 11.42578,-18.92609 v 32.09796 c 0,0.49662 0.39987,0.89649 0.89648,0.89649 h 20.40625 c 0.49661,0 0.89649,-0.39987 0.89649,-0.89649 V 14.839838 c 0,-0.49661 -0.65682,-1.18349 -1.44393,-0.18665 l -19.97036,25.29154 c -0.68133,0.86288 -0.78493,1.12593 -0.78493,2.131133 z M 71.59375,21.998038 c 0.36295,-0.002 0.42382,0.86777 0.42382,1.24024 v 5.40039 c 0,0.49661 -0.39987,0.89648 -0.89648,0.89648 h -4.17188 c -0.53128,0 -1.43646,-0.22565 -0.89648,-0.89648 l 5.06836,-6.29688 c 0.19705,-0.2448 0.35167,-0.34309 0.47266,-0.34375 z m -5.88868,10.60352 h 5.41602 c 0.49661,0 0.89648,0.39986 0.89648,0.89648 v 2.50977 c 0,0.49661 -0.39987,0.89648 -0.89648,0.89648 h -5.41602 c -0.49661,0 -0.89648,-0.39987 -0.89648,-0.89648 v -2.50977 c 0,-0.49662 0.39987,-0.89648 0.89648,-0.89648 z m -4.09179,1.98242 c 0.35618,-0.0737 0.44336,0.74005 0.44336,1.30859 v 7.687503 c 0,0.49661 -0.39987,0.89649 -0.89649,0.89649 h -5.13476 c -0.49661,0 -1.24941,-0.39418 -0.89649,-0.89649 l 6.03125,-8.583983 c 0.18502,-0.26333 0.3344,-0.38755 0.45313,-0.41211 z m 4.09179,5.36523 h 5.41602 c 0.49661,0 0.89648,0.39988 0.89648,0.89649 v 2.511723 c 0,0.49661 -0.39987,0.89648 -0.89648,0.89648 h -5.41602 c -0.49661,0 -0.89648,-0.39987 -0.89648,-0.89648 v -2.511723 c 0,-0.49661 0.39987,-0.89649 0.89648,-0.89649 z m -9.67968,7.371103 h 5.13476 c 0.49661,0 0.89649,0.39987 0.89649,0.89648 v 2.51172 c 0,0.49662 -0.39988,0.89649 -0.89649,0.89649 h -5.13476 c -0.49661,0 -0.89649,-0.39987 -0.89649,-0.89649 v -2.51172 c 0,-0.49661 0.39988,-0.89648 0.89649,-0.89648 z m 9.67968,0 h 5.41602 c 0.49661,0 0.89648,0.39987 0.89648,0.89648 v 2.51172 c 0,0.49661 -0.39987,0.89649 -0.89648,0.89649 h -5.41602 c -0.49661,0 -0.89648,-0.39988 -0.89648,-0.89649 v -2.51172 c 0,-0.49661 0.39987,-0.89648 0.89648,-0.89648 z m -9.67968,7.63086 h 5.13476 c 0.49661,0 0.89649,0.39987 0.89649,0.89648 v 2.51172 c 0,0.49661 -0.39988,0.89649 -0.89649,0.89649 h -5.13476 c -0.49661,0 -0.89649,-0.39988 -0.89649,-0.89649 v -2.51172 c 0,-0.49661 0.39988,-0.89648 0.89649,-0.89648 z m 9.67968,0 h 5.41602 c 0.49661,0 0.89648,0.39987 0.89648,0.89648 v 2.51172 c 0,0.49661 -0.39987,0.89649 -0.89648,0.89649 h -5.41602 c -0.49661,0 -0.89648,-0.39988 -0.89648,-0.89649 v -2.51172 c 0,-0.49661 0.39987,-0.89648 0.89648,-0.89648 z m -9.67968,7.37109 h 5.13476 c 0.49661,0 0.89649,0.39988 0.89649,0.89649 v 2.50976 c 0,0.49661 -0.39988,0.89649 -0.89649,0.89649 h -5.13476 c -0.49661,0 -0.89649,-0.39988 -0.89649,-0.89649 v -2.50976 c 0,-0.49661 0.39988,-0.89649 0.89649,-0.89649 z m 9.67968,0 h 5.41602 c 0.49661,0 0.89648,0.39988 0.89648,0.89649 v 2.50976 c 0,0.49661 -0.39987,0.89649 -0.89648,0.89649 h -5.41602 c -0.49661,0 -0.89648,-0.39988 -0.89648,-0.89649 v -2.50976 c 0,-0.49661 0.39987,-0.89649 0.89648,-0.89649 z M 0.89647951,56.375001 c -0.49661,0 -0.89648000067796,0.39987 -0.89648000067796,0.89648 v 16.90234 c 0,0.49662 0.39987000067796,0.89649 0.89648000067796,0.89649 H 8.1347595 c -0.002,-0.0333 -0.01,-0.0656 -0.01,-0.0996 v -9.83984 c 0,-0.7725 0.62203,-1.39454 1.39453,-1.39454 H 14.07593 c 0.77249,0 1.39453,0.62204 1.39453,1.39454 v 9.83984 c 0,0.0339 -0.007,0.0663 -0.01,0.0996 h 6.83789 c 0.49662,0 0.89649,-0.39987 0.89649,-0.89649 v -16.90234 c 0,-0.49661 -0.39987,-0.89648 -0.89649,-0.89648 z" />
</svg>
