<?xml version="1.0" encoding="UTF-8" standalone="no"?>
<!-- Created with Inkscape (http://www.inkscape.org/) -->

<svg
   version="1.1"
   id="svg2"
   width="55.180183"
   height="75.375"
   viewBox="0 0 55.180182 75.375"
   sodipodi:docname="sdg_6.svg"
   inkscape:version="0.92.3 (2405546, 2018-03-11)"
   inkscape:export-filename="sdg_1.svg"
   inkscape:export-xdpi="96"
   inkscape:export-ydpi="96"
   xmlns:inkscape="http://www.inkscape.org/namespaces/inkscape"
   xmlns:sodipodi="http://sodipodi.sourceforge.net/DTD/sodipodi-0.dtd"
   xmlns="http://www.w3.org/2000/svg"
   xmlns:svg="http://www.w3.org/2000/svg"
   xmlns:rdf="http://www.w3.org/1999/02/22-rdf-syntax-ns#"
   xmlns:cc="http://creativecommons.org/ns#"
   xmlns:dc="http://purl.org/dc/elements/1.1/">
  <metadata
     id="metadata8">
    <rdf:RDF>
      <cc:Work
         rdf:about="">
        <dc:format>image/svg+xml</dc:format>
        <dc:type
           rdf:resource="http://purl.org/dc/dcmitype/StillImage" />
        <dc:title />
      </cc:Work>
    </rdf:RDF>
  </metadata>
  <defs
     id="defs6" />
  <sodipodi:namedview
     pagecolor="#ffffff"
     bordercolor="#666666"
     borderopacity="1"
     objecttolerance="10"
     gridtolerance="10"
     guidetolerance="10"
     inkscape:pageopacity="0"
     inkscape:pageshadow="2"
     inkscape:window-width="1920"
     inkscape:window-height="1061"
     id="namedview4"
     showgrid="false"
     inkscape:zoom="1.0772059"
     inkscape:cx="528"
     inkscape:cy="408"
     inkscape:window-x="1920"
     inkscape:window-y="0"
     inkscape:window-maximized="1"
     inkscape:current-layer="svg2"
     showguides="true"
     inkscape:guide-bbox="true"
     inkscape:snap-global="true"
     inkscape:snap-center="true"
     inkscape:snap-object-midpoints="true"
     inkscape:snap-bbox="true"
     inkscape:snap-bbox-midpoints="true"
     inkscape:showpageshadow="2"
     inkscape:pagecheckerboard="0"
     inkscape:deskcolor="#d1d1d1" />
  <style
     id="style970"
     type="text/css">
	.st0{fill:#418FDE;}
</style>
  <path
     style="fill:#ffffff;stroke:none;stroke-width:1px;stroke-linecap:butt;stroke-linejoin:miter;stroke-opacity:1"
     d="M 1.269781,-1.6067335e-6 C 0.56058103,-1.6067335e-6 -0.13251897,0.62262839 0.02173103,1.5605484 L 8.756111,54.667963 c 0.11306,0.68745 0.54915,1.32617 1.24805,1.32617 h 10.60546 l 0.78126,8.65625 h -4.52344 l 10.72265,10.72461 10.72266,-10.72461 h -4.52344 l 0.78125,-8.65625 h 10.60547 c 0.6989,0 1.13499,-0.63872 1.24805,-1.32617 L 55.158449,1.5605484 C 55.312699,0.62262839 54.619609,-1.6067335e-6 53.910409,-1.6067335e-6 Z M 2.883061,2.6464884 h 49.41406 l -1.45898,8.8730396 c -5.72741,-0.66289 -14.31476,6.67387 -23.96289,1.82617 -11.87489,-5.9665096 -12.13217,0.46526 -22.24609,-0.0781 z m 24.66797,18.5663996 c 4.66247,8.07562 8.64258,11.18628 8.64258,16.65039 0,3.651915 -2.30479,8.382815 -8.64258,8.382815 -6.33779,0 -8.64258,-4.7309 -8.64258,-8.382815 0,-5.46411 3.98012,-8.57477 8.64258,-16.65039 z"
     id="path7044-1" />
</svg>
